G75*
%MOIN*%
%OFA0B0*%
%FSLAX24Y24*%
%IPPOS*%
%LPD*%
%AMOC8*
5,1,8,0,0,1.08239X$1,22.5*
%
%ADD10C,0.0000*%
%ADD11R,0.0433X0.0394*%
%ADD12R,0.0669X0.0236*%
%ADD13R,0.0945X0.0945*%
%ADD14R,0.0551X0.0394*%
%ADD15R,0.0394X0.0433*%
%ADD16R,0.0315X0.0315*%
D10*
X003149Y005613D02*
X019291Y005613D01*
X019353Y005615D01*
X019414Y005621D01*
X019475Y005630D01*
X019536Y005644D01*
X019595Y005661D01*
X019653Y005682D01*
X019710Y005707D01*
X019765Y005735D01*
X019818Y005766D01*
X019869Y005801D01*
X019918Y005839D01*
X019965Y005880D01*
X020008Y005923D01*
X020049Y005970D01*
X020087Y006019D01*
X020122Y006070D01*
X020153Y006123D01*
X020181Y006178D01*
X020206Y006235D01*
X020227Y006293D01*
X020244Y006352D01*
X020258Y006413D01*
X020267Y006474D01*
X020273Y006535D01*
X020275Y006597D01*
X020275Y037109D01*
X020273Y037171D01*
X020267Y037232D01*
X020258Y037293D01*
X020244Y037354D01*
X020227Y037413D01*
X020206Y037471D01*
X020181Y037528D01*
X020153Y037583D01*
X020122Y037636D01*
X020087Y037687D01*
X020049Y037736D01*
X020008Y037783D01*
X019965Y037826D01*
X019918Y037867D01*
X019869Y037905D01*
X019818Y037940D01*
X019765Y037971D01*
X019710Y037999D01*
X019653Y038024D01*
X019595Y038045D01*
X019536Y038062D01*
X019475Y038076D01*
X019414Y038085D01*
X019353Y038091D01*
X019291Y038093D01*
X003149Y038093D01*
X003087Y038091D01*
X003026Y038085D01*
X002965Y038076D01*
X002904Y038062D01*
X002845Y038045D01*
X002787Y038024D01*
X002730Y037999D01*
X002675Y037971D01*
X002622Y037940D01*
X002571Y037905D01*
X002522Y037867D01*
X002475Y037826D01*
X002432Y037783D01*
X002391Y037736D01*
X002353Y037687D01*
X002318Y037636D01*
X002287Y037583D01*
X002259Y037528D01*
X002234Y037471D01*
X002213Y037413D01*
X002196Y037354D01*
X002182Y037293D01*
X002173Y037232D01*
X002167Y037171D01*
X002165Y037109D01*
X002165Y006597D01*
X002167Y006535D01*
X002173Y006474D01*
X002182Y006413D01*
X002196Y006352D01*
X002213Y006293D01*
X002234Y006235D01*
X002259Y006178D01*
X002287Y006123D01*
X002318Y006070D01*
X002353Y006019D01*
X002391Y005970D01*
X002432Y005923D01*
X002475Y005880D01*
X002522Y005839D01*
X002571Y005801D01*
X002622Y005766D01*
X002675Y005735D01*
X002730Y005707D01*
X002787Y005682D01*
X002845Y005661D01*
X002904Y005644D01*
X002965Y005630D01*
X003026Y005621D01*
X003087Y005615D01*
X003149Y005613D01*
X002913Y006991D02*
X002915Y007041D01*
X002921Y007091D01*
X002931Y007140D01*
X002945Y007188D01*
X002962Y007235D01*
X002983Y007280D01*
X003008Y007324D01*
X003036Y007365D01*
X003068Y007404D01*
X003102Y007441D01*
X003139Y007475D01*
X003179Y007505D01*
X003221Y007532D01*
X003265Y007556D01*
X003311Y007577D01*
X003358Y007593D01*
X003406Y007606D01*
X003456Y007615D01*
X003505Y007620D01*
X003556Y007621D01*
X003606Y007618D01*
X003655Y007611D01*
X003704Y007600D01*
X003752Y007585D01*
X003798Y007567D01*
X003843Y007545D01*
X003886Y007519D01*
X003927Y007490D01*
X003966Y007458D01*
X004002Y007423D01*
X004034Y007385D01*
X004064Y007345D01*
X004091Y007302D01*
X004114Y007258D01*
X004133Y007212D01*
X004149Y007164D01*
X004161Y007115D01*
X004169Y007066D01*
X004173Y007016D01*
X004173Y006966D01*
X004169Y006916D01*
X004161Y006867D01*
X004149Y006818D01*
X004133Y006770D01*
X004114Y006724D01*
X004091Y006680D01*
X004064Y006637D01*
X004034Y006597D01*
X004002Y006559D01*
X003966Y006524D01*
X003927Y006492D01*
X003886Y006463D01*
X003843Y006437D01*
X003798Y006415D01*
X003752Y006397D01*
X003704Y006382D01*
X003655Y006371D01*
X003606Y006364D01*
X003556Y006361D01*
X003505Y006362D01*
X003456Y006367D01*
X003406Y006376D01*
X003358Y006389D01*
X003311Y006405D01*
X003265Y006426D01*
X003221Y006450D01*
X003179Y006477D01*
X003139Y006507D01*
X003102Y006541D01*
X003068Y006578D01*
X003036Y006617D01*
X003008Y006658D01*
X002983Y006702D01*
X002962Y006747D01*
X002945Y006794D01*
X002931Y006842D01*
X002921Y006891D01*
X002915Y006941D01*
X002913Y006991D01*
X002519Y035337D02*
X002521Y035387D01*
X002527Y035437D01*
X002537Y035486D01*
X002551Y035534D01*
X002568Y035581D01*
X002589Y035626D01*
X002614Y035670D01*
X002642Y035711D01*
X002674Y035750D01*
X002708Y035787D01*
X002745Y035821D01*
X002785Y035851D01*
X002827Y035878D01*
X002871Y035902D01*
X002917Y035923D01*
X002964Y035939D01*
X003012Y035952D01*
X003062Y035961D01*
X003111Y035966D01*
X003162Y035967D01*
X003212Y035964D01*
X003261Y035957D01*
X003310Y035946D01*
X003358Y035931D01*
X003404Y035913D01*
X003449Y035891D01*
X003492Y035865D01*
X003533Y035836D01*
X003572Y035804D01*
X003608Y035769D01*
X003640Y035731D01*
X003670Y035691D01*
X003697Y035648D01*
X003720Y035604D01*
X003739Y035558D01*
X003755Y035510D01*
X003767Y035461D01*
X003775Y035412D01*
X003779Y035362D01*
X003779Y035312D01*
X003775Y035262D01*
X003767Y035213D01*
X003755Y035164D01*
X003739Y035116D01*
X003720Y035070D01*
X003697Y035026D01*
X003670Y034983D01*
X003640Y034943D01*
X003608Y034905D01*
X003572Y034870D01*
X003533Y034838D01*
X003492Y034809D01*
X003449Y034783D01*
X003404Y034761D01*
X003358Y034743D01*
X003310Y034728D01*
X003261Y034717D01*
X003212Y034710D01*
X003162Y034707D01*
X003111Y034708D01*
X003062Y034713D01*
X003012Y034722D01*
X002964Y034735D01*
X002917Y034751D01*
X002871Y034772D01*
X002827Y034796D01*
X002785Y034823D01*
X002745Y034853D01*
X002708Y034887D01*
X002674Y034924D01*
X002642Y034963D01*
X002614Y035004D01*
X002589Y035048D01*
X002568Y035093D01*
X002551Y035140D01*
X002537Y035188D01*
X002527Y035237D01*
X002521Y035287D01*
X002519Y035337D01*
X018661Y035337D02*
X018663Y035387D01*
X018669Y035437D01*
X018679Y035486D01*
X018693Y035534D01*
X018710Y035581D01*
X018731Y035626D01*
X018756Y035670D01*
X018784Y035711D01*
X018816Y035750D01*
X018850Y035787D01*
X018887Y035821D01*
X018927Y035851D01*
X018969Y035878D01*
X019013Y035902D01*
X019059Y035923D01*
X019106Y035939D01*
X019154Y035952D01*
X019204Y035961D01*
X019253Y035966D01*
X019304Y035967D01*
X019354Y035964D01*
X019403Y035957D01*
X019452Y035946D01*
X019500Y035931D01*
X019546Y035913D01*
X019591Y035891D01*
X019634Y035865D01*
X019675Y035836D01*
X019714Y035804D01*
X019750Y035769D01*
X019782Y035731D01*
X019812Y035691D01*
X019839Y035648D01*
X019862Y035604D01*
X019881Y035558D01*
X019897Y035510D01*
X019909Y035461D01*
X019917Y035412D01*
X019921Y035362D01*
X019921Y035312D01*
X019917Y035262D01*
X019909Y035213D01*
X019897Y035164D01*
X019881Y035116D01*
X019862Y035070D01*
X019839Y035026D01*
X019812Y034983D01*
X019782Y034943D01*
X019750Y034905D01*
X019714Y034870D01*
X019675Y034838D01*
X019634Y034809D01*
X019591Y034783D01*
X019546Y034761D01*
X019500Y034743D01*
X019452Y034728D01*
X019403Y034717D01*
X019354Y034710D01*
X019304Y034707D01*
X019253Y034708D01*
X019204Y034713D01*
X019154Y034722D01*
X019106Y034735D01*
X019059Y034751D01*
X019013Y034772D01*
X018969Y034796D01*
X018927Y034823D01*
X018887Y034853D01*
X018850Y034887D01*
X018816Y034924D01*
X018784Y034963D01*
X018756Y035004D01*
X018731Y035048D01*
X018710Y035093D01*
X018693Y035140D01*
X018679Y035188D01*
X018669Y035237D01*
X018663Y035287D01*
X018661Y035337D01*
X018661Y006991D02*
X018663Y007041D01*
X018669Y007091D01*
X018679Y007140D01*
X018693Y007188D01*
X018710Y007235D01*
X018731Y007280D01*
X018756Y007324D01*
X018784Y007365D01*
X018816Y007404D01*
X018850Y007441D01*
X018887Y007475D01*
X018927Y007505D01*
X018969Y007532D01*
X019013Y007556D01*
X019059Y007577D01*
X019106Y007593D01*
X019154Y007606D01*
X019204Y007615D01*
X019253Y007620D01*
X019304Y007621D01*
X019354Y007618D01*
X019403Y007611D01*
X019452Y007600D01*
X019500Y007585D01*
X019546Y007567D01*
X019591Y007545D01*
X019634Y007519D01*
X019675Y007490D01*
X019714Y007458D01*
X019750Y007423D01*
X019782Y007385D01*
X019812Y007345D01*
X019839Y007302D01*
X019862Y007258D01*
X019881Y007212D01*
X019897Y007164D01*
X019909Y007115D01*
X019917Y007066D01*
X019921Y007016D01*
X019921Y006966D01*
X019917Y006916D01*
X019909Y006867D01*
X019897Y006818D01*
X019881Y006770D01*
X019862Y006724D01*
X019839Y006680D01*
X019812Y006637D01*
X019782Y006597D01*
X019750Y006559D01*
X019714Y006524D01*
X019675Y006492D01*
X019634Y006463D01*
X019591Y006437D01*
X019546Y006415D01*
X019500Y006397D01*
X019452Y006382D01*
X019403Y006371D01*
X019354Y006364D01*
X019304Y006361D01*
X019253Y006362D01*
X019204Y006367D01*
X019154Y006376D01*
X019106Y006389D01*
X019059Y006405D01*
X019013Y006426D01*
X018969Y006450D01*
X018927Y006477D01*
X018887Y006507D01*
X018850Y006541D01*
X018816Y006578D01*
X018784Y006617D01*
X018756Y006658D01*
X018731Y006702D01*
X018710Y006747D01*
X018693Y006794D01*
X018679Y006842D01*
X018669Y006891D01*
X018663Y006941D01*
X018661Y006991D01*
D11*
X011674Y015792D03*
X011005Y015792D03*
X010963Y021440D03*
X011632Y021440D03*
D12*
X013136Y020745D03*
X013136Y020245D03*
X013136Y019745D03*
X013136Y019245D03*
X013136Y018745D03*
X013136Y018245D03*
X013136Y017745D03*
X013136Y017245D03*
X013136Y016745D03*
X013136Y016245D03*
X017152Y016245D03*
X017152Y016745D03*
X017152Y017245D03*
X017152Y017745D03*
X017152Y018245D03*
X017152Y018745D03*
X017152Y019245D03*
X017152Y019745D03*
X017152Y020245D03*
X017152Y020745D03*
D13*
X016140Y024045D03*
X014408Y024045D03*
X009540Y023945D03*
X007808Y023945D03*
D14*
X010541Y023945D03*
X011407Y024319D03*
X011407Y023571D03*
X017141Y023945D03*
X018007Y024319D03*
X018007Y023571D03*
D15*
X018939Y023545D03*
X019609Y023545D03*
X016179Y022545D03*
X015509Y022545D03*
X013009Y022745D03*
X012339Y022745D03*
X006579Y023575D03*
X005909Y023575D03*
D16*
X005959Y024165D03*
X006549Y024165D03*
X018979Y024345D03*
X019569Y024345D03*
M02*
