G75*
%MOIN*%
%OFA0B0*%
%FSLAX24Y24*%
%IPPOS*%
%LPD*%
%AMOC8*
5,1,8,0,0,1.08239X$1,22.5*
%
%ADD10C,0.0030*%
%ADD11C,0.0100*%
%ADD12C,0.0040*%
%ADD13C,0.0060*%
%ADD14C,0.0160*%
%ADD15C,0.0000*%
%ADD16C,0.0020*%
%ADD17C,0.0050*%
%ADD18C,0.0080*%
%ADD19R,0.0006X0.0002*%
%ADD20R,0.0006X0.0002*%
%ADD21R,0.0004X0.0001*%
%ADD22R,0.0010X0.0001*%
%ADD23R,0.0017X0.0001*%
%ADD24R,0.0023X0.0001*%
%ADD25R,0.0029X0.0001*%
%ADD26R,0.0034X0.0001*%
%ADD27R,0.0040X0.0001*%
%ADD28R,0.0043X0.0002*%
%ADD29R,0.0047X0.0001*%
%ADD30R,0.0050X0.0001*%
%ADD31R,0.0054X0.0001*%
%ADD32R,0.0059X0.0001*%
%ADD33R,0.0064X0.0001*%
%ADD34R,0.0015X0.0001*%
%ADD35R,0.0067X0.0001*%
%ADD36R,0.0020X0.0001*%
%ADD37R,0.0070X0.0001*%
%ADD38R,0.0024X0.0001*%
%ADD39R,0.0074X0.0001*%
%ADD40R,0.0027X0.0001*%
%ADD41R,0.0076X0.0001*%
%ADD42R,0.0030X0.0001*%
%ADD43R,0.0081X0.0002*%
%ADD44R,0.0036X0.0002*%
%ADD45R,0.0086X0.0001*%
%ADD46R,0.0044X0.0001*%
%ADD47R,0.0091X0.0001*%
%ADD48R,0.0046X0.0001*%
%ADD49R,0.0094X0.0001*%
%ADD50R,0.0096X0.0001*%
%ADD51R,0.0053X0.0001*%
%ADD52R,0.0099X0.0001*%
%ADD53R,0.0056X0.0001*%
%ADD54R,0.0104X0.0001*%
%ADD55R,0.0060X0.0001*%
%ADD56R,0.0108X0.0001*%
%ADD57R,0.0112X0.0001*%
%ADD58R,0.0117X0.0001*%
%ADD59R,0.0072X0.0001*%
%ADD60R,0.0120X0.0002*%
%ADD61R,0.0075X0.0002*%
%ADD62R,0.0123X0.0001*%
%ADD63R,0.0078X0.0001*%
%ADD64R,0.0126X0.0001*%
%ADD65R,0.0081X0.0001*%
%ADD66R,0.0131X0.0001*%
%ADD67R,0.0136X0.0001*%
%ADD68R,0.0090X0.0001*%
%ADD69R,0.0139X0.0001*%
%ADD70R,0.0144X0.0001*%
%ADD71R,0.0147X0.0001*%
%ADD72R,0.0101X0.0001*%
%ADD73R,0.0150X0.0001*%
%ADD74R,0.0102X0.0001*%
%ADD75R,0.0153X0.0001*%
%ADD76R,0.0106X0.0001*%
%ADD77R,0.0158X0.0002*%
%ADD78R,0.0109X0.0002*%
%ADD79R,0.0164X0.0001*%
%ADD80R,0.0115X0.0001*%
%ADD81R,0.0168X0.0001*%
%ADD82R,0.0120X0.0001*%
%ADD83R,0.0171X0.0001*%
%ADD84R,0.0123X0.0001*%
%ADD85R,0.0172X0.0001*%
%ADD86R,0.0125X0.0001*%
%ADD87R,0.0175X0.0001*%
%ADD88R,0.0128X0.0001*%
%ADD89R,0.0180X0.0001*%
%ADD90R,0.0132X0.0001*%
%ADD91R,0.0186X0.0001*%
%ADD92R,0.0191X0.0001*%
%ADD93R,0.0141X0.0001*%
%ADD94R,0.0194X0.0001*%
%ADD95R,0.0145X0.0001*%
%ADD96R,0.0196X0.0002*%
%ADD97R,0.0149X0.0002*%
%ADD98R,0.0199X0.0001*%
%ADD99R,0.0151X0.0001*%
%ADD100R,0.0204X0.0001*%
%ADD101R,0.0153X0.0001*%
%ADD102R,0.0207X0.0001*%
%ADD103R,0.0158X0.0001*%
%ADD104R,0.0211X0.0001*%
%ADD105R,0.0162X0.0001*%
%ADD106R,0.0216X0.0001*%
%ADD107R,0.0166X0.0001*%
%ADD108R,0.0219X0.0001*%
%ADD109R,0.0007X0.0001*%
%ADD110R,0.0169X0.0001*%
%ADD111R,0.0222X0.0001*%
%ADD112R,0.0011X0.0001*%
%ADD113R,0.0224X0.0001*%
%ADD114R,0.0014X0.0001*%
%ADD115R,0.0176X0.0001*%
%ADD116R,0.0228X0.0001*%
%ADD117R,0.0018X0.0001*%
%ADD118R,0.0179X0.0001*%
%ADD119R,0.0234X0.0002*%
%ADD120R,0.0024X0.0002*%
%ADD121R,0.0183X0.0002*%
%ADD122R,0.0239X0.0001*%
%ADD123R,0.0189X0.0001*%
%ADD124R,0.0241X0.0001*%
%ADD125R,0.0033X0.0001*%
%ADD126R,0.0012X0.0001*%
%ADD127R,0.0192X0.0001*%
%ADD128R,0.0243X0.0001*%
%ADD129R,0.0038X0.0001*%
%ADD130R,0.0246X0.0001*%
%ADD131R,0.0041X0.0001*%
%ADD132R,0.0019X0.0001*%
%ADD133R,0.0196X0.0001*%
%ADD134R,0.0250X0.0001*%
%ADD135R,0.0021X0.0001*%
%ADD136R,0.0201X0.0001*%
%ADD137R,0.0254X0.0001*%
%ADD138R,0.0048X0.0001*%
%ADD139R,0.0258X0.0001*%
%ADD140R,0.0054X0.0001*%
%ADD141R,0.0209X0.0001*%
%ADD142R,0.0263X0.0001*%
%ADD143R,0.0213X0.0001*%
%ADD144R,0.0267X0.0001*%
%ADD145R,0.0063X0.0001*%
%ADD146R,0.0270X0.0002*%
%ADD147R,0.0066X0.0002*%
%ADD148R,0.0045X0.0002*%
%ADD149R,0.0219X0.0002*%
%ADD150R,0.0271X0.0001*%
%ADD151R,0.0220X0.0001*%
%ADD152R,0.0274X0.0001*%
%ADD153R,0.0051X0.0001*%
%ADD154R,0.0223X0.0001*%
%ADD155R,0.0278X0.0001*%
%ADD156R,0.0282X0.0001*%
%ADD157R,0.0231X0.0001*%
%ADD158R,0.0288X0.0001*%
%ADD159R,0.0085X0.0001*%
%ADD160R,0.0236X0.0001*%
%ADD161R,0.0289X0.0001*%
%ADD162R,0.0087X0.0001*%
%ADD163R,0.0066X0.0001*%
%ADD164R,0.0292X0.0001*%
%ADD165R,0.0069X0.0001*%
%ADD166R,0.0297X0.0001*%
%ADD167R,0.0300X0.0001*%
%ADD168R,0.0075X0.0001*%
%ADD169R,0.0305X0.0002*%
%ADD170R,0.0101X0.0002*%
%ADD171R,0.0078X0.0002*%
%ADD172R,0.0251X0.0002*%
%ADD173R,0.0309X0.0001*%
%ADD174R,0.0105X0.0001*%
%ADD175R,0.0083X0.0001*%
%ADD176R,0.0255X0.0001*%
%ADD177R,0.0314X0.0001*%
%ADD178R,0.0110X0.0001*%
%ADD179R,0.0087X0.0001*%
%ADD180R,0.0316X0.0001*%
%ADD181R,0.0113X0.0001*%
%ADD182R,0.0262X0.0001*%
%ADD183R,0.0319X0.0001*%
%ADD184R,0.0114X0.0001*%
%ADD185R,0.0093X0.0001*%
%ADD186R,0.0266X0.0001*%
%ADD187R,0.0321X0.0001*%
%ADD188R,0.0096X0.0001*%
%ADD189R,0.0324X0.0001*%
%ADD190R,0.0270X0.0001*%
%ADD191R,0.0329X0.0001*%
%ADD192R,0.0124X0.0001*%
%ADD193R,0.0275X0.0001*%
%ADD194R,0.0333X0.0001*%
%ADD195R,0.0279X0.0001*%
%ADD196R,0.0336X0.0001*%
%ADD197R,0.0111X0.0001*%
%ADD198R,0.0284X0.0001*%
%ADD199R,0.0339X0.0002*%
%ADD200R,0.0134X0.0002*%
%ADD201R,0.0114X0.0002*%
%ADD202R,0.0286X0.0002*%
%ADD203R,0.0342X0.0001*%
%ADD204R,0.0116X0.0001*%
%ADD205R,0.0491X0.0001*%
%ADD206R,0.0492X0.0001*%
%ADD207R,0.0294X0.0001*%
%ADD208R,0.0495X0.0001*%
%ADD209R,0.0299X0.0001*%
%ADD210R,0.0496X0.0001*%
%ADD211R,0.0127X0.0001*%
%ADD212R,0.0301X0.0001*%
%ADD213R,0.0498X0.0001*%
%ADD214R,0.0304X0.0001*%
%ADD215R,0.0501X0.0001*%
%ADD216R,0.0134X0.0001*%
%ADD217R,0.0308X0.0001*%
%ADD218R,0.0135X0.0001*%
%ADD219R,0.0311X0.0001*%
%ADD220R,0.0504X0.0001*%
%ADD221R,0.0138X0.0001*%
%ADD222R,0.0504X0.0002*%
%ADD223R,0.0141X0.0002*%
%ADD224R,0.0318X0.0002*%
%ADD225R,0.0507X0.0001*%
%ADD226R,0.0323X0.0001*%
%ADD227R,0.0326X0.0001*%
%ADD228R,0.0508X0.0001*%
%ADD229R,0.0152X0.0001*%
%ADD230R,0.0330X0.0001*%
%ADD231R,0.0510X0.0001*%
%ADD232R,0.0494X0.0001*%
%ADD233R,0.0512X0.0001*%
%ADD234R,0.0500X0.0001*%
%ADD235R,0.0513X0.0001*%
%ADD236R,0.0501X0.0001*%
%ADD237R,0.0513X0.0002*%
%ADD238R,0.0501X0.0002*%
%ADD239R,0.0503X0.0001*%
%ADD240R,0.0504X0.0001*%
%ADD241R,0.0506X0.0001*%
%ADD242R,0.0513X0.0001*%
%ADD243R,0.0509X0.0001*%
%ADD244R,0.0511X0.0001*%
%ADD245R,0.0514X0.0001*%
%ADD246R,0.0516X0.0001*%
%ADD247R,0.0513X0.0002*%
%ADD248R,0.0519X0.0002*%
%ADD249R,0.0519X0.0001*%
%ADD250R,0.0520X0.0001*%
%ADD251R,0.0522X0.0001*%
%ADD252R,0.0507X0.0001*%
%ADD253R,0.0509X0.0002*%
%ADD254R,0.0520X0.0002*%
%ADD255R,0.0522X0.0001*%
%ADD256R,0.0505X0.0001*%
%ADD257R,0.0502X0.0001*%
%ADD258R,0.0521X0.0001*%
%ADD259R,0.0503X0.0002*%
%ADD260R,0.0519X0.0002*%
%ADD261R,0.0519X0.0001*%
%ADD262R,0.0499X0.0001*%
%ADD263R,0.0517X0.0001*%
%ADD264R,0.0495X0.0002*%
%ADD265R,0.0514X0.0002*%
%ADD266R,0.0515X0.0001*%
%ADD267R,0.0492X0.0001*%
%ADD268R,0.0490X0.0001*%
%ADD269R,0.0490X0.0002*%
%ADD270R,0.0511X0.0002*%
%ADD271R,0.0489X0.0001*%
%ADD272R,0.0489X0.0001*%
%ADD273R,0.0488X0.0001*%
%ADD274R,0.0485X0.0001*%
%ADD275R,0.0483X0.0001*%
%ADD276R,0.0483X0.0002*%
%ADD277R,0.0507X0.0002*%
%ADD278R,0.0483X0.0001*%
%ADD279R,0.0481X0.0001*%
%ADD280R,0.0480X0.0001*%
%ADD281R,0.0480X0.0002*%
%ADD282R,0.0501X0.0002*%
%ADD283R,0.0479X0.0001*%
%ADD284R,0.0477X0.0001*%
%ADD285R,0.0477X0.0001*%
%ADD286R,0.0475X0.0001*%
%ADD287R,0.0474X0.0001*%
%ADD288R,0.0472X0.0001*%
%ADD289R,0.0472X0.0002*%
%ADD290R,0.0498X0.0002*%
%ADD291R,0.0471X0.0001*%
%ADD292R,0.0473X0.0001*%
%ADD293R,0.0471X0.0001*%
%ADD294R,0.0470X0.0001*%
%ADD295R,0.0468X0.0001*%
%ADD296R,0.0469X0.0001*%
%ADD297R,0.0468X0.0002*%
%ADD298R,0.0491X0.0002*%
%ADD299R,0.0466X0.0001*%
%ADD300R,0.0465X0.0001*%
%ADD301R,0.0464X0.0001*%
%ADD302R,0.0462X0.0001*%
%ADD303R,0.0462X0.0002*%
%ADD304R,0.0489X0.0002*%
%ADD305R,0.0461X0.0001*%
%ADD306R,0.0460X0.0001*%
%ADD307R,0.0459X0.0001*%
%ADD308R,0.0484X0.0001*%
%ADD309R,0.0457X0.0001*%
%ADD310R,0.0459X0.0001*%
%ADD311R,0.0458X0.0002*%
%ADD312R,0.0484X0.0002*%
%ADD313R,0.0456X0.0001*%
%ADD314R,0.0455X0.0001*%
%ADD315R,0.0453X0.0001*%
%ADD316R,0.0451X0.0001*%
%ADD317R,0.0453X0.0001*%
%ADD318R,0.0450X0.0001*%
%ADD319R,0.0451X0.0002*%
%ADD320R,0.0478X0.0001*%
%ADD321R,0.0449X0.0001*%
%ADD322R,0.0476X0.0001*%
%ADD323R,0.0447X0.0001*%
%ADD324R,0.0474X0.0001*%
%ADD325R,0.0449X0.0002*%
%ADD326R,0.0476X0.0002*%
%ADD327R,0.0454X0.0001*%
%ADD328R,0.0469X0.0002*%
%ADD329R,0.0468X0.0001*%
%ADD330R,0.0467X0.0001*%
%ADD331R,0.0473X0.0002*%
%ADD332R,0.0468X0.0002*%
%ADD333R,0.0486X0.0002*%
%ADD334R,0.0474X0.0002*%
%ADD335R,0.0487X0.0001*%
%ADD336R,0.0497X0.0001*%
%ADD337R,0.0486X0.0001*%
%ADD338R,0.0500X0.0002*%
%ADD339R,0.0487X0.0002*%
%ADD340R,0.0498X0.0001*%
%ADD341R,0.0524X0.0002*%
%ADD342R,0.0524X0.0001*%
%ADD343R,0.0525X0.0001*%
%ADD344R,0.0528X0.0001*%
%ADD345R,0.0529X0.0001*%
%ADD346R,0.0533X0.0001*%
%ADD347R,0.0534X0.0001*%
%ADD348R,0.0523X0.0001*%
%ADD349R,0.0536X0.0001*%
%ADD350R,0.0537X0.0002*%
%ADD351R,0.0527X0.0002*%
%ADD352R,0.0537X0.0001*%
%ADD353R,0.0528X0.0001*%
%ADD354R,0.0539X0.0001*%
%ADD355R,0.0530X0.0001*%
%ADD356R,0.0540X0.0001*%
%ADD357R,0.0541X0.0001*%
%ADD358R,0.0531X0.0001*%
%ADD359R,0.0543X0.0001*%
%ADD360R,0.0544X0.0001*%
%ADD361R,0.0546X0.0002*%
%ADD362R,0.0536X0.0002*%
%ADD363R,0.0547X0.0001*%
%ADD364R,0.0551X0.0001*%
%ADD365R,0.0552X0.0001*%
%ADD366R,0.0554X0.0001*%
%ADD367R,0.0555X0.0001*%
%ADD368R,0.0555X0.0002*%
%ADD369R,0.0547X0.0002*%
%ADD370R,0.0549X0.0001*%
%ADD371R,0.0548X0.0001*%
%ADD372R,0.0538X0.0001*%
%ADD373R,0.0537X0.0001*%
%ADD374R,0.0533X0.0002*%
%ADD375R,0.0531X0.0001*%
%ADD376R,0.0526X0.0001*%
%ADD377R,0.0518X0.0001*%
%ADD378R,0.0498X0.0002*%
%ADD379R,0.0496X0.0002*%
%ADD380R,0.0486X0.0001*%
%ADD381R,0.0485X0.0002*%
%ADD382R,0.0482X0.0001*%
%ADD383R,0.0477X0.0002*%
%ADD384R,0.0530X0.0002*%
%ADD385R,0.0464X0.0002*%
%ADD386R,0.0561X0.0001*%
%ADD387R,0.0570X0.0001*%
%ADD388R,0.0576X0.0001*%
%ADD389R,0.0581X0.0001*%
%ADD390R,0.0585X0.0001*%
%ADD391R,0.0589X0.0001*%
%ADD392R,0.0600X0.0002*%
%ADD393R,0.0614X0.0001*%
%ADD394R,0.0623X0.0001*%
%ADD395R,0.0630X0.0001*%
%ADD396R,0.0633X0.0001*%
%ADD397R,0.0638X0.0001*%
%ADD398R,0.0645X0.0001*%
%ADD399R,0.0657X0.0001*%
%ADD400R,0.0556X0.0001*%
%ADD401R,0.0669X0.0001*%
%ADD402R,0.0674X0.0001*%
%ADD403R,0.0579X0.0001*%
%ADD404R,0.0676X0.0002*%
%ADD405R,0.0585X0.0002*%
%ADD406R,0.0678X0.0001*%
%ADD407R,0.0590X0.0001*%
%ADD408R,0.0679X0.0001*%
%ADD409R,0.0596X0.0001*%
%ADD410R,0.0681X0.0001*%
%ADD411R,0.0606X0.0001*%
%ADD412R,0.0620X0.0001*%
%ADD413R,0.0682X0.0001*%
%ADD414R,0.0633X0.0001*%
%ADD415R,0.0684X0.0001*%
%ADD416R,0.0639X0.0001*%
%ADD417R,0.0649X0.0001*%
%ADD418R,0.0684X0.0001*%
%ADD419R,0.0655X0.0001*%
%ADD420R,0.0683X0.0002*%
%ADD421R,0.0664X0.0002*%
%ADD422R,0.0683X0.0001*%
%ADD423R,0.0670X0.0001*%
%ADD424R,0.0671X0.0001*%
%ADD425R,0.0681X0.0001*%
%ADD426R,0.0672X0.0001*%
%ADD427R,0.0680X0.0001*%
%ADD428R,0.0675X0.0001*%
%ADD429R,0.0676X0.0001*%
%ADD430R,0.0680X0.0002*%
%ADD431R,0.0678X0.0002*%
%ADD432R,0.0678X0.0001*%
%ADD433R,0.0675X0.0002*%
%ADD434R,0.0672X0.0002*%
%ADD435R,0.0672X0.0001*%
%ADD436R,0.0671X0.0002*%
%ADD437R,0.0670X0.0002*%
%ADD438R,0.0669X0.0001*%
%ADD439R,0.0667X0.0001*%
%ADD440R,0.0669X0.0002*%
%ADD441R,0.0667X0.0002*%
%ADD442R,0.0668X0.0001*%
%ADD443R,0.0666X0.0001*%
%ADD444R,0.0668X0.0002*%
%ADD445R,0.0666X0.0002*%
%ADD446R,0.0666X0.0001*%
%ADD447R,0.0664X0.0001*%
%ADD448R,0.0663X0.0001*%
%ADD449R,0.0666X0.0002*%
%ADD450R,0.0663X0.0002*%
%ADD451R,0.0665X0.0001*%
%ADD452R,0.0674X0.0002*%
%ADD453R,0.0677X0.0001*%
%ADD454R,0.0678X0.0002*%
%ADD455R,0.0682X0.0002*%
%ADD456R,0.0686X0.0001*%
%ADD457R,0.0686X0.0002*%
%ADD458R,0.0687X0.0001*%
%ADD459R,0.0689X0.0001*%
%ADD460R,0.0653X0.0001*%
%ADD461R,0.0641X0.0001*%
%ADD462R,0.0626X0.0001*%
%ADD463R,0.0616X0.0001*%
%ADD464R,0.0687X0.0001*%
%ADD465R,0.0612X0.0001*%
%ADD466R,0.0688X0.0001*%
%ADD467R,0.0606X0.0001*%
%ADD468R,0.0601X0.0001*%
%ADD469R,0.0591X0.0002*%
%ADD470R,0.0567X0.0001*%
%ADD471R,0.0560X0.0001*%
%ADD472R,0.0659X0.0001*%
%ADD473R,0.0516X0.0001*%
%ADD474R,0.0639X0.0001*%
%ADD475R,0.0502X0.0002*%
%ADD476R,0.0633X0.0002*%
%ADD477R,0.0608X0.0001*%
%ADD478R,0.0582X0.0001*%
%ADD479R,0.0577X0.0001*%
%ADD480R,0.0569X0.0002*%
%ADD481R,0.0546X0.0001*%
%ADD482R,0.0486X0.0002*%
%ADD483R,0.0493X0.0001*%
%ADD484R,0.0516X0.0002*%
%ADD485R,0.0532X0.0001*%
%ADD486R,0.0534X0.0002*%
%ADD487R,0.0535X0.0002*%
%ADD488R,0.0543X0.0001*%
%ADD489R,0.0553X0.0001*%
%ADD490R,0.0559X0.0001*%
%ADD491R,0.0564X0.0001*%
%ADD492R,0.0564X0.0001*%
%ADD493R,0.0567X0.0001*%
%ADD494R,0.0569X0.0001*%
%ADD495R,0.0570X0.0002*%
%ADD496R,0.0571X0.0002*%
%ADD497R,0.0571X0.0001*%
%ADD498R,0.0573X0.0001*%
%ADD499R,0.0574X0.0001*%
%ADD500R,0.0576X0.0001*%
%ADD501R,0.0600X0.0001*%
%ADD502R,0.0611X0.0001*%
%ADD503R,0.0618X0.0001*%
%ADD504R,0.0621X0.0001*%
%ADD505R,0.1269X0.0001*%
%ADD506R,0.1267X0.0001*%
%ADD507R,0.1266X0.0001*%
%ADD508R,0.1266X0.0002*%
%ADD509R,0.1264X0.0001*%
%ADD510R,0.1261X0.0001*%
%ADD511R,0.1260X0.0001*%
%ADD512R,0.1259X0.0001*%
%ADD513R,0.1256X0.0001*%
%ADD514R,0.1254X0.0001*%
%ADD515R,0.1253X0.0001*%
%ADD516R,0.1251X0.0001*%
%ADD517R,0.1251X0.0002*%
%ADD518R,0.1248X0.0001*%
%ADD519R,0.1245X0.0001*%
%ADD520R,0.1244X0.0001*%
%ADD521R,0.1242X0.0001*%
%ADD522R,0.1239X0.0001*%
%ADD523R,0.1237X0.0001*%
%ADD524R,0.1236X0.0002*%
%ADD525R,0.1233X0.0001*%
%ADD526R,0.1230X0.0001*%
%ADD527R,0.1229X0.0001*%
%ADD528R,0.1227X0.0001*%
%ADD529R,0.1226X0.0001*%
%ADD530R,0.1224X0.0001*%
%ADD531R,0.1223X0.0002*%
%ADD532R,0.1219X0.0001*%
%ADD533R,0.1216X0.0001*%
%ADD534R,0.1215X0.0001*%
%ADD535R,0.1214X0.0001*%
%ADD536R,0.1212X0.0001*%
%ADD537R,0.1209X0.0001*%
%ADD538R,0.1207X0.0002*%
%ADD539R,0.1206X0.0001*%
%ADD540R,0.1204X0.0001*%
%ADD541R,0.1201X0.0001*%
%ADD542R,0.1200X0.0001*%
%ADD543R,0.1199X0.0001*%
%ADD544R,0.1196X0.0001*%
%ADD545R,0.1194X0.0001*%
%ADD546R,0.1193X0.0001*%
%ADD547R,0.1191X0.0001*%
%ADD548R,0.1191X0.0002*%
%ADD549R,0.1188X0.0001*%
%ADD550R,0.1185X0.0001*%
%ADD551R,0.1184X0.0001*%
%ADD552R,0.1181X0.0001*%
%ADD553R,0.1177X0.0001*%
%ADD554R,0.1176X0.0001*%
%ADD555R,0.1174X0.0001*%
%ADD556R,0.1173X0.0001*%
%ADD557R,0.1170X0.0002*%
%ADD558R,0.1170X0.0001*%
%ADD559R,0.1169X0.0001*%
%ADD560R,0.1166X0.0001*%
%ADD561R,0.1164X0.0001*%
%ADD562R,0.1163X0.0001*%
%ADD563R,0.1163X0.0002*%
%ADD564R,0.1167X0.0001*%
%ADD565R,0.1171X0.0001*%
%ADD566R,0.1179X0.0001*%
%ADD567R,0.1182X0.0001*%
%ADD568R,0.1182X0.0002*%
%ADD569R,0.1188X0.0001*%
%ADD570R,0.1190X0.0001*%
%ADD571R,0.1197X0.0001*%
%ADD572R,0.1204X0.0002*%
%ADD573R,0.1207X0.0001*%
%ADD574R,0.1210X0.0001*%
%ADD575R,0.1213X0.0001*%
%ADD576R,0.1217X0.0001*%
%ADD577R,0.1218X0.0001*%
%ADD578R,0.1220X0.0001*%
%ADD579R,0.1221X0.0001*%
%ADD580R,0.1223X0.0001*%
%ADD581R,0.1226X0.0002*%
%ADD582R,0.1236X0.0001*%
%ADD583R,0.1239X0.0001*%
%ADD584R,0.1240X0.0001*%
%ADD585R,0.1243X0.0001*%
%ADD586R,0.1248X0.0002*%
%ADD587R,0.1248X0.0001*%
%ADD588R,0.1251X0.0001*%
%ADD589R,0.1257X0.0001*%
%ADD590R,0.1263X0.0001*%
%ADD591R,0.1267X0.0002*%
%ADD592R,0.1270X0.0001*%
%ADD593R,0.1274X0.0001*%
%ADD594R,0.1275X0.0001*%
%ADD595R,0.1278X0.0001*%
%ADD596R,0.1280X0.0001*%
%ADD597R,0.1281X0.0001*%
%ADD598R,0.1284X0.0001*%
%ADD599R,0.1286X0.0001*%
%ADD600R,0.1289X0.0001*%
%ADD601R,0.1290X0.0002*%
%ADD602R,0.1291X0.0001*%
%ADD603R,0.1294X0.0001*%
%ADD604R,0.1296X0.0001*%
%ADD605R,0.1299X0.0001*%
%ADD606R,0.1300X0.0001*%
%ADD607R,0.1302X0.0001*%
%ADD608R,0.1304X0.0001*%
%ADD609R,0.1306X0.0001*%
%ADD610R,0.1308X0.0001*%
%ADD611R,0.1311X0.0002*%
%ADD612R,0.1313X0.0001*%
%ADD613R,0.1316X0.0001*%
%ADD614R,0.1317X0.0001*%
%ADD615R,0.1320X0.0001*%
%ADD616R,0.1323X0.0001*%
%ADD617R,0.1326X0.0001*%
%ADD618R,0.1329X0.0001*%
%ADD619R,0.1332X0.0002*%
%ADD620R,0.1335X0.0001*%
%ADD621R,0.1336X0.0001*%
%ADD622R,0.1340X0.0001*%
%ADD623R,0.1343X0.0001*%
%ADD624R,0.1346X0.0001*%
%ADD625R,0.1347X0.0001*%
%ADD626R,0.1350X0.0001*%
%ADD627R,0.1353X0.0002*%
%ADD628R,0.1356X0.0001*%
%ADD629R,0.1357X0.0001*%
%ADD630R,0.1360X0.0001*%
%ADD631R,0.1364X0.0001*%
%ADD632R,0.1365X0.0001*%
%ADD633R,0.1368X0.0001*%
%ADD634R,0.1369X0.0001*%
%ADD635R,0.1373X0.0001*%
%ADD636R,0.1374X0.0002*%
%ADD637R,0.1377X0.0001*%
%ADD638R,0.1379X0.0001*%
%ADD639R,0.1380X0.0001*%
%ADD640R,0.1383X0.0001*%
%ADD641R,0.1386X0.0001*%
%ADD642R,0.1387X0.0001*%
%ADD643R,0.1391X0.0001*%
%ADD644R,0.1394X0.0001*%
%ADD645R,0.1395X0.0002*%
%ADD646R,0.1398X0.0001*%
%ADD647R,0.1401X0.0001*%
%ADD648R,0.1403X0.0001*%
%ADD649R,0.1406X0.0001*%
%ADD650R,0.1407X0.0001*%
%ADD651R,0.1409X0.0001*%
%ADD652R,0.1411X0.0001*%
%ADD653R,0.1414X0.0001*%
%ADD654R,0.1416X0.0002*%
%ADD655R,0.1419X0.0001*%
%ADD656R,0.1421X0.0001*%
%ADD657R,0.1422X0.0001*%
%ADD658R,0.1424X0.0001*%
%ADD659R,0.1426X0.0001*%
%ADD660R,0.1428X0.0001*%
%ADD661R,0.1429X0.0002*%
%ADD662R,0.1429X0.0001*%
%ADD663R,0.1425X0.0001*%
%ADD664R,0.1421X0.0002*%
%ADD665R,0.1418X0.0001*%
%ADD666R,0.1416X0.0001*%
%ADD667R,0.1413X0.0001*%
%ADD668R,0.1410X0.0001*%
%ADD669R,0.1404X0.0001*%
%ADD670R,0.1401X0.0001*%
%ADD671R,0.0346X0.0001*%
%ADD672R,0.1044X0.0001*%
%ADD673R,0.0342X0.0002*%
%ADD674R,0.1040X0.0002*%
%ADD675R,0.0337X0.0001*%
%ADD676R,0.1034X0.0001*%
%ADD677R,0.0357X0.0001*%
%ADD678R,0.0660X0.0001*%
%ADD679R,0.0353X0.0001*%
%ADD680R,0.0327X0.0001*%
%ADD681R,0.0349X0.0001*%
%ADD682R,0.0321X0.0001*%
%ADD683R,0.0648X0.0001*%
%ADD684R,0.0344X0.0001*%
%ADD685R,0.0317X0.0001*%
%ADD686R,0.0339X0.0001*%
%ADD687R,0.0312X0.0001*%
%ADD688R,0.0631X0.0001*%
%ADD689R,0.0334X0.0001*%
%ADD690R,0.0309X0.0001*%
%ADD691R,0.0307X0.0002*%
%ADD692R,0.0623X0.0002*%
%ADD693R,0.0327X0.0002*%
%ADD694R,0.0618X0.0001*%
%ADD695R,0.0297X0.0001*%
%ADD696R,0.0607X0.0001*%
%ADD697R,0.0320X0.0001*%
%ADD698R,0.0293X0.0001*%
%ADD699R,0.0599X0.0001*%
%ADD700R,0.0313X0.0001*%
%ADD701R,0.0285X0.0001*%
%ADD702R,0.0584X0.0001*%
%ADD703R,0.0303X0.0001*%
%ADD704R,0.0281X0.0001*%
%ADD705R,0.0273X0.0002*%
%ADD706R,0.0563X0.0002*%
%ADD707R,0.0293X0.0002*%
%ADD708R,0.0264X0.0001*%
%ADD709R,0.0259X0.0001*%
%ADD710R,0.0256X0.0001*%
%ADD711R,0.0276X0.0001*%
%ADD712R,0.0252X0.0001*%
%ADD713R,0.0273X0.0001*%
%ADD714R,0.0248X0.0001*%
%ADD715R,0.0269X0.0001*%
%ADD716R,0.0245X0.0001*%
%ADD717R,0.0240X0.0001*%
%ADD718R,0.0237X0.0002*%
%ADD719R,0.0256X0.0002*%
%ADD720R,0.0234X0.0001*%
%ADD721R,0.0232X0.0001*%
%ADD722R,0.0251X0.0001*%
%ADD723R,0.0228X0.0001*%
%ADD724R,0.0246X0.0001*%
%ADD725R,0.0456X0.0001*%
%ADD726R,0.0219X0.0001*%
%ADD727R,0.0444X0.0001*%
%ADD728R,0.0237X0.0001*%
%ADD729R,0.0214X0.0001*%
%ADD730R,0.0436X0.0001*%
%ADD731R,0.0432X0.0001*%
%ADD732R,0.0231X0.0001*%
%ADD733R,0.0210X0.0001*%
%ADD734R,0.0426X0.0001*%
%ADD735R,0.0420X0.0001*%
%ADD736R,0.0226X0.0001*%
%ADD737R,0.0204X0.0002*%
%ADD738R,0.0409X0.0002*%
%ADD739R,0.0222X0.0002*%
%ADD740R,0.0391X0.0001*%
%ADD741R,0.0217X0.0001*%
%ADD742R,0.0376X0.0001*%
%ADD743R,0.0368X0.0001*%
%ADD744R,0.0189X0.0001*%
%ADD745R,0.0361X0.0001*%
%ADD746R,0.0206X0.0001*%
%ADD747R,0.0186X0.0001*%
%ADD748R,0.0356X0.0001*%
%ADD749R,0.0181X0.0001*%
%ADD750R,0.0345X0.0001*%
%ADD751R,0.0173X0.0001*%
%ADD752R,0.0331X0.0001*%
%ADD753R,0.0190X0.0001*%
%ADD754R,0.0168X0.0001*%
%ADD755R,0.0165X0.0002*%
%ADD756R,0.0162X0.0001*%
%ADD757R,0.0159X0.0001*%
%ADD758R,0.0177X0.0001*%
%ADD759R,0.0156X0.0001*%
%ADD760R,0.0324X0.0001*%
%ADD761R,0.0174X0.0001*%
%ADD762R,0.0167X0.0001*%
%ADD763R,0.0146X0.0001*%
%ADD764R,0.0163X0.0001*%
%ADD765R,0.0141X0.0001*%
%ADD766R,0.0140X0.0001*%
%ADD767R,0.0137X0.0001*%
%ADD768R,0.0133X0.0001*%
%ADD769R,0.0129X0.0002*%
%ADD770R,0.0321X0.0002*%
%ADD771R,0.0146X0.0002*%
%ADD772R,0.0119X0.0001*%
%ADD773R,0.0129X0.0001*%
%ADD774R,0.0111X0.0001*%
%ADD775R,0.0126X0.0001*%
%ADD776R,0.0318X0.0001*%
%ADD777R,0.0097X0.0001*%
%ADD778R,0.0315X0.0001*%
%ADD779R,0.0089X0.0002*%
%ADD780R,0.0315X0.0002*%
%ADD781R,0.0105X0.0002*%
%ADD782R,0.0079X0.0001*%
%ADD783R,0.0089X0.0001*%
%ADD784R,0.0069X0.0001*%
%ADD785R,0.0084X0.0001*%
%ADD786R,0.0057X0.0001*%
%ADD787R,0.0052X0.0002*%
%ADD788R,0.0311X0.0002*%
%ADD789R,0.0066X0.0002*%
%ADD790R,0.0061X0.0001*%
%ADD791R,0.0042X0.0001*%
%ADD792R,0.0055X0.0001*%
%ADD793R,0.0039X0.0001*%
%ADD794R,0.0052X0.0001*%
%ADD795R,0.0036X0.0001*%
%ADD796R,0.0049X0.0001*%
%ADD797R,0.0307X0.0001*%
%ADD798R,0.0045X0.0001*%
%ADD799R,0.0022X0.0001*%
%ADD800R,0.0035X0.0001*%
%ADD801R,0.0025X0.0002*%
%ADD802R,0.0306X0.0001*%
%ADD803R,0.0018X0.0001*%
%ADD804R,0.0008X0.0001*%
%ADD805R,0.0300X0.0002*%
%ADD806R,0.0296X0.0001*%
%ADD807R,0.0294X0.0002*%
%ADD808R,0.0294X0.0001*%
%ADD809R,0.0291X0.0001*%
%ADD810R,0.0291X0.0002*%
%ADD811R,0.0286X0.0001*%
%ADD812R,0.0281X0.0002*%
%ADD813R,0.0277X0.0001*%
%ADD814R,0.0276X0.0001*%
%ADD815R,0.0266X0.0002*%
%ADD816R,0.0264X0.0001*%
%ADD817R,0.0261X0.0001*%
%ADD818R,0.0259X0.0002*%
%ADD819R,0.0254X0.0002*%
%ADD820R,0.0248X0.0002*%
%ADD821R,0.0218X0.0002*%
%ADD822R,0.0157X0.0001*%
%ADD823R,0.0004X0.0004*%
%ADD824R,0.0216X0.0004*%
%ADD825R,0.1534X0.0004*%
%ADD826R,0.0212X0.0004*%
%ADD827R,0.1751X0.0004*%
%ADD828R,0.1746X0.0004*%
%ADD829R,0.0207X0.0004*%
%ADD830R,0.1530X0.0004*%
%ADD831R,0.0203X0.0004*%
%ADD832R,0.1526X0.0004*%
%ADD833R,0.0198X0.0004*%
%ADD834R,0.1521X0.0004*%
%ADD835R,0.0194X0.0004*%
%ADD836R,0.1517X0.0004*%
%ADD837R,0.0190X0.0004*%
%ADD838R,0.1512X0.0004*%
%ADD839R,0.0185X0.0004*%
%ADD840R,0.1508X0.0004*%
%ADD841R,0.0181X0.0004*%
%ADD842R,0.1504X0.0004*%
%ADD843R,0.0176X0.0004*%
%ADD844R,0.1499X0.0004*%
%ADD845R,0.0172X0.0004*%
%ADD846R,0.1495X0.0004*%
%ADD847R,0.0168X0.0004*%
%ADD848R,0.1490X0.0004*%
%ADD849R,0.0163X0.0004*%
%ADD850R,0.1486X0.0004*%
%ADD851R,0.1482X0.0004*%
%ADD852R,0.0154X0.0004*%
%ADD853R,0.1477X0.0004*%
%ADD854R,0.1473X0.0004*%
%ADD855R,0.0150X0.0004*%
%ADD856R,0.1468X0.0004*%
%ADD857R,0.0146X0.0004*%
%ADD858R,0.0141X0.0004*%
%ADD859R,0.1464X0.0004*%
%ADD860R,0.0137X0.0004*%
%ADD861R,0.1460X0.0004*%
%ADD862R,0.0132X0.0004*%
%ADD863R,0.1455X0.0004*%
%ADD864R,0.0128X0.0004*%
%ADD865R,0.1451X0.0004*%
%ADD866R,0.0123X0.0004*%
%ADD867R,0.1446X0.0004*%
%ADD868R,0.0119X0.0004*%
%ADD869R,0.1442X0.0004*%
%ADD870R,0.0115X0.0004*%
%ADD871R,0.1437X0.0004*%
%ADD872R,0.0110X0.0004*%
%ADD873R,0.1433X0.0004*%
%ADD874R,0.0106X0.0004*%
%ADD875R,0.1429X0.0004*%
%ADD876R,0.0101X0.0004*%
%ADD877R,0.1424X0.0004*%
%ADD878R,0.0097X0.0004*%
%ADD879R,0.1420X0.0004*%
%ADD880R,0.1415X0.0004*%
%ADD881R,0.0093X0.0004*%
%ADD882R,0.1411X0.0004*%
%ADD883R,0.0088X0.0004*%
%ADD884R,0.1407X0.0004*%
%ADD885R,0.0084X0.0004*%
%ADD886R,0.1402X0.0004*%
%ADD887R,0.0079X0.0004*%
%ADD888R,0.0075X0.0004*%
%ADD889R,0.1398X0.0004*%
%ADD890R,0.0071X0.0004*%
%ADD891R,0.1393X0.0004*%
%ADD892R,0.0066X0.0004*%
%ADD893R,0.1389X0.0004*%
%ADD894R,0.0062X0.0004*%
%ADD895R,0.1385X0.0004*%
%ADD896R,0.0057X0.0004*%
%ADD897R,0.1380X0.0004*%
%ADD898R,0.0053X0.0004*%
%ADD899R,0.1376X0.0004*%
%ADD900R,0.0049X0.0004*%
%ADD901R,0.1371X0.0004*%
%ADD902R,0.0044X0.0004*%
%ADD903R,0.1367X0.0004*%
%ADD904R,0.0040X0.0004*%
%ADD905R,0.1363X0.0004*%
%ADD906R,0.0035X0.0004*%
%ADD907R,0.1358X0.0004*%
%ADD908R,0.0031X0.0004*%
%ADD909R,0.1354X0.0004*%
%ADD910R,0.0026X0.0004*%
%ADD911R,0.1349X0.0004*%
%ADD912R,0.1345X0.0004*%
%ADD913R,0.0022X0.0004*%
%ADD914R,0.1340X0.0004*%
%ADD915R,0.0013X0.0004*%
%ADD916R,0.1336X0.0004*%
%ADD917R,0.0009X0.0004*%
%ADD918R,0.1332X0.0004*%
%ADD919R,0.1327X0.0004*%
%ADD920R,0.1323X0.0004*%
%ADD921R,0.1318X0.0004*%
%ADD922R,0.1314X0.0004*%
%ADD923R,0.1310X0.0004*%
%ADD924R,0.0018X0.0004*%
%ADD925R,0.1305X0.0004*%
%ADD926R,0.1301X0.0004*%
%ADD927R,0.1296X0.0004*%
%ADD928R,0.1292X0.0004*%
%ADD929R,0.1288X0.0004*%
%ADD930R,0.1283X0.0004*%
%ADD931R,0.1279X0.0004*%
%ADD932R,0.1274X0.0004*%
%ADD933R,0.1270X0.0004*%
%ADD934R,0.1266X0.0004*%
%ADD935R,0.1261X0.0004*%
%ADD936R,0.1257X0.0004*%
%ADD937R,0.1252X0.0004*%
%ADD938R,0.1248X0.0004*%
%ADD939R,0.1243X0.0004*%
%ADD940R,0.1239X0.0004*%
%ADD941R,0.1235X0.0004*%
%ADD942R,0.1230X0.0004*%
%ADD943R,0.1226X0.0004*%
%ADD944R,0.1221X0.0004*%
%ADD945R,0.1217X0.0004*%
%ADD946R,0.1213X0.0004*%
%ADD947R,0.1208X0.0004*%
%ADD948R,0.1204X0.0004*%
%ADD949R,0.1195X0.0004*%
%ADD950R,0.1191X0.0004*%
%ADD951R,0.1186X0.0004*%
%ADD952R,0.1182X0.0004*%
%ADD953R,0.1177X0.0004*%
%ADD954R,0.1173X0.0004*%
%ADD955R,0.1169X0.0004*%
%ADD956R,0.0159X0.0004*%
%ADD957R,0.1164X0.0004*%
%ADD958R,0.1160X0.0004*%
%ADD959R,0.1054X0.0004*%
%ADD960R,0.0370X0.0004*%
%ADD961R,0.0657X0.0004*%
%ADD962R,0.0842X0.0004*%
%ADD963R,0.0419X0.0004*%
%ADD964R,0.0273X0.0004*%
%ADD965R,0.0833X0.0004*%
%ADD966R,0.0459X0.0004*%
%ADD967R,0.0326X0.0004*%
%ADD968R,0.0661X0.0004*%
%ADD969R,0.0825X0.0004*%
%ADD970R,0.0485X0.0004*%
%ADD971R,0.0375X0.0004*%
%ADD972R,0.0666X0.0004*%
%ADD973R,0.0820X0.0004*%
%ADD974R,0.0498X0.0004*%
%ADD975R,0.0397X0.0004*%
%ADD976R,0.0670X0.0004*%
%ADD977R,0.0811X0.0004*%
%ADD978R,0.0525X0.0004*%
%ADD979R,0.0432X0.0004*%
%ADD980R,0.0675X0.0004*%
%ADD981R,0.0803X0.0004*%
%ADD982R,0.0538X0.0004*%
%ADD983R,0.0794X0.0004*%
%ADD984R,0.0551X0.0004*%
%ADD985R,0.0481X0.0004*%
%ADD986R,0.0683X0.0004*%
%ADD987R,0.0789X0.0004*%
%ADD988R,0.0564X0.0004*%
%ADD989R,0.0503X0.0004*%
%ADD990R,0.0780X0.0004*%
%ADD991R,0.0578X0.0004*%
%ADD992R,0.0520X0.0004*%
%ADD993R,0.0688X0.0004*%
%ADD994R,0.0772X0.0004*%
%ADD995R,0.0586X0.0004*%
%ADD996R,0.0692X0.0004*%
%ADD997R,0.0763X0.0004*%
%ADD998R,0.0595X0.0004*%
%ADD999R,0.0556X0.0004*%
%ADD1000R,0.0697X0.0004*%
%ADD1001R,0.0754X0.0004*%
%ADD1002R,0.0604X0.0004*%
%ADD1003R,0.0573X0.0004*%
%ADD1004R,0.0701X0.0004*%
%ADD1005R,0.0220X0.0004*%
%ADD1006R,0.0745X0.0004*%
%ADD1007R,0.0613X0.0004*%
%ADD1008R,0.0706X0.0004*%
%ADD1009R,0.0225X0.0004*%
%ADD1010R,0.0736X0.0004*%
%ADD1011R,0.0622X0.0004*%
%ADD1012R,0.0600X0.0004*%
%ADD1013R,0.0710X0.0004*%
%ADD1014R,0.0229X0.0004*%
%ADD1015R,0.0728X0.0004*%
%ADD1016R,0.0631X0.0004*%
%ADD1017R,0.0617X0.0004*%
%ADD1018R,0.0234X0.0004*%
%ADD1019R,0.0719X0.0004*%
%ADD1020R,0.0635X0.0004*%
%ADD1021R,0.0626X0.0004*%
%ADD1022R,0.0714X0.0004*%
%ADD1023R,0.0238X0.0004*%
%ADD1024R,0.0644X0.0004*%
%ADD1025R,0.0639X0.0004*%
%ADD1026R,0.0243X0.0004*%
%ADD1027R,0.0648X0.0004*%
%ADD1028R,0.0653X0.0004*%
%ADD1029R,0.0723X0.0004*%
%ADD1030R,0.0247X0.0004*%
%ADD1031R,0.0732X0.0004*%
%ADD1032R,0.0251X0.0004*%
%ADD1033R,0.0679X0.0004*%
%ADD1034R,0.0256X0.0004*%
%ADD1035R,0.0741X0.0004*%
%ADD1036R,0.0260X0.0004*%
%ADD1037R,0.0265X0.0004*%
%ADD1038R,0.0269X0.0004*%
%ADD1039R,0.0750X0.0004*%
%ADD1040R,0.0278X0.0004*%
%ADD1041R,0.0758X0.0004*%
%ADD1042R,0.0282X0.0004*%
%ADD1043R,0.0287X0.0004*%
%ADD1044R,0.0291X0.0004*%
%ADD1045R,0.0767X0.0004*%
%ADD1046R,0.0295X0.0004*%
%ADD1047R,0.0300X0.0004*%
%ADD1048R,0.0428X0.0004*%
%ADD1049R,0.0344X0.0004*%
%ADD1050R,0.0340X0.0004*%
%ADD1051R,0.0304X0.0004*%
%ADD1052R,0.0335X0.0004*%
%ADD1053R,0.0309X0.0004*%
%ADD1054R,0.0569X0.0004*%
%ADD1055R,0.0313X0.0004*%
%ADD1056R,0.0560X0.0004*%
%ADD1057R,0.0317X0.0004*%
%ADD1058R,0.0547X0.0004*%
%ADD1059R,0.0322X0.0004*%
%ADD1060R,0.0529X0.0004*%
%ADD1061R,0.0331X0.0004*%
%ADD1062R,0.0516X0.0004*%
%ADD1063R,0.0507X0.0004*%
%ADD1064R,0.0348X0.0004*%
%ADD1065R,0.0489X0.0004*%
%ADD1066R,0.0353X0.0004*%
%ADD1067R,0.0357X0.0004*%
%ADD1068R,0.0472X0.0004*%
%ADD1069R,0.0362X0.0004*%
%ADD1070R,0.0463X0.0004*%
%ADD1071R,0.0366X0.0004*%
%ADD1072R,0.0454X0.0004*%
%ADD1073R,0.0445X0.0004*%
%ADD1074R,0.0437X0.0004*%
%ADD1075R,0.0379X0.0004*%
%ADD1076R,0.0384X0.0004*%
%ADD1077R,0.0388X0.0004*%
%ADD1078R,0.0414X0.0004*%
%ADD1079R,0.0406X0.0004*%
%ADD1080R,0.0392X0.0004*%
%ADD1081R,0.0401X0.0004*%
%ADD1082R,0.0410X0.0004*%
%ADD1083R,0.0423X0.0004*%
%ADD1084R,0.0441X0.0004*%
%ADD1085R,0.0450X0.0004*%
%ADD1086R,0.0467X0.0004*%
%ADD1087R,0.0476X0.0004*%
%ADD1088R,0.0511X0.0004*%
%ADD1089R,0.0534X0.0004*%
%ADD1090R,0.0542X0.0004*%
%ADD1091R,0.0582X0.0004*%
%ADD1092R,0.0591X0.0004*%
%ADD1093R,0.0944X0.0004*%
%ADD1094R,0.0609X0.0004*%
%ADD1095R,0.0935X0.0004*%
%ADD1096R,0.0930X0.0004*%
%ADD1097R,0.0926X0.0004*%
%ADD1098R,0.0785X0.0004*%
%ADD1099R,0.0798X0.0004*%
%ADD1100R,0.0807X0.0004*%
%ADD1101R,0.0816X0.0004*%
%ADD1102R,0.0829X0.0004*%
%ADD1103R,0.0838X0.0004*%
%ADD1104R,0.0847X0.0004*%
%ADD1105R,0.0851X0.0004*%
%ADD1106R,0.0855X0.0004*%
%ADD1107R,0.0860X0.0004*%
%ADD1108R,0.0864X0.0004*%
%ADD1109R,0.0869X0.0004*%
%ADD1110R,0.0873X0.0004*%
%ADD1111R,0.0877X0.0004*%
%ADD1112R,0.0882X0.0004*%
%ADD1113R,0.0886X0.0004*%
%ADD1114R,0.0891X0.0004*%
%ADD1115R,0.0895X0.0004*%
%ADD1116R,0.0900X0.0004*%
%ADD1117R,0.0904X0.0004*%
%ADD1118R,0.0908X0.0004*%
%ADD1119R,0.0494X0.0004*%
%ADD1120R,0.1900X0.0004*%
%ADD1121R,0.1896X0.0004*%
%ADD1122R,0.1892X0.0004*%
%ADD1123R,0.1887X0.0004*%
%ADD1124R,0.1883X0.0004*%
%ADD1125R,0.1878X0.0004*%
%ADD1126R,0.1874X0.0004*%
%ADD1127R,0.1870X0.0004*%
%ADD1128R,0.1865X0.0004*%
%ADD1129R,0.1861X0.0004*%
%ADD1130R,0.1856X0.0004*%
%ADD1131R,0.1852X0.0004*%
%ADD1132R,0.1848X0.0004*%
%ADD1133R,0.1843X0.0004*%
%ADD1134R,0.1839X0.0004*%
%ADD1135R,0.1834X0.0004*%
%ADD1136R,0.1830X0.0004*%
%ADD1137R,0.1826X0.0004*%
%ADD1138R,0.1821X0.0004*%
%ADD1139R,0.1817X0.0004*%
%ADD1140R,0.1812X0.0004*%
%ADD1141R,0.1808X0.0004*%
%ADD1142R,0.1799X0.0004*%
%ADD1143R,0.1795X0.0004*%
%ADD1144R,0.1790X0.0004*%
%ADD1145R,0.1786X0.0004*%
%ADD1146R,0.1781X0.0004*%
%ADD1147R,0.1777X0.0004*%
%ADD1148R,0.1768X0.0004*%
%ADD1149R,0.0970X0.0004*%
%ADD1150R,0.0974X0.0004*%
%ADD1151R,0.0979X0.0004*%
%ADD1152R,0.0983X0.0004*%
%ADD1153R,0.0988X0.0004*%
%ADD1154R,0.0992X0.0004*%
%ADD1155R,0.0997X0.0004*%
%ADD1156R,0.1001X0.0004*%
%ADD1157R,0.1005X0.0004*%
%ADD1158R,0.1010X0.0004*%
%ADD1159R,0.1014X0.0004*%
%ADD1160R,0.1019X0.0004*%
%ADD1161R,0.1023X0.0004*%
%ADD1162R,0.1027X0.0004*%
%ADD1163R,0.1032X0.0004*%
%ADD1164R,0.1036X0.0004*%
%ADD1165R,0.1041X0.0004*%
%ADD1166R,0.1045X0.0004*%
%ADD1167R,0.1049X0.0004*%
%ADD1168R,0.1058X0.0004*%
%ADD1169R,0.1063X0.0004*%
%ADD1170R,0.1067X0.0004*%
%ADD1171R,0.1071X0.0004*%
%ADD1172R,0.1076X0.0004*%
%ADD1173R,0.1080X0.0004*%
%ADD1174R,0.1085X0.0004*%
D10*
X004975Y020213D02*
X005222Y020213D01*
X005345Y020336D01*
X005222Y020459D01*
X004975Y020459D01*
X005037Y020581D02*
X005283Y020581D01*
X005345Y020643D01*
X005345Y020766D01*
X005283Y020828D01*
X005283Y020949D02*
X005345Y021011D01*
X005345Y021134D01*
X005283Y021196D01*
X005037Y021196D02*
X004975Y021134D01*
X004975Y021011D01*
X005037Y020949D01*
X005283Y020949D01*
X005037Y020828D02*
X004975Y020766D01*
X004975Y020643D01*
X005037Y020581D01*
X006020Y020620D02*
X006390Y020867D01*
X006020Y020867D01*
X006020Y020988D02*
X006020Y021173D01*
X006082Y021235D01*
X006329Y021235D01*
X006390Y021173D01*
X006390Y020988D01*
X006020Y020988D01*
X006020Y020620D02*
X006390Y020620D01*
X006329Y020498D02*
X006390Y020437D01*
X006390Y020313D01*
X006329Y020252D01*
X006082Y020252D01*
X006020Y020313D01*
X006020Y020437D01*
X006082Y020498D01*
X006205Y020498D02*
X006205Y020375D01*
X006205Y020498D02*
X006329Y020498D01*
X007055Y020543D02*
X007425Y020543D01*
X007425Y020788D02*
X007055Y021034D01*
X007055Y020788D02*
X007425Y021034D01*
X007055Y020666D02*
X007055Y020419D01*
X008065Y020560D02*
X008065Y020746D01*
X008126Y020807D01*
X008250Y020807D01*
X008311Y020746D01*
X008311Y020560D01*
X008435Y020560D02*
X008065Y020560D01*
X008311Y020684D02*
X008435Y020807D01*
X008435Y020929D02*
X008065Y021176D01*
X008065Y020929D02*
X008435Y021176D01*
X010212Y023527D02*
X010459Y023527D01*
X010335Y023527D02*
X010335Y023157D01*
X010580Y023219D02*
X010642Y023157D01*
X010766Y023157D01*
X010827Y023219D01*
X010827Y023280D01*
X010766Y023342D01*
X010704Y023342D01*
X010766Y023342D02*
X010827Y023404D01*
X010827Y023466D01*
X010766Y023527D01*
X010642Y023527D01*
X010580Y023466D01*
X010608Y024339D02*
X010546Y024401D01*
X010608Y024339D02*
X010731Y024339D01*
X010793Y024401D01*
X010793Y024463D01*
X010731Y024525D01*
X010669Y024525D01*
X010731Y024525D02*
X010793Y024586D01*
X010793Y024648D01*
X010731Y024710D01*
X010608Y024710D01*
X010546Y024648D01*
X010424Y024648D02*
X010424Y024401D01*
X010363Y024339D01*
X010178Y024339D01*
X010178Y024710D01*
X010363Y024710D01*
X010424Y024648D01*
X011054Y022205D02*
X010992Y022144D01*
X010992Y021897D01*
X011054Y021835D01*
X011177Y021835D01*
X011239Y021897D01*
X011361Y021835D02*
X011607Y022082D01*
X011607Y022144D01*
X011546Y022205D01*
X011422Y022205D01*
X011361Y022144D01*
X011239Y022144D02*
X011177Y022205D01*
X011054Y022205D01*
X011361Y021835D02*
X011607Y021835D01*
X012302Y022010D02*
X012302Y022380D01*
X012487Y022380D01*
X012549Y022318D01*
X012549Y022195D01*
X012487Y022133D01*
X012302Y022133D01*
X012426Y022133D02*
X012549Y022010D01*
X012671Y022010D02*
X012917Y022010D01*
X012794Y022010D02*
X012794Y022380D01*
X012671Y022257D01*
X014239Y022810D02*
X014424Y022810D01*
X014486Y022872D01*
X014486Y023118D01*
X014424Y023180D01*
X014239Y023180D01*
X014239Y022810D01*
X014607Y022810D02*
X014854Y023057D01*
X014854Y023118D01*
X014792Y023180D01*
X014669Y023180D01*
X014607Y023118D01*
X014607Y022810D02*
X014854Y022810D01*
X016509Y022680D02*
X016509Y022310D01*
X016509Y022433D02*
X016694Y022433D01*
X016756Y022495D01*
X016756Y022618D01*
X016694Y022680D01*
X016509Y022680D01*
X016632Y022433D02*
X016756Y022310D01*
X016877Y022310D02*
X017124Y022557D01*
X017124Y022618D01*
X017062Y022680D01*
X016939Y022680D01*
X016877Y022618D01*
X016877Y022310D02*
X017124Y022310D01*
X017062Y023210D02*
X017062Y023580D01*
X016939Y023580D02*
X017186Y023580D01*
X017307Y023518D02*
X017369Y023580D01*
X017492Y023580D01*
X017554Y023518D01*
X017554Y023457D01*
X017307Y023210D01*
X017554Y023210D01*
X018768Y024684D02*
X019015Y024684D01*
X019137Y024684D02*
X019137Y025054D01*
X019383Y025054D01*
X019505Y025054D02*
X019505Y024684D01*
X019690Y024684D01*
X019752Y024746D01*
X019752Y024992D01*
X019690Y025054D01*
X019505Y025054D01*
X019873Y024992D02*
X019935Y025054D01*
X020058Y025054D01*
X020120Y024992D01*
X020120Y024931D01*
X019873Y024684D01*
X020120Y024684D01*
X019383Y024684D02*
X019137Y024684D01*
X019137Y024869D02*
X019260Y024869D01*
X018768Y025054D02*
X018768Y024684D01*
X018939Y023180D02*
X019124Y023180D01*
X019186Y023118D01*
X019186Y022995D01*
X019124Y022933D01*
X018939Y022933D01*
X018939Y022810D02*
X018939Y023180D01*
X019062Y022933D02*
X019186Y022810D01*
X019307Y022995D02*
X019554Y022995D01*
X019492Y022810D02*
X019492Y023180D01*
X019307Y022995D01*
X019202Y015723D02*
X019078Y015723D01*
X019016Y015661D01*
X019016Y015414D01*
X019078Y015352D01*
X019202Y015352D01*
X019263Y015414D01*
X019263Y015661D02*
X019202Y015723D01*
X018895Y015661D02*
X018833Y015723D01*
X018710Y015723D01*
X018648Y015661D01*
X018648Y015414D01*
X018710Y015352D01*
X018833Y015352D01*
X018895Y015414D01*
X018527Y015476D02*
X018527Y015723D01*
X018527Y015476D02*
X018403Y015352D01*
X018280Y015476D01*
X018280Y015723D01*
X018546Y011071D02*
X018485Y011009D01*
X018485Y010762D01*
X018546Y010700D01*
X018670Y010700D01*
X018731Y010762D01*
X018731Y010885D01*
X018608Y010885D01*
X018731Y011009D02*
X018670Y011071D01*
X018546Y011071D01*
X018853Y011071D02*
X018853Y010700D01*
X019100Y010700D02*
X018853Y011071D01*
X019100Y011071D02*
X019100Y010700D01*
X019221Y010700D02*
X019406Y010700D01*
X019468Y010762D01*
X019468Y011009D01*
X019406Y011071D01*
X019221Y011071D01*
X019221Y010700D01*
X011619Y015087D02*
X011372Y015087D01*
X011496Y015087D02*
X011496Y015457D01*
X011372Y015334D01*
X011251Y015395D02*
X011189Y015457D01*
X011066Y015457D01*
X011004Y015395D01*
X011004Y015148D01*
X011066Y015087D01*
X011189Y015087D01*
X011251Y015148D01*
X006996Y024415D02*
X006749Y024415D01*
X006872Y024415D02*
X006872Y024786D01*
X006749Y024662D01*
X006627Y024724D02*
X006566Y024786D01*
X006381Y024786D01*
X006381Y024415D01*
X006566Y024415D01*
X006627Y024477D01*
X006627Y024724D01*
X006259Y024786D02*
X006012Y024786D01*
X006012Y024415D01*
X006259Y024415D01*
X006136Y024600D02*
X006012Y024600D01*
X005891Y024415D02*
X005644Y024415D01*
X005644Y024786D01*
X005414Y023712D02*
X005290Y023712D01*
X005228Y023651D01*
X005107Y023651D02*
X005045Y023712D01*
X004860Y023712D01*
X004860Y023342D01*
X004860Y023465D02*
X005045Y023465D01*
X005107Y023527D01*
X005107Y023651D01*
X004983Y023465D02*
X005107Y023342D01*
X005228Y023404D02*
X005290Y023342D01*
X005414Y023342D01*
X005475Y023404D01*
X005475Y023465D01*
X005414Y023527D01*
X005352Y023527D01*
X005414Y023527D02*
X005475Y023589D01*
X005475Y023651D01*
X005414Y023712D01*
D11*
X008424Y027395D02*
X008424Y027895D01*
X008424Y028395D01*
X008924Y028395D01*
X008924Y027895D01*
X008924Y027395D01*
X008674Y031245D02*
X008424Y031495D01*
X008304Y031625D01*
X014904Y031625D02*
X015024Y031495D01*
X015274Y031245D01*
X015524Y028395D02*
X015024Y028395D01*
X015024Y027895D01*
X015024Y027395D01*
X015524Y027395D02*
X015524Y027895D01*
X015524Y028395D01*
X014880Y013062D02*
X014882Y013091D01*
X014888Y013120D01*
X014897Y013148D01*
X014910Y013174D01*
X014926Y013198D01*
X014946Y013220D01*
X014968Y013240D01*
X014992Y013256D01*
X015018Y013269D01*
X015046Y013278D01*
X015075Y013284D01*
X015104Y013286D01*
X015133Y013284D01*
X015162Y013278D01*
X015190Y013269D01*
X015216Y013256D01*
X015240Y013240D01*
X015262Y013220D01*
X015282Y013198D01*
X015298Y013174D01*
X015311Y013148D01*
X015320Y013120D01*
X015326Y013091D01*
X015328Y013062D01*
X015326Y013033D01*
X015320Y013004D01*
X015311Y012976D01*
X015298Y012950D01*
X015282Y012926D01*
X015262Y012904D01*
X015240Y012884D01*
X015216Y012868D01*
X015190Y012855D01*
X015162Y012846D01*
X015133Y012840D01*
X015104Y012838D01*
X015075Y012840D01*
X015046Y012846D01*
X015018Y012855D01*
X014992Y012868D01*
X014968Y012884D01*
X014946Y012904D01*
X014926Y012926D01*
X014910Y012950D01*
X014897Y012976D01*
X014888Y013004D01*
X014882Y013033D01*
X014880Y013062D01*
D12*
X014753Y012507D02*
X014579Y012507D01*
X014493Y012420D01*
X014493Y012247D01*
X014579Y012160D01*
X014753Y012160D01*
X014840Y012247D01*
X014840Y012420D01*
X014753Y012507D01*
X015008Y012420D02*
X015008Y012247D01*
X015095Y012160D01*
X015355Y012160D01*
X015355Y012074D02*
X015355Y012507D01*
X015095Y012507D01*
X015008Y012420D01*
X015182Y011987D02*
X015269Y011987D01*
X015355Y012074D01*
X014323Y012507D02*
X014236Y012507D01*
X014063Y012334D01*
X014063Y012507D02*
X014063Y012160D01*
X013808Y012334D02*
X013547Y012334D01*
X013547Y012160D02*
X013547Y012681D01*
X013808Y012681D01*
X013894Y012594D01*
X013894Y012420D01*
X013808Y012334D01*
X012863Y012420D02*
X012776Y012334D01*
X012516Y012334D01*
X012347Y012334D02*
X012347Y012247D01*
X012261Y012160D01*
X012087Y012160D01*
X012000Y012247D01*
X011830Y012160D02*
X011657Y012160D01*
X011743Y012160D02*
X011743Y012681D01*
X011657Y012681D02*
X011830Y012681D01*
X012000Y012594D02*
X012000Y012507D01*
X012087Y012420D01*
X012261Y012420D01*
X012347Y012334D01*
X012516Y012160D02*
X012516Y012681D01*
X012776Y012681D01*
X012863Y012594D01*
X012863Y012420D01*
X012347Y012594D02*
X012261Y012681D01*
X012087Y012681D01*
X012000Y012594D01*
X017841Y017998D02*
X017928Y017998D01*
X018101Y017998D02*
X018101Y017911D01*
X018101Y017998D02*
X018448Y017998D01*
X018448Y018084D02*
X018448Y017911D01*
X018448Y017741D02*
X018361Y017654D01*
X018014Y017654D01*
X018101Y017567D02*
X018101Y017741D01*
X017928Y017398D02*
X017928Y017051D01*
X017928Y017225D02*
X018448Y017225D01*
X018448Y016883D02*
X018101Y016883D01*
X017928Y016709D01*
X018101Y016536D01*
X018448Y016536D01*
X018188Y016536D02*
X018188Y016883D01*
X018101Y018255D02*
X018101Y018515D01*
X018188Y018602D01*
X018448Y018602D01*
X018361Y018770D02*
X018101Y018770D01*
X018361Y018770D02*
X018448Y018857D01*
X018448Y019117D01*
X018535Y019117D02*
X018101Y019117D01*
X018014Y019286D02*
X017928Y019373D01*
X017928Y019546D01*
X018014Y019633D01*
X018101Y019633D01*
X018448Y019286D01*
X018448Y019633D01*
X018361Y019802D02*
X018448Y019888D01*
X018448Y020062D01*
X018361Y020149D01*
X018275Y020149D01*
X018188Y020062D01*
X018188Y019975D01*
X018188Y020062D02*
X018101Y020149D01*
X018014Y020149D01*
X017928Y020062D01*
X017928Y019888D01*
X018014Y019802D01*
X018101Y020317D02*
X017928Y020491D01*
X018448Y020491D01*
X018448Y020664D02*
X018448Y020317D01*
X018361Y020833D02*
X018448Y020920D01*
X018448Y021093D01*
X018361Y021180D01*
X018275Y021180D01*
X018188Y021093D01*
X018188Y021006D01*
X018188Y021093D02*
X018101Y021180D01*
X018014Y021180D01*
X017928Y021093D01*
X017928Y020920D01*
X018014Y020833D01*
X018535Y019117D02*
X018622Y019031D01*
X018622Y018944D01*
X018448Y018255D02*
X018101Y018255D01*
X016164Y023295D02*
X014384Y023295D01*
X014384Y024795D02*
X016164Y024795D01*
X009564Y024695D02*
X007784Y024695D01*
X007784Y023195D02*
X009564Y023195D01*
X004848Y024436D02*
X004848Y024783D01*
X004848Y024951D02*
X004501Y024951D01*
X004501Y025212D01*
X004588Y025298D01*
X004848Y025298D01*
X004848Y025467D02*
X004848Y025727D01*
X004761Y025814D01*
X004675Y025727D01*
X004675Y025554D01*
X004588Y025467D01*
X004501Y025554D01*
X004501Y025814D01*
X004501Y026070D02*
X004501Y026243D01*
X004588Y026330D01*
X004848Y026330D01*
X004848Y026070D01*
X004761Y025983D01*
X004675Y026070D01*
X004675Y026330D01*
X004848Y026498D02*
X004501Y026498D01*
X004501Y026585D01*
X004588Y026672D01*
X004501Y026759D01*
X004588Y026845D01*
X004848Y026845D01*
X004848Y027014D02*
X004848Y027274D01*
X004761Y027361D01*
X004588Y027361D01*
X004501Y027274D01*
X004501Y027014D01*
X004328Y027014D02*
X004848Y027014D01*
X004848Y026672D02*
X004588Y026672D01*
X004848Y027530D02*
X004848Y027703D01*
X004848Y027616D02*
X004328Y027616D01*
X004328Y027530D01*
X004588Y027873D02*
X004501Y027960D01*
X004501Y028134D01*
X004588Y028220D01*
X004675Y028220D01*
X004675Y027873D01*
X004761Y027873D02*
X004588Y027873D01*
X004761Y027873D02*
X004848Y027960D01*
X004848Y028134D01*
X004848Y028905D02*
X004328Y029252D01*
X004328Y029936D02*
X004328Y030196D01*
X004414Y030283D01*
X004761Y030283D01*
X004848Y030196D01*
X004848Y029936D01*
X004328Y029936D01*
X004501Y030452D02*
X004501Y030538D01*
X004848Y030538D01*
X004848Y030452D02*
X004848Y030625D01*
X004848Y030795D02*
X004848Y031056D01*
X004761Y031142D01*
X004675Y031056D01*
X004675Y030882D01*
X004588Y030795D01*
X004501Y030882D01*
X004501Y031142D01*
X004588Y031311D02*
X004501Y031398D01*
X004501Y031571D01*
X004588Y031658D01*
X004675Y031658D01*
X004675Y031311D01*
X004761Y031311D02*
X004588Y031311D01*
X004761Y031311D02*
X004848Y031398D01*
X004848Y031571D01*
X004848Y031827D02*
X004501Y031827D01*
X004501Y032087D01*
X004588Y032174D01*
X004848Y032174D01*
X004761Y032342D02*
X004848Y032429D01*
X004848Y032603D01*
X004761Y032689D01*
X004588Y032689D01*
X004501Y032603D01*
X004501Y032429D01*
X004588Y032342D01*
X004761Y032342D01*
X004328Y031827D02*
X004241Y031913D01*
X004241Y032087D01*
X004154Y032174D01*
X003848Y031414D02*
X003588Y031414D01*
X003501Y031328D01*
X003588Y031241D01*
X003848Y031241D01*
X003848Y031067D02*
X003501Y031067D01*
X003501Y031154D01*
X003588Y031241D01*
X003588Y030899D02*
X003501Y030812D01*
X003501Y030638D01*
X003588Y030552D01*
X003761Y030552D01*
X003848Y030638D01*
X003848Y030812D01*
X003761Y030899D01*
X003588Y030899D01*
X003501Y030383D02*
X003501Y030123D01*
X003588Y030036D01*
X003761Y030036D01*
X003848Y030123D01*
X003848Y030383D01*
X003848Y029865D02*
X003848Y029778D01*
X003761Y029778D01*
X003761Y029865D01*
X003848Y029865D01*
X003848Y029610D02*
X003501Y029263D01*
X003588Y029094D02*
X003675Y029094D01*
X003675Y028747D01*
X003761Y028747D02*
X003588Y028747D01*
X003501Y028834D01*
X003501Y029007D01*
X003588Y029094D01*
X003848Y029007D02*
X003848Y028834D01*
X003761Y028747D01*
X003848Y028577D02*
X003761Y028490D01*
X003414Y028490D01*
X003501Y028403D02*
X003501Y028577D01*
X003588Y028234D02*
X003848Y028234D01*
X003588Y028234D02*
X003501Y028148D01*
X003501Y027888D01*
X003848Y027888D01*
X003848Y027719D02*
X003848Y027459D01*
X003761Y027372D01*
X003675Y027459D01*
X003675Y027719D01*
X003588Y027719D02*
X003848Y027719D01*
X003588Y027719D02*
X003501Y027632D01*
X003501Y027459D01*
X003501Y027203D02*
X003848Y027203D01*
X003848Y026943D01*
X003761Y026856D01*
X003501Y026856D01*
X003501Y026688D02*
X003501Y026427D01*
X003588Y026341D01*
X003761Y026341D01*
X003848Y026427D01*
X003848Y026688D01*
X003848Y026170D02*
X003848Y026083D01*
X003761Y026083D01*
X003761Y026170D01*
X003848Y026170D01*
X003761Y025914D02*
X003501Y025914D01*
X003761Y025914D02*
X003848Y025827D01*
X003761Y025741D01*
X003848Y025654D01*
X003761Y025567D01*
X003501Y025567D01*
X003501Y025398D02*
X003761Y025398D01*
X003848Y025312D01*
X003761Y025225D01*
X003848Y025138D01*
X003761Y025051D01*
X003501Y025051D01*
X003501Y024883D02*
X003761Y024883D01*
X003848Y024796D01*
X003761Y024709D01*
X003848Y024623D01*
X003761Y024536D01*
X003501Y024536D01*
X004328Y024436D02*
X004848Y024436D01*
X004588Y024436D02*
X004588Y024609D01*
X004328Y024783D02*
X004328Y024436D01*
X003848Y029263D02*
X003501Y029610D01*
X004241Y030538D02*
X004328Y030538D01*
X004588Y033374D02*
X004501Y033460D01*
X004501Y033634D01*
X004588Y033721D01*
X004675Y033721D01*
X004675Y033374D01*
X004761Y033374D02*
X004588Y033374D01*
X004761Y033374D02*
X004848Y033460D01*
X004848Y033634D01*
X004848Y033889D02*
X004501Y033889D01*
X004501Y034149D01*
X004588Y034236D01*
X004848Y034236D01*
X004848Y034921D02*
X004328Y034921D01*
X004501Y035094D01*
X004328Y035267D01*
X004848Y035267D01*
X004761Y035436D02*
X004588Y035436D01*
X004501Y035523D01*
X004501Y035696D01*
X004588Y035783D01*
X004675Y035783D01*
X004675Y035436D01*
X004761Y035436D02*
X004848Y035523D01*
X004848Y035696D01*
X004848Y035952D02*
X004501Y036299D01*
X004501Y036467D02*
X004501Y036554D01*
X004848Y036554D01*
X004848Y036467D02*
X004848Y036641D01*
X004761Y036811D02*
X004588Y036811D01*
X004501Y036898D01*
X004501Y037158D01*
X004588Y037327D02*
X004501Y037414D01*
X004501Y037587D01*
X004588Y037674D01*
X004761Y037674D01*
X004848Y037587D01*
X004848Y037414D01*
X004761Y037327D01*
X004588Y037327D01*
X004848Y037158D02*
X004848Y036898D01*
X004761Y036811D01*
X004328Y036554D02*
X004241Y036554D01*
X004501Y035952D02*
X004848Y036299D01*
D13*
X005745Y035307D02*
X005745Y037907D01*
X005745Y037987D01*
X011645Y037987D01*
X011645Y037907D01*
X011645Y035307D01*
X011645Y034367D01*
X005745Y034367D01*
X005745Y035307D01*
X006375Y035307D01*
X007075Y035307D02*
X008345Y035307D01*
X009045Y035307D02*
X010316Y035307D01*
X011016Y035307D02*
X011645Y035307D01*
X012325Y035327D02*
X012325Y034387D01*
X018225Y034387D01*
X018225Y035327D01*
X018225Y037927D01*
X012325Y037927D01*
X012325Y038007D01*
X018225Y038007D01*
X018225Y037927D01*
X017045Y037407D02*
X017047Y037435D01*
X017053Y037462D01*
X017062Y037488D01*
X017075Y037513D01*
X017092Y037536D01*
X017111Y037556D01*
X017133Y037573D01*
X017157Y037587D01*
X017183Y037597D01*
X017210Y037604D01*
X017238Y037607D01*
X017266Y037606D01*
X017293Y037601D01*
X017320Y037592D01*
X017345Y037580D01*
X017368Y037565D01*
X017389Y037546D01*
X017407Y037525D01*
X017422Y037501D01*
X017433Y037475D01*
X017441Y037449D01*
X017445Y037421D01*
X017445Y037393D01*
X017441Y037365D01*
X017433Y037339D01*
X017422Y037313D01*
X017407Y037289D01*
X017389Y037268D01*
X017368Y037249D01*
X017345Y037234D01*
X017320Y037222D01*
X017293Y037213D01*
X017266Y037208D01*
X017238Y037207D01*
X017210Y037210D01*
X017183Y037217D01*
X017157Y037227D01*
X017133Y037241D01*
X017111Y037258D01*
X017092Y037278D01*
X017075Y037301D01*
X017062Y037326D01*
X017053Y037352D01*
X017047Y037379D01*
X017045Y037407D01*
X016896Y035327D02*
X015625Y035327D01*
X014925Y035327D02*
X013655Y035327D01*
X012955Y035327D02*
X012325Y035327D01*
X012325Y037927D01*
X011645Y037907D02*
X005745Y037907D01*
X006525Y037387D02*
X006527Y037415D01*
X006533Y037442D01*
X006542Y037468D01*
X006555Y037493D01*
X006572Y037516D01*
X006591Y037536D01*
X006613Y037553D01*
X006637Y037567D01*
X006663Y037577D01*
X006690Y037584D01*
X006718Y037587D01*
X006746Y037586D01*
X006773Y037581D01*
X006800Y037572D01*
X006825Y037560D01*
X006848Y037545D01*
X006869Y037526D01*
X006887Y037505D01*
X006902Y037481D01*
X006913Y037455D01*
X006921Y037429D01*
X006925Y037401D01*
X006925Y037373D01*
X006921Y037345D01*
X006913Y037319D01*
X006902Y037293D01*
X006887Y037269D01*
X006869Y037248D01*
X006848Y037229D01*
X006825Y037214D01*
X006800Y037202D01*
X006773Y037193D01*
X006746Y037188D01*
X006718Y037187D01*
X006690Y037190D01*
X006663Y037197D01*
X006637Y037207D01*
X006613Y037221D01*
X006591Y037238D01*
X006572Y037258D01*
X006555Y037281D01*
X006542Y037306D01*
X006533Y037332D01*
X006527Y037359D01*
X006525Y037387D01*
X005424Y033795D02*
X011924Y033795D01*
X011924Y024895D01*
X005424Y024895D01*
X005424Y033795D01*
X007204Y031495D02*
X008424Y031495D01*
X008674Y031245D02*
X008674Y028645D01*
X008424Y028395D02*
X008924Y027395D01*
X008424Y027395D01*
X008674Y027145D02*
X008674Y026745D01*
X008924Y027895D02*
X011024Y027895D01*
X011024Y027645D01*
X012024Y024895D02*
X018524Y024895D01*
X018524Y033795D01*
X012024Y033795D01*
X012024Y024895D01*
X012924Y027645D02*
X012924Y027895D01*
X015024Y027895D01*
X015024Y027395D02*
X015524Y027395D01*
X015024Y028395D01*
X015274Y028645D02*
X015274Y031245D01*
X015524Y031495D02*
X016754Y031495D01*
X015024Y031495D02*
X013804Y031495D01*
X015524Y027895D02*
X017624Y027895D01*
X017624Y027645D01*
X015274Y027145D02*
X015274Y026745D01*
X012144Y020045D02*
X012144Y017345D01*
X012142Y017286D01*
X012136Y017228D01*
X012127Y017169D01*
X012113Y017112D01*
X012096Y017056D01*
X012075Y017001D01*
X012051Y016947D01*
X012023Y016895D01*
X011992Y016845D01*
X011958Y016797D01*
X011921Y016752D01*
X011880Y016709D01*
X011837Y016668D01*
X011792Y016631D01*
X011744Y016597D01*
X011694Y016566D01*
X011642Y016538D01*
X011588Y016514D01*
X011533Y016493D01*
X011477Y016476D01*
X011420Y016462D01*
X011361Y016453D01*
X011303Y016447D01*
X011244Y016445D01*
X011185Y016447D01*
X011127Y016453D01*
X011068Y016462D01*
X011011Y016476D01*
X010955Y016493D01*
X010900Y016514D01*
X010846Y016538D01*
X010794Y016566D01*
X010744Y016597D01*
X010696Y016631D01*
X010651Y016668D01*
X010608Y016709D01*
X010567Y016752D01*
X010530Y016797D01*
X010496Y016845D01*
X010465Y016895D01*
X010437Y016947D01*
X010413Y017001D01*
X010392Y017056D01*
X010375Y017112D01*
X010361Y017169D01*
X010352Y017228D01*
X010346Y017286D01*
X010344Y017345D01*
X010344Y020045D01*
X010346Y020104D01*
X010352Y020162D01*
X010361Y020221D01*
X010375Y020278D01*
X010392Y020334D01*
X010413Y020389D01*
X010437Y020443D01*
X010465Y020495D01*
X010496Y020545D01*
X010530Y020593D01*
X010567Y020638D01*
X010608Y020681D01*
X010651Y020722D01*
X010696Y020759D01*
X010744Y020793D01*
X010794Y020824D01*
X010846Y020852D01*
X010900Y020876D01*
X010955Y020897D01*
X011011Y020914D01*
X011068Y020928D01*
X011127Y020937D01*
X011185Y020943D01*
X011244Y020945D01*
X011303Y020943D01*
X011361Y020937D01*
X011420Y020928D01*
X011477Y020914D01*
X011533Y020897D01*
X011588Y020876D01*
X011642Y020852D01*
X011694Y020824D01*
X011744Y020793D01*
X011792Y020759D01*
X011837Y020722D01*
X011880Y020681D01*
X011921Y020638D01*
X011958Y020593D01*
X011992Y020545D01*
X012023Y020495D01*
X012051Y020443D01*
X012075Y020389D01*
X012096Y020334D01*
X012113Y020278D01*
X012127Y020221D01*
X012136Y020162D01*
X012142Y020104D01*
X012144Y020045D01*
X009617Y021773D02*
X009367Y021523D01*
X008867Y021523D01*
X008617Y021773D01*
X008367Y021523D01*
X007867Y021523D01*
X007617Y021773D01*
X007367Y021523D01*
X006867Y021523D01*
X006617Y021773D01*
X006367Y021523D01*
X005867Y021523D01*
X005617Y021773D01*
X005367Y021523D01*
X004867Y021523D01*
X004617Y021773D01*
X004367Y021523D01*
X003867Y021523D01*
X003617Y021773D01*
X003617Y022273D01*
X003867Y022523D01*
X004367Y022523D01*
X004617Y022273D01*
X004867Y022523D01*
X005367Y022523D01*
X005617Y022273D01*
X005617Y021773D01*
X005617Y022273D02*
X005867Y022523D01*
X006367Y022523D01*
X006617Y022273D01*
X006867Y022523D01*
X007367Y022523D01*
X007617Y022273D01*
X007867Y022523D01*
X008367Y022523D01*
X008617Y022273D01*
X008867Y022523D01*
X009367Y022523D01*
X009617Y022273D01*
X009617Y021773D01*
X008617Y021773D02*
X008617Y022273D01*
X007617Y022273D02*
X007617Y021773D01*
X006617Y021773D02*
X006617Y022273D01*
X006810Y019074D02*
X006596Y018967D01*
X006383Y018754D01*
X006703Y018754D01*
X006810Y018647D01*
X006810Y018540D01*
X006703Y018433D01*
X006489Y018433D01*
X006383Y018540D01*
X006383Y018754D01*
X006165Y018967D02*
X006165Y018540D01*
X006058Y018433D01*
X005845Y018433D01*
X005738Y018540D01*
X006165Y018967D01*
X006058Y019074D01*
X005845Y019074D01*
X005738Y018967D01*
X005738Y018540D01*
X005521Y018754D02*
X005094Y018754D01*
X004876Y018967D02*
X004769Y019074D01*
X004556Y019074D01*
X004449Y018967D01*
X004449Y018540D01*
X004556Y018433D01*
X004769Y018433D01*
X004876Y018540D01*
X004769Y018012D02*
X004556Y018012D01*
X004449Y017905D01*
X004449Y017478D01*
X004556Y017371D01*
X004769Y017371D01*
X004876Y017478D01*
X005094Y017691D02*
X005521Y017691D01*
X005738Y017478D02*
X006165Y017905D01*
X006165Y017478D01*
X006058Y017371D01*
X005845Y017371D01*
X005738Y017478D01*
X005738Y017905D01*
X005845Y018012D01*
X006058Y018012D01*
X006165Y017905D01*
X006383Y018012D02*
X006383Y017691D01*
X006596Y017798D01*
X006703Y017798D01*
X006810Y017691D01*
X006810Y017478D01*
X006703Y017371D01*
X006489Y017371D01*
X006383Y017478D01*
X006383Y018012D02*
X006810Y018012D01*
X004876Y017905D02*
X004769Y018012D01*
X004232Y018012D02*
X004232Y017371D01*
X004232Y017691D02*
X003804Y017691D01*
X003804Y017371D02*
X003804Y018012D01*
X003804Y018433D02*
X003804Y019074D01*
X003804Y018754D02*
X004232Y018754D01*
X004232Y019074D02*
X004232Y018433D01*
X004617Y021773D02*
X004617Y022273D01*
X006324Y027645D02*
X006324Y027895D01*
X008424Y027895D01*
X008924Y031495D02*
X010154Y031495D01*
X010465Y037387D02*
X010467Y037415D01*
X010473Y037442D01*
X010482Y037468D01*
X010495Y037493D01*
X010512Y037516D01*
X010531Y037536D01*
X010553Y037553D01*
X010577Y037567D01*
X010603Y037577D01*
X010630Y037584D01*
X010658Y037587D01*
X010686Y037586D01*
X010713Y037581D01*
X010740Y037572D01*
X010765Y037560D01*
X010788Y037545D01*
X010809Y037526D01*
X010827Y037505D01*
X010842Y037481D01*
X010853Y037455D01*
X010861Y037429D01*
X010865Y037401D01*
X010865Y037373D01*
X010861Y037345D01*
X010853Y037319D01*
X010842Y037293D01*
X010827Y037269D01*
X010809Y037248D01*
X010788Y037229D01*
X010765Y037214D01*
X010740Y037202D01*
X010713Y037193D01*
X010686Y037188D01*
X010658Y037187D01*
X010630Y037190D01*
X010603Y037197D01*
X010577Y037207D01*
X010553Y037221D01*
X010531Y037238D01*
X010512Y037258D01*
X010495Y037281D01*
X010482Y037306D01*
X010473Y037332D01*
X010467Y037359D01*
X010465Y037387D01*
X008495Y037387D02*
X008497Y037415D01*
X008503Y037442D01*
X008512Y037468D01*
X008525Y037493D01*
X008542Y037516D01*
X008561Y037536D01*
X008583Y037553D01*
X008607Y037567D01*
X008633Y037577D01*
X008660Y037584D01*
X008688Y037587D01*
X008716Y037586D01*
X008743Y037581D01*
X008770Y037572D01*
X008795Y037560D01*
X008818Y037545D01*
X008839Y037526D01*
X008857Y037505D01*
X008872Y037481D01*
X008883Y037455D01*
X008891Y037429D01*
X008895Y037401D01*
X008895Y037373D01*
X008891Y037345D01*
X008883Y037319D01*
X008872Y037293D01*
X008857Y037269D01*
X008839Y037248D01*
X008818Y037229D01*
X008795Y037214D01*
X008770Y037202D01*
X008743Y037193D01*
X008716Y037188D01*
X008688Y037187D01*
X008660Y037190D01*
X008633Y037197D01*
X008607Y037207D01*
X008583Y037221D01*
X008561Y037238D01*
X008542Y037258D01*
X008525Y037281D01*
X008512Y037306D01*
X008503Y037332D01*
X008497Y037359D01*
X008495Y037387D01*
X013105Y037407D02*
X013107Y037435D01*
X013113Y037462D01*
X013122Y037488D01*
X013135Y037513D01*
X013152Y037536D01*
X013171Y037556D01*
X013193Y037573D01*
X013217Y037587D01*
X013243Y037597D01*
X013270Y037604D01*
X013298Y037607D01*
X013326Y037606D01*
X013353Y037601D01*
X013380Y037592D01*
X013405Y037580D01*
X013428Y037565D01*
X013449Y037546D01*
X013467Y037525D01*
X013482Y037501D01*
X013493Y037475D01*
X013501Y037449D01*
X013505Y037421D01*
X013505Y037393D01*
X013501Y037365D01*
X013493Y037339D01*
X013482Y037313D01*
X013467Y037289D01*
X013449Y037268D01*
X013428Y037249D01*
X013405Y037234D01*
X013380Y037222D01*
X013353Y037213D01*
X013326Y037208D01*
X013298Y037207D01*
X013270Y037210D01*
X013243Y037217D01*
X013217Y037227D01*
X013193Y037241D01*
X013171Y037258D01*
X013152Y037278D01*
X013135Y037301D01*
X013122Y037326D01*
X013113Y037352D01*
X013107Y037379D01*
X013105Y037407D01*
X015075Y037407D02*
X015077Y037435D01*
X015083Y037462D01*
X015092Y037488D01*
X015105Y037513D01*
X015122Y037536D01*
X015141Y037556D01*
X015163Y037573D01*
X015187Y037587D01*
X015213Y037597D01*
X015240Y037604D01*
X015268Y037607D01*
X015296Y037606D01*
X015323Y037601D01*
X015350Y037592D01*
X015375Y037580D01*
X015398Y037565D01*
X015419Y037546D01*
X015437Y037525D01*
X015452Y037501D01*
X015463Y037475D01*
X015471Y037449D01*
X015475Y037421D01*
X015475Y037393D01*
X015471Y037365D01*
X015463Y037339D01*
X015452Y037313D01*
X015437Y037289D01*
X015419Y037268D01*
X015398Y037249D01*
X015375Y037234D01*
X015350Y037222D01*
X015323Y037213D01*
X015296Y037208D01*
X015268Y037207D01*
X015240Y037210D01*
X015213Y037217D01*
X015187Y037227D01*
X015163Y037241D01*
X015141Y037258D01*
X015122Y037278D01*
X015105Y037301D01*
X015092Y037326D01*
X015083Y037352D01*
X015077Y037379D01*
X015075Y037407D01*
X017596Y035327D02*
X018225Y035327D01*
X019284Y015211D02*
X016684Y015211D01*
X016684Y011281D01*
X016604Y011281D01*
X016604Y015211D01*
X016684Y015211D01*
X017004Y014231D02*
X017006Y014259D01*
X017012Y014286D01*
X017021Y014312D01*
X017034Y014337D01*
X017051Y014360D01*
X017070Y014380D01*
X017092Y014397D01*
X017116Y014411D01*
X017142Y014421D01*
X017169Y014428D01*
X017197Y014431D01*
X017225Y014430D01*
X017252Y014425D01*
X017279Y014416D01*
X017304Y014404D01*
X017327Y014389D01*
X017348Y014370D01*
X017366Y014349D01*
X017381Y014325D01*
X017392Y014299D01*
X017400Y014273D01*
X017404Y014245D01*
X017404Y014217D01*
X017400Y014189D01*
X017392Y014163D01*
X017381Y014137D01*
X017366Y014113D01*
X017348Y014092D01*
X017327Y014073D01*
X017304Y014058D01*
X017279Y014046D01*
X017252Y014037D01*
X017225Y014032D01*
X017197Y014031D01*
X017169Y014034D01*
X017142Y014041D01*
X017116Y014051D01*
X017092Y014065D01*
X017070Y014082D01*
X017051Y014102D01*
X017034Y014125D01*
X017021Y014150D01*
X017012Y014176D01*
X017006Y014203D01*
X017004Y014231D01*
X017004Y012261D02*
X017006Y012289D01*
X017012Y012316D01*
X017021Y012342D01*
X017034Y012367D01*
X017051Y012390D01*
X017070Y012410D01*
X017092Y012427D01*
X017116Y012441D01*
X017142Y012451D01*
X017169Y012458D01*
X017197Y012461D01*
X017225Y012460D01*
X017252Y012455D01*
X017279Y012446D01*
X017304Y012434D01*
X017327Y012419D01*
X017348Y012400D01*
X017366Y012379D01*
X017381Y012355D01*
X017392Y012329D01*
X017400Y012303D01*
X017404Y012275D01*
X017404Y012247D01*
X017400Y012219D01*
X017392Y012193D01*
X017381Y012167D01*
X017366Y012143D01*
X017348Y012122D01*
X017327Y012103D01*
X017304Y012088D01*
X017279Y012076D01*
X017252Y012067D01*
X017225Y012062D01*
X017197Y012061D01*
X017169Y012064D01*
X017142Y012071D01*
X017116Y012081D01*
X017092Y012095D01*
X017070Y012112D01*
X017051Y012132D01*
X017034Y012155D01*
X017021Y012180D01*
X017012Y012206D01*
X017006Y012233D01*
X017004Y012261D01*
X016684Y011281D02*
X019284Y011281D01*
X019284Y011911D01*
X019284Y012611D02*
X019284Y013881D01*
X019284Y014581D02*
X019284Y015211D01*
X020224Y015211D01*
X020224Y011281D01*
X019284Y011281D01*
X014744Y013095D02*
X014494Y012845D01*
X013994Y012845D01*
X013744Y013095D01*
X013744Y014595D01*
X013494Y014845D01*
X012994Y014845D01*
X012744Y014595D01*
X012494Y014845D01*
X011994Y014845D01*
X011744Y014595D01*
X011744Y013095D01*
X011994Y012845D01*
X012494Y012845D01*
X012744Y013095D01*
X012744Y014595D01*
X013744Y014595D02*
X013994Y014845D01*
X014494Y014845D01*
X014744Y014595D01*
X014744Y013095D01*
X013744Y013095D02*
X013494Y012845D01*
X012994Y012845D01*
X012744Y013095D01*
X008412Y008643D02*
X008305Y008749D01*
X008092Y008749D01*
X007985Y008643D01*
X007769Y008749D02*
X007555Y008749D01*
X007662Y008856D02*
X007662Y008429D01*
X007769Y008322D01*
X007985Y008322D02*
X007985Y008963D01*
X008412Y008643D02*
X008412Y008322D01*
X007338Y008429D02*
X007231Y008322D01*
X007017Y008322D01*
X006911Y008429D01*
X006911Y008643D01*
X007017Y008749D01*
X007231Y008749D01*
X007338Y008643D01*
X007338Y008429D01*
X006693Y008429D02*
X006586Y008322D01*
X006373Y008322D01*
X006266Y008429D01*
X006266Y008643D01*
X006373Y008749D01*
X006586Y008749D01*
X006693Y008643D01*
X006693Y008429D01*
X006050Y008322D02*
X005943Y008429D01*
X005943Y008856D01*
X005836Y008749D02*
X006050Y008749D01*
X005619Y008643D02*
X005619Y008536D01*
X005192Y008536D01*
X005192Y008643D02*
X005299Y008749D01*
X005512Y008749D01*
X005619Y008643D01*
X005512Y008322D02*
X005299Y008322D01*
X005192Y008429D01*
X005192Y008643D01*
X004974Y008749D02*
X004974Y008322D01*
X004654Y008322D01*
X004547Y008429D01*
X004547Y008749D01*
X004331Y008322D02*
X004118Y008322D01*
X004224Y008322D02*
X004224Y008963D01*
X004118Y008963D01*
X003900Y008856D02*
X003900Y008749D01*
X003793Y008643D01*
X003473Y008643D01*
X003473Y008963D02*
X003473Y008322D01*
X003793Y008322D01*
X003900Y008429D01*
X003900Y008536D01*
X003793Y008643D01*
X003900Y008856D02*
X003793Y008963D01*
X003473Y008963D01*
D14*
X003068Y007916D02*
X009968Y007916D01*
X009968Y022816D01*
X003068Y022816D01*
X003068Y007916D01*
D15*
X003149Y005613D02*
X019291Y005613D01*
X019353Y005615D01*
X019414Y005621D01*
X019475Y005630D01*
X019536Y005644D01*
X019595Y005661D01*
X019653Y005682D01*
X019710Y005707D01*
X019765Y005735D01*
X019818Y005766D01*
X019869Y005801D01*
X019918Y005839D01*
X019965Y005880D01*
X020008Y005923D01*
X020049Y005970D01*
X020087Y006019D01*
X020122Y006070D01*
X020153Y006123D01*
X020181Y006178D01*
X020206Y006235D01*
X020227Y006293D01*
X020244Y006352D01*
X020258Y006413D01*
X020267Y006474D01*
X020273Y006535D01*
X020275Y006597D01*
X020275Y037109D01*
X020273Y037171D01*
X020267Y037232D01*
X020258Y037293D01*
X020244Y037354D01*
X020227Y037413D01*
X020206Y037471D01*
X020181Y037528D01*
X020153Y037583D01*
X020122Y037636D01*
X020087Y037687D01*
X020049Y037736D01*
X020008Y037783D01*
X019965Y037826D01*
X019918Y037867D01*
X019869Y037905D01*
X019818Y037940D01*
X019765Y037971D01*
X019710Y037999D01*
X019653Y038024D01*
X019595Y038045D01*
X019536Y038062D01*
X019475Y038076D01*
X019414Y038085D01*
X019353Y038091D01*
X019291Y038093D01*
X003149Y038093D01*
X003087Y038091D01*
X003026Y038085D01*
X002965Y038076D01*
X002904Y038062D01*
X002845Y038045D01*
X002787Y038024D01*
X002730Y037999D01*
X002675Y037971D01*
X002622Y037940D01*
X002571Y037905D01*
X002522Y037867D01*
X002475Y037826D01*
X002432Y037783D01*
X002391Y037736D01*
X002353Y037687D01*
X002318Y037636D01*
X002287Y037583D01*
X002259Y037528D01*
X002234Y037471D01*
X002213Y037413D01*
X002196Y037354D01*
X002182Y037293D01*
X002173Y037232D01*
X002167Y037171D01*
X002165Y037109D01*
X002165Y006597D01*
X002167Y006535D01*
X002173Y006474D01*
X002182Y006413D01*
X002196Y006352D01*
X002213Y006293D01*
X002234Y006235D01*
X002259Y006178D01*
X002287Y006123D01*
X002318Y006070D01*
X002353Y006019D01*
X002391Y005970D01*
X002432Y005923D01*
X002475Y005880D01*
X002522Y005839D01*
X002571Y005801D01*
X002622Y005766D01*
X002675Y005735D01*
X002730Y005707D01*
X002787Y005682D01*
X002845Y005661D01*
X002904Y005644D01*
X002965Y005630D01*
X003026Y005621D01*
X003087Y005615D01*
X003149Y005613D01*
X002913Y006991D02*
X002915Y007041D01*
X002921Y007091D01*
X002931Y007140D01*
X002945Y007188D01*
X002962Y007235D01*
X002983Y007280D01*
X003008Y007324D01*
X003036Y007365D01*
X003068Y007404D01*
X003102Y007441D01*
X003139Y007475D01*
X003179Y007505D01*
X003221Y007532D01*
X003265Y007556D01*
X003311Y007577D01*
X003358Y007593D01*
X003406Y007606D01*
X003456Y007615D01*
X003505Y007620D01*
X003556Y007621D01*
X003606Y007618D01*
X003655Y007611D01*
X003704Y007600D01*
X003752Y007585D01*
X003798Y007567D01*
X003843Y007545D01*
X003886Y007519D01*
X003927Y007490D01*
X003966Y007458D01*
X004002Y007423D01*
X004034Y007385D01*
X004064Y007345D01*
X004091Y007302D01*
X004114Y007258D01*
X004133Y007212D01*
X004149Y007164D01*
X004161Y007115D01*
X004169Y007066D01*
X004173Y007016D01*
X004173Y006966D01*
X004169Y006916D01*
X004161Y006867D01*
X004149Y006818D01*
X004133Y006770D01*
X004114Y006724D01*
X004091Y006680D01*
X004064Y006637D01*
X004034Y006597D01*
X004002Y006559D01*
X003966Y006524D01*
X003927Y006492D01*
X003886Y006463D01*
X003843Y006437D01*
X003798Y006415D01*
X003752Y006397D01*
X003704Y006382D01*
X003655Y006371D01*
X003606Y006364D01*
X003556Y006361D01*
X003505Y006362D01*
X003456Y006367D01*
X003406Y006376D01*
X003358Y006389D01*
X003311Y006405D01*
X003265Y006426D01*
X003221Y006450D01*
X003179Y006477D01*
X003139Y006507D01*
X003102Y006541D01*
X003068Y006578D01*
X003036Y006617D01*
X003008Y006658D01*
X002983Y006702D01*
X002962Y006747D01*
X002945Y006794D01*
X002931Y006842D01*
X002921Y006891D01*
X002915Y006941D01*
X002913Y006991D01*
X002519Y035337D02*
X002521Y035387D01*
X002527Y035437D01*
X002537Y035486D01*
X002551Y035534D01*
X002568Y035581D01*
X002589Y035626D01*
X002614Y035670D01*
X002642Y035711D01*
X002674Y035750D01*
X002708Y035787D01*
X002745Y035821D01*
X002785Y035851D01*
X002827Y035878D01*
X002871Y035902D01*
X002917Y035923D01*
X002964Y035939D01*
X003012Y035952D01*
X003062Y035961D01*
X003111Y035966D01*
X003162Y035967D01*
X003212Y035964D01*
X003261Y035957D01*
X003310Y035946D01*
X003358Y035931D01*
X003404Y035913D01*
X003449Y035891D01*
X003492Y035865D01*
X003533Y035836D01*
X003572Y035804D01*
X003608Y035769D01*
X003640Y035731D01*
X003670Y035691D01*
X003697Y035648D01*
X003720Y035604D01*
X003739Y035558D01*
X003755Y035510D01*
X003767Y035461D01*
X003775Y035412D01*
X003779Y035362D01*
X003779Y035312D01*
X003775Y035262D01*
X003767Y035213D01*
X003755Y035164D01*
X003739Y035116D01*
X003720Y035070D01*
X003697Y035026D01*
X003670Y034983D01*
X003640Y034943D01*
X003608Y034905D01*
X003572Y034870D01*
X003533Y034838D01*
X003492Y034809D01*
X003449Y034783D01*
X003404Y034761D01*
X003358Y034743D01*
X003310Y034728D01*
X003261Y034717D01*
X003212Y034710D01*
X003162Y034707D01*
X003111Y034708D01*
X003062Y034713D01*
X003012Y034722D01*
X002964Y034735D01*
X002917Y034751D01*
X002871Y034772D01*
X002827Y034796D01*
X002785Y034823D01*
X002745Y034853D01*
X002708Y034887D01*
X002674Y034924D01*
X002642Y034963D01*
X002614Y035004D01*
X002589Y035048D01*
X002568Y035093D01*
X002551Y035140D01*
X002537Y035188D01*
X002527Y035237D01*
X002521Y035287D01*
X002519Y035337D01*
X018661Y035337D02*
X018663Y035387D01*
X018669Y035437D01*
X018679Y035486D01*
X018693Y035534D01*
X018710Y035581D01*
X018731Y035626D01*
X018756Y035670D01*
X018784Y035711D01*
X018816Y035750D01*
X018850Y035787D01*
X018887Y035821D01*
X018927Y035851D01*
X018969Y035878D01*
X019013Y035902D01*
X019059Y035923D01*
X019106Y035939D01*
X019154Y035952D01*
X019204Y035961D01*
X019253Y035966D01*
X019304Y035967D01*
X019354Y035964D01*
X019403Y035957D01*
X019452Y035946D01*
X019500Y035931D01*
X019546Y035913D01*
X019591Y035891D01*
X019634Y035865D01*
X019675Y035836D01*
X019714Y035804D01*
X019750Y035769D01*
X019782Y035731D01*
X019812Y035691D01*
X019839Y035648D01*
X019862Y035604D01*
X019881Y035558D01*
X019897Y035510D01*
X019909Y035461D01*
X019917Y035412D01*
X019921Y035362D01*
X019921Y035312D01*
X019917Y035262D01*
X019909Y035213D01*
X019897Y035164D01*
X019881Y035116D01*
X019862Y035070D01*
X019839Y035026D01*
X019812Y034983D01*
X019782Y034943D01*
X019750Y034905D01*
X019714Y034870D01*
X019675Y034838D01*
X019634Y034809D01*
X019591Y034783D01*
X019546Y034761D01*
X019500Y034743D01*
X019452Y034728D01*
X019403Y034717D01*
X019354Y034710D01*
X019304Y034707D01*
X019253Y034708D01*
X019204Y034713D01*
X019154Y034722D01*
X019106Y034735D01*
X019059Y034751D01*
X019013Y034772D01*
X018969Y034796D01*
X018927Y034823D01*
X018887Y034853D01*
X018850Y034887D01*
X018816Y034924D01*
X018784Y034963D01*
X018756Y035004D01*
X018731Y035048D01*
X018710Y035093D01*
X018693Y035140D01*
X018679Y035188D01*
X018669Y035237D01*
X018663Y035287D01*
X018661Y035337D01*
X018661Y006991D02*
X018663Y007041D01*
X018669Y007091D01*
X018679Y007140D01*
X018693Y007188D01*
X018710Y007235D01*
X018731Y007280D01*
X018756Y007324D01*
X018784Y007365D01*
X018816Y007404D01*
X018850Y007441D01*
X018887Y007475D01*
X018927Y007505D01*
X018969Y007532D01*
X019013Y007556D01*
X019059Y007577D01*
X019106Y007593D01*
X019154Y007606D01*
X019204Y007615D01*
X019253Y007620D01*
X019304Y007621D01*
X019354Y007618D01*
X019403Y007611D01*
X019452Y007600D01*
X019500Y007585D01*
X019546Y007567D01*
X019591Y007545D01*
X019634Y007519D01*
X019675Y007490D01*
X019714Y007458D01*
X019750Y007423D01*
X019782Y007385D01*
X019812Y007345D01*
X019839Y007302D01*
X019862Y007258D01*
X019881Y007212D01*
X019897Y007164D01*
X019909Y007115D01*
X019917Y007066D01*
X019921Y007016D01*
X019921Y006966D01*
X019917Y006916D01*
X019909Y006867D01*
X019897Y006818D01*
X019881Y006770D01*
X019862Y006724D01*
X019839Y006680D01*
X019812Y006637D01*
X019782Y006597D01*
X019750Y006559D01*
X019714Y006524D01*
X019675Y006492D01*
X019634Y006463D01*
X019591Y006437D01*
X019546Y006415D01*
X019500Y006397D01*
X019452Y006382D01*
X019403Y006371D01*
X019354Y006364D01*
X019304Y006361D01*
X019253Y006362D01*
X019204Y006367D01*
X019154Y006376D01*
X019106Y006389D01*
X019059Y006405D01*
X019013Y006426D01*
X018969Y006450D01*
X018927Y006477D01*
X018887Y006507D01*
X018850Y006541D01*
X018816Y006578D01*
X018784Y006617D01*
X018756Y006658D01*
X018731Y006702D01*
X018710Y006747D01*
X018693Y006794D01*
X018679Y006842D01*
X018669Y006891D01*
X018663Y006941D01*
X018661Y006991D01*
D16*
X011944Y017345D02*
X011944Y020045D01*
X011942Y020096D01*
X011937Y020147D01*
X011927Y020197D01*
X011914Y020247D01*
X011898Y020295D01*
X011878Y020342D01*
X011854Y020388D01*
X011828Y020431D01*
X011798Y020473D01*
X011765Y020512D01*
X011730Y020549D01*
X011692Y020583D01*
X011651Y020614D01*
X011609Y020643D01*
X011564Y020668D01*
X011518Y020689D01*
X011470Y020708D01*
X011421Y020722D01*
X011371Y020733D01*
X011321Y020741D01*
X011270Y020745D01*
X011218Y020745D01*
X011167Y020741D01*
X011117Y020733D01*
X011067Y020722D01*
X011018Y020708D01*
X010970Y020689D01*
X010924Y020668D01*
X010879Y020643D01*
X010837Y020614D01*
X010796Y020583D01*
X010758Y020549D01*
X010723Y020512D01*
X010690Y020473D01*
X010660Y020431D01*
X010634Y020388D01*
X010610Y020342D01*
X010590Y020295D01*
X010574Y020247D01*
X010561Y020197D01*
X010551Y020147D01*
X010546Y020096D01*
X010544Y020045D01*
X010544Y017345D01*
X010546Y017294D01*
X010551Y017243D01*
X010561Y017193D01*
X010574Y017143D01*
X010590Y017095D01*
X010610Y017048D01*
X010634Y017002D01*
X010660Y016959D01*
X010690Y016917D01*
X010723Y016878D01*
X010758Y016841D01*
X010796Y016807D01*
X010837Y016776D01*
X010879Y016747D01*
X010924Y016722D01*
X010970Y016701D01*
X011018Y016682D01*
X011067Y016668D01*
X011117Y016657D01*
X011167Y016649D01*
X011218Y016645D01*
X011270Y016645D01*
X011321Y016649D01*
X011371Y016657D01*
X011421Y016668D01*
X011470Y016682D01*
X011518Y016701D01*
X011564Y016722D01*
X011609Y016747D01*
X011651Y016776D01*
X011692Y016807D01*
X011730Y016841D01*
X011765Y016878D01*
X011798Y016917D01*
X011828Y016959D01*
X011854Y017002D01*
X011878Y017048D01*
X011898Y017095D01*
X011914Y017143D01*
X011927Y017193D01*
X011937Y017243D01*
X011942Y017294D01*
X011944Y017345D01*
D17*
X013605Y016011D02*
X016605Y016011D01*
X017424Y013736D02*
X017349Y013661D01*
X017349Y013511D01*
X017424Y013436D01*
X017424Y013736D02*
X017499Y013736D01*
X017799Y013436D01*
X017799Y013736D01*
X017799Y011786D02*
X017799Y011486D01*
X017799Y011636D02*
X017349Y011636D01*
X017499Y011486D01*
X016644Y021245D02*
X013644Y021245D01*
X013503Y021414D02*
X013505Y021440D01*
X013511Y021465D01*
X013520Y021489D01*
X013533Y021511D01*
X013549Y021531D01*
X013568Y021548D01*
X013589Y021563D01*
X013612Y021574D01*
X013637Y021582D01*
X013662Y021586D01*
X013688Y021586D01*
X013713Y021582D01*
X013738Y021574D01*
X013761Y021563D01*
X013782Y021548D01*
X013801Y021531D01*
X013817Y021511D01*
X013830Y021489D01*
X013839Y021465D01*
X013845Y021440D01*
X013847Y021414D01*
X013845Y021388D01*
X013839Y021363D01*
X013830Y021339D01*
X013817Y021317D01*
X013801Y021297D01*
X013782Y021280D01*
X013761Y021265D01*
X013738Y021254D01*
X013713Y021246D01*
X013688Y021242D01*
X013662Y021242D01*
X013637Y021246D01*
X013612Y021254D01*
X013589Y021265D01*
X013568Y021280D01*
X013549Y021297D01*
X013533Y021317D01*
X013520Y021339D01*
X013511Y021363D01*
X013505Y021388D01*
X013503Y021414D01*
D18*
X015350Y023651D02*
X014947Y024045D01*
X015350Y024439D01*
X015350Y023651D01*
X019219Y024253D02*
X019341Y024345D01*
X019341Y024526D01*
X019219Y024431D02*
X019335Y024355D01*
X019341Y024345D02*
X019341Y024164D01*
X008750Y024339D02*
X008750Y023551D01*
X008347Y023945D01*
X008750Y024339D01*
X006321Y024346D02*
X006321Y024165D01*
X006199Y024073D01*
X006321Y023984D02*
X006321Y024165D01*
X006315Y024175D02*
X006199Y024251D01*
D19*
X013644Y006335D03*
D20*
X014413Y006335D03*
D21*
X014509Y006506D03*
X014191Y006577D03*
X013370Y006490D03*
D22*
X013370Y006491D03*
D23*
X013370Y006493D03*
D24*
X013370Y006494D03*
D25*
X013370Y006496D03*
X013379Y007934D03*
D26*
X013370Y006497D03*
X014195Y006586D03*
D27*
X014197Y006587D03*
X013370Y006499D03*
D28*
X013370Y006500D03*
D29*
X013370Y006502D03*
D30*
X013370Y006503D03*
X014509Y006520D03*
D31*
X013371Y006505D03*
D32*
X013372Y006506D03*
X013673Y006587D03*
X014204Y006596D03*
D33*
X014206Y006598D03*
X014507Y006526D03*
X013372Y006508D03*
D34*
X014190Y006580D03*
X014509Y006508D03*
D35*
X014507Y006527D03*
X013670Y006592D03*
X013372Y006509D03*
D36*
X014509Y006509D03*
D37*
X014209Y006602D03*
X013669Y006593D03*
X013372Y006511D03*
D38*
X014509Y006511D03*
D39*
X013372Y006512D03*
D40*
X014193Y006584D03*
X014509Y006512D03*
D41*
X013667Y006595D03*
X013372Y006514D03*
D42*
X013683Y006577D03*
X014509Y006514D03*
X014472Y007939D03*
D43*
X013372Y006515D03*
D44*
X014509Y006515D03*
D45*
X014506Y006535D03*
X013373Y006517D03*
D46*
X013679Y006583D03*
X014198Y006589D03*
X014509Y006517D03*
D47*
X014215Y006610D03*
X013661Y006602D03*
X013373Y006518D03*
X013382Y007909D03*
D48*
X013381Y007927D03*
X014509Y006518D03*
D49*
X014506Y006538D03*
X014470Y007915D03*
X013912Y008126D03*
X013660Y006604D03*
X013373Y006520D03*
D50*
X013374Y006521D03*
D51*
X014509Y006521D03*
D52*
X014505Y006539D03*
X014217Y006614D03*
X014469Y007913D03*
X013374Y006523D03*
D53*
X014509Y006523D03*
D54*
X013375Y006524D03*
D55*
X013381Y007922D03*
X014508Y006524D03*
D56*
X014220Y006617D03*
X014469Y007909D03*
X013374Y006526D03*
D57*
X013375Y006527D03*
D58*
X013375Y006529D03*
X013653Y006613D03*
X014223Y006623D03*
X014467Y007906D03*
D59*
X014470Y007924D03*
X014506Y006529D03*
D60*
X013375Y006530D03*
D61*
X014506Y006530D03*
D62*
X014467Y007904D03*
X013384Y007897D03*
X013375Y006532D03*
D63*
X014506Y006532D03*
X014470Y007921D03*
D64*
X013375Y006533D03*
D65*
X013665Y006596D03*
X014506Y006533D03*
X014470Y007919D03*
D66*
X014228Y006629D03*
X013376Y006535D03*
D67*
X013376Y006536D03*
X013646Y006622D03*
X014503Y006556D03*
D68*
X014505Y006536D03*
X013662Y006601D03*
D69*
X013376Y006538D03*
D70*
X013377Y006539D03*
D71*
X013377Y006541D03*
X014232Y006638D03*
D72*
X014504Y006541D03*
D73*
X014466Y007894D03*
X013386Y007886D03*
X013377Y006542D03*
D74*
X013383Y007906D03*
X014469Y007912D03*
X014505Y006542D03*
D75*
X013377Y006544D03*
D76*
X014504Y006544D03*
D77*
X013378Y006545D03*
D78*
X014504Y006545D03*
D79*
X013378Y006547D03*
D80*
X014504Y006547D03*
D81*
X013378Y006548D03*
D82*
X013653Y006614D03*
X014224Y006625D03*
X014503Y006548D03*
D83*
X013378Y006550D03*
D84*
X014503Y006550D03*
D85*
X014500Y006571D03*
X013379Y006551D03*
D86*
X014503Y006551D03*
D87*
X013379Y006553D03*
D88*
X013649Y006617D03*
X014503Y006553D03*
D89*
X014464Y007882D03*
X013378Y006554D03*
D90*
X013648Y006619D03*
X014502Y006554D03*
X014467Y007900D03*
D91*
X013380Y006556D03*
D92*
X013381Y006557D03*
X013388Y007870D03*
D93*
X014502Y006557D03*
D94*
X014498Y006580D03*
X013930Y008123D03*
X013388Y007868D03*
X013381Y006559D03*
D95*
X014231Y006637D03*
X014501Y006559D03*
D96*
X013381Y006560D03*
D97*
X014501Y006560D03*
D98*
X013381Y006562D03*
X013388Y007867D03*
D99*
X014501Y006562D03*
D100*
X014497Y006584D03*
X014463Y007873D03*
X013381Y006563D03*
D101*
X014500Y006563D03*
X014466Y007892D03*
D102*
X013389Y007864D03*
X013381Y006565D03*
D103*
X014501Y006565D03*
D104*
X013382Y006566D03*
D105*
X014500Y006566D03*
D106*
X014496Y006589D03*
X013383Y006568D03*
D107*
X014500Y006568D03*
D108*
X013383Y006569D03*
D109*
X013688Y006569D03*
D110*
X014500Y006569D03*
D111*
X013383Y006571D03*
D112*
X013688Y006571D03*
D113*
X013384Y006572D03*
X013390Y007856D03*
X013931Y008119D03*
D114*
X013688Y006572D03*
D115*
X014500Y006572D03*
D116*
X014494Y006595D03*
X013384Y006574D03*
D117*
X013686Y006574D03*
D118*
X013387Y007876D03*
X014500Y006574D03*
D119*
X013384Y006575D03*
D120*
X013684Y006575D03*
D121*
X014499Y006575D03*
X014464Y007880D03*
D122*
X014494Y006599D03*
X013385Y006577D03*
D123*
X014499Y006577D03*
D124*
X014494Y006601D03*
X014459Y007856D03*
X013385Y006578D03*
D125*
X013681Y006578D03*
X013380Y007933D03*
D126*
X013380Y007937D03*
X014190Y006578D03*
D127*
X014499Y006578D03*
D128*
X014493Y006602D03*
X013930Y008111D03*
X013386Y006580D03*
D129*
X013681Y006580D03*
D130*
X013386Y006581D03*
X014493Y006604D03*
D131*
X013681Y006581D03*
D132*
X014191Y006581D03*
D133*
X014498Y006581D03*
X014464Y007876D03*
D134*
X013387Y006583D03*
D135*
X014191Y006583D03*
D136*
X014497Y006583D03*
X014463Y007874D03*
D137*
X014458Y007852D03*
X013930Y008086D03*
X013930Y008087D03*
X013930Y008089D03*
X013930Y008092D03*
X013387Y006584D03*
D138*
X013678Y006584D03*
X014199Y006592D03*
X014472Y007933D03*
D139*
X014457Y007849D03*
X013930Y008078D03*
X014491Y006608D03*
X013387Y006586D03*
D140*
X013675Y006586D03*
X014202Y006595D03*
D141*
X014497Y006586D03*
X014462Y007870D03*
D142*
X013388Y006587D03*
D143*
X013389Y007861D03*
X014461Y007868D03*
X014496Y006587D03*
D144*
X014490Y006613D03*
X013929Y008057D03*
X013929Y008059D03*
X013395Y007837D03*
X013389Y006589D03*
D145*
X013672Y006589D03*
X013381Y007921D03*
D146*
X013929Y008045D03*
X013389Y006590D03*
D147*
X013671Y006590D03*
D148*
X014199Y006590D03*
D149*
X014496Y006590D03*
D150*
X013930Y008035D03*
X013930Y008036D03*
X013930Y008038D03*
X013930Y008039D03*
X013930Y008041D03*
X013390Y006592D03*
D151*
X014495Y006592D03*
D152*
X013930Y008027D03*
X013390Y006593D03*
D153*
X014200Y006593D03*
D154*
X014495Y006593D03*
D155*
X014455Y007841D03*
X013396Y007834D03*
X013390Y006595D03*
D156*
X013390Y006596D03*
X013396Y007831D03*
X013929Y008011D03*
X013929Y008012D03*
D157*
X014494Y006596D03*
D158*
X014488Y006622D03*
X014454Y007837D03*
X013929Y007990D03*
X013929Y007991D03*
X013929Y007993D03*
X013929Y007994D03*
X013929Y007996D03*
X013929Y007997D03*
X013929Y007999D03*
X013396Y007828D03*
X013390Y006598D03*
D159*
X013663Y006598D03*
D160*
X014494Y006598D03*
D161*
X014488Y006623D03*
X013391Y006599D03*
D162*
X013662Y006599D03*
D163*
X014206Y006599D03*
X013381Y007919D03*
D164*
X013391Y006601D03*
D165*
X014208Y006601D03*
D166*
X013392Y006602D03*
D167*
X013392Y006604D03*
X013927Y007954D03*
X013927Y007957D03*
X013927Y007958D03*
X014452Y007832D03*
D168*
X014470Y007922D03*
X014209Y006604D03*
X013381Y007916D03*
D169*
X013393Y006605D03*
D170*
X013658Y006605D03*
D171*
X014211Y006605D03*
D172*
X014492Y006605D03*
D173*
X013929Y007930D03*
X013929Y007931D03*
X013929Y007933D03*
X013393Y006607D03*
D174*
X013656Y006607D03*
X014218Y006616D03*
X013383Y007904D03*
D175*
X013382Y007913D03*
X014213Y006607D03*
D176*
X014491Y006607D03*
X013930Y008084D03*
D177*
X013928Y007919D03*
X013928Y007918D03*
X013928Y007916D03*
X013928Y007915D03*
X013928Y007913D03*
X014485Y006634D03*
X013394Y006608D03*
D178*
X013655Y006608D03*
D179*
X014214Y006608D03*
X013381Y007912D03*
D180*
X013927Y007907D03*
X013927Y007906D03*
X013394Y006610D03*
D181*
X013655Y006610D03*
X013384Y007901D03*
X014468Y007907D03*
D182*
X014456Y007847D03*
X013930Y008068D03*
X013930Y008069D03*
X013930Y008071D03*
X013394Y007840D03*
X014491Y006610D03*
D183*
X013394Y006611D03*
D184*
X013654Y006611D03*
D185*
X014215Y006611D03*
D186*
X014491Y006611D03*
X013930Y008062D03*
X013930Y008063D03*
X013930Y008065D03*
D187*
X013395Y006613D03*
D188*
X014215Y006613D03*
D189*
X013395Y006614D03*
D190*
X013929Y008042D03*
X013929Y008044D03*
X013929Y008047D03*
X013929Y008048D03*
X014490Y006614D03*
D191*
X013928Y007879D03*
X013396Y006616D03*
D192*
X013651Y006616D03*
X014225Y006626D03*
D193*
X014489Y006616D03*
D194*
X013396Y006617D03*
X013401Y007808D03*
D195*
X013929Y008017D03*
X013929Y008018D03*
X014488Y006617D03*
D196*
X013929Y007876D03*
X013396Y006619D03*
D197*
X014221Y006619D03*
D198*
X014488Y006619D03*
X014455Y007838D03*
X013928Y008008D03*
X013928Y008009D03*
D199*
X013396Y006620D03*
D200*
X013648Y006620D03*
D201*
X014221Y006620D03*
D202*
X014488Y006620D03*
X013928Y008000D03*
D203*
X013396Y006622D03*
D204*
X013384Y007900D03*
X014222Y006622D03*
D205*
X014402Y006641D03*
X014342Y006794D03*
X014341Y006797D03*
X013508Y006728D03*
X013469Y006623D03*
X013511Y007036D03*
X013487Y007063D03*
D206*
X013512Y007034D03*
X013513Y007033D03*
X013503Y006721D03*
X013501Y006718D03*
X013500Y006715D03*
X013468Y006625D03*
X013486Y007373D03*
X014338Y007409D03*
X014340Y007408D03*
X014341Y007406D03*
X014343Y007030D03*
X014347Y006787D03*
X014349Y006784D03*
X014349Y006782D03*
X014350Y006779D03*
D207*
X014487Y006625D03*
D208*
X014403Y006644D03*
X014352Y006776D03*
X014299Y006916D03*
X014337Y007412D03*
X013566Y006899D03*
X013566Y006898D03*
X013516Y007028D03*
X013515Y007030D03*
X013498Y006712D03*
X013468Y006626D03*
X013521Y007411D03*
D209*
X013928Y007960D03*
X014486Y006626D03*
D210*
X014404Y006646D03*
X014354Y006773D03*
X014353Y006775D03*
X014299Y006917D03*
X014335Y007414D03*
X013523Y007414D03*
X013522Y007412D03*
X013483Y007064D03*
X013496Y006709D03*
X013496Y006707D03*
X013468Y006628D03*
D211*
X014227Y006628D03*
D212*
X014485Y006628D03*
X013399Y007823D03*
D213*
X013483Y007372D03*
X013518Y007027D03*
X013495Y006706D03*
X013494Y006703D03*
X013467Y006629D03*
X014355Y006772D03*
X014356Y006769D03*
X014356Y006767D03*
X014358Y006766D03*
D214*
X014485Y006629D03*
X014452Y007829D03*
X013928Y007945D03*
X013928Y007946D03*
X013928Y007948D03*
X013399Y007822D03*
D215*
X013525Y007418D03*
X013467Y006632D03*
X013467Y006631D03*
X014365Y006752D03*
X014335Y007021D03*
D216*
X014228Y006631D03*
D217*
X014485Y006631D03*
D218*
X014229Y006632D03*
X014467Y007898D03*
D219*
X013928Y007921D03*
X013928Y007922D03*
X013928Y007924D03*
X013928Y007927D03*
X013928Y007928D03*
X014485Y006632D03*
D220*
X014368Y006746D03*
X014367Y006748D03*
X013485Y006688D03*
X013485Y006686D03*
X013483Y006685D03*
X013467Y006634D03*
X013527Y007420D03*
X013528Y007421D03*
D221*
X014229Y006634D03*
D222*
X013467Y006635D03*
D223*
X014230Y006635D03*
D224*
X014484Y006635D03*
D225*
X013482Y006682D03*
X013467Y006638D03*
X013467Y006637D03*
D226*
X013927Y007889D03*
X013927Y007891D03*
X013927Y007892D03*
X013927Y007894D03*
X014450Y007823D03*
X014483Y006637D03*
D227*
X014482Y006638D03*
X013927Y007883D03*
X013400Y007813D03*
D228*
X013528Y007015D03*
X013468Y006640D03*
D229*
X014233Y006640D03*
D230*
X014481Y006640D03*
X014449Y007819D03*
X013401Y007810D03*
D231*
X013528Y007013D03*
X013564Y006919D03*
X013479Y006676D03*
X013479Y006674D03*
X013477Y006673D03*
X013477Y006671D03*
X013467Y006643D03*
X013467Y006641D03*
X014299Y006929D03*
X014299Y006931D03*
X014299Y006932D03*
X014299Y006934D03*
X014329Y007012D03*
X014379Y006728D03*
X014379Y006727D03*
X014380Y006724D03*
X014323Y007427D03*
D232*
X014338Y007411D03*
X014348Y007402D03*
X014342Y007028D03*
X014341Y007027D03*
X014299Y006914D03*
X014350Y006781D03*
X014351Y006778D03*
X014402Y006643D03*
X013928Y007849D03*
X013514Y007031D03*
X013502Y006719D03*
X013501Y006716D03*
X013499Y006713D03*
D233*
X013468Y006647D03*
X013468Y006646D03*
X013468Y006644D03*
D234*
X013565Y006904D03*
X013565Y006907D03*
X014359Y006764D03*
X014360Y006763D03*
X014362Y006761D03*
X014362Y006760D03*
X014404Y006647D03*
D235*
X014383Y006718D03*
X014382Y006719D03*
X014322Y007429D03*
X013468Y006655D03*
X013468Y006653D03*
X013468Y006652D03*
X013468Y006649D03*
D236*
X013491Y006697D03*
X013492Y006698D03*
X013564Y006908D03*
X013564Y006910D03*
X013521Y007024D03*
X014362Y006758D03*
X014404Y006649D03*
D237*
X013468Y006650D03*
D238*
X014299Y006920D03*
X014404Y006650D03*
D239*
X014405Y006652D03*
X014332Y007418D03*
X014330Y007420D03*
X013928Y007847D03*
X013522Y007022D03*
X013523Y007021D03*
X013523Y007019D03*
X013565Y006911D03*
X013489Y006694D03*
D240*
X013488Y006692D03*
X013486Y006691D03*
X013564Y006913D03*
X013564Y006914D03*
X014299Y006922D03*
X014299Y006923D03*
X014332Y007016D03*
X014334Y007018D03*
X014404Y006653D03*
X014329Y007421D03*
D241*
X014329Y007423D03*
X014327Y007424D03*
X014359Y007397D03*
X014371Y006742D03*
X014372Y006739D03*
X014374Y006737D03*
X014405Y006655D03*
X013525Y007018D03*
D242*
X013531Y007009D03*
X013564Y006922D03*
X013474Y006667D03*
X013471Y006662D03*
X013470Y006659D03*
X013470Y006658D03*
X013470Y006656D03*
X013534Y007427D03*
X014299Y006938D03*
X014299Y006937D03*
D243*
X014330Y007013D03*
X014399Y007087D03*
X014326Y007426D03*
X014377Y006733D03*
X014377Y006731D03*
X014378Y006730D03*
X014407Y006656D03*
X013480Y006677D03*
X013475Y007369D03*
X013532Y007426D03*
D244*
X013529Y007012D03*
X013477Y006670D03*
X013475Y006668D03*
X014327Y007009D03*
X014381Y006722D03*
X014381Y006721D03*
X014407Y006659D03*
X014407Y006658D03*
D245*
X014407Y006661D03*
X014390Y006707D03*
X014389Y006709D03*
X014387Y006712D03*
X014386Y006715D03*
X014300Y006940D03*
X014326Y007007D03*
X014320Y007432D03*
X014318Y007433D03*
X013928Y007846D03*
X013537Y007429D03*
X013532Y007007D03*
X013472Y006664D03*
X013471Y006661D03*
D246*
X013564Y006923D03*
X013564Y006925D03*
X013539Y007432D03*
X014299Y006941D03*
X014386Y006713D03*
X014391Y006706D03*
X014406Y006664D03*
X014406Y006662D03*
D247*
X014320Y007430D03*
X013564Y006920D03*
X013530Y007010D03*
X013473Y006665D03*
D248*
X014406Y006665D03*
D249*
X014406Y006667D03*
X014406Y006668D03*
X013564Y006928D03*
X013564Y006929D03*
X013534Y007006D03*
D250*
X013564Y006932D03*
X013564Y006931D03*
X014300Y006944D03*
X014405Y007088D03*
X014405Y006674D03*
X014405Y006673D03*
X014405Y006671D03*
X014405Y006670D03*
D251*
X014404Y006676D03*
X014404Y006677D03*
X014404Y006679D03*
X014299Y006946D03*
X014314Y007436D03*
X013564Y006934D03*
X013536Y007004D03*
D252*
X013476Y007066D03*
X013564Y006917D03*
X013564Y006916D03*
X013480Y006679D03*
X013530Y007424D03*
X014331Y007015D03*
X014299Y006928D03*
X014299Y006926D03*
X014299Y006925D03*
X014370Y006743D03*
X014374Y006736D03*
X014376Y006734D03*
D253*
X013481Y006680D03*
D254*
X014404Y006680D03*
D255*
X014403Y006682D03*
X014403Y006683D03*
X014401Y006685D03*
X014401Y006686D03*
X014400Y006688D03*
X014398Y006689D03*
X014397Y006692D03*
X014320Y007003D03*
X014322Y007004D03*
X013543Y007436D03*
D256*
X013529Y007423D03*
X013526Y007016D03*
X013483Y006683D03*
X014369Y006745D03*
D257*
X014366Y006749D03*
X014366Y006751D03*
X014365Y006754D03*
X014335Y007019D03*
X013486Y006689D03*
D258*
X014395Y006697D03*
X014396Y006694D03*
X014398Y006691D03*
D259*
X013490Y006695D03*
D260*
X014395Y006695D03*
D261*
X014394Y006698D03*
X014394Y006700D03*
X014367Y007396D03*
X013542Y007435D03*
X013468Y007067D03*
D262*
X013525Y007417D03*
X013495Y006704D03*
X013493Y006701D03*
X013493Y006700D03*
X014363Y006757D03*
X014336Y007022D03*
X014338Y007024D03*
X014354Y007399D03*
X014333Y007417D03*
D263*
X014317Y007435D03*
X014300Y006943D03*
X014392Y006704D03*
X014393Y006703D03*
X014393Y006701D03*
X013564Y006926D03*
D264*
X013498Y006710D03*
X014350Y007400D03*
X014391Y007085D03*
D265*
X014389Y006710D03*
D266*
X014384Y006716D03*
D267*
X014299Y006911D03*
X014299Y006913D03*
X014344Y007031D03*
X013566Y006896D03*
X013504Y006722D03*
X013519Y007408D03*
D268*
X013519Y007406D03*
X013567Y006895D03*
X013505Y006724D03*
X014299Y006908D03*
X014299Y006910D03*
X014344Y006793D03*
X014344Y006791D03*
X014345Y006790D03*
X014347Y006788D03*
X014345Y007033D03*
X014347Y007034D03*
X014345Y007403D03*
X014344Y007405D03*
D269*
X013507Y006725D03*
D270*
X014300Y006935D03*
X014329Y007010D03*
X014380Y006725D03*
D271*
X014299Y006907D03*
X014347Y007036D03*
X013507Y006727D03*
D272*
X013509Y006730D03*
X013509Y006731D03*
X013510Y006734D03*
X013510Y007037D03*
X013516Y007405D03*
X014338Y006802D03*
X014340Y006799D03*
X014341Y006796D03*
D273*
X014338Y006803D03*
X014338Y006805D03*
X013511Y006736D03*
X013510Y006733D03*
X013510Y007039D03*
X013516Y007403D03*
D274*
X013513Y007399D03*
X013513Y006737D03*
X014336Y006806D03*
D275*
X014352Y007042D03*
X013513Y006739D03*
X013512Y007397D03*
D276*
X013513Y006740D03*
D277*
X014371Y006740D03*
D278*
X014335Y006808D03*
X014334Y006811D03*
X014332Y006814D03*
X014331Y006817D03*
X014329Y006818D03*
X014298Y006901D03*
X014385Y007084D03*
X013929Y007852D03*
X013510Y007396D03*
X013492Y007060D03*
X013506Y007045D03*
X013566Y006887D03*
X013566Y006886D03*
X013516Y006746D03*
X013515Y006743D03*
X013515Y006742D03*
D279*
X013516Y006745D03*
X013517Y006748D03*
X013519Y006749D03*
X013520Y006751D03*
X013505Y007046D03*
X014297Y006899D03*
X014297Y006898D03*
X014326Y006824D03*
X014327Y006823D03*
X014327Y006821D03*
X014329Y006820D03*
D280*
X014325Y006826D03*
X014325Y006827D03*
X014353Y007045D03*
X014353Y007046D03*
X013566Y006884D03*
X013566Y006883D03*
X013524Y006758D03*
X013522Y006754D03*
X013521Y006752D03*
X013504Y007048D03*
X013503Y007051D03*
X013495Y007058D03*
X013507Y007393D03*
X013509Y007394D03*
D281*
X013522Y006755D03*
X014323Y006830D03*
D282*
X014364Y006755D03*
D283*
X014324Y006829D03*
X014297Y006896D03*
X014354Y007048D03*
X014356Y007049D03*
X014356Y007051D03*
X013567Y006881D03*
X013525Y006761D03*
X013525Y006760D03*
X013523Y006757D03*
X013504Y007049D03*
X013502Y007052D03*
X013505Y007388D03*
X013507Y007390D03*
X013507Y007391D03*
D284*
X013504Y007387D03*
X013501Y007054D03*
X013567Y006880D03*
X013525Y006763D03*
X013929Y007853D03*
X014356Y007052D03*
X014298Y006895D03*
D285*
X014322Y006835D03*
X013527Y006764D03*
D286*
X013528Y006766D03*
X013498Y007376D03*
X014381Y007082D03*
D287*
X013528Y006767D03*
D288*
X013529Y006769D03*
X013531Y006772D03*
X013499Y007378D03*
X013501Y007379D03*
X014311Y006853D03*
X014311Y006851D03*
D289*
X013531Y006770D03*
D290*
X013524Y007415D03*
X014334Y007415D03*
X014355Y006770D03*
D291*
X014310Y006854D03*
X014310Y006856D03*
X014308Y006859D03*
X013569Y006874D03*
X013531Y006773D03*
D292*
X013532Y006775D03*
X014312Y006850D03*
X014359Y007057D03*
D293*
X014359Y007058D03*
X014361Y007060D03*
X014361Y007061D03*
X014377Y007081D03*
X014298Y006889D03*
X014298Y006887D03*
X013534Y006778D03*
X013533Y006776D03*
D294*
X013535Y006779D03*
X013537Y006781D03*
X014362Y007063D03*
D295*
X014362Y007064D03*
X014298Y006884D03*
X014298Y006883D03*
X014298Y006880D03*
X014304Y006866D03*
X014307Y006862D03*
X013569Y006868D03*
X013569Y006869D03*
X013569Y006871D03*
X013540Y006788D03*
X013539Y006787D03*
X013537Y006782D03*
D296*
X013538Y006784D03*
X013568Y006872D03*
X014297Y006886D03*
X014306Y006863D03*
X014309Y006857D03*
X013930Y007855D03*
D297*
X013539Y006785D03*
D298*
X014348Y006785D03*
D299*
X014305Y006865D03*
X014303Y006868D03*
X014302Y006869D03*
X014299Y006877D03*
X014299Y006878D03*
X014297Y006881D03*
X014363Y007066D03*
X014365Y007067D03*
X013541Y006791D03*
X013541Y006790D03*
D300*
X013542Y006793D03*
X013569Y006865D03*
X013569Y006866D03*
X014365Y007069D03*
X014367Y007072D03*
X014368Y007073D03*
X014370Y007075D03*
X014371Y007076D03*
X014373Y007078D03*
D301*
X013544Y006796D03*
X013543Y006794D03*
D302*
X013545Y006797D03*
X013545Y006799D03*
X013546Y006802D03*
X013569Y006863D03*
D303*
X013546Y006800D03*
D304*
X014340Y006800D03*
D305*
X013547Y006803D03*
D306*
X013549Y006805D03*
X013550Y006806D03*
D307*
X013551Y006808D03*
X013552Y006809D03*
X013552Y006811D03*
D308*
X013567Y006889D03*
X013507Y007043D03*
X013492Y007375D03*
X014333Y006812D03*
X014335Y006809D03*
D309*
X013553Y006812D03*
D310*
X013554Y006814D03*
X013569Y006862D03*
D311*
X013570Y006860D03*
X013555Y006815D03*
D312*
X014332Y006815D03*
D313*
X013557Y006818D03*
X013555Y006817D03*
D314*
X013558Y006820D03*
D315*
X013558Y006821D03*
X013558Y006823D03*
D316*
X013559Y006824D03*
X013561Y006827D03*
X013570Y006853D03*
X013570Y006854D03*
D317*
X013570Y006856D03*
X013560Y006826D03*
D318*
X013561Y006829D03*
X013563Y006832D03*
X013564Y006833D03*
X013570Y006850D03*
X013570Y006851D03*
D319*
X013562Y006830D03*
D320*
X013498Y007057D03*
X014323Y006833D03*
X014323Y006832D03*
D321*
X013570Y006844D03*
X013570Y006847D03*
X013570Y006848D03*
X013568Y006841D03*
X013568Y006839D03*
X013567Y006836D03*
X013565Y006835D03*
D322*
X013502Y007382D03*
X013504Y007384D03*
X014357Y007054D03*
X014297Y006893D03*
X014314Y006847D03*
X014317Y006842D03*
X014318Y006839D03*
X014320Y006838D03*
X014320Y006836D03*
D323*
X013569Y006842D03*
X013567Y006838D03*
D324*
X013567Y006877D03*
X013567Y006878D03*
X013501Y007381D03*
X014298Y006892D03*
X014313Y006848D03*
X014316Y006844D03*
X014317Y006841D03*
D325*
X013570Y006845D03*
D326*
X014315Y006845D03*
D327*
X013570Y006857D03*
X013570Y006859D03*
D328*
X014308Y006860D03*
D329*
X014301Y006871D03*
D330*
X014300Y006872D03*
X014300Y006874D03*
X014375Y007079D03*
D331*
X013568Y006875D03*
D332*
X014299Y006875D03*
D333*
X013566Y006890D03*
X013509Y007040D03*
D334*
X014298Y006890D03*
X014358Y007055D03*
D335*
X014299Y006904D03*
X013567Y006893D03*
X013567Y006892D03*
D336*
X013565Y006901D03*
X013565Y006902D03*
D337*
X013507Y007042D03*
X013491Y007061D03*
X014298Y006902D03*
X014349Y007037D03*
D338*
X013565Y006905D03*
D339*
X013928Y007850D03*
X014299Y006905D03*
D340*
X014299Y006919D03*
D341*
X013564Y006935D03*
D342*
X013564Y006937D03*
X013928Y007844D03*
D343*
X013464Y007069D03*
X013537Y007003D03*
X013563Y006938D03*
X014299Y006949D03*
X014319Y007001D03*
D344*
X014311Y007439D03*
X013548Y007439D03*
X013540Y007000D03*
X013563Y006941D03*
X013563Y006940D03*
D345*
X013562Y006943D03*
X013541Y006998D03*
X013928Y007843D03*
X014309Y007441D03*
D346*
X014378Y007393D03*
X014300Y006962D03*
X014300Y006961D03*
X013562Y006946D03*
X013562Y006944D03*
X013550Y007444D03*
D347*
X013563Y006947D03*
X014299Y006964D03*
D348*
X014300Y006947D03*
D349*
X014300Y006967D03*
X014416Y007093D03*
X013928Y007841D03*
X013457Y007072D03*
X013562Y006949D03*
D350*
X013563Y006950D03*
D351*
X014300Y006950D03*
D352*
X014310Y006994D03*
X013563Y006952D03*
X013548Y006994D03*
D353*
X014299Y006953D03*
X014299Y006952D03*
D354*
X014300Y006968D03*
X014303Y007447D03*
X013928Y007840D03*
X013454Y007073D03*
X013564Y006955D03*
X013564Y006953D03*
D355*
X013549Y007441D03*
X014315Y006997D03*
X014300Y006956D03*
X014300Y006955D03*
D356*
X014301Y006970D03*
X014305Y006989D03*
X013563Y006956D03*
X013552Y006989D03*
X013551Y006991D03*
X013549Y006992D03*
X013555Y007447D03*
D357*
X013454Y007364D03*
X013564Y006959D03*
X013564Y006958D03*
X014300Y006971D03*
X014305Y006988D03*
X014384Y007390D03*
X014302Y007448D03*
D358*
X014299Y006959D03*
X014299Y006958D03*
X013549Y007442D03*
X013461Y007366D03*
D359*
X013554Y006988D03*
X013563Y006962D03*
X013563Y006961D03*
D360*
X013562Y006964D03*
X013928Y007838D03*
X014300Y007450D03*
X014420Y007094D03*
X014303Y006986D03*
X014300Y006974D03*
X014300Y006973D03*
D361*
X013563Y006965D03*
D362*
X013546Y006995D03*
X014300Y006965D03*
D363*
X014300Y006976D03*
X014300Y006977D03*
X014300Y006979D03*
X014300Y006982D03*
X014302Y006985D03*
X013562Y006968D03*
X013562Y006967D03*
D364*
X013562Y006970D03*
X013562Y006971D03*
X013559Y006985D03*
X013450Y007363D03*
X013562Y007453D03*
D365*
X013560Y006983D03*
X013561Y006974D03*
X013561Y006973D03*
X013929Y007837D03*
X014293Y007454D03*
D366*
X013561Y006982D03*
X013562Y006977D03*
X013562Y006976D03*
D367*
X013561Y006979D03*
X013446Y007361D03*
D368*
X013561Y006980D03*
D369*
X014300Y006980D03*
D370*
X014301Y006983D03*
D371*
X014296Y007453D03*
X013561Y007451D03*
X013559Y007450D03*
X013450Y007075D03*
X013556Y006986D03*
D372*
X014308Y006991D03*
D373*
X014308Y006992D03*
X014382Y007391D03*
D374*
X014312Y006995D03*
D375*
X014412Y007091D03*
X014308Y007442D03*
X013543Y006997D03*
D376*
X013540Y007001D03*
X013546Y007438D03*
X014312Y007438D03*
X014374Y007394D03*
X014410Y007090D03*
X014318Y007000D03*
X014317Y006998D03*
D377*
X014324Y007006D03*
X013540Y007433D03*
D378*
X013519Y007025D03*
D379*
X014339Y007025D03*
D380*
X014350Y007039D03*
X013515Y007402D03*
D381*
X014351Y007040D03*
D382*
X014353Y007043D03*
D383*
X013500Y007055D03*
X013504Y007385D03*
D384*
X013460Y007070D03*
D385*
X014366Y007070D03*
D386*
X013441Y007076D03*
D387*
X013435Y007078D03*
X014436Y007097D03*
D388*
X013929Y007832D03*
X013432Y007357D03*
X013431Y007079D03*
D389*
X013427Y007081D03*
X013928Y007831D03*
D390*
X013425Y007082D03*
X014413Y007381D03*
D391*
X014417Y007379D03*
X013928Y007828D03*
X013421Y007084D03*
D392*
X013416Y007085D03*
D393*
X013408Y007087D03*
X013928Y007823D03*
D394*
X013403Y007088D03*
D395*
X013399Y007090D03*
X014248Y007469D03*
X014443Y007372D03*
D396*
X013396Y007091D03*
D397*
X013394Y007093D03*
D398*
X013389Y007094D03*
X014479Y007111D03*
X014454Y007367D03*
D399*
X013927Y007811D03*
X013381Y007096D03*
D400*
X014290Y007456D03*
X014393Y007387D03*
X014428Y007096D03*
D401*
X013929Y007808D03*
X013350Y007276D03*
X013350Y007274D03*
X013350Y007273D03*
X013350Y007271D03*
X013350Y007270D03*
X013350Y007268D03*
X013348Y007259D03*
X013348Y007258D03*
X013348Y007256D03*
X013348Y007181D03*
X013348Y007180D03*
X013348Y007178D03*
X013348Y007177D03*
X013348Y007174D03*
X013348Y007172D03*
X013348Y007171D03*
X013348Y007169D03*
X013348Y007168D03*
X013375Y007097D03*
D402*
X013372Y007099D03*
X013351Y007148D03*
X013351Y007150D03*
X013351Y007151D03*
X013352Y007288D03*
X013352Y007289D03*
X013373Y007339D03*
X014504Y007298D03*
X014506Y007294D03*
X014507Y007144D03*
X014507Y007142D03*
X014501Y007123D03*
X014500Y007121D03*
D403*
X014442Y007099D03*
D404*
X013369Y007100D03*
X013354Y007295D03*
D405*
X014445Y007100D03*
D406*
X014503Y007127D03*
X014503Y007129D03*
X014505Y007132D03*
X014505Y007133D03*
X014505Y007135D03*
X014497Y007322D03*
X014475Y007361D03*
X013368Y007336D03*
X013368Y007102D03*
D407*
X014449Y007102D03*
D408*
X013366Y007103D03*
X013358Y007318D03*
D409*
X014422Y007378D03*
X014452Y007103D03*
D410*
X013365Y007105D03*
X013363Y007106D03*
X013359Y007319D03*
X013363Y007328D03*
X013365Y007333D03*
X013366Y007334D03*
D411*
X014457Y007105D03*
D412*
X014465Y007106D03*
X014435Y007375D03*
D413*
X013364Y007331D03*
X013364Y007330D03*
X013363Y007327D03*
X013361Y007324D03*
X013361Y007322D03*
X013360Y007321D03*
X013363Y007108D03*
D414*
X014472Y007108D03*
D415*
X013362Y007109D03*
X013360Y007111D03*
X013360Y007112D03*
D416*
X014476Y007109D03*
D417*
X014483Y007112D03*
D418*
X014493Y007337D03*
X014479Y007358D03*
X013359Y007114D03*
D419*
X014488Y007114D03*
D420*
X013358Y007115D03*
D421*
X014494Y007115D03*
X014513Y007235D03*
X014512Y007250D03*
D422*
X014495Y007330D03*
X014495Y007331D03*
X014494Y007334D03*
X014494Y007336D03*
X013358Y007117D03*
X013357Y007118D03*
D423*
X014497Y007117D03*
X014509Y007150D03*
X014509Y007151D03*
X014509Y007153D03*
X014510Y007157D03*
X014510Y007159D03*
X014510Y007162D03*
X014510Y007163D03*
X014510Y007165D03*
X014509Y007279D03*
X014509Y007282D03*
X014509Y007283D03*
D424*
X014507Y007286D03*
X014507Y007288D03*
X014507Y007289D03*
X014498Y007118D03*
X013349Y007159D03*
X013349Y007162D03*
X013349Y007163D03*
X013349Y007165D03*
X013349Y007166D03*
X013351Y007277D03*
X013351Y007279D03*
X013351Y007282D03*
X013351Y007283D03*
D425*
X013357Y007316D03*
X013356Y007123D03*
X013356Y007121D03*
X013356Y007120D03*
X014478Y007360D03*
X014494Y007333D03*
X014496Y007328D03*
X014496Y007327D03*
D426*
X014506Y007292D03*
X014506Y007291D03*
X014508Y007148D03*
X014508Y007147D03*
X014499Y007120D03*
X013350Y007153D03*
X013350Y007154D03*
X013350Y007156D03*
X013350Y007157D03*
X013351Y007285D03*
X013351Y007286D03*
D427*
X013357Y007313D03*
X013357Y007315D03*
X013355Y007129D03*
X013355Y007127D03*
X013355Y007126D03*
X013355Y007124D03*
X014497Y007324D03*
D428*
X014500Y007316D03*
X014500Y007315D03*
X014500Y007313D03*
X014502Y007312D03*
X014502Y007309D03*
X014502Y007307D03*
X014502Y007306D03*
X014503Y007304D03*
X014503Y007303D03*
X014503Y007301D03*
X014503Y007300D03*
X014505Y007297D03*
X014472Y007363D03*
X014506Y007141D03*
X014506Y007139D03*
X014502Y007124D03*
X013353Y007142D03*
X013351Y007147D03*
X013353Y007291D03*
X013353Y007292D03*
X013354Y007297D03*
X013371Y007337D03*
D429*
X013354Y007294D03*
X013352Y007144D03*
X013354Y007141D03*
X013354Y007139D03*
X013354Y007138D03*
X014503Y007126D03*
X014506Y007136D03*
X014506Y007138D03*
X014500Y007318D03*
X014500Y007319D03*
X014498Y007321D03*
D430*
X014497Y007325D03*
X013355Y007130D03*
D431*
X014505Y007130D03*
D432*
X013354Y007132D03*
X013354Y007133D03*
X013354Y007135D03*
X013354Y007136D03*
X013356Y007306D03*
X013356Y007307D03*
X013356Y007309D03*
X013356Y007312D03*
D433*
X013351Y007145D03*
X014502Y007310D03*
D434*
X014508Y007145D03*
X013375Y007340D03*
D435*
X014509Y007156D03*
X014509Y007154D03*
D436*
X013349Y007160D03*
X013351Y007280D03*
D437*
X014509Y007280D03*
X014510Y007160D03*
D438*
X014511Y007166D03*
X014511Y007168D03*
X014511Y007169D03*
X014511Y007171D03*
X014511Y007172D03*
X014509Y007271D03*
X014509Y007273D03*
X014509Y007274D03*
X014509Y007276D03*
X014509Y007277D03*
X014508Y007285D03*
D439*
X014510Y007270D03*
X014510Y007268D03*
X014510Y007267D03*
X014510Y007264D03*
X014510Y007262D03*
X014512Y007183D03*
X014512Y007181D03*
X014512Y007180D03*
X014512Y007178D03*
X014512Y007177D03*
X014512Y007174D03*
X014468Y007364D03*
D440*
X013348Y007175D03*
D441*
X014512Y007175D03*
X014510Y007265D03*
D442*
X013378Y007342D03*
X013349Y007267D03*
X013349Y007264D03*
X013349Y007262D03*
X013349Y007261D03*
X013348Y007255D03*
X013348Y007253D03*
X013348Y007252D03*
X013348Y007249D03*
X013348Y007247D03*
X013348Y007246D03*
X013348Y007244D03*
X013348Y007192D03*
X013348Y007189D03*
X013348Y007187D03*
X013348Y007186D03*
X013348Y007184D03*
X013348Y007183D03*
D443*
X014512Y007184D03*
X014512Y007186D03*
X014512Y007187D03*
X014512Y007189D03*
X014512Y007192D03*
X014512Y007243D03*
X014512Y007244D03*
X014512Y007246D03*
X014511Y007252D03*
X014511Y007253D03*
X014511Y007255D03*
X014511Y007256D03*
X014511Y007258D03*
X014511Y007259D03*
X014511Y007261D03*
D444*
X013349Y007265D03*
X013348Y007250D03*
X013348Y007190D03*
D445*
X014512Y007190D03*
D446*
X013347Y007193D03*
X013347Y007195D03*
X013347Y007196D03*
X013347Y007198D03*
X013347Y007199D03*
X013347Y007201D03*
X013345Y007202D03*
X013345Y007204D03*
X013345Y007207D03*
X013345Y007208D03*
X013345Y007210D03*
X013345Y007211D03*
X013347Y007234D03*
X013347Y007237D03*
X013347Y007238D03*
X013347Y007240D03*
X013347Y007241D03*
X013347Y007243D03*
D447*
X013345Y007216D03*
X013345Y007214D03*
X013345Y007213D03*
X014512Y007247D03*
X014512Y007249D03*
X014513Y007241D03*
X014513Y007240D03*
X014513Y007238D03*
X014513Y007237D03*
X014513Y007234D03*
X014513Y007232D03*
X014513Y007202D03*
X014513Y007201D03*
X014513Y007199D03*
X014513Y007198D03*
X014513Y007196D03*
X014513Y007195D03*
X014513Y007193D03*
D448*
X014514Y007204D03*
X014514Y007207D03*
X014514Y007208D03*
X014514Y007210D03*
X014514Y007211D03*
X014514Y007213D03*
X014514Y007214D03*
X014514Y007216D03*
X014514Y007217D03*
X014514Y007219D03*
X014514Y007222D03*
X014514Y007223D03*
X014514Y007225D03*
X014514Y007226D03*
X014514Y007228D03*
X014514Y007229D03*
X014514Y007231D03*
X013381Y007343D03*
X013345Y007223D03*
X013345Y007222D03*
X013345Y007219D03*
X013345Y007217D03*
D449*
X013345Y007205D03*
X013347Y007235D03*
D450*
X013345Y007220D03*
X014514Y007220D03*
X014514Y007205D03*
D451*
X013346Y007225D03*
X013346Y007226D03*
X013346Y007228D03*
X013346Y007229D03*
X013346Y007231D03*
X013346Y007232D03*
D452*
X014506Y007295D03*
D453*
X013355Y007298D03*
X013355Y007300D03*
X013355Y007301D03*
X013355Y007303D03*
X013355Y007304D03*
D454*
X013356Y007310D03*
D455*
X013363Y007325D03*
D456*
X014482Y007357D03*
X014492Y007339D03*
D457*
X014492Y007340D03*
X014483Y007355D03*
D458*
X014485Y007354D03*
X014490Y007345D03*
X014491Y007342D03*
D459*
X014491Y007343D03*
X014489Y007346D03*
X014489Y007348D03*
D460*
X013928Y007813D03*
X013387Y007345D03*
D461*
X013394Y007346D03*
X013928Y007816D03*
D462*
X013928Y007819D03*
X013402Y007348D03*
X014440Y007373D03*
D463*
X013406Y007349D03*
D464*
X014487Y007352D03*
X014488Y007349D03*
D465*
X013410Y007351D03*
D466*
X014488Y007351D03*
D467*
X013413Y007352D03*
D468*
X013417Y007354D03*
D469*
X013423Y007355D03*
D470*
X013438Y007358D03*
D471*
X013444Y007360D03*
D472*
X014462Y007366D03*
D473*
X013470Y007367D03*
D474*
X014449Y007369D03*
D475*
X013480Y007370D03*
D476*
X014446Y007370D03*
D477*
X014428Y007376D03*
D478*
X014410Y007382D03*
X014274Y007465D03*
X013584Y007465D03*
D479*
X014407Y007384D03*
D480*
X014401Y007385D03*
D481*
X014388Y007388D03*
X014298Y007451D03*
D482*
X013513Y007400D03*
D483*
X013520Y007409D03*
D484*
X013537Y007430D03*
D485*
X014308Y007444D03*
D486*
X013552Y007445D03*
D487*
X014306Y007445D03*
D488*
X013557Y007448D03*
D489*
X013565Y007454D03*
D490*
X013568Y007456D03*
D491*
X013572Y007457D03*
D492*
X014284Y007457D03*
D493*
X013575Y007459D03*
D494*
X014282Y007459D03*
D495*
X013576Y007460D03*
D496*
X014281Y007460D03*
D497*
X013928Y007834D03*
X013579Y007462D03*
D498*
X014278Y007462D03*
D499*
X013580Y007463D03*
D500*
X014277Y007463D03*
D501*
X014265Y007466D03*
X013593Y007466D03*
D502*
X013600Y007468D03*
D503*
X014254Y007468D03*
D504*
X013605Y007469D03*
D505*
X013929Y007471D03*
D506*
X013928Y007472D03*
D507*
X013929Y007474D03*
X013926Y007654D03*
D508*
X013929Y007475D03*
D509*
X013928Y007477D03*
D510*
X013928Y007478D03*
X013925Y007651D03*
D511*
X013926Y007649D03*
X013927Y007480D03*
D512*
X013928Y007481D03*
X013925Y007648D03*
D513*
X013928Y007484D03*
X013928Y007483D03*
D514*
X013929Y007486D03*
X013926Y007645D03*
D515*
X013928Y007487D03*
D516*
X013929Y007489D03*
X013929Y007492D03*
D517*
X013929Y007490D03*
D518*
X013929Y007493D03*
X013929Y007495D03*
X013929Y007496D03*
D519*
X013929Y007498D03*
X013926Y007639D03*
D520*
X013928Y007499D03*
D521*
X013929Y007501D03*
D522*
X013929Y007502D03*
D523*
X013928Y007504D03*
X013925Y007633D03*
D524*
X013929Y007505D03*
D525*
X013929Y007507D03*
X013929Y007508D03*
X013926Y007630D03*
D526*
X013926Y007628D03*
X013929Y007513D03*
X013929Y007511D03*
X013929Y007510D03*
D527*
X013928Y007514D03*
X013925Y007627D03*
D528*
X013929Y007516D03*
D529*
X013928Y007517D03*
D530*
X013929Y007519D03*
D531*
X013928Y007520D03*
D532*
X013928Y007522D03*
X013928Y007523D03*
D533*
X013928Y007525D03*
D534*
X013929Y007526D03*
D535*
X013928Y007528D03*
D536*
X013929Y007529D03*
X013929Y007531D03*
D537*
X013929Y007532D03*
X013929Y007534D03*
D538*
X013928Y007535D03*
D539*
X013929Y007537D03*
D540*
X013928Y007538D03*
X013925Y007612D03*
D541*
X013925Y007609D03*
X013928Y007540D03*
D542*
X013927Y007541D03*
X013924Y007607D03*
D543*
X013925Y007606D03*
X013928Y007543D03*
D544*
X013928Y007544D03*
X013925Y007603D03*
D545*
X013929Y007546D03*
D546*
X013928Y007547D03*
X013925Y007601D03*
D547*
X013929Y007549D03*
D548*
X013929Y007550D03*
D549*
X013929Y007552D03*
X013929Y007553D03*
D550*
X013929Y007555D03*
X013924Y007597D03*
D551*
X013928Y007556D03*
D552*
X013928Y007558D03*
D553*
X013928Y007559D03*
D554*
X013929Y007561D03*
X013924Y007589D03*
D555*
X013925Y007588D03*
X013928Y007562D03*
D556*
X013929Y007564D03*
D557*
X013929Y007565D03*
D558*
X013929Y007567D03*
D559*
X013928Y007568D03*
X013928Y007570D03*
D560*
X013928Y007571D03*
X013928Y007573D03*
X013925Y007583D03*
D561*
X013924Y007582D03*
X013926Y007577D03*
X013926Y007576D03*
X013927Y007574D03*
D562*
X013925Y007579D03*
D563*
X013925Y007580D03*
D564*
X013924Y007585D03*
D565*
X013925Y007586D03*
D566*
X013924Y007591D03*
X013924Y007592D03*
D567*
X013924Y007594D03*
D568*
X013924Y007595D03*
D569*
X013924Y007598D03*
D570*
X013925Y007600D03*
D571*
X013924Y007604D03*
D572*
X013925Y007610D03*
D573*
X013925Y007613D03*
D574*
X013925Y007615D03*
D575*
X013925Y007616D03*
D576*
X013925Y007618D03*
D577*
X013924Y007619D03*
D578*
X013925Y007621D03*
D579*
X013924Y007622D03*
D580*
X013925Y007624D03*
D581*
X013925Y007625D03*
D582*
X013926Y007631D03*
D583*
X013926Y007634D03*
D584*
X013925Y007636D03*
D585*
X013925Y007637D03*
D586*
X013926Y007640D03*
D587*
X013926Y007642D03*
D588*
X013926Y007643D03*
D589*
X013926Y007646D03*
D590*
X013926Y007652D03*
D591*
X013927Y007655D03*
D592*
X013927Y007657D03*
D593*
X013927Y007658D03*
D594*
X013926Y007660D03*
D595*
X013926Y007661D03*
D596*
X013925Y007663D03*
D597*
X013926Y007664D03*
D598*
X013926Y007666D03*
D599*
X013927Y007667D03*
D600*
X013927Y007669D03*
D601*
X013927Y007670D03*
D602*
X013927Y007672D03*
D603*
X013927Y007673D03*
D604*
X013926Y007675D03*
D605*
X013926Y007676D03*
D606*
X013927Y007678D03*
D607*
X013926Y007679D03*
D608*
X013927Y007681D03*
D609*
X013927Y007682D03*
D610*
X013927Y007684D03*
D611*
X013927Y007685D03*
D612*
X013927Y007687D03*
D613*
X013927Y007688D03*
D614*
X013926Y007690D03*
D615*
X013926Y007691D03*
X013926Y007693D03*
D616*
X013926Y007694D03*
D617*
X013927Y007696D03*
D618*
X013927Y007697D03*
X013927Y007699D03*
D619*
X013927Y007700D03*
D620*
X013927Y007702D03*
D621*
X013927Y007703D03*
D622*
X013927Y007705D03*
X013927Y007706D03*
D623*
X013927Y007708D03*
D624*
X013927Y007709D03*
D625*
X013927Y007711D03*
D626*
X013927Y007712D03*
X013927Y007714D03*
D627*
X013927Y007715D03*
D628*
X013927Y007717D03*
D629*
X013927Y007718D03*
D630*
X013927Y007720D03*
X013927Y007721D03*
D631*
X013927Y007723D03*
D632*
X013927Y007724D03*
D633*
X013927Y007726D03*
D634*
X013928Y007727D03*
D635*
X013928Y007729D03*
D636*
X013927Y007730D03*
D637*
X013927Y007732D03*
D638*
X013927Y007733D03*
D639*
X013927Y007735D03*
D640*
X013927Y007736D03*
D641*
X013927Y007738D03*
D642*
X013928Y007739D03*
D643*
X013928Y007741D03*
X013928Y007742D03*
D644*
X013928Y007744D03*
D645*
X013927Y007745D03*
D646*
X013927Y007747D03*
D647*
X013927Y007748D03*
D648*
X013928Y007750D03*
D649*
X013928Y007751D03*
X013930Y007799D03*
D650*
X013929Y007753D03*
D651*
X013928Y007754D03*
X013930Y007798D03*
D652*
X013928Y007757D03*
X013928Y007756D03*
D653*
X013928Y007759D03*
D654*
X013927Y007760D03*
D655*
X013927Y007762D03*
D656*
X013928Y007763D03*
D657*
X013927Y007765D03*
X013929Y007789D03*
D658*
X013928Y007766D03*
D659*
X013928Y007768D03*
X013930Y007786D03*
D660*
X013929Y007784D03*
X013929Y007783D03*
X013929Y007774D03*
X013929Y007772D03*
X013929Y007771D03*
X013929Y007769D03*
D661*
X013930Y007775D03*
D662*
X013930Y007777D03*
X013930Y007778D03*
X013930Y007780D03*
X013930Y007781D03*
D663*
X013929Y007787D03*
D664*
X013930Y007790D03*
D665*
X013930Y007792D03*
D666*
X013929Y007793D03*
D667*
X013929Y007795D03*
D668*
X013929Y007796D03*
D669*
X013929Y007801D03*
D670*
X013929Y007802D03*
D671*
X013403Y007804D03*
X014447Y007813D03*
D672*
X014106Y007804D03*
D673*
X013402Y007805D03*
D674*
X014107Y007805D03*
D675*
X013402Y007807D03*
D676*
X014108Y007807D03*
D677*
X014445Y007808D03*
D678*
X013927Y007810D03*
D679*
X014447Y007810D03*
D680*
X014449Y007822D03*
X013927Y007882D03*
X013401Y007811D03*
D681*
X014447Y007811D03*
D682*
X013401Y007814D03*
D683*
X013927Y007814D03*
D684*
X014447Y007814D03*
D685*
X013400Y007816D03*
D686*
X014448Y007816D03*
D687*
X013399Y007817D03*
D688*
X013928Y007817D03*
D689*
X014449Y007817D03*
D690*
X014451Y007828D03*
X013399Y007819D03*
D691*
X013399Y007820D03*
X013928Y007940D03*
D692*
X013928Y007820D03*
D693*
X013927Y007880D03*
X014449Y007820D03*
D694*
X013927Y007822D03*
D695*
X013927Y007961D03*
X013927Y007963D03*
X013927Y007964D03*
X013398Y007825D03*
X014452Y007834D03*
D696*
X013928Y007825D03*
D697*
X013927Y007897D03*
X013927Y007898D03*
X013927Y007900D03*
X013927Y007901D03*
X013927Y007903D03*
X014450Y007825D03*
D698*
X013928Y007973D03*
X013928Y007975D03*
X013928Y007976D03*
X013397Y007826D03*
D699*
X013928Y007826D03*
D700*
X014450Y007826D03*
D701*
X013929Y008003D03*
X013929Y008005D03*
X013929Y008006D03*
X013396Y007829D03*
D702*
X013928Y007829D03*
D703*
X013927Y007949D03*
X013927Y007951D03*
X013927Y007952D03*
X014452Y007831D03*
D704*
X014455Y007840D03*
X013928Y008014D03*
X013396Y007832D03*
D705*
X013395Y007835D03*
X013929Y008030D03*
D706*
X013928Y007835D03*
D707*
X014453Y007835D03*
D708*
X013395Y007838D03*
D709*
X013394Y007841D03*
X013930Y008074D03*
X013930Y008077D03*
D710*
X013930Y008080D03*
X013930Y008081D03*
X013930Y008083D03*
X013394Y007843D03*
D711*
X014455Y007843D03*
D712*
X013930Y008093D03*
X013393Y007844D03*
D713*
X013929Y008029D03*
X013929Y008032D03*
X013929Y008033D03*
X014455Y007844D03*
D714*
X013930Y008107D03*
X013393Y007846D03*
D715*
X013930Y008050D03*
X013930Y008051D03*
X013930Y008053D03*
X013930Y008054D03*
X013930Y008056D03*
X014456Y007846D03*
D716*
X013393Y007847D03*
D717*
X013392Y007849D03*
X013930Y008113D03*
D718*
X013392Y007850D03*
D719*
X014458Y007850D03*
D720*
X014460Y007859D03*
X013392Y007852D03*
D721*
X013391Y007853D03*
X013930Y008116D03*
D722*
X013930Y008104D03*
X013930Y008102D03*
X013930Y008101D03*
X013930Y008099D03*
X013930Y008098D03*
X013930Y008096D03*
X013930Y008095D03*
X014458Y007853D03*
D723*
X014460Y007862D03*
X013930Y008117D03*
X013390Y007855D03*
D724*
X013930Y008108D03*
X013930Y008110D03*
X014458Y007855D03*
D725*
X013929Y007856D03*
D726*
X013390Y007858D03*
D727*
X013929Y007858D03*
D728*
X013930Y008114D03*
X014460Y007858D03*
D729*
X013390Y007859D03*
D730*
X013928Y007859D03*
D731*
X013929Y007861D03*
D732*
X014460Y007861D03*
D733*
X013932Y008122D03*
X013389Y007862D03*
D734*
X013929Y007862D03*
D735*
X013929Y007864D03*
D736*
X014461Y007864D03*
D737*
X013389Y007865D03*
D738*
X013928Y007865D03*
D739*
X014461Y007865D03*
D740*
X013930Y007867D03*
D741*
X014462Y007867D03*
D742*
X013930Y007868D03*
D743*
X013930Y007870D03*
D744*
X013387Y007871D03*
D745*
X013930Y007871D03*
D746*
X014462Y007871D03*
D747*
X014464Y007879D03*
X013387Y007873D03*
D748*
X013930Y007873D03*
D749*
X013387Y007874D03*
D750*
X013929Y007874D03*
D751*
X013387Y007877D03*
D752*
X013928Y007877D03*
D753*
X014464Y007877D03*
D754*
X013386Y007879D03*
D755*
X013386Y007880D03*
D756*
X013386Y007882D03*
D757*
X013386Y007883D03*
X014466Y007889D03*
D758*
X014464Y007883D03*
D759*
X014466Y007891D03*
X013386Y007885D03*
D760*
X013927Y007885D03*
X013927Y007886D03*
X013927Y007888D03*
D761*
X014464Y007885D03*
D762*
X014465Y007886D03*
D763*
X013385Y007888D03*
D764*
X014465Y007888D03*
D765*
X013384Y007889D03*
D766*
X013385Y007891D03*
X014467Y007897D03*
D767*
X013385Y007892D03*
D768*
X013385Y007894D03*
D769*
X013384Y007895D03*
D770*
X013926Y007895D03*
D771*
X014467Y007895D03*
D772*
X013384Y007898D03*
D773*
X014467Y007901D03*
D774*
X013383Y007903D03*
D775*
X014467Y007903D03*
D776*
X013927Y007904D03*
D777*
X013382Y007907D03*
D778*
X013927Y007909D03*
X013927Y007912D03*
D779*
X013382Y007910D03*
D780*
X013927Y007910D03*
D781*
X014469Y007910D03*
D782*
X013382Y007915D03*
D783*
X014470Y007916D03*
D784*
X013381Y007918D03*
D785*
X014470Y007918D03*
D786*
X013381Y007924D03*
D787*
X013381Y007925D03*
D788*
X013928Y007925D03*
D789*
X014470Y007925D03*
D790*
X014471Y007927D03*
D791*
X013380Y007928D03*
D792*
X014471Y007928D03*
D793*
X014472Y007936D03*
X013380Y007930D03*
D794*
X014471Y007930D03*
D795*
X013380Y007931D03*
D796*
X014471Y007931D03*
D797*
X013928Y007934D03*
X013928Y007936D03*
X013928Y007937D03*
X013928Y007939D03*
X013928Y007942D03*
D798*
X014472Y007934D03*
D799*
X014473Y007942D03*
X013379Y007936D03*
D800*
X014473Y007937D03*
D801*
X014473Y007940D03*
D802*
X013927Y007943D03*
D803*
X014473Y007943D03*
D804*
X014476Y007945D03*
D805*
X013927Y007955D03*
D806*
X013928Y007966D03*
X013928Y007967D03*
X013928Y007969D03*
D807*
X013929Y007970D03*
D808*
X013929Y007972D03*
D809*
X013929Y007978D03*
X013929Y007979D03*
X013929Y007981D03*
X013929Y007982D03*
X013929Y007984D03*
X013929Y007987D03*
X013929Y007988D03*
D810*
X013929Y007985D03*
D811*
X013928Y008002D03*
D812*
X013928Y008015D03*
D813*
X013928Y008020D03*
D814*
X013929Y008021D03*
X013929Y008023D03*
X013929Y008024D03*
X013929Y008026D03*
D815*
X013930Y008060D03*
D816*
X013929Y008066D03*
D817*
X013930Y008072D03*
D818*
X013930Y008075D03*
D819*
X013930Y008090D03*
D820*
X013930Y008105D03*
D821*
X013931Y008120D03*
D822*
X013922Y008125D03*
D823*
X013308Y008804D03*
X011814Y008804D03*
X011814Y008950D03*
X011443Y008809D03*
X015963Y008804D03*
X016664Y009347D03*
X017321Y008632D03*
X017317Y008624D03*
X016836Y008103D03*
D824*
X016937Y008108D03*
X016942Y008112D03*
X016995Y008169D03*
X016999Y008174D03*
X017052Y008231D03*
X017065Y008244D03*
X017070Y008249D03*
X017074Y008253D03*
X017079Y008258D03*
X017118Y008302D03*
X017123Y008306D03*
X017131Y008315D03*
X017136Y008319D03*
X017154Y008337D03*
X017189Y008377D03*
X017193Y008381D03*
X017198Y008385D03*
X017202Y008390D03*
X017206Y008394D03*
X017427Y008857D03*
X017427Y009885D03*
X017930Y009805D03*
X018124Y009144D03*
X018745Y008937D03*
X015081Y008954D03*
X014697Y009902D03*
X012828Y008972D03*
X012263Y008972D03*
X011201Y008981D03*
D825*
X018086Y008394D03*
X018086Y008390D03*
X018086Y008385D03*
X018086Y008381D03*
X018086Y008377D03*
X018086Y008372D03*
X018086Y008368D03*
X018086Y008363D03*
X018086Y008359D03*
X018086Y008355D03*
X018086Y008350D03*
X018086Y008346D03*
X018086Y008341D03*
X018086Y008337D03*
X018086Y008333D03*
X018086Y008328D03*
X018086Y008324D03*
X018086Y008319D03*
X018086Y008315D03*
X018086Y008310D03*
X018086Y008306D03*
X018086Y008302D03*
X018086Y008297D03*
X018086Y008293D03*
X018086Y008288D03*
X018086Y008284D03*
X018086Y008280D03*
X018086Y008275D03*
X018086Y008271D03*
X018086Y008266D03*
X018086Y008262D03*
X018086Y008258D03*
X018086Y008253D03*
X018086Y008249D03*
X018086Y008244D03*
X018086Y008240D03*
X018086Y008236D03*
X018086Y008231D03*
X018086Y008227D03*
X018086Y008222D03*
X018086Y008218D03*
X018086Y008213D03*
X018086Y008209D03*
X018086Y008205D03*
X018086Y008200D03*
X018086Y008196D03*
X018086Y008191D03*
X018086Y008187D03*
X018086Y008183D03*
X018086Y008178D03*
X018086Y008174D03*
X018086Y008169D03*
X018086Y008165D03*
X018086Y008161D03*
X018086Y008156D03*
X018086Y008152D03*
X018086Y008147D03*
X018086Y008143D03*
X018086Y008139D03*
X018086Y008134D03*
X018086Y008130D03*
X018086Y008125D03*
X018086Y008121D03*
X018086Y008116D03*
X018086Y008112D03*
X018086Y008108D03*
X018086Y010202D03*
X018086Y010207D03*
X018086Y010211D03*
X018086Y010215D03*
X018086Y010220D03*
X018086Y010224D03*
X018086Y010229D03*
X018086Y010233D03*
X018086Y010237D03*
X018086Y010242D03*
X018086Y010246D03*
X018086Y010251D03*
X018086Y010255D03*
X018086Y010259D03*
X018086Y010264D03*
X018086Y010268D03*
X018086Y010273D03*
X018086Y010277D03*
X018086Y010282D03*
X018086Y010286D03*
X018086Y010290D03*
X018086Y010295D03*
X018086Y010299D03*
X018086Y010304D03*
X018086Y010308D03*
X018086Y010312D03*
X018086Y010317D03*
D826*
X018748Y008932D03*
X017425Y008853D03*
X017187Y008372D03*
X017182Y008368D03*
X017178Y008363D03*
X017173Y008359D03*
X017169Y008355D03*
X017165Y008350D03*
X017160Y008346D03*
X017156Y008341D03*
X017147Y008333D03*
X017143Y008328D03*
X017138Y008324D03*
X017129Y008310D03*
X017116Y008297D03*
X017112Y008293D03*
X017107Y008288D03*
X017103Y008284D03*
X017098Y008280D03*
X017094Y008275D03*
X017090Y008271D03*
X017085Y008266D03*
X017081Y008262D03*
X017063Y008240D03*
X017059Y008236D03*
X017050Y008227D03*
X017045Y008222D03*
X017041Y008218D03*
X017037Y008213D03*
X017032Y008209D03*
X017028Y008205D03*
X017023Y008200D03*
X017019Y008196D03*
X017015Y008191D03*
X017010Y008187D03*
X017006Y008183D03*
X017001Y008178D03*
X016993Y008165D03*
X016988Y008161D03*
X016984Y008156D03*
X016979Y008152D03*
X016975Y008147D03*
X016971Y008143D03*
X016966Y008139D03*
X016962Y008134D03*
X016957Y008130D03*
X016953Y008125D03*
X016948Y008121D03*
X016944Y008116D03*
X017425Y009889D03*
X015083Y008950D03*
X015083Y008945D03*
X015083Y008941D03*
X015083Y008937D03*
X014704Y009898D03*
X013937Y009902D03*
X013364Y009902D03*
X011194Y009893D03*
X011194Y008985D03*
D827*
X017978Y008399D03*
D828*
X017980Y008403D03*
D829*
X018124Y009148D03*
X017930Y009801D03*
X017423Y009893D03*
X017423Y008848D03*
X017215Y008407D03*
X018750Y008928D03*
X015085Y008928D03*
X015085Y008932D03*
X015085Y008923D03*
X015085Y008919D03*
X014711Y009893D03*
X013357Y009898D03*
X012832Y008976D03*
X012255Y008976D03*
D830*
X018088Y008407D03*
D831*
X018752Y008923D03*
X017420Y008844D03*
X017217Y008412D03*
X017420Y009898D03*
X017420Y009902D03*
X015088Y008915D03*
X015088Y008910D03*
X015088Y008906D03*
X013941Y009898D03*
X012839Y008981D03*
X012548Y008809D03*
X012248Y008981D03*
X011190Y008990D03*
X011185Y009885D03*
X011190Y009889D03*
D832*
X018091Y008412D03*
D833*
X018124Y009153D03*
X018102Y009179D03*
X018035Y009250D03*
X018031Y009254D03*
X018027Y009259D03*
X017930Y009796D03*
X017418Y009907D03*
X017418Y008840D03*
X017220Y008416D03*
X018754Y008919D03*
X015090Y008901D03*
X015090Y008897D03*
X015090Y008893D03*
X015090Y008888D03*
X014715Y009889D03*
X013948Y009893D03*
X013353Y009893D03*
X013348Y009889D03*
X012246Y008985D03*
X011183Y008994D03*
D834*
X018093Y008416D03*
D835*
X018121Y009157D03*
X018117Y009162D03*
X018113Y009166D03*
X018108Y009170D03*
X018104Y009175D03*
X018095Y009184D03*
X018095Y009188D03*
X018091Y009192D03*
X018086Y009197D03*
X018082Y009201D03*
X018077Y009206D03*
X018073Y009210D03*
X018068Y009214D03*
X018064Y009219D03*
X018060Y009223D03*
X018055Y009228D03*
X018051Y009232D03*
X018046Y009236D03*
X018042Y009241D03*
X018038Y009245D03*
X018024Y009263D03*
X017416Y008835D03*
X017222Y008421D03*
X018756Y008915D03*
X015092Y008884D03*
X015092Y008879D03*
X015092Y008875D03*
X014722Y009880D03*
X014722Y009885D03*
X013950Y009889D03*
X012848Y008990D03*
X012843Y008985D03*
X012239Y008990D03*
X011181Y008998D03*
X011181Y009880D03*
D836*
X018095Y008421D03*
D837*
X018759Y008910D03*
X017991Y009726D03*
X017987Y009730D03*
X017947Y009774D03*
X017930Y009792D03*
X017414Y009911D03*
X017414Y009916D03*
X017414Y008831D03*
X017224Y008425D03*
X015094Y008862D03*
X015094Y008866D03*
X015094Y008870D03*
X014733Y009871D03*
X014728Y009876D03*
X013957Y009885D03*
X013344Y009885D03*
X012850Y008994D03*
X012237Y008994D03*
X011179Y009876D03*
X011174Y009871D03*
D838*
X018097Y008425D03*
D839*
X018761Y008906D03*
X018033Y009682D03*
X018029Y009686D03*
X018024Y009691D03*
X018020Y009695D03*
X018016Y009699D03*
X018011Y009704D03*
X018007Y009708D03*
X018002Y009713D03*
X017998Y009717D03*
X017994Y009722D03*
X017980Y009735D03*
X017976Y009739D03*
X017976Y009744D03*
X017971Y009748D03*
X017967Y009752D03*
X017963Y009757D03*
X017958Y009761D03*
X017954Y009766D03*
X017949Y009770D03*
X017941Y009779D03*
X017936Y009783D03*
X017932Y009788D03*
X017411Y009920D03*
X017411Y008826D03*
X017411Y008822D03*
X017226Y008430D03*
X015097Y008844D03*
X015097Y008848D03*
X015097Y008853D03*
X015097Y008857D03*
X014748Y009849D03*
X014744Y009858D03*
X014739Y009863D03*
X014735Y009867D03*
X013963Y009876D03*
X013959Y009880D03*
X013342Y009880D03*
X013337Y009876D03*
X012861Y009007D03*
X012857Y009003D03*
X012857Y008998D03*
X012235Y008998D03*
X012230Y009003D03*
X011177Y009003D03*
X011172Y009007D03*
X011168Y009863D03*
X011172Y009867D03*
D840*
X018099Y008430D03*
D841*
X018763Y008901D03*
X017409Y008818D03*
X017228Y008434D03*
X017409Y009924D03*
X015099Y008840D03*
X015099Y008835D03*
X015099Y008831D03*
X014759Y009836D03*
X014755Y009841D03*
X014750Y009845D03*
X014746Y009854D03*
X013970Y009863D03*
X013970Y009867D03*
X013965Y009871D03*
X013335Y009871D03*
X013331Y009867D03*
X013326Y009858D03*
X012863Y009012D03*
X012228Y009007D03*
X012224Y009012D03*
X012219Y009020D03*
X011170Y009012D03*
X011165Y009016D03*
X011165Y009858D03*
D842*
X018102Y008434D03*
D843*
X018765Y008897D03*
X017407Y008813D03*
X017231Y008438D03*
X017407Y009929D03*
X015101Y008826D03*
X015101Y008822D03*
X015101Y008818D03*
X014775Y009805D03*
X014775Y009810D03*
X014775Y009814D03*
X014770Y009819D03*
X014766Y009823D03*
X014766Y009827D03*
X014761Y009832D03*
X013977Y009849D03*
X013977Y009854D03*
X013972Y009858D03*
X013328Y009863D03*
X013324Y009854D03*
X013320Y009845D03*
X012879Y009042D03*
X012874Y009029D03*
X012870Y009025D03*
X012870Y009020D03*
X012865Y009016D03*
X012222Y009016D03*
X012217Y009025D03*
X012217Y009029D03*
X012213Y009034D03*
X011163Y009025D03*
X011163Y009020D03*
X011159Y009029D03*
X011159Y009845D03*
X011159Y009849D03*
X011163Y009854D03*
D844*
X018104Y008438D03*
D845*
X018767Y008893D03*
X017405Y008809D03*
X017233Y008443D03*
X017405Y009933D03*
X015103Y008813D03*
X015103Y008809D03*
X014821Y009717D03*
X014808Y009748D03*
X014799Y009766D03*
X014794Y009770D03*
X014794Y009774D03*
X014790Y009779D03*
X014790Y009783D03*
X014786Y009788D03*
X014786Y009792D03*
X014781Y009796D03*
X014781Y009801D03*
X013996Y009796D03*
X013992Y009814D03*
X013988Y009827D03*
X013983Y009836D03*
X013983Y009841D03*
X013979Y009845D03*
X013322Y009849D03*
X013317Y009841D03*
X013317Y009836D03*
X013313Y009832D03*
X013313Y009827D03*
X013308Y009819D03*
X013304Y009801D03*
X012885Y009056D03*
X012881Y009047D03*
X012876Y009038D03*
X012876Y009034D03*
X012211Y009038D03*
X012211Y009042D03*
X012211Y009047D03*
X012206Y009051D03*
X012202Y009065D03*
X011157Y009038D03*
X011157Y009034D03*
X011152Y009042D03*
X011152Y009047D03*
X011152Y009051D03*
X011152Y009827D03*
X011152Y009832D03*
X011152Y009836D03*
X011157Y009841D03*
D846*
X018106Y008443D03*
D847*
X018770Y008888D03*
X017403Y008804D03*
X017235Y008447D03*
X017403Y009938D03*
X014942Y009338D03*
X014933Y009369D03*
X014929Y009382D03*
X014925Y009400D03*
X014920Y009413D03*
X014916Y009430D03*
X014911Y009439D03*
X014911Y009444D03*
X014907Y009457D03*
X014907Y009461D03*
X014903Y009475D03*
X014898Y009488D03*
X014898Y009492D03*
X014894Y009505D03*
X014889Y009519D03*
X014885Y009536D03*
X014880Y009550D03*
X014872Y009580D03*
X014867Y009594D03*
X014863Y009611D03*
X014858Y009620D03*
X014854Y009629D03*
X014854Y009633D03*
X014850Y009647D03*
X014845Y009655D03*
X014845Y009660D03*
X014841Y009664D03*
X014841Y009669D03*
X014836Y009677D03*
X014832Y009691D03*
X014828Y009699D03*
X014828Y009704D03*
X014823Y009708D03*
X014823Y009713D03*
X014819Y009722D03*
X014814Y009726D03*
X014814Y009730D03*
X014814Y009735D03*
X014810Y009739D03*
X014810Y009744D03*
X014805Y009752D03*
X014801Y009757D03*
X014801Y009761D03*
X014016Y009695D03*
X014012Y009726D03*
X014012Y009730D03*
X014007Y009748D03*
X014007Y009752D03*
X014003Y009770D03*
X014003Y009774D03*
X013999Y009788D03*
X013999Y009792D03*
X013994Y009801D03*
X013994Y009805D03*
X013994Y009810D03*
X013990Y009819D03*
X013990Y009823D03*
X013985Y009832D03*
X014021Y009651D03*
X014021Y009647D03*
X014025Y009576D03*
X014029Y009510D03*
X014029Y009505D03*
X014029Y009501D03*
X014038Y009347D03*
X014047Y009210D03*
X014047Y009206D03*
X014047Y009201D03*
X014047Y009197D03*
X014047Y009192D03*
X014047Y009188D03*
X014051Y009095D03*
X014056Y009020D03*
X014060Y008937D03*
X014065Y008857D03*
X014065Y008853D03*
X013236Y008870D03*
X013231Y008809D03*
X013245Y009029D03*
X013245Y009034D03*
X013249Y009104D03*
X013253Y009192D03*
X013262Y009347D03*
X013271Y009501D03*
X013271Y009505D03*
X013271Y009510D03*
X013271Y009514D03*
X013271Y009519D03*
X013280Y009651D03*
X013280Y009655D03*
X013284Y009695D03*
X013284Y009699D03*
X013289Y009726D03*
X013289Y009730D03*
X013289Y009735D03*
X013293Y009752D03*
X013297Y009770D03*
X013297Y009774D03*
X013297Y009779D03*
X013302Y009788D03*
X013302Y009792D03*
X013302Y009796D03*
X013306Y009805D03*
X013306Y009810D03*
X013306Y009814D03*
X013311Y009823D03*
X012949Y009832D03*
X012949Y009836D03*
X012945Y009761D03*
X012945Y009757D03*
X012945Y009752D03*
X012945Y009748D03*
X012945Y009744D03*
X012936Y009611D03*
X012936Y009607D03*
X012936Y009602D03*
X012936Y009598D03*
X012936Y009594D03*
X012936Y009589D03*
X012936Y009585D03*
X012931Y009510D03*
X012931Y009505D03*
X012927Y009435D03*
X012927Y009430D03*
X012927Y009426D03*
X012918Y009272D03*
X012918Y009267D03*
X012918Y009263D03*
X012909Y009179D03*
X012909Y009175D03*
X012909Y009170D03*
X012905Y009144D03*
X012905Y009139D03*
X012901Y009122D03*
X012901Y009117D03*
X012896Y009100D03*
X012896Y009095D03*
X012892Y009087D03*
X012892Y009082D03*
X012892Y009078D03*
X012887Y009069D03*
X012887Y009065D03*
X012887Y009060D03*
X012883Y009051D03*
X012954Y009911D03*
X012954Y009916D03*
X012962Y010065D03*
X012129Y010035D03*
X012129Y010030D03*
X012129Y010026D03*
X012129Y010021D03*
X012129Y010017D03*
X012133Y009951D03*
X012133Y009946D03*
X012133Y009942D03*
X012142Y009801D03*
X012142Y009796D03*
X012142Y009792D03*
X012142Y009788D03*
X012142Y009783D03*
X012142Y009779D03*
X012155Y009545D03*
X012160Y009466D03*
X012160Y009461D03*
X012160Y009457D03*
X012160Y009453D03*
X012160Y009448D03*
X012160Y009444D03*
X012169Y009303D03*
X012169Y009298D03*
X012169Y009294D03*
X012169Y009289D03*
X012169Y009285D03*
X012169Y009281D03*
X012169Y009276D03*
X012173Y009236D03*
X012173Y009232D03*
X012173Y009228D03*
X012177Y009192D03*
X012177Y009188D03*
X012182Y009162D03*
X012182Y009157D03*
X012186Y009131D03*
X012186Y009126D03*
X012186Y009122D03*
X012191Y009109D03*
X012191Y009104D03*
X012191Y009100D03*
X012195Y009091D03*
X012195Y009087D03*
X012195Y009082D03*
X012200Y009078D03*
X012200Y009073D03*
X012200Y009069D03*
X012204Y009060D03*
X012204Y009056D03*
X011150Y009056D03*
X011146Y009060D03*
X011146Y009065D03*
X011146Y009069D03*
X011141Y009073D03*
X011141Y009078D03*
X011141Y009082D03*
X011141Y009087D03*
X011141Y009091D03*
X011137Y009104D03*
X011137Y009109D03*
X011132Y009126D03*
X011132Y009131D03*
X011132Y009135D03*
X011128Y009192D03*
X011128Y009197D03*
X011128Y009673D03*
X011128Y009677D03*
X011128Y009682D03*
X011128Y009686D03*
X011128Y009691D03*
X011132Y009735D03*
X011132Y009739D03*
X011132Y009744D03*
X011132Y009748D03*
X011137Y009770D03*
X011137Y009774D03*
X011141Y009788D03*
X011141Y009792D03*
X011141Y009796D03*
X011141Y009801D03*
X011146Y009805D03*
X011146Y009810D03*
X011146Y009814D03*
X011146Y009819D03*
X011150Y009823D03*
D848*
X018108Y008447D03*
D849*
X018772Y008884D03*
X017400Y008800D03*
X017237Y008456D03*
X017237Y008452D03*
X016563Y008967D03*
X016563Y008972D03*
X016563Y008976D03*
X016563Y008981D03*
X016563Y008985D03*
X016563Y008990D03*
X016563Y008994D03*
X016563Y008998D03*
X016563Y009003D03*
X016563Y009007D03*
X016563Y009012D03*
X016563Y009016D03*
X016563Y009020D03*
X016563Y009025D03*
X016563Y009029D03*
X016563Y009034D03*
X016563Y009038D03*
X016563Y009042D03*
X016563Y009047D03*
X016563Y009051D03*
X016563Y009056D03*
X016563Y009060D03*
X016563Y009065D03*
X016563Y009069D03*
X016563Y009073D03*
X016563Y009078D03*
X016563Y009082D03*
X016563Y009087D03*
X016563Y009091D03*
X016563Y009095D03*
X016563Y009100D03*
X016563Y009104D03*
X016563Y009109D03*
X016563Y009113D03*
X016563Y009117D03*
X016563Y009122D03*
X016563Y009126D03*
X016563Y009131D03*
X016563Y009135D03*
X016563Y009139D03*
X016563Y009144D03*
X016563Y009148D03*
X016563Y009153D03*
X016563Y009157D03*
X016563Y009162D03*
X016563Y009166D03*
X016563Y009170D03*
X016563Y009175D03*
X016563Y009179D03*
X016563Y009184D03*
X016563Y009188D03*
X016563Y009192D03*
X016563Y009197D03*
X016563Y009201D03*
X016563Y009206D03*
X016563Y009210D03*
X016563Y009214D03*
X016563Y009219D03*
X016563Y009223D03*
X016563Y009228D03*
X016563Y009232D03*
X016563Y009236D03*
X016563Y009241D03*
X016563Y009245D03*
X016563Y009250D03*
X016563Y009254D03*
X016563Y009259D03*
X016563Y009263D03*
X016563Y009267D03*
X016563Y009272D03*
X016563Y009276D03*
X016563Y009281D03*
X016563Y009285D03*
X016563Y009289D03*
X016563Y009294D03*
X016563Y009298D03*
X016563Y009303D03*
X016563Y009307D03*
X016563Y009311D03*
X016563Y009316D03*
X016563Y009325D03*
X016563Y009329D03*
X016563Y009333D03*
X016563Y009338D03*
X016563Y009347D03*
X016563Y009501D03*
X016563Y009505D03*
X016563Y009510D03*
X016563Y009514D03*
X016563Y009532D03*
X016563Y009536D03*
X016563Y009541D03*
X016563Y009545D03*
X016563Y009550D03*
X016563Y009554D03*
X016563Y009558D03*
X016563Y009563D03*
X016563Y009567D03*
X016563Y009572D03*
X016563Y009576D03*
X016563Y009580D03*
X016563Y009585D03*
X016563Y009589D03*
X016563Y009594D03*
X016563Y009598D03*
X016563Y009602D03*
X016563Y009607D03*
X016563Y009611D03*
X016563Y009616D03*
X016563Y009620D03*
X016563Y009625D03*
X016563Y009629D03*
X016563Y009633D03*
X016563Y009638D03*
X016563Y009642D03*
X016563Y009647D03*
X016563Y009651D03*
X016563Y009655D03*
X016563Y009660D03*
X016563Y009664D03*
X016563Y009669D03*
X016563Y009673D03*
X016563Y009677D03*
X016563Y009682D03*
X016563Y009686D03*
X016563Y009691D03*
X016563Y009695D03*
X016563Y009699D03*
X016563Y009704D03*
X016563Y009708D03*
X016563Y009713D03*
X016563Y009717D03*
X016563Y009722D03*
X016563Y009726D03*
X016563Y009730D03*
X016563Y009735D03*
X016563Y009739D03*
X016563Y009744D03*
X016563Y009748D03*
X016563Y009752D03*
X016563Y009757D03*
X016563Y009761D03*
X016563Y009766D03*
X016563Y009770D03*
X016563Y009774D03*
X016563Y009779D03*
X016563Y009783D03*
X016563Y009788D03*
X016563Y009792D03*
X016563Y009796D03*
X016563Y009801D03*
X016563Y009805D03*
X016563Y009810D03*
X016563Y009823D03*
X016563Y009827D03*
X016563Y009832D03*
X016563Y009836D03*
X015888Y009836D03*
X015888Y009832D03*
X015888Y009827D03*
X015888Y009823D03*
X015888Y009819D03*
X015888Y009814D03*
X015888Y009810D03*
X015888Y009805D03*
X015888Y009801D03*
X015888Y009796D03*
X015888Y009792D03*
X015888Y009788D03*
X015888Y009783D03*
X015888Y009779D03*
X015888Y009774D03*
X015888Y009770D03*
X015888Y009766D03*
X015888Y009761D03*
X015888Y009757D03*
X015888Y009752D03*
X015888Y009748D03*
X015888Y009744D03*
X015888Y009739D03*
X015888Y009735D03*
X015888Y009730D03*
X015888Y009726D03*
X015888Y009722D03*
X015888Y009717D03*
X015888Y009713D03*
X015888Y009708D03*
X015888Y009704D03*
X015888Y009699D03*
X015888Y009695D03*
X015888Y009691D03*
X015888Y009686D03*
X015888Y009682D03*
X015888Y009677D03*
X015888Y009673D03*
X015888Y009669D03*
X015888Y009664D03*
X015888Y009660D03*
X015888Y009655D03*
X015888Y009651D03*
X015888Y009647D03*
X015888Y009642D03*
X015888Y009638D03*
X015888Y009633D03*
X015888Y009629D03*
X015888Y009625D03*
X015888Y009620D03*
X015888Y009616D03*
X015888Y009611D03*
X015888Y009607D03*
X015888Y009602D03*
X015888Y009598D03*
X015888Y009594D03*
X015888Y009589D03*
X015888Y009585D03*
X015888Y009580D03*
X015888Y009576D03*
X015888Y009572D03*
X015888Y009567D03*
X015888Y009563D03*
X015888Y009558D03*
X015888Y009554D03*
X015888Y009550D03*
X015888Y009545D03*
X015888Y009541D03*
X015888Y009536D03*
X015888Y009532D03*
X015888Y009527D03*
X015888Y009523D03*
X015888Y009519D03*
X015888Y009514D03*
X015888Y009510D03*
X015888Y009505D03*
X015888Y009501D03*
X015888Y009497D03*
X015888Y009492D03*
X015888Y009488D03*
X015888Y009483D03*
X015888Y009479D03*
X015888Y009475D03*
X015888Y009470D03*
X015888Y009466D03*
X015888Y009461D03*
X015888Y009457D03*
X015888Y009453D03*
X015888Y009448D03*
X015888Y009444D03*
X015888Y009439D03*
X015888Y009435D03*
X015888Y009430D03*
X015888Y009426D03*
X015888Y009422D03*
X015888Y009417D03*
X015888Y009413D03*
X015888Y009408D03*
X015888Y009404D03*
X015888Y009400D03*
X015888Y009395D03*
X015888Y009391D03*
X015888Y009386D03*
X015888Y009382D03*
X015888Y009378D03*
X015888Y009373D03*
X015888Y009369D03*
X015888Y009364D03*
X015888Y009360D03*
X015888Y009356D03*
X015888Y009351D03*
X015888Y009347D03*
X015888Y009342D03*
X015888Y009338D03*
X015888Y009333D03*
X015888Y009329D03*
X015888Y009325D03*
X015888Y009320D03*
X015888Y009316D03*
X015888Y009311D03*
X015888Y009307D03*
X015888Y009303D03*
X015888Y009298D03*
X015888Y009294D03*
X015888Y009289D03*
X015888Y009285D03*
X015888Y009281D03*
X015888Y009276D03*
X015888Y009272D03*
X015888Y009267D03*
X015888Y009263D03*
X015888Y009259D03*
X015888Y009254D03*
X015888Y009250D03*
X015888Y009245D03*
X015888Y009241D03*
X015888Y009236D03*
X015888Y009232D03*
X015888Y009228D03*
X015888Y009223D03*
X015888Y009219D03*
X015888Y009214D03*
X015888Y009210D03*
X015888Y009206D03*
X015888Y009201D03*
X015888Y009197D03*
X015888Y009192D03*
X015888Y009188D03*
X015888Y009184D03*
X015888Y009179D03*
X015888Y009175D03*
X015888Y009170D03*
X015888Y009166D03*
X015888Y009162D03*
X015888Y009157D03*
X015888Y009153D03*
X015888Y009148D03*
X015888Y009144D03*
X015888Y009139D03*
X015888Y009135D03*
X015888Y009131D03*
X015888Y009126D03*
X015888Y009122D03*
X015888Y009117D03*
X015888Y009113D03*
X015888Y009109D03*
X015888Y009104D03*
X015888Y009100D03*
X015888Y009095D03*
X015888Y009091D03*
X015888Y009087D03*
X015888Y009082D03*
X015888Y009078D03*
X015888Y009073D03*
X015888Y009069D03*
X015888Y009065D03*
X015888Y009060D03*
X015888Y009056D03*
X015888Y009051D03*
X015888Y009047D03*
X015888Y009042D03*
X015888Y009038D03*
X015888Y009034D03*
X015888Y009029D03*
X015888Y009025D03*
X015888Y009020D03*
X015888Y009016D03*
X015888Y009012D03*
X015888Y009007D03*
X015888Y009003D03*
X015888Y008998D03*
X015888Y008994D03*
X015888Y008990D03*
X015888Y008985D03*
X015888Y008981D03*
X015888Y008976D03*
X015888Y008972D03*
X015888Y008967D03*
X015888Y008963D03*
X015888Y008959D03*
X015888Y008954D03*
X015888Y008950D03*
X015888Y008945D03*
X015888Y008941D03*
X015888Y008937D03*
X015888Y008932D03*
X015888Y008928D03*
X015888Y008923D03*
X015888Y008919D03*
X015888Y008915D03*
X015888Y008910D03*
X015888Y008906D03*
X015888Y008901D03*
X015888Y008897D03*
X015888Y008893D03*
X015888Y008888D03*
X015888Y008884D03*
X015888Y008879D03*
X015888Y008875D03*
X015888Y008870D03*
X015888Y008866D03*
X015888Y008862D03*
X015888Y008857D03*
X015888Y008853D03*
X015888Y008848D03*
X015888Y008844D03*
X015888Y008840D03*
X015888Y008835D03*
X015888Y008831D03*
X015888Y008826D03*
X015888Y008822D03*
X015888Y008818D03*
X015888Y008813D03*
X015888Y008809D03*
X015888Y009841D03*
X015888Y009845D03*
X015888Y009849D03*
X015888Y009854D03*
X015888Y009858D03*
X015888Y009863D03*
X015888Y009867D03*
X015888Y009871D03*
X015888Y009876D03*
X015888Y009880D03*
X015888Y009885D03*
X015888Y009889D03*
X015888Y009893D03*
X015888Y009911D03*
X015888Y009916D03*
X015888Y009920D03*
X014865Y009607D03*
X014865Y009602D03*
X014865Y009598D03*
X014869Y009589D03*
X014869Y009585D03*
X014874Y009576D03*
X014874Y009572D03*
X014874Y009567D03*
X014878Y009563D03*
X014878Y009558D03*
X014878Y009554D03*
X014883Y009545D03*
X014883Y009541D03*
X014887Y009532D03*
X014887Y009527D03*
X014887Y009523D03*
X014891Y009514D03*
X014891Y009510D03*
X014896Y009501D03*
X014896Y009497D03*
X014900Y009483D03*
X014900Y009479D03*
X014905Y009470D03*
X014905Y009466D03*
X014909Y009453D03*
X014909Y009448D03*
X014914Y009435D03*
X014918Y009426D03*
X014918Y009422D03*
X014918Y009417D03*
X014922Y009408D03*
X014922Y009404D03*
X014927Y009395D03*
X014927Y009391D03*
X014927Y009386D03*
X014931Y009378D03*
X014931Y009373D03*
X014936Y009364D03*
X014936Y009360D03*
X014936Y009356D03*
X014940Y009351D03*
X014940Y009347D03*
X014940Y009342D03*
X014944Y009333D03*
X014944Y009329D03*
X014944Y009325D03*
X014949Y009320D03*
X014861Y009616D03*
X014856Y009625D03*
X014852Y009638D03*
X014852Y009642D03*
X014847Y009651D03*
X014839Y009673D03*
X014834Y009682D03*
X014834Y009686D03*
X014830Y009695D03*
X014023Y009642D03*
X014023Y009638D03*
X014023Y009633D03*
X014023Y009629D03*
X014023Y009625D03*
X014023Y009620D03*
X014023Y009616D03*
X014023Y009611D03*
X014023Y009607D03*
X014023Y009602D03*
X014023Y009598D03*
X014023Y009594D03*
X014023Y009589D03*
X014023Y009585D03*
X014023Y009580D03*
X014027Y009572D03*
X014027Y009567D03*
X014027Y009563D03*
X014027Y009558D03*
X014027Y009554D03*
X014027Y009550D03*
X014027Y009545D03*
X014027Y009541D03*
X014027Y009536D03*
X014027Y009532D03*
X014027Y009527D03*
X014027Y009523D03*
X014027Y009519D03*
X014027Y009514D03*
X014032Y009497D03*
X014032Y009492D03*
X014032Y009488D03*
X014040Y009342D03*
X014040Y009338D03*
X014040Y009333D03*
X014040Y009329D03*
X014040Y009325D03*
X014040Y009320D03*
X014040Y009316D03*
X014040Y009311D03*
X014040Y009307D03*
X014040Y009303D03*
X014040Y009298D03*
X014040Y009294D03*
X014040Y009289D03*
X014040Y009285D03*
X014040Y009281D03*
X014040Y009276D03*
X014040Y009272D03*
X014040Y009267D03*
X014045Y009254D03*
X014045Y009250D03*
X014045Y009245D03*
X014045Y009241D03*
X014045Y009236D03*
X014045Y009232D03*
X014045Y009228D03*
X014045Y009223D03*
X014045Y009219D03*
X014045Y009214D03*
X014049Y009184D03*
X014049Y009179D03*
X014049Y009175D03*
X014049Y009170D03*
X014049Y009166D03*
X014049Y009162D03*
X014049Y009157D03*
X014049Y009153D03*
X014049Y009148D03*
X014049Y009144D03*
X014049Y009139D03*
X014049Y009135D03*
X014049Y009131D03*
X014049Y009126D03*
X014049Y009122D03*
X014049Y009117D03*
X014049Y009113D03*
X014049Y009109D03*
X014049Y009104D03*
X014049Y009100D03*
X014054Y009091D03*
X014054Y009087D03*
X014054Y009082D03*
X014054Y009078D03*
X014054Y009073D03*
X014054Y009069D03*
X014054Y009065D03*
X014054Y009060D03*
X014054Y009056D03*
X014054Y009051D03*
X014054Y009047D03*
X014054Y009042D03*
X014054Y009038D03*
X014054Y009034D03*
X014054Y009029D03*
X014054Y009025D03*
X014058Y009016D03*
X014058Y009012D03*
X014058Y009007D03*
X014058Y009003D03*
X014058Y008998D03*
X014058Y008994D03*
X014058Y008990D03*
X014058Y008985D03*
X014058Y008981D03*
X014058Y008976D03*
X014058Y008972D03*
X014058Y008967D03*
X014058Y008963D03*
X014058Y008959D03*
X014058Y008954D03*
X014058Y008950D03*
X014058Y008945D03*
X014058Y008941D03*
X014063Y008932D03*
X014063Y008928D03*
X014063Y008923D03*
X014063Y008919D03*
X014063Y008915D03*
X014063Y008910D03*
X014063Y008906D03*
X014063Y008901D03*
X014063Y008897D03*
X014063Y008893D03*
X014063Y008888D03*
X014063Y008884D03*
X014063Y008879D03*
X014063Y008875D03*
X014063Y008870D03*
X014063Y008866D03*
X014063Y008862D03*
X014067Y008848D03*
X014067Y008844D03*
X014067Y008840D03*
X014067Y008835D03*
X014067Y008831D03*
X014067Y008826D03*
X014067Y008822D03*
X014067Y008818D03*
X014067Y008813D03*
X014067Y008809D03*
X014018Y009655D03*
X014018Y009660D03*
X014018Y009664D03*
X014018Y009669D03*
X014018Y009673D03*
X014018Y009677D03*
X014018Y009682D03*
X014018Y009686D03*
X014018Y009691D03*
X014014Y009699D03*
X014014Y009704D03*
X014014Y009708D03*
X014014Y009713D03*
X014014Y009717D03*
X014014Y009722D03*
X014010Y009735D03*
X014010Y009739D03*
X014010Y009744D03*
X014005Y009757D03*
X014005Y009761D03*
X014005Y009766D03*
X014001Y009779D03*
X014001Y009783D03*
X013300Y009783D03*
X013295Y009766D03*
X013295Y009761D03*
X013295Y009757D03*
X013291Y009748D03*
X013291Y009744D03*
X013291Y009739D03*
X013286Y009722D03*
X013286Y009717D03*
X013286Y009713D03*
X013286Y009708D03*
X013286Y009704D03*
X013282Y009691D03*
X013282Y009686D03*
X013282Y009682D03*
X013282Y009677D03*
X013282Y009673D03*
X013282Y009669D03*
X013282Y009664D03*
X013282Y009660D03*
X013278Y009647D03*
X013278Y009642D03*
X013278Y009638D03*
X013278Y009633D03*
X013278Y009629D03*
X013278Y009625D03*
X013278Y009620D03*
X013278Y009616D03*
X013278Y009611D03*
X013278Y009607D03*
X013278Y009602D03*
X013273Y009594D03*
X013273Y009589D03*
X013273Y009585D03*
X013273Y009580D03*
X013273Y009576D03*
X013273Y009572D03*
X013273Y009567D03*
X013273Y009563D03*
X013273Y009558D03*
X013273Y009554D03*
X013273Y009550D03*
X013273Y009545D03*
X013273Y009541D03*
X013273Y009536D03*
X013273Y009532D03*
X013273Y009527D03*
X013273Y009523D03*
X013269Y009497D03*
X013269Y009492D03*
X013269Y009488D03*
X013260Y009342D03*
X013260Y009338D03*
X013260Y009333D03*
X013260Y009329D03*
X013260Y009325D03*
X013260Y009320D03*
X013260Y009316D03*
X013260Y009311D03*
X013260Y009307D03*
X013260Y009303D03*
X013260Y009298D03*
X013260Y009294D03*
X013260Y009289D03*
X013260Y009285D03*
X013260Y009281D03*
X013260Y009276D03*
X013260Y009272D03*
X013256Y009267D03*
X013256Y009263D03*
X013256Y009259D03*
X013256Y009254D03*
X013256Y009250D03*
X013256Y009245D03*
X013256Y009241D03*
X013256Y009236D03*
X013256Y009232D03*
X013256Y009228D03*
X013256Y009223D03*
X013256Y009219D03*
X013256Y009214D03*
X013256Y009210D03*
X013256Y009206D03*
X013256Y009201D03*
X013256Y009197D03*
X013251Y009188D03*
X013251Y009184D03*
X013251Y009179D03*
X013251Y009175D03*
X013251Y009170D03*
X013251Y009166D03*
X013251Y009162D03*
X013251Y009157D03*
X013251Y009153D03*
X013251Y009148D03*
X013251Y009144D03*
X013251Y009139D03*
X013251Y009135D03*
X013251Y009131D03*
X013251Y009126D03*
X013251Y009122D03*
X013251Y009117D03*
X013247Y009109D03*
X013247Y009100D03*
X013247Y009095D03*
X013247Y009091D03*
X013247Y009087D03*
X013247Y009082D03*
X013247Y009078D03*
X013247Y009073D03*
X013247Y009069D03*
X013247Y009065D03*
X013247Y009060D03*
X013247Y009056D03*
X013247Y009051D03*
X013247Y009047D03*
X013247Y009042D03*
X013247Y009038D03*
X013242Y009025D03*
X013242Y009020D03*
X013242Y009016D03*
X013242Y009012D03*
X013242Y009007D03*
X013242Y009003D03*
X013242Y008998D03*
X013242Y008994D03*
X013242Y008990D03*
X013242Y008985D03*
X013242Y008981D03*
X013242Y008976D03*
X013242Y008972D03*
X013242Y008967D03*
X013242Y008963D03*
X013242Y008959D03*
X013242Y008954D03*
X013242Y008950D03*
X013238Y008945D03*
X013238Y008941D03*
X013238Y008937D03*
X013238Y008932D03*
X013238Y008928D03*
X013238Y008923D03*
X013238Y008919D03*
X013238Y008915D03*
X013238Y008910D03*
X013238Y008906D03*
X013238Y008901D03*
X013238Y008897D03*
X013238Y008893D03*
X013238Y008888D03*
X013238Y008884D03*
X013238Y008879D03*
X013238Y008875D03*
X013234Y008866D03*
X013234Y008862D03*
X013234Y008857D03*
X013234Y008853D03*
X013234Y008848D03*
X013234Y008844D03*
X013234Y008840D03*
X013234Y008835D03*
X013234Y008831D03*
X013234Y008826D03*
X013234Y008822D03*
X013234Y008818D03*
X013234Y008813D03*
X012934Y009514D03*
X012934Y009519D03*
X012934Y009523D03*
X012934Y009527D03*
X012934Y009532D03*
X012934Y009536D03*
X012934Y009541D03*
X012934Y009545D03*
X012934Y009550D03*
X012934Y009554D03*
X012934Y009558D03*
X012934Y009563D03*
X012934Y009567D03*
X012934Y009572D03*
X012934Y009576D03*
X012934Y009580D03*
X012938Y009616D03*
X012938Y009620D03*
X012938Y009625D03*
X012938Y009629D03*
X012938Y009633D03*
X012938Y009638D03*
X012938Y009642D03*
X012938Y009647D03*
X012938Y009651D03*
X012938Y009655D03*
X012943Y009664D03*
X012943Y009669D03*
X012943Y009677D03*
X012943Y009682D03*
X012943Y009686D03*
X012943Y009691D03*
X012943Y009695D03*
X012943Y009699D03*
X012943Y009704D03*
X012943Y009708D03*
X012943Y009713D03*
X012943Y009717D03*
X012943Y009722D03*
X012943Y009726D03*
X012943Y009730D03*
X012943Y009735D03*
X012943Y009739D03*
X012947Y009766D03*
X012947Y009770D03*
X012947Y009774D03*
X012947Y009779D03*
X012947Y009783D03*
X012947Y009788D03*
X012947Y009792D03*
X012947Y009796D03*
X012947Y009801D03*
X012947Y009805D03*
X012947Y009810D03*
X012947Y009814D03*
X012947Y009819D03*
X012947Y009823D03*
X012947Y009827D03*
X012951Y009841D03*
X012951Y009845D03*
X012951Y009849D03*
X012951Y009854D03*
X012951Y009858D03*
X012951Y009863D03*
X012951Y009867D03*
X012951Y009871D03*
X012951Y009876D03*
X012951Y009880D03*
X012951Y009885D03*
X012951Y009889D03*
X012951Y009893D03*
X012951Y009898D03*
X012951Y009902D03*
X012951Y009907D03*
X012956Y009920D03*
X012956Y009924D03*
X012956Y009929D03*
X012956Y009933D03*
X012956Y009938D03*
X012956Y009942D03*
X012956Y009946D03*
X012956Y009951D03*
X012956Y009955D03*
X012956Y009960D03*
X012956Y009964D03*
X012956Y009968D03*
X012956Y009973D03*
X012956Y009977D03*
X012956Y009982D03*
X012956Y009986D03*
X012960Y009990D03*
X012960Y009995D03*
X012960Y009999D03*
X012960Y010004D03*
X012960Y010008D03*
X012960Y010013D03*
X012960Y010017D03*
X012960Y010021D03*
X012960Y010026D03*
X012960Y010030D03*
X012960Y010035D03*
X012960Y010039D03*
X012960Y010043D03*
X012960Y010048D03*
X012960Y010052D03*
X012960Y010057D03*
X012960Y010061D03*
X012960Y010070D03*
X012929Y009501D03*
X012929Y009497D03*
X012929Y009492D03*
X012929Y009488D03*
X012929Y009483D03*
X012929Y009479D03*
X012929Y009475D03*
X012929Y009470D03*
X012929Y009466D03*
X012929Y009461D03*
X012929Y009457D03*
X012929Y009453D03*
X012929Y009448D03*
X012929Y009444D03*
X012929Y009439D03*
X012925Y009422D03*
X012925Y009417D03*
X012925Y009413D03*
X012925Y009408D03*
X012925Y009404D03*
X012925Y009400D03*
X012925Y009395D03*
X012925Y009391D03*
X012925Y009386D03*
X012925Y009382D03*
X012925Y009378D03*
X012925Y009373D03*
X012925Y009369D03*
X012925Y009364D03*
X012925Y009360D03*
X012925Y009356D03*
X012920Y009342D03*
X012920Y009338D03*
X012920Y009333D03*
X012920Y009329D03*
X012920Y009325D03*
X012920Y009320D03*
X012920Y009316D03*
X012920Y009311D03*
X012920Y009307D03*
X012920Y009303D03*
X012920Y009298D03*
X012920Y009294D03*
X012920Y009289D03*
X012920Y009285D03*
X012920Y009281D03*
X012920Y009276D03*
X012916Y009259D03*
X012916Y009254D03*
X012916Y009250D03*
X012916Y009245D03*
X012916Y009241D03*
X012916Y009236D03*
X012916Y009232D03*
X012916Y009228D03*
X012916Y009223D03*
X012912Y009210D03*
X012912Y009206D03*
X012912Y009201D03*
X012912Y009197D03*
X012912Y009192D03*
X012912Y009188D03*
X012912Y009184D03*
X012907Y009166D03*
X012907Y009162D03*
X012907Y009157D03*
X012907Y009153D03*
X012907Y009148D03*
X012903Y009135D03*
X012903Y009131D03*
X012903Y009126D03*
X012898Y009113D03*
X012898Y009109D03*
X012898Y009104D03*
X012894Y009091D03*
X012890Y009073D03*
X012193Y009095D03*
X012188Y009113D03*
X012188Y009117D03*
X012184Y009135D03*
X012184Y009139D03*
X012184Y009144D03*
X012184Y009148D03*
X012184Y009153D03*
X012180Y009166D03*
X012180Y009170D03*
X012180Y009175D03*
X012180Y009179D03*
X012180Y009184D03*
X012175Y009197D03*
X012175Y009201D03*
X012175Y009206D03*
X012175Y009210D03*
X012175Y009214D03*
X012175Y009219D03*
X012175Y009223D03*
X012171Y009241D03*
X012171Y009245D03*
X012171Y009250D03*
X012171Y009254D03*
X012171Y009259D03*
X012171Y009263D03*
X012171Y009267D03*
X012171Y009272D03*
X012166Y009307D03*
X012166Y009311D03*
X012166Y009316D03*
X012166Y009320D03*
X012166Y009325D03*
X012166Y009329D03*
X012166Y009333D03*
X012166Y009338D03*
X012166Y009342D03*
X012166Y009347D03*
X012166Y009351D03*
X012166Y009356D03*
X012166Y009360D03*
X012166Y009364D03*
X012166Y009369D03*
X012166Y009373D03*
X012166Y009378D03*
X012162Y009386D03*
X012162Y009391D03*
X012162Y009395D03*
X012162Y009400D03*
X012162Y009404D03*
X012162Y009408D03*
X012162Y009413D03*
X012162Y009417D03*
X012162Y009422D03*
X012162Y009426D03*
X012162Y009430D03*
X012162Y009435D03*
X012162Y009439D03*
X012158Y009470D03*
X012158Y009475D03*
X012158Y009479D03*
X012158Y009483D03*
X012158Y009488D03*
X012158Y009492D03*
X012158Y009497D03*
X012158Y009501D03*
X012158Y009505D03*
X012158Y009510D03*
X012158Y009514D03*
X012158Y009519D03*
X012158Y009523D03*
X012158Y009527D03*
X012158Y009532D03*
X012158Y009536D03*
X012158Y009541D03*
X012153Y009550D03*
X012153Y009554D03*
X012153Y009558D03*
X012153Y009563D03*
X012153Y009567D03*
X012153Y009572D03*
X012153Y009576D03*
X012153Y009580D03*
X012153Y009585D03*
X012153Y009589D03*
X012153Y009594D03*
X012153Y009598D03*
X012153Y009602D03*
X012153Y009607D03*
X012153Y009611D03*
X012153Y009616D03*
X012153Y009620D03*
X012149Y009625D03*
X012149Y009629D03*
X012149Y009633D03*
X012149Y009638D03*
X012149Y009642D03*
X012149Y009647D03*
X012149Y009651D03*
X012149Y009655D03*
X012149Y009660D03*
X012149Y009664D03*
X012149Y009669D03*
X012149Y009673D03*
X012149Y009677D03*
X012149Y009682D03*
X012149Y009686D03*
X012149Y009691D03*
X012149Y009695D03*
X012149Y009699D03*
X012149Y009704D03*
X012144Y009708D03*
X012144Y009713D03*
X012144Y009717D03*
X012144Y009722D03*
X012144Y009726D03*
X012144Y009730D03*
X012144Y009735D03*
X012144Y009739D03*
X012144Y009744D03*
X012144Y009748D03*
X012144Y009752D03*
X012144Y009757D03*
X012144Y009761D03*
X012144Y009766D03*
X012144Y009770D03*
X012144Y009774D03*
X012140Y009805D03*
X012140Y009810D03*
X012140Y009814D03*
X012140Y009819D03*
X012140Y009823D03*
X012140Y009827D03*
X012140Y009832D03*
X012140Y009836D03*
X012140Y009841D03*
X012140Y009845D03*
X012140Y009849D03*
X012140Y009854D03*
X012136Y009858D03*
X012136Y009863D03*
X012136Y009867D03*
X012136Y009871D03*
X012136Y009876D03*
X012136Y009880D03*
X012136Y009885D03*
X012136Y009889D03*
X012136Y009893D03*
X012136Y009898D03*
X012136Y009902D03*
X012136Y009907D03*
X012136Y009911D03*
X012136Y009916D03*
X012136Y009920D03*
X012136Y009924D03*
X012136Y009929D03*
X012136Y009933D03*
X012136Y009938D03*
X012131Y009955D03*
X012131Y009960D03*
X012131Y009964D03*
X012131Y009968D03*
X012131Y009973D03*
X012131Y009977D03*
X012131Y009982D03*
X012131Y009986D03*
X012131Y009990D03*
X012131Y009995D03*
X012131Y009999D03*
X012131Y010004D03*
X012131Y010008D03*
X012131Y010013D03*
X012127Y010039D03*
X012127Y010043D03*
X012127Y010048D03*
X012127Y010052D03*
X012127Y010057D03*
X012127Y010061D03*
X012127Y010065D03*
X012127Y010070D03*
X011139Y009783D03*
X011139Y009779D03*
X011135Y009766D03*
X011135Y009761D03*
X011135Y009757D03*
X011135Y009752D03*
X011130Y009730D03*
X011130Y009726D03*
X011130Y009722D03*
X011130Y009717D03*
X011130Y009713D03*
X011130Y009708D03*
X011130Y009704D03*
X011130Y009699D03*
X011130Y009695D03*
X011126Y009669D03*
X011126Y009664D03*
X011126Y009660D03*
X011126Y009655D03*
X011126Y009651D03*
X011126Y009647D03*
X011126Y009642D03*
X011126Y009638D03*
X011126Y009633D03*
X011126Y009629D03*
X011126Y009625D03*
X011126Y009620D03*
X011126Y009616D03*
X011126Y009611D03*
X011126Y009607D03*
X011126Y009602D03*
X011126Y009598D03*
X011126Y009594D03*
X011126Y009589D03*
X011126Y009585D03*
X011126Y009580D03*
X011126Y009576D03*
X011126Y009572D03*
X011126Y009567D03*
X011126Y009563D03*
X011126Y009558D03*
X011126Y009554D03*
X011126Y009550D03*
X011126Y009545D03*
X011126Y009541D03*
X011126Y009536D03*
X011126Y009532D03*
X011126Y009527D03*
X011126Y009523D03*
X011126Y009519D03*
X011126Y009514D03*
X011126Y009510D03*
X011126Y009505D03*
X011126Y009501D03*
X011126Y009497D03*
X011126Y009492D03*
X011126Y009488D03*
X011126Y009483D03*
X011126Y009479D03*
X011126Y009475D03*
X011126Y009470D03*
X011126Y009466D03*
X011126Y009461D03*
X011126Y009457D03*
X011126Y009453D03*
X011126Y009448D03*
X011126Y009444D03*
X011126Y009439D03*
X011126Y009435D03*
X011126Y009430D03*
X011126Y009426D03*
X011126Y009422D03*
X011126Y009417D03*
X011126Y009413D03*
X011126Y009408D03*
X011126Y009404D03*
X011126Y009400D03*
X011126Y009395D03*
X011126Y009391D03*
X011126Y009386D03*
X011126Y009382D03*
X011126Y009378D03*
X011126Y009373D03*
X011126Y009369D03*
X011126Y009364D03*
X011126Y009360D03*
X011126Y009356D03*
X011126Y009351D03*
X011126Y009347D03*
X011126Y009342D03*
X011126Y009338D03*
X011126Y009333D03*
X011126Y009329D03*
X011126Y009325D03*
X011126Y009320D03*
X011126Y009316D03*
X011126Y009311D03*
X011126Y009307D03*
X011126Y009303D03*
X011126Y009298D03*
X011126Y009294D03*
X011126Y009289D03*
X011126Y009285D03*
X011126Y009281D03*
X011126Y009276D03*
X011126Y009272D03*
X011126Y009267D03*
X011126Y009263D03*
X011126Y009259D03*
X011126Y009254D03*
X011126Y009250D03*
X011126Y009245D03*
X011126Y009241D03*
X011126Y009236D03*
X011126Y009232D03*
X011126Y009228D03*
X011126Y009223D03*
X011126Y009219D03*
X011126Y009214D03*
X011126Y009210D03*
X011126Y009206D03*
X011126Y009201D03*
X011130Y009188D03*
X011130Y009184D03*
X011130Y009179D03*
X011130Y009175D03*
X011130Y009170D03*
X011130Y009166D03*
X011130Y009162D03*
X011130Y009157D03*
X011130Y009153D03*
X011130Y009148D03*
X011130Y009144D03*
X011130Y009139D03*
X011135Y009122D03*
X011135Y009117D03*
X011135Y009113D03*
X011139Y009100D03*
X011139Y009095D03*
X017400Y009942D03*
D850*
X018110Y008452D03*
D851*
X018113Y008456D03*
D852*
X018776Y008870D03*
X018776Y008875D03*
X017396Y008791D03*
X017242Y008465D03*
X017242Y008460D03*
X017396Y009951D03*
X015103Y009955D03*
X015103Y009960D03*
X015103Y009964D03*
X015103Y009968D03*
X015103Y009973D03*
X015103Y009977D03*
X015103Y009982D03*
X015103Y009986D03*
X015103Y009990D03*
X015103Y009995D03*
X015103Y009999D03*
X015103Y010004D03*
X015103Y010008D03*
X015103Y010013D03*
X015103Y010017D03*
X015103Y010021D03*
X015103Y010026D03*
X015103Y010030D03*
X015103Y010035D03*
X015103Y010039D03*
X015103Y010043D03*
X015103Y010048D03*
X015103Y010052D03*
X015103Y010057D03*
X015103Y010061D03*
X015108Y009774D03*
X015108Y009770D03*
X015108Y009766D03*
X015108Y009761D03*
X015108Y009757D03*
X015108Y009752D03*
X015108Y009748D03*
X015108Y009744D03*
X015108Y009739D03*
X015108Y009735D03*
X015108Y009730D03*
X015108Y009726D03*
X015108Y009722D03*
X015108Y009717D03*
X015108Y009713D03*
X015108Y009708D03*
X015108Y009704D03*
X015108Y009699D03*
X015108Y009695D03*
X015108Y009691D03*
X015108Y009686D03*
X015108Y009682D03*
X015108Y009677D03*
X015108Y009673D03*
X015108Y009669D03*
X015108Y009664D03*
X015108Y009660D03*
X015108Y009655D03*
X015108Y009651D03*
X015108Y009647D03*
X015108Y009642D03*
X015108Y009638D03*
X015108Y009633D03*
X015108Y009629D03*
X015108Y009625D03*
X015108Y009620D03*
X015108Y009616D03*
X015108Y009611D03*
X015108Y009607D03*
X015108Y009602D03*
X015108Y009598D03*
X015108Y009594D03*
X015108Y009589D03*
X015108Y009585D03*
X015108Y009580D03*
X015108Y009576D03*
X015108Y009572D03*
X015108Y009567D03*
X015108Y009563D03*
X015108Y009558D03*
X015108Y009554D03*
X015108Y009550D03*
X015108Y009545D03*
X015108Y009541D03*
X015108Y009536D03*
X015108Y009532D03*
X015108Y009527D03*
X015108Y009523D03*
X015108Y009519D03*
X015108Y009514D03*
X015108Y009510D03*
X015108Y009505D03*
X015108Y009501D03*
X015108Y009497D03*
X015108Y009492D03*
X015108Y009488D03*
X015108Y009483D03*
X015108Y009479D03*
X015108Y009475D03*
X015108Y009470D03*
X015108Y009466D03*
X015108Y009461D03*
X015108Y009457D03*
X015108Y009453D03*
X015108Y009448D03*
X015108Y009444D03*
X015108Y009439D03*
X015108Y009435D03*
X015108Y009430D03*
X015108Y009426D03*
X015108Y009422D03*
X015108Y009417D03*
X015108Y009413D03*
X015108Y009408D03*
X015108Y009404D03*
X015108Y009400D03*
X015108Y009395D03*
X015108Y009391D03*
X015108Y009386D03*
X015108Y009382D03*
X015108Y009378D03*
X015108Y009373D03*
X015108Y009369D03*
X015108Y009364D03*
X015108Y009360D03*
X015108Y009356D03*
X015108Y009351D03*
X015108Y009347D03*
X015108Y009342D03*
X015108Y009338D03*
X015108Y009333D03*
D853*
X018115Y008460D03*
D854*
X018117Y008465D03*
D855*
X018778Y008866D03*
X017394Y008787D03*
X017244Y008469D03*
X017394Y009955D03*
X015105Y009951D03*
X015105Y009946D03*
X015105Y009942D03*
X015105Y009938D03*
X015105Y009933D03*
X015105Y009929D03*
X015105Y009924D03*
X015105Y009920D03*
X015105Y009916D03*
X015105Y009911D03*
X015105Y009907D03*
X015105Y009902D03*
X015105Y009898D03*
X015105Y009893D03*
X015105Y009889D03*
X015105Y009885D03*
X015105Y009880D03*
X015105Y009876D03*
X015105Y009871D03*
X015105Y009867D03*
X015105Y009863D03*
X015105Y009858D03*
X015105Y009854D03*
X015105Y009849D03*
X015105Y009845D03*
X015105Y009841D03*
X015105Y009836D03*
X015105Y009832D03*
X015105Y009827D03*
X015105Y009823D03*
X015105Y009819D03*
X015105Y009814D03*
X015105Y009810D03*
X015105Y009805D03*
X015105Y009801D03*
X015105Y009796D03*
X015105Y009792D03*
X015105Y009788D03*
X015105Y009783D03*
X015105Y009779D03*
X015105Y010070D03*
X015110Y009329D03*
X015110Y009325D03*
X015110Y009320D03*
D856*
X018119Y008474D03*
X018119Y008469D03*
D857*
X018781Y008862D03*
X017392Y008782D03*
X017246Y008474D03*
X017392Y009960D03*
D858*
X017389Y009964D03*
X017389Y008778D03*
X017248Y008478D03*
X018783Y008857D03*
X013655Y010070D03*
D859*
X018121Y008478D03*
D860*
X018785Y008853D03*
X017387Y008773D03*
X017251Y008482D03*
X017387Y009968D03*
D861*
X018124Y008482D03*
D862*
X018787Y008848D03*
X017385Y008769D03*
X017253Y008487D03*
X017385Y009973D03*
D863*
X018126Y008487D03*
D864*
X018789Y008844D03*
X017383Y008765D03*
X017255Y008491D03*
X017383Y009708D03*
X017383Y009977D03*
X017383Y009982D03*
D865*
X018128Y008491D03*
D866*
X018792Y008840D03*
X017381Y008760D03*
X017257Y008496D03*
X017381Y009100D03*
X017381Y009104D03*
X017381Y009109D03*
X017381Y009113D03*
X017381Y009117D03*
X017381Y009122D03*
X017381Y009126D03*
X017381Y009131D03*
X017381Y009135D03*
X017381Y009139D03*
X017381Y009144D03*
X017381Y009148D03*
X017381Y009153D03*
X017381Y009157D03*
X017381Y009162D03*
X017381Y009166D03*
X017381Y009170D03*
X017381Y009175D03*
X017381Y009179D03*
X017381Y009184D03*
X017381Y009188D03*
X017381Y009192D03*
X017381Y009197D03*
X017381Y009201D03*
X017381Y009206D03*
X017381Y009210D03*
X017381Y009214D03*
X017381Y009219D03*
X017381Y009223D03*
X017381Y009228D03*
X017381Y009232D03*
X017381Y009236D03*
X017381Y009241D03*
X017381Y009245D03*
X017381Y009250D03*
X017381Y009254D03*
X017381Y009259D03*
X017381Y009263D03*
X017381Y009267D03*
X017381Y009272D03*
X017381Y009276D03*
X017381Y009281D03*
X017381Y009285D03*
X017381Y009289D03*
X017381Y009294D03*
X017381Y009298D03*
X017381Y009303D03*
X017381Y009307D03*
X017381Y009311D03*
X017381Y009316D03*
X017381Y009320D03*
X017381Y009325D03*
X017381Y009329D03*
X017381Y009333D03*
X017381Y009338D03*
X017381Y009342D03*
X017381Y009347D03*
X017381Y009351D03*
X017381Y009356D03*
X017381Y009360D03*
X017381Y009364D03*
X017381Y009369D03*
X017381Y009373D03*
X017381Y009378D03*
X017381Y009382D03*
X017381Y009386D03*
X017381Y009391D03*
X017381Y009395D03*
X017381Y009400D03*
X017381Y009404D03*
X017381Y009408D03*
X017381Y009413D03*
X017381Y009417D03*
X017381Y009422D03*
X017381Y009426D03*
X017381Y009430D03*
X017381Y009435D03*
X017381Y009439D03*
X017381Y009444D03*
X017381Y009448D03*
X017381Y009453D03*
X017381Y009457D03*
X017381Y009461D03*
X017381Y009466D03*
X017381Y009470D03*
X017381Y009475D03*
X017381Y009479D03*
X017381Y009483D03*
X017381Y009488D03*
X017381Y009492D03*
X017381Y009497D03*
X017381Y009501D03*
X017381Y009505D03*
X017381Y009510D03*
X017381Y009514D03*
X017381Y009519D03*
X017381Y009523D03*
X017381Y009527D03*
X017381Y009532D03*
X017381Y009536D03*
X017381Y009541D03*
X017381Y009545D03*
X017381Y009550D03*
X017381Y009554D03*
X017381Y009558D03*
X017381Y009563D03*
X017381Y009567D03*
X017381Y009572D03*
X017381Y009576D03*
X017381Y009580D03*
X017381Y009585D03*
X017381Y009589D03*
X017381Y009594D03*
X017381Y009598D03*
X017381Y009602D03*
X017381Y009607D03*
X017381Y009611D03*
X017381Y009616D03*
X017381Y009620D03*
X017381Y009625D03*
X017381Y009629D03*
X017381Y009633D03*
X017381Y009638D03*
X017381Y009642D03*
X017381Y009647D03*
X017381Y009651D03*
X017381Y009655D03*
X017381Y009660D03*
X017381Y009664D03*
X017381Y009669D03*
X017381Y009673D03*
X017381Y009677D03*
X017381Y009682D03*
X017381Y009686D03*
X017381Y009691D03*
X017381Y009695D03*
X017381Y009699D03*
X017381Y009704D03*
X017381Y009713D03*
X017381Y009717D03*
X017381Y009722D03*
X017381Y009986D03*
D867*
X018130Y008496D03*
D868*
X018794Y008835D03*
X017378Y008756D03*
X017259Y008500D03*
X017378Y009990D03*
D869*
X018132Y008500D03*
D870*
X018796Y008831D03*
X017376Y008751D03*
X017262Y008505D03*
X017376Y009995D03*
D871*
X018135Y008505D03*
D872*
X018798Y008826D03*
X017374Y008747D03*
X017374Y008743D03*
X017264Y008509D03*
X017374Y009999D03*
D873*
X018137Y008509D03*
D874*
X018800Y008822D03*
X017372Y008738D03*
X017266Y008513D03*
X017372Y010004D03*
D875*
X018139Y008513D03*
D876*
X018803Y008818D03*
X017370Y008734D03*
X017268Y008518D03*
X017370Y010008D03*
D877*
X018141Y008518D03*
D878*
X018805Y008804D03*
X018805Y008813D03*
X017367Y008729D03*
X017270Y008527D03*
X017270Y008522D03*
X017367Y010013D03*
D879*
X018143Y008522D03*
D880*
X018146Y008527D03*
D881*
X018807Y008809D03*
X017365Y008725D03*
X017273Y008531D03*
X017365Y010017D03*
D882*
X018148Y008531D03*
D883*
X017363Y008721D03*
X017275Y008535D03*
X017363Y010021D03*
D884*
X018150Y008535D03*
D885*
X017361Y008716D03*
X017277Y008540D03*
X017361Y010026D03*
D886*
X018152Y008544D03*
X018152Y008540D03*
D887*
X017359Y008712D03*
X017279Y008544D03*
X017359Y010030D03*
D888*
X017356Y010035D03*
X017356Y008707D03*
X017281Y008549D03*
D889*
X018154Y008549D03*
D890*
X017354Y008703D03*
X017284Y008553D03*
X017354Y010039D03*
D891*
X018157Y008553D03*
D892*
X017352Y008699D03*
X017286Y008557D03*
X017352Y010043D03*
D893*
X018159Y008557D03*
D894*
X017350Y008694D03*
X017288Y008562D03*
X017350Y010048D03*
X017350Y010052D03*
D895*
X018161Y008562D03*
D896*
X017348Y008690D03*
X017290Y008566D03*
X017348Y010057D03*
D897*
X018163Y008566D03*
D898*
X017345Y008685D03*
X017292Y008571D03*
D899*
X018165Y008571D03*
D900*
X017343Y008681D03*
X017295Y008575D03*
X017343Y010061D03*
D901*
X018168Y008575D03*
D902*
X017341Y008676D03*
X017297Y008579D03*
X017341Y010065D03*
X017341Y010070D03*
D903*
X018170Y008579D03*
D904*
X017339Y008672D03*
X017299Y008584D03*
D905*
X018172Y008584D03*
D906*
X017337Y008663D03*
X017337Y008668D03*
X017301Y008588D03*
D907*
X018174Y008588D03*
D908*
X017334Y008659D03*
X017303Y008593D03*
D909*
X018177Y008593D03*
D910*
X017332Y008654D03*
X017306Y008602D03*
X017306Y008597D03*
D911*
X018179Y008597D03*
D912*
X018181Y008602D03*
D913*
X017330Y008650D03*
X017308Y008606D03*
D914*
X018183Y008606D03*
D915*
X017325Y008641D03*
X017312Y008615D03*
X017312Y008610D03*
D916*
X018185Y008610D03*
X018185Y008615D03*
D917*
X017323Y008637D03*
X017314Y008619D03*
X015158Y008804D03*
D918*
X018188Y008619D03*
D919*
X018190Y008624D03*
D920*
X018192Y008628D03*
D921*
X018194Y008632D03*
D922*
X018196Y008637D03*
D923*
X018199Y008641D03*
D924*
X017328Y008646D03*
X013937Y009347D03*
D925*
X018201Y008646D03*
D926*
X018203Y008650D03*
D927*
X018205Y008654D03*
D928*
X018207Y008659D03*
D929*
X018210Y008663D03*
D930*
X018212Y008668D03*
D931*
X018214Y008672D03*
D932*
X018216Y008676D03*
D933*
X018218Y008681D03*
D934*
X018221Y008685D03*
D935*
X018223Y008690D03*
X018223Y008694D03*
D936*
X018225Y008699D03*
D937*
X018227Y008703D03*
D938*
X018229Y008707D03*
D939*
X018232Y008712D03*
D940*
X018234Y008716D03*
D941*
X018236Y008721D03*
D942*
X018238Y008725D03*
D943*
X018240Y008729D03*
D944*
X018243Y008734D03*
D945*
X018245Y008738D03*
D946*
X018247Y008743D03*
D947*
X018249Y008747D03*
D948*
X018251Y008751D03*
X018251Y008756D03*
D949*
X018256Y008760D03*
D950*
X018258Y008765D03*
X018258Y008769D03*
D951*
X018260Y008773D03*
D952*
X018263Y008778D03*
D953*
X018265Y008782D03*
D954*
X018267Y008787D03*
D955*
X018269Y008791D03*
D956*
X018774Y008879D03*
X017398Y008796D03*
X017398Y009946D03*
X016560Y009819D03*
X016560Y009814D03*
X016560Y009527D03*
X016560Y009523D03*
X016560Y009519D03*
X016560Y009497D03*
X016560Y009492D03*
X016560Y009342D03*
X016560Y009320D03*
X016560Y008963D03*
X016560Y008959D03*
X016560Y008954D03*
X016560Y008950D03*
X015886Y009898D03*
X015886Y009902D03*
X015886Y009907D03*
X015886Y009924D03*
X015105Y010065D03*
X014043Y009263D03*
X014043Y009259D03*
X013249Y009113D03*
X012914Y009214D03*
X012914Y009219D03*
X012923Y009347D03*
X012923Y009351D03*
X012940Y009660D03*
X012940Y009673D03*
X013275Y009598D03*
X012164Y009382D03*
D957*
X018271Y008796D03*
D958*
X018274Y008800D03*
D959*
X018225Y008804D03*
X017846Y010162D03*
D960*
X017504Y009020D03*
X018668Y009104D03*
X018668Y010052D03*
X018668Y010057D03*
X011635Y008809D03*
D961*
X011492Y008893D03*
X016810Y008813D03*
X016810Y008809D03*
X017930Y010039D03*
X017930Y010043D03*
X018525Y009748D03*
X018525Y009408D03*
D962*
X018432Y009607D03*
X018124Y008809D03*
D963*
X018124Y009034D03*
X017872Y009303D03*
X017930Y009916D03*
X017528Y009073D03*
X018644Y009153D03*
X018644Y010004D03*
X011611Y008813D03*
D964*
X012543Y008813D03*
X013897Y009920D03*
X015052Y009153D03*
X015052Y009148D03*
X015052Y009144D03*
X017456Y008919D03*
X017456Y009823D03*
X018717Y010158D03*
X018717Y008998D03*
D965*
X018437Y009594D03*
X018124Y008813D03*
D966*
X018624Y009197D03*
X018624Y009960D03*
X012543Y008835D03*
X011591Y008818D03*
D967*
X012543Y008818D03*
X017482Y008976D03*
X017482Y009770D03*
X018690Y010101D03*
X018690Y009056D03*
D968*
X018523Y009413D03*
X018523Y009744D03*
X016812Y008818D03*
X013650Y009982D03*
X012543Y008893D03*
X011490Y008897D03*
X011490Y009982D03*
D969*
X018124Y008818D03*
X018441Y009585D03*
D970*
X018611Y009933D03*
X018611Y009223D03*
X011578Y008822D03*
D971*
X012541Y008822D03*
X017506Y009025D03*
X017930Y009889D03*
X017930Y009893D03*
X018124Y009060D03*
X018666Y009109D03*
X018666Y010048D03*
D972*
X018520Y009739D03*
X018520Y009417D03*
X018124Y008906D03*
X017930Y010048D03*
X016814Y008822D03*
X012546Y008897D03*
X011487Y008901D03*
X011487Y009977D03*
D973*
X018126Y008822D03*
X018443Y009580D03*
D974*
X018604Y009241D03*
X018604Y009236D03*
X018604Y009920D03*
X018124Y008994D03*
X017930Y009955D03*
X014411Y010026D03*
X011571Y008826D03*
D975*
X012543Y008826D03*
X017517Y009051D03*
X018126Y009047D03*
X018655Y009131D03*
X018655Y010026D03*
D976*
X018518Y009735D03*
X018518Y009422D03*
X018126Y008901D03*
X016816Y008826D03*
X013650Y009977D03*
X011485Y009973D03*
X011485Y008906D03*
D977*
X018126Y008826D03*
X018448Y009572D03*
D978*
X018591Y009267D03*
X018591Y009889D03*
X018124Y008981D03*
X017930Y009968D03*
X017930Y009973D03*
X014424Y010013D03*
X011558Y008831D03*
D979*
X012543Y008831D03*
X017535Y009087D03*
X018637Y009170D03*
X018637Y009986D03*
D980*
X018516Y009730D03*
X018516Y009426D03*
X017930Y010052D03*
X016818Y008835D03*
X016818Y008831D03*
X011483Y008910D03*
X011483Y009968D03*
D981*
X018126Y008831D03*
X018452Y009563D03*
D982*
X018584Y009281D03*
X018584Y009876D03*
X018126Y008972D03*
X014435Y009999D03*
X012543Y008853D03*
X011551Y008835D03*
D983*
X018126Y008835D03*
X018457Y009554D03*
D984*
X018578Y009294D03*
X018578Y009863D03*
X018124Y008963D03*
X017930Y009986D03*
X014442Y009990D03*
X011545Y008840D03*
D985*
X012546Y008840D03*
X014398Y010035D03*
X017930Y009946D03*
X017872Y009272D03*
X018124Y009003D03*
X018613Y009219D03*
X018613Y009938D03*
D986*
X018512Y009722D03*
X018512Y009435D03*
X018124Y008893D03*
X017930Y010057D03*
X016823Y008844D03*
X016823Y008840D03*
X011479Y008919D03*
X011479Y009960D03*
D987*
X018124Y008840D03*
X018459Y009550D03*
D988*
X018571Y009849D03*
X014453Y009977D03*
X014448Y009982D03*
X013650Y010017D03*
X011538Y008844D03*
D989*
X012543Y008844D03*
X014413Y010021D03*
X018602Y009916D03*
X018602Y009245D03*
D990*
X018463Y009536D03*
X018463Y009541D03*
X018124Y008844D03*
D991*
X018124Y008950D03*
X018565Y009325D03*
X018565Y009832D03*
X017930Y009999D03*
X011531Y008848D03*
D992*
X012543Y008848D03*
X018593Y009263D03*
X018593Y009893D03*
D993*
X018509Y009717D03*
X018509Y009439D03*
X016825Y008848D03*
X013650Y009968D03*
X012543Y008906D03*
X011476Y008923D03*
X011476Y009955D03*
D994*
X016867Y008945D03*
X018124Y008848D03*
X018468Y009527D03*
X018468Y009532D03*
D995*
X018560Y009333D03*
X018560Y009823D03*
X018124Y008945D03*
X017930Y010004D03*
X014468Y009951D03*
X012546Y008866D03*
X011527Y008853D03*
X011527Y010026D03*
D996*
X011474Y009951D03*
X011474Y008928D03*
X016827Y008853D03*
X017930Y010061D03*
X018507Y009713D03*
X018507Y009444D03*
X018124Y008888D03*
D997*
X018124Y008853D03*
X018472Y009519D03*
X016863Y008937D03*
X016863Y008932D03*
D998*
X017930Y010008D03*
X018556Y009814D03*
X018556Y009342D03*
X018124Y008941D03*
X014477Y009938D03*
X014473Y009942D03*
X013652Y010008D03*
X011523Y008857D03*
D999*
X012543Y008857D03*
X018576Y009298D03*
X018576Y009858D03*
D1000*
X018505Y009708D03*
X018505Y009448D03*
X016829Y008857D03*
X013650Y009964D03*
X012543Y008910D03*
X011472Y008932D03*
X011472Y009942D03*
X011472Y009946D03*
D1001*
X013648Y009929D03*
X016858Y008923D03*
X018124Y008857D03*
X018476Y009510D03*
D1002*
X018551Y009351D03*
X018551Y009805D03*
X018124Y008937D03*
X017930Y010013D03*
X014481Y009929D03*
X011518Y008862D03*
D1003*
X011534Y010030D03*
X012543Y008862D03*
X014457Y009968D03*
X018567Y009841D03*
X018567Y009836D03*
X018567Y009320D03*
X018567Y009316D03*
D1004*
X018503Y009453D03*
X018503Y009457D03*
X018503Y009699D03*
X018503Y009704D03*
X018124Y008884D03*
X017930Y010065D03*
X016832Y008862D03*
X011470Y008937D03*
X011470Y009938D03*
D1005*
X011203Y009898D03*
X011207Y008976D03*
X013928Y009907D03*
X015079Y008976D03*
X015079Y008972D03*
X015079Y008967D03*
X015079Y008963D03*
X015079Y008959D03*
X017429Y008862D03*
X017429Y009880D03*
X018743Y008941D03*
D1006*
X018481Y009501D03*
X018124Y008862D03*
X016854Y008910D03*
X016854Y008915D03*
X016854Y009351D03*
X016854Y009391D03*
X016854Y009395D03*
X016854Y009400D03*
X016854Y009404D03*
X016854Y009408D03*
X016854Y009413D03*
X016854Y009417D03*
X016854Y009422D03*
X016854Y009426D03*
X016854Y009430D03*
X016854Y009435D03*
X016854Y009439D03*
X016854Y009444D03*
X016854Y009448D03*
X016854Y009453D03*
X016854Y009457D03*
X016854Y009461D03*
X016854Y009466D03*
X016854Y009483D03*
X012546Y008941D03*
D1007*
X011514Y008866D03*
X017930Y010017D03*
X018547Y009796D03*
X018547Y009360D03*
X018124Y008932D03*
D1008*
X018501Y009461D03*
X016834Y008866D03*
X013650Y009960D03*
X012543Y008915D03*
X011468Y008941D03*
X011468Y008945D03*
X011468Y009933D03*
D1009*
X013370Y009907D03*
X014689Y009907D03*
X015077Y008990D03*
X015077Y008985D03*
X015077Y008981D03*
X017431Y008866D03*
X017431Y009876D03*
X017930Y009814D03*
X017930Y009810D03*
X018124Y009139D03*
X018741Y008945D03*
D1010*
X018485Y009492D03*
X018124Y008866D03*
X016849Y008901D03*
D1011*
X017930Y010021D03*
X018543Y009788D03*
X018543Y009369D03*
X018124Y008928D03*
X011509Y008870D03*
D1012*
X011520Y010017D03*
X012543Y008870D03*
X014479Y009933D03*
X018554Y009810D03*
X018554Y009347D03*
D1013*
X018498Y009466D03*
X018498Y009691D03*
X018498Y009695D03*
X018124Y008879D03*
X017930Y010070D03*
X016836Y008875D03*
X016836Y008870D03*
X012546Y008919D03*
X011465Y009929D03*
D1014*
X011212Y009902D03*
X012270Y008967D03*
X012817Y008967D03*
X015074Y008994D03*
X015074Y008998D03*
X015074Y009003D03*
X015074Y009007D03*
X017434Y008870D03*
X017434Y009871D03*
X017874Y009400D03*
X018126Y009135D03*
X018739Y008954D03*
X018739Y008950D03*
D1015*
X018490Y009483D03*
X018124Y008870D03*
X016845Y008893D03*
D1016*
X017930Y010026D03*
X018538Y009779D03*
X018538Y009382D03*
X018124Y008923D03*
X011505Y008875D03*
D1017*
X011512Y010008D03*
X012543Y008875D03*
X013650Y009999D03*
X018545Y009792D03*
X018545Y009364D03*
D1018*
X018737Y010198D03*
X017877Y009395D03*
X017824Y009453D03*
X017815Y009461D03*
X017811Y009466D03*
X017806Y009470D03*
X017802Y009475D03*
X017436Y009867D03*
X017436Y008875D03*
X015072Y009012D03*
X015072Y009016D03*
X015072Y009020D03*
X013921Y009911D03*
X013379Y009911D03*
X011214Y008972D03*
D1019*
X012546Y008923D03*
X016840Y008884D03*
X018124Y008875D03*
X018494Y009475D03*
X018494Y009682D03*
D1020*
X018536Y009774D03*
X013650Y009995D03*
X011503Y009999D03*
X011503Y008879D03*
D1021*
X011507Y010004D03*
X012543Y008879D03*
X018540Y009373D03*
X018540Y009378D03*
X018540Y009783D03*
D1022*
X018496Y009686D03*
X018496Y009470D03*
X016838Y008879D03*
X013650Y009955D03*
D1023*
X012812Y008963D03*
X014682Y009911D03*
X015070Y009038D03*
X015070Y009034D03*
X015070Y009029D03*
X015070Y009025D03*
X017438Y008879D03*
X017852Y009422D03*
X017848Y009426D03*
X017844Y009430D03*
X017839Y009435D03*
X017835Y009439D03*
X017830Y009444D03*
X017826Y009448D03*
X017817Y009457D03*
X017800Y009479D03*
X017795Y009483D03*
X017791Y009488D03*
X017786Y009492D03*
X017782Y009497D03*
X017777Y009501D03*
X017773Y009505D03*
X017769Y009510D03*
X017764Y009514D03*
X017760Y009519D03*
X017755Y009523D03*
X017751Y009527D03*
X017742Y009536D03*
X017738Y009541D03*
X017738Y009545D03*
X017729Y009554D03*
X017720Y009563D03*
X017711Y009572D03*
X017707Y009576D03*
X017703Y009580D03*
X017694Y009589D03*
X017689Y009594D03*
X017685Y009598D03*
X017676Y009607D03*
X017672Y009611D03*
X017667Y009616D03*
X017663Y009620D03*
X017654Y009633D03*
X017619Y009669D03*
X017614Y009673D03*
X017610Y009677D03*
X017605Y009682D03*
X017601Y009686D03*
X017597Y009691D03*
X017438Y009863D03*
X017932Y009819D03*
X017857Y009417D03*
X017861Y009413D03*
X017866Y009408D03*
X017870Y009404D03*
X018734Y008963D03*
X018734Y008959D03*
X018734Y010193D03*
D1024*
X018531Y009766D03*
X018531Y009761D03*
X018531Y009395D03*
X018126Y008915D03*
X017932Y010035D03*
X013650Y009990D03*
X011498Y008884D03*
D1025*
X011501Y009995D03*
X012546Y008884D03*
X017930Y010030D03*
X018534Y009770D03*
X018534Y009391D03*
X018534Y009386D03*
X018124Y008919D03*
D1026*
X018124Y009131D03*
X017881Y009391D03*
X017749Y009532D03*
X017731Y009550D03*
X017722Y009558D03*
X017714Y009567D03*
X017696Y009585D03*
X017683Y009602D03*
X017661Y009625D03*
X017656Y009629D03*
X017647Y009638D03*
X017643Y009642D03*
X017639Y009647D03*
X017634Y009651D03*
X017630Y009655D03*
X017625Y009660D03*
X017621Y009664D03*
X017594Y009695D03*
X017590Y009699D03*
X017586Y009704D03*
X017581Y009708D03*
X017577Y009713D03*
X017572Y009717D03*
X017568Y009722D03*
X017440Y009858D03*
X017440Y008884D03*
X017930Y009823D03*
X018732Y010189D03*
X018732Y008967D03*
X015068Y009042D03*
X015068Y009047D03*
X013648Y010065D03*
X013388Y009916D03*
X012277Y008963D03*
X011218Y009907D03*
D1027*
X011496Y009990D03*
X011496Y008888D03*
X018529Y009400D03*
X018529Y009757D03*
D1028*
X018527Y009752D03*
X018527Y009404D03*
X018126Y008910D03*
X013650Y009986D03*
X012543Y008888D03*
X011494Y009986D03*
D1029*
X012543Y008928D03*
X013650Y009951D03*
X016843Y008888D03*
X018492Y009479D03*
D1030*
X018730Y008972D03*
X018730Y010185D03*
X017442Y009854D03*
X017442Y008893D03*
X017442Y008888D03*
X015066Y009051D03*
X015066Y009056D03*
X015066Y009060D03*
X015066Y009065D03*
X015066Y009069D03*
X013910Y009916D03*
D1031*
X013650Y009942D03*
X013650Y009946D03*
X012543Y008932D03*
X016847Y008897D03*
X018487Y009488D03*
D1032*
X018728Y008976D03*
X018124Y009126D03*
X017877Y009386D03*
X017930Y009827D03*
X017445Y009849D03*
X017445Y008897D03*
X018728Y010180D03*
X015063Y009082D03*
X015063Y009078D03*
X015063Y009073D03*
X014671Y009916D03*
X011227Y008967D03*
D1033*
X011481Y008915D03*
X011481Y009964D03*
X012543Y008901D03*
X013650Y009973D03*
X018126Y008897D03*
X018514Y009430D03*
X018514Y009726D03*
D1034*
X018725Y010176D03*
X018725Y008981D03*
X018126Y009122D03*
X017447Y008901D03*
X017447Y009841D03*
X017447Y009845D03*
X015061Y009095D03*
X015061Y009091D03*
X015061Y009087D03*
X012288Y008959D03*
D1035*
X012543Y008937D03*
X013650Y009938D03*
X016851Y009479D03*
X016851Y009475D03*
X016851Y009470D03*
X016851Y009386D03*
X016851Y009382D03*
X016851Y009378D03*
X016851Y009373D03*
X016851Y009369D03*
X016851Y009364D03*
X016851Y009360D03*
X016851Y009356D03*
X016851Y008906D03*
X018483Y009497D03*
D1036*
X018723Y008985D03*
X018723Y010171D03*
X017930Y009832D03*
X017877Y009382D03*
X017449Y009836D03*
X017449Y008906D03*
X015059Y009100D03*
X015059Y009104D03*
X015059Y009109D03*
X015059Y009113D03*
X012801Y008959D03*
X011232Y009911D03*
D1037*
X011234Y008963D03*
X015057Y009117D03*
X015057Y009122D03*
X015057Y009126D03*
X017451Y008910D03*
X018126Y009117D03*
X018721Y008990D03*
X018721Y010167D03*
D1038*
X018719Y010162D03*
X018719Y008994D03*
X018124Y009113D03*
X017877Y009378D03*
X017930Y009836D03*
X017453Y009832D03*
X017453Y009827D03*
X017453Y008915D03*
X015055Y009131D03*
X015055Y009135D03*
X015055Y009139D03*
X014658Y009920D03*
X013401Y009920D03*
D1039*
X013650Y009933D03*
X012543Y008945D03*
X016856Y008919D03*
X018479Y009505D03*
D1040*
X018714Y009003D03*
X018714Y010154D03*
X017930Y009841D03*
X017877Y009373D03*
X017458Y009819D03*
X017458Y008923D03*
X015050Y009157D03*
X015050Y009162D03*
X015050Y009166D03*
D1041*
X016860Y008928D03*
X018474Y009514D03*
D1042*
X018712Y009007D03*
X018126Y009109D03*
X017460Y008928D03*
X017460Y009814D03*
X018712Y010149D03*
X015048Y009188D03*
X015048Y009184D03*
X015048Y009179D03*
X015048Y009175D03*
X015048Y009170D03*
X011243Y009916D03*
D1043*
X012308Y008954D03*
X012784Y008954D03*
X015041Y009214D03*
X015046Y009197D03*
X015046Y009192D03*
X017462Y008932D03*
X017877Y009369D03*
X018124Y009104D03*
X017930Y009845D03*
X017462Y009810D03*
X018710Y010145D03*
X018710Y009012D03*
D1044*
X018708Y009016D03*
X018708Y010140D03*
X017769Y009263D03*
X017764Y009259D03*
X017464Y008937D03*
X017464Y009805D03*
X015039Y009232D03*
X015039Y009228D03*
X015039Y009223D03*
X015039Y009219D03*
X015044Y009210D03*
X015044Y009206D03*
X015044Y009201D03*
X011251Y008959D03*
D1045*
X016865Y008941D03*
X018470Y009523D03*
D1046*
X018124Y009100D03*
X017877Y009364D03*
X017762Y009254D03*
X017758Y009250D03*
X017731Y009223D03*
X017467Y008941D03*
X017467Y009801D03*
X017930Y009849D03*
X018706Y010136D03*
X018706Y009025D03*
X018706Y009020D03*
X015037Y009236D03*
X015037Y009241D03*
X015037Y009245D03*
D1047*
X015035Y009250D03*
X015035Y009254D03*
X015035Y009259D03*
X014638Y009924D03*
X013650Y010061D03*
X017469Y009796D03*
X017751Y009245D03*
X017747Y009241D03*
X017742Y009236D03*
X017738Y009232D03*
X017733Y009228D03*
X017725Y009219D03*
X017720Y009214D03*
X017716Y009210D03*
X017711Y009206D03*
X017707Y009201D03*
X017703Y009197D03*
X017698Y009192D03*
X017694Y009188D03*
X017469Y008945D03*
X018703Y009029D03*
X018703Y010132D03*
D1048*
X018640Y009995D03*
X018640Y009990D03*
X017930Y009920D03*
X017872Y009298D03*
X018124Y009029D03*
X018640Y009162D03*
X018640Y009166D03*
X017533Y009082D03*
X014367Y010052D03*
X011324Y008950D03*
D1049*
X012336Y008950D03*
X017491Y008994D03*
X017491Y009748D03*
X018681Y010083D03*
X018681Y009078D03*
X018681Y009073D03*
D1050*
X018684Y009069D03*
X018124Y009078D03*
X017877Y009342D03*
X017930Y009871D03*
X017489Y009757D03*
X017489Y009752D03*
X017489Y008990D03*
X018684Y010087D03*
X012753Y008950D03*
X011651Y010070D03*
D1051*
X011258Y009920D03*
X013423Y009924D03*
X013877Y009924D03*
X015033Y009272D03*
X015033Y009267D03*
X015033Y009263D03*
X017471Y008950D03*
X017665Y009157D03*
X017669Y009162D03*
X017674Y009166D03*
X017678Y009170D03*
X017683Y009175D03*
X017687Y009179D03*
X017691Y009184D03*
X017877Y009360D03*
X018124Y009095D03*
X017930Y009854D03*
X017471Y009792D03*
X018701Y010123D03*
X018701Y010127D03*
X018701Y009034D03*
D1052*
X018686Y009065D03*
X018686Y010092D03*
X017486Y008985D03*
X011274Y008954D03*
D1053*
X014307Y010070D03*
X015030Y009289D03*
X015030Y009285D03*
X015030Y009281D03*
X015030Y009276D03*
X017473Y008954D03*
X017614Y009109D03*
X017619Y009113D03*
X017623Y009117D03*
X017628Y009122D03*
X017632Y009126D03*
X017636Y009131D03*
X017641Y009135D03*
X017645Y009139D03*
X017650Y009144D03*
X017654Y009148D03*
X017658Y009153D03*
X017879Y009356D03*
X017473Y009788D03*
X018699Y010118D03*
X018699Y009038D03*
D1054*
X018569Y009311D03*
X018569Y009845D03*
X018124Y008954D03*
X017930Y009995D03*
X014455Y009973D03*
D1055*
X015028Y009303D03*
X015028Y009298D03*
X015028Y009294D03*
X017475Y008959D03*
X017608Y009100D03*
X017612Y009104D03*
X017475Y009783D03*
X017930Y009858D03*
X018124Y009091D03*
X018697Y009042D03*
X018697Y010114D03*
D1056*
X018573Y009854D03*
X018573Y009307D03*
X018573Y009303D03*
X018124Y008959D03*
X017930Y009990D03*
X014446Y009986D03*
X011540Y010035D03*
D1057*
X015026Y009316D03*
X015026Y009311D03*
X015026Y009307D03*
X017478Y008967D03*
X017478Y008963D03*
X017478Y009779D03*
X018695Y010110D03*
X018695Y009047D03*
D1058*
X018580Y009289D03*
X018580Y009867D03*
X018126Y008967D03*
X014440Y009995D03*
X013650Y010021D03*
D1059*
X017480Y009774D03*
X017930Y009863D03*
X017877Y009351D03*
X018124Y009087D03*
X018692Y009051D03*
X018692Y010105D03*
X017480Y008972D03*
D1060*
X018126Y008976D03*
X018589Y009272D03*
X018589Y009885D03*
X014426Y010008D03*
X011556Y010043D03*
D1061*
X017484Y009766D03*
X017484Y009761D03*
X017930Y009867D03*
X017877Y009347D03*
X018124Y009082D03*
X018688Y009060D03*
X018688Y010096D03*
X017484Y008981D03*
D1062*
X018124Y008985D03*
X018595Y009259D03*
X018595Y009898D03*
X014420Y010017D03*
X013648Y010030D03*
D1063*
X017930Y009964D03*
X017930Y009960D03*
X018600Y009911D03*
X018600Y009250D03*
X018124Y008990D03*
D1064*
X018124Y009073D03*
X017877Y009338D03*
X017930Y009876D03*
X017493Y009744D03*
X017493Y008998D03*
X018679Y010079D03*
X013648Y010057D03*
D1065*
X014402Y010030D03*
X017930Y009951D03*
X017872Y009267D03*
X018124Y008998D03*
X018609Y009228D03*
X018609Y009232D03*
X018609Y009929D03*
D1066*
X018677Y010074D03*
X018677Y009082D03*
X017495Y009003D03*
X017495Y009739D03*
X014329Y010065D03*
D1067*
X011289Y009924D03*
X017497Y009735D03*
X017930Y009880D03*
X018124Y009069D03*
X018675Y009087D03*
X018675Y010070D03*
X017497Y009007D03*
D1068*
X017872Y009276D03*
X018124Y009007D03*
X018617Y009210D03*
X018617Y009946D03*
X017930Y009942D03*
D1069*
X017874Y009333D03*
X018126Y009065D03*
X018673Y009091D03*
X018673Y009095D03*
X018673Y010061D03*
X018673Y010065D03*
X017500Y009730D03*
X017500Y009012D03*
D1070*
X017872Y009281D03*
X018124Y009012D03*
X018622Y009201D03*
X018622Y009955D03*
X017930Y009938D03*
D1071*
X017930Y009885D03*
X017872Y009329D03*
X017502Y009016D03*
X017502Y009726D03*
X018670Y009100D03*
D1072*
X018626Y009192D03*
X018124Y009016D03*
X017872Y009285D03*
X017930Y009933D03*
X018626Y009964D03*
X014384Y010043D03*
D1073*
X017930Y009929D03*
X017872Y009289D03*
X018124Y009020D03*
X018631Y009184D03*
X018631Y009973D03*
D1074*
X018635Y009982D03*
X017930Y009924D03*
X017872Y009294D03*
X018124Y009025D03*
X018635Y009175D03*
X017537Y009091D03*
D1075*
X017508Y009029D03*
X017874Y009325D03*
X018664Y009113D03*
X018664Y010043D03*
D1076*
X018662Y010039D03*
X017930Y009898D03*
X017877Y009320D03*
X018124Y009056D03*
X018662Y009117D03*
X017511Y009034D03*
D1077*
X017513Y009038D03*
X017513Y009042D03*
X017874Y009316D03*
X018659Y009122D03*
X018659Y010035D03*
X014347Y010061D03*
X013650Y010052D03*
D1078*
X013650Y010048D03*
X017526Y009069D03*
X018126Y009038D03*
X018646Y009148D03*
X018646Y010008D03*
D1079*
X018651Y010017D03*
X018651Y009139D03*
X018126Y009042D03*
X017522Y009060D03*
D1080*
X017515Y009047D03*
X017930Y009902D03*
X018124Y009051D03*
X018657Y009126D03*
X018657Y010030D03*
D1081*
X018653Y010021D03*
X017930Y009907D03*
X017872Y009311D03*
X017520Y009056D03*
X018653Y009135D03*
X011620Y010065D03*
D1082*
X014358Y010057D03*
X017524Y009065D03*
X017872Y009307D03*
X017930Y009911D03*
X018648Y010013D03*
X018648Y009144D03*
D1083*
X018642Y009157D03*
X018642Y009999D03*
X017531Y009078D03*
D1084*
X017539Y009095D03*
X018633Y009179D03*
X018633Y009977D03*
X014378Y010048D03*
X013650Y010043D03*
X011600Y010061D03*
D1085*
X018628Y009968D03*
X018628Y009188D03*
D1086*
X018620Y009206D03*
X018620Y009951D03*
X016993Y009347D03*
X014391Y010039D03*
X011587Y010057D03*
D1087*
X013650Y010039D03*
X018615Y009942D03*
X018615Y009214D03*
D1088*
X018598Y009254D03*
X018598Y009902D03*
X018598Y009907D03*
X011565Y010048D03*
D1089*
X013652Y010026D03*
X014433Y010004D03*
X017930Y009977D03*
X018587Y009880D03*
X018587Y009276D03*
D1090*
X018582Y009285D03*
X018582Y009871D03*
X017930Y009982D03*
X011549Y010039D03*
D1091*
X013650Y010013D03*
X014462Y009964D03*
X014462Y009960D03*
X014466Y009955D03*
X018562Y009827D03*
X018562Y009329D03*
D1092*
X018558Y009338D03*
X018558Y009819D03*
X016777Y009488D03*
X014470Y009946D03*
X011525Y010021D03*
D1093*
X013650Y009360D03*
X013650Y009356D03*
X013650Y009351D03*
D1094*
X013650Y010004D03*
X011516Y010013D03*
X018549Y009801D03*
X018549Y009356D03*
D1095*
X013650Y009364D03*
X013650Y009369D03*
X013650Y009373D03*
X013650Y009378D03*
X013650Y009382D03*
X013650Y009386D03*
X013650Y009391D03*
X013650Y009395D03*
X013650Y009400D03*
X013650Y009404D03*
X013650Y009408D03*
X013650Y009413D03*
X013650Y009417D03*
X013650Y009422D03*
D1096*
X013648Y009426D03*
X013648Y009430D03*
X013648Y009435D03*
D1097*
X013650Y009439D03*
X013650Y009444D03*
X013650Y009448D03*
X013650Y009453D03*
X013650Y009457D03*
X013650Y009461D03*
X013650Y009466D03*
X013650Y009470D03*
X013650Y009475D03*
X013650Y009479D03*
X013650Y009483D03*
D1098*
X018461Y009545D03*
D1099*
X018454Y009558D03*
D1100*
X018450Y009567D03*
D1101*
X018445Y009576D03*
D1102*
X018439Y009589D03*
D1103*
X018434Y009598D03*
X018434Y009602D03*
D1104*
X018430Y009611D03*
D1105*
X018428Y009616D03*
D1106*
X018426Y009620D03*
D1107*
X018423Y009625D03*
D1108*
X018421Y009629D03*
D1109*
X018419Y009633D03*
D1110*
X018417Y009638D03*
D1111*
X018415Y009642D03*
D1112*
X018412Y009647D03*
D1113*
X018410Y009651D03*
D1114*
X018408Y009655D03*
D1115*
X018406Y009660D03*
D1116*
X018404Y009664D03*
D1117*
X018401Y009669D03*
X018401Y009673D03*
D1118*
X018399Y009677D03*
D1119*
X018606Y009924D03*
X013650Y010035D03*
X011573Y010052D03*
D1120*
X016307Y009929D03*
D1121*
X016305Y009933D03*
D1122*
X016303Y009938D03*
D1123*
X016300Y009942D03*
D1124*
X016298Y009946D03*
D1125*
X016296Y009951D03*
D1126*
X016294Y009955D03*
D1127*
X016291Y009960D03*
D1128*
X016289Y009964D03*
D1129*
X016287Y009968D03*
D1130*
X016285Y009973D03*
D1131*
X016283Y009977D03*
X016283Y009982D03*
D1132*
X016280Y009986D03*
D1133*
X016278Y009990D03*
D1134*
X016276Y009995D03*
D1135*
X016274Y009999D03*
D1136*
X016272Y010004D03*
D1137*
X016269Y010008D03*
D1138*
X016267Y010013D03*
D1139*
X016265Y010017D03*
D1140*
X016263Y010021D03*
X016263Y010026D03*
D1141*
X016261Y010030D03*
D1142*
X016256Y010035D03*
D1143*
X016254Y010039D03*
D1144*
X016252Y010043D03*
D1145*
X016250Y010048D03*
X016250Y010052D03*
D1146*
X016247Y010057D03*
D1147*
X016245Y010061D03*
D1148*
X016241Y010065D03*
X016241Y010070D03*
D1149*
X017804Y010074D03*
D1150*
X017806Y010079D03*
D1151*
X017808Y010083D03*
D1152*
X017811Y010087D03*
D1153*
X017813Y010092D03*
D1154*
X017815Y010096D03*
D1155*
X017817Y010101D03*
D1156*
X017819Y010105D03*
D1157*
X017822Y010110D03*
D1158*
X017824Y010114D03*
X017824Y010118D03*
D1159*
X017826Y010123D03*
D1160*
X017828Y010127D03*
D1161*
X017830Y010132D03*
D1162*
X017833Y010136D03*
D1163*
X017835Y010140D03*
D1164*
X017837Y010145D03*
D1165*
X017839Y010149D03*
D1166*
X017841Y010154D03*
D1167*
X017844Y010158D03*
D1168*
X017848Y010167D03*
D1169*
X017850Y010171D03*
D1170*
X017852Y010176D03*
D1171*
X017855Y010180D03*
D1172*
X017857Y010185D03*
X017857Y010189D03*
D1173*
X017859Y010193D03*
D1174*
X017861Y010198D03*
M02*
