%
M48
M72
T01C0.0157
T02C0.0236
T03C0.0240
T04C0.0400
T05C0.0470
T06C0.0520
T07C0.1260
%
T01
X12674Y23645
X13044Y21245
X17035Y25199
X19135Y22256
X17468Y24745
X15374Y24745
T02
X15868Y20716
X15274Y24045
X4668Y23716
T03
X11244Y17695
X11244Y19695
T04
X4117Y22023
X5117Y22023
X6117Y22023
X7117Y22023
X8117Y22023
X9117Y22023
X14244Y14345
X14244Y13345
X13244Y14345
X13244Y13345
X12244Y14345
X12244Y13345
T05
X6725Y36017
X8694Y36017
X10662Y36017
X13305Y36037
X15274Y36037
X17242Y36037
X18574Y12261
X18574Y14229
T06
X8674Y25895
X11024Y26695
X6324Y26695
X6324Y31495
X11024Y31495
X15274Y25895
X17624Y26695
X12924Y26695
X12924Y31495
X17624Y31495
T07
X3149Y35337
X19291Y35337
X19291Y6991
X3543Y6991
M30
