G75*
%MOIN*%
%OFA0B0*%
%FSLAX24Y24*%
%IPPOS*%
%LPD*%
%AMOC8*
5,1,8,0,0,1.08239X$1,22.5*
%
%ADD10C,0.0000*%
%ADD11R,0.0433X0.0394*%
%ADD12OC8,0.0600*%
%ADD13C,0.0780*%
%ADD14C,0.0440*%
%ADD15C,0.0705*%
%ADD16R,0.0669X0.0236*%
%ADD17R,0.0945X0.0945*%
%ADD18R,0.0551X0.0394*%
%ADD19R,0.0394X0.0433*%
%ADD20R,0.0315X0.0315*%
%ADD21C,0.0100*%
%ADD22C,0.0357*%
%ADD23C,0.0120*%
%ADD24C,0.0160*%
%ADD25C,0.0500*%
%ADD26C,0.0436*%
%ADD27C,0.0320*%
D10*
X003149Y005613D02*
X019291Y005613D01*
X019353Y005615D01*
X019414Y005621D01*
X019475Y005630D01*
X019536Y005644D01*
X019595Y005661D01*
X019653Y005682D01*
X019710Y005707D01*
X019765Y005735D01*
X019818Y005766D01*
X019869Y005801D01*
X019918Y005839D01*
X019965Y005880D01*
X020008Y005923D01*
X020049Y005970D01*
X020087Y006019D01*
X020122Y006070D01*
X020153Y006123D01*
X020181Y006178D01*
X020206Y006235D01*
X020227Y006293D01*
X020244Y006352D01*
X020258Y006413D01*
X020267Y006474D01*
X020273Y006535D01*
X020275Y006597D01*
X020275Y037109D01*
X020273Y037171D01*
X020267Y037232D01*
X020258Y037293D01*
X020244Y037354D01*
X020227Y037413D01*
X020206Y037471D01*
X020181Y037528D01*
X020153Y037583D01*
X020122Y037636D01*
X020087Y037687D01*
X020049Y037736D01*
X020008Y037783D01*
X019965Y037826D01*
X019918Y037867D01*
X019869Y037905D01*
X019818Y037940D01*
X019765Y037971D01*
X019710Y037999D01*
X019653Y038024D01*
X019595Y038045D01*
X019536Y038062D01*
X019475Y038076D01*
X019414Y038085D01*
X019353Y038091D01*
X019291Y038093D01*
X003149Y038093D01*
X003087Y038091D01*
X003026Y038085D01*
X002965Y038076D01*
X002904Y038062D01*
X002845Y038045D01*
X002787Y038024D01*
X002730Y037999D01*
X002675Y037971D01*
X002622Y037940D01*
X002571Y037905D01*
X002522Y037867D01*
X002475Y037826D01*
X002432Y037783D01*
X002391Y037736D01*
X002353Y037687D01*
X002318Y037636D01*
X002287Y037583D01*
X002259Y037528D01*
X002234Y037471D01*
X002213Y037413D01*
X002196Y037354D01*
X002182Y037293D01*
X002173Y037232D01*
X002167Y037171D01*
X002165Y037109D01*
X002165Y006597D01*
X002167Y006535D01*
X002173Y006474D01*
X002182Y006413D01*
X002196Y006352D01*
X002213Y006293D01*
X002234Y006235D01*
X002259Y006178D01*
X002287Y006123D01*
X002318Y006070D01*
X002353Y006019D01*
X002391Y005970D01*
X002432Y005923D01*
X002475Y005880D01*
X002522Y005839D01*
X002571Y005801D01*
X002622Y005766D01*
X002675Y005735D01*
X002730Y005707D01*
X002787Y005682D01*
X002845Y005661D01*
X002904Y005644D01*
X002965Y005630D01*
X003026Y005621D01*
X003087Y005615D01*
X003149Y005613D01*
X002913Y006991D02*
X002915Y007041D01*
X002921Y007091D01*
X002931Y007140D01*
X002945Y007188D01*
X002962Y007235D01*
X002983Y007280D01*
X003008Y007324D01*
X003036Y007365D01*
X003068Y007404D01*
X003102Y007441D01*
X003139Y007475D01*
X003179Y007505D01*
X003221Y007532D01*
X003265Y007556D01*
X003311Y007577D01*
X003358Y007593D01*
X003406Y007606D01*
X003456Y007615D01*
X003505Y007620D01*
X003556Y007621D01*
X003606Y007618D01*
X003655Y007611D01*
X003704Y007600D01*
X003752Y007585D01*
X003798Y007567D01*
X003843Y007545D01*
X003886Y007519D01*
X003927Y007490D01*
X003966Y007458D01*
X004002Y007423D01*
X004034Y007385D01*
X004064Y007345D01*
X004091Y007302D01*
X004114Y007258D01*
X004133Y007212D01*
X004149Y007164D01*
X004161Y007115D01*
X004169Y007066D01*
X004173Y007016D01*
X004173Y006966D01*
X004169Y006916D01*
X004161Y006867D01*
X004149Y006818D01*
X004133Y006770D01*
X004114Y006724D01*
X004091Y006680D01*
X004064Y006637D01*
X004034Y006597D01*
X004002Y006559D01*
X003966Y006524D01*
X003927Y006492D01*
X003886Y006463D01*
X003843Y006437D01*
X003798Y006415D01*
X003752Y006397D01*
X003704Y006382D01*
X003655Y006371D01*
X003606Y006364D01*
X003556Y006361D01*
X003505Y006362D01*
X003456Y006367D01*
X003406Y006376D01*
X003358Y006389D01*
X003311Y006405D01*
X003265Y006426D01*
X003221Y006450D01*
X003179Y006477D01*
X003139Y006507D01*
X003102Y006541D01*
X003068Y006578D01*
X003036Y006617D01*
X003008Y006658D01*
X002983Y006702D01*
X002962Y006747D01*
X002945Y006794D01*
X002931Y006842D01*
X002921Y006891D01*
X002915Y006941D01*
X002913Y006991D01*
X002519Y035337D02*
X002521Y035387D01*
X002527Y035437D01*
X002537Y035486D01*
X002551Y035534D01*
X002568Y035581D01*
X002589Y035626D01*
X002614Y035670D01*
X002642Y035711D01*
X002674Y035750D01*
X002708Y035787D01*
X002745Y035821D01*
X002785Y035851D01*
X002827Y035878D01*
X002871Y035902D01*
X002917Y035923D01*
X002964Y035939D01*
X003012Y035952D01*
X003062Y035961D01*
X003111Y035966D01*
X003162Y035967D01*
X003212Y035964D01*
X003261Y035957D01*
X003310Y035946D01*
X003358Y035931D01*
X003404Y035913D01*
X003449Y035891D01*
X003492Y035865D01*
X003533Y035836D01*
X003572Y035804D01*
X003608Y035769D01*
X003640Y035731D01*
X003670Y035691D01*
X003697Y035648D01*
X003720Y035604D01*
X003739Y035558D01*
X003755Y035510D01*
X003767Y035461D01*
X003775Y035412D01*
X003779Y035362D01*
X003779Y035312D01*
X003775Y035262D01*
X003767Y035213D01*
X003755Y035164D01*
X003739Y035116D01*
X003720Y035070D01*
X003697Y035026D01*
X003670Y034983D01*
X003640Y034943D01*
X003608Y034905D01*
X003572Y034870D01*
X003533Y034838D01*
X003492Y034809D01*
X003449Y034783D01*
X003404Y034761D01*
X003358Y034743D01*
X003310Y034728D01*
X003261Y034717D01*
X003212Y034710D01*
X003162Y034707D01*
X003111Y034708D01*
X003062Y034713D01*
X003012Y034722D01*
X002964Y034735D01*
X002917Y034751D01*
X002871Y034772D01*
X002827Y034796D01*
X002785Y034823D01*
X002745Y034853D01*
X002708Y034887D01*
X002674Y034924D01*
X002642Y034963D01*
X002614Y035004D01*
X002589Y035048D01*
X002568Y035093D01*
X002551Y035140D01*
X002537Y035188D01*
X002527Y035237D01*
X002521Y035287D01*
X002519Y035337D01*
X018661Y035337D02*
X018663Y035387D01*
X018669Y035437D01*
X018679Y035486D01*
X018693Y035534D01*
X018710Y035581D01*
X018731Y035626D01*
X018756Y035670D01*
X018784Y035711D01*
X018816Y035750D01*
X018850Y035787D01*
X018887Y035821D01*
X018927Y035851D01*
X018969Y035878D01*
X019013Y035902D01*
X019059Y035923D01*
X019106Y035939D01*
X019154Y035952D01*
X019204Y035961D01*
X019253Y035966D01*
X019304Y035967D01*
X019354Y035964D01*
X019403Y035957D01*
X019452Y035946D01*
X019500Y035931D01*
X019546Y035913D01*
X019591Y035891D01*
X019634Y035865D01*
X019675Y035836D01*
X019714Y035804D01*
X019750Y035769D01*
X019782Y035731D01*
X019812Y035691D01*
X019839Y035648D01*
X019862Y035604D01*
X019881Y035558D01*
X019897Y035510D01*
X019909Y035461D01*
X019917Y035412D01*
X019921Y035362D01*
X019921Y035312D01*
X019917Y035262D01*
X019909Y035213D01*
X019897Y035164D01*
X019881Y035116D01*
X019862Y035070D01*
X019839Y035026D01*
X019812Y034983D01*
X019782Y034943D01*
X019750Y034905D01*
X019714Y034870D01*
X019675Y034838D01*
X019634Y034809D01*
X019591Y034783D01*
X019546Y034761D01*
X019500Y034743D01*
X019452Y034728D01*
X019403Y034717D01*
X019354Y034710D01*
X019304Y034707D01*
X019253Y034708D01*
X019204Y034713D01*
X019154Y034722D01*
X019106Y034735D01*
X019059Y034751D01*
X019013Y034772D01*
X018969Y034796D01*
X018927Y034823D01*
X018887Y034853D01*
X018850Y034887D01*
X018816Y034924D01*
X018784Y034963D01*
X018756Y035004D01*
X018731Y035048D01*
X018710Y035093D01*
X018693Y035140D01*
X018679Y035188D01*
X018669Y035237D01*
X018663Y035287D01*
X018661Y035337D01*
X018661Y006991D02*
X018663Y007041D01*
X018669Y007091D01*
X018679Y007140D01*
X018693Y007188D01*
X018710Y007235D01*
X018731Y007280D01*
X018756Y007324D01*
X018784Y007365D01*
X018816Y007404D01*
X018850Y007441D01*
X018887Y007475D01*
X018927Y007505D01*
X018969Y007532D01*
X019013Y007556D01*
X019059Y007577D01*
X019106Y007593D01*
X019154Y007606D01*
X019204Y007615D01*
X019253Y007620D01*
X019304Y007621D01*
X019354Y007618D01*
X019403Y007611D01*
X019452Y007600D01*
X019500Y007585D01*
X019546Y007567D01*
X019591Y007545D01*
X019634Y007519D01*
X019675Y007490D01*
X019714Y007458D01*
X019750Y007423D01*
X019782Y007385D01*
X019812Y007345D01*
X019839Y007302D01*
X019862Y007258D01*
X019881Y007212D01*
X019897Y007164D01*
X019909Y007115D01*
X019917Y007066D01*
X019921Y007016D01*
X019921Y006966D01*
X019917Y006916D01*
X019909Y006867D01*
X019897Y006818D01*
X019881Y006770D01*
X019862Y006724D01*
X019839Y006680D01*
X019812Y006637D01*
X019782Y006597D01*
X019750Y006559D01*
X019714Y006524D01*
X019675Y006492D01*
X019634Y006463D01*
X019591Y006437D01*
X019546Y006415D01*
X019500Y006397D01*
X019452Y006382D01*
X019403Y006371D01*
X019354Y006364D01*
X019304Y006361D01*
X019253Y006362D01*
X019204Y006367D01*
X019154Y006376D01*
X019106Y006389D01*
X019059Y006405D01*
X019013Y006426D01*
X018969Y006450D01*
X018927Y006477D01*
X018887Y006507D01*
X018850Y006541D01*
X018816Y006578D01*
X018784Y006617D01*
X018756Y006658D01*
X018731Y006702D01*
X018710Y006747D01*
X018693Y006794D01*
X018679Y006842D01*
X018669Y006891D01*
X018663Y006941D01*
X018661Y006991D01*
D11*
X011674Y015792D03*
X011005Y015792D03*
X010963Y021440D03*
X011632Y021440D03*
D12*
X009117Y022023D03*
X008117Y022023D03*
X007117Y022023D03*
X006117Y022023D03*
X005117Y022023D03*
X004117Y022023D03*
X012244Y014345D03*
X012244Y013345D03*
X013244Y013345D03*
X013244Y014345D03*
X014244Y014345D03*
X014244Y013345D03*
D13*
X015274Y025505D02*
X015274Y026285D01*
X017624Y026305D02*
X017624Y027085D01*
X017624Y031105D02*
X017624Y031885D01*
X012924Y031885D02*
X012924Y031105D01*
X011024Y031105D02*
X011024Y031885D01*
X011024Y027085D02*
X011024Y026305D01*
X012924Y026305D02*
X012924Y027085D01*
X008674Y026285D02*
X008674Y025505D01*
X006324Y026305D02*
X006324Y027085D01*
X006324Y031105D02*
X006324Y031885D01*
D14*
X011024Y019695D02*
X011464Y019695D01*
X011464Y017695D02*
X011024Y017695D01*
D15*
X018221Y014229D02*
X018926Y014229D01*
X018926Y012261D02*
X018221Y012261D01*
X017242Y035684D02*
X017242Y036389D01*
X015274Y036389D02*
X015274Y035684D01*
X013305Y035684D02*
X013305Y036389D01*
X010662Y036369D02*
X010662Y035664D01*
X008694Y035664D02*
X008694Y036369D01*
X006725Y036369D02*
X006725Y035664D01*
D16*
X013136Y020745D03*
X013136Y020245D03*
X013136Y019745D03*
X013136Y019245D03*
X013136Y018745D03*
X013136Y018245D03*
X013136Y017745D03*
X013136Y017245D03*
X013136Y016745D03*
X013136Y016245D03*
X017152Y016245D03*
X017152Y016745D03*
X017152Y017245D03*
X017152Y017745D03*
X017152Y018245D03*
X017152Y018745D03*
X017152Y019245D03*
X017152Y019745D03*
X017152Y020245D03*
X017152Y020745D03*
D17*
X016140Y024045D03*
X014408Y024045D03*
X009540Y023945D03*
X007808Y023945D03*
D18*
X010541Y023945D03*
X011407Y024319D03*
X011407Y023571D03*
X017141Y023945D03*
X018007Y024319D03*
X018007Y023571D03*
D19*
X018939Y023545D03*
X019609Y023545D03*
X016179Y022545D03*
X015509Y022545D03*
X013009Y022745D03*
X012339Y022745D03*
X006579Y023575D03*
X005909Y023575D03*
D20*
X005959Y024165D03*
X006549Y024165D03*
X018979Y024345D03*
X019569Y024345D03*
D21*
X019877Y024328D02*
X020125Y024328D01*
X020125Y024426D02*
X019877Y024426D01*
X019877Y024525D02*
X020125Y024525D01*
X020125Y024623D02*
X019818Y024623D01*
X019789Y024652D02*
X019350Y024652D01*
X019274Y024577D01*
X019198Y024652D01*
X019192Y024652D01*
X019004Y024840D01*
X018869Y024975D01*
X017702Y024975D01*
X017654Y025024D01*
X017533Y025074D01*
X017402Y025074D01*
X017281Y025024D01*
X017189Y024931D01*
X017139Y024810D01*
X017139Y024679D01*
X017189Y024559D01*
X017281Y024466D01*
X017402Y024416D01*
X017533Y024416D01*
X017581Y024436D01*
X017581Y024367D01*
X017959Y024367D01*
X017959Y024270D01*
X017581Y024270D01*
X017581Y024175D01*
X017566Y024175D01*
X017566Y024204D01*
X017479Y024292D01*
X016803Y024292D01*
X016768Y024257D01*
X016768Y025932D01*
X016770Y025952D01*
X016785Y025988D01*
X016797Y026003D01*
X017084Y026289D01*
X017084Y026197D01*
X017166Y025999D01*
X017318Y025847D01*
X017516Y025765D01*
X017731Y025765D01*
X017930Y025847D01*
X018082Y025999D01*
X018164Y026197D01*
X018164Y027192D01*
X018082Y027391D01*
X017930Y027543D01*
X017731Y027625D01*
X017516Y027625D01*
X017318Y027543D01*
X017166Y027391D01*
X017084Y027192D01*
X017084Y027095D01*
X016844Y027095D01*
X016697Y027034D01*
X016288Y026625D01*
X016280Y026617D01*
X016176Y026512D01*
X016105Y026442D01*
X016105Y026442D01*
X015968Y026111D01*
X015968Y024667D01*
X015698Y024667D01*
X015703Y024679D01*
X015703Y024810D01*
X015653Y024931D01*
X015560Y025024D01*
X015542Y025031D01*
X015580Y025047D01*
X015732Y025199D01*
X015814Y025397D01*
X015814Y026392D01*
X015732Y026591D01*
X015580Y026743D01*
X015381Y026825D01*
X015166Y026825D01*
X014968Y026743D01*
X014816Y026591D01*
X014734Y026393D01*
X014647Y026602D01*
X014647Y026602D01*
X014592Y026658D01*
X014534Y026716D01*
X014479Y026770D01*
X014307Y026942D01*
X014195Y027055D01*
X014048Y027116D01*
X013889Y027116D01*
X013838Y027095D01*
X013464Y027095D01*
X013464Y027192D01*
X013382Y027391D01*
X013230Y027543D01*
X013031Y027625D01*
X012816Y027625D01*
X012618Y027543D01*
X012466Y027391D01*
X012384Y027192D01*
X012384Y026197D01*
X012466Y025999D01*
X012618Y025847D01*
X012816Y025765D01*
X013031Y025765D01*
X013230Y025847D01*
X013382Y025999D01*
X013464Y026197D01*
X013464Y026295D01*
X013823Y026295D01*
X013968Y026150D01*
X013968Y024667D01*
X013873Y024667D01*
X013785Y024579D01*
X013785Y023510D01*
X013873Y023422D01*
X014942Y023422D01*
X015030Y023510D01*
X015030Y023768D01*
X015065Y023733D01*
X015201Y023677D01*
X015347Y023677D01*
X015482Y023733D01*
X015518Y023768D01*
X015518Y023510D01*
X015605Y023422D01*
X016675Y023422D01*
X016762Y023510D01*
X016762Y023635D01*
X016766Y023635D01*
X016803Y023598D01*
X017479Y023598D01*
X017566Y023686D01*
X017566Y023715D01*
X017581Y023715D01*
X017581Y023312D01*
X017669Y023224D01*
X017758Y023224D01*
X017758Y022903D01*
X017730Y022875D01*
X016474Y022875D01*
X016438Y022911D01*
X015920Y022911D01*
X015844Y022836D01*
X015768Y022911D01*
X015250Y022911D01*
X015162Y022824D01*
X015162Y022266D01*
X015250Y022178D01*
X015268Y022178D01*
X015268Y021933D01*
X015285Y021916D01*
X013209Y021916D01*
X013209Y022378D01*
X013268Y022378D01*
X013355Y022466D01*
X013355Y023024D01*
X013268Y023111D01*
X012750Y023111D01*
X012674Y023036D01*
X012598Y023111D01*
X012080Y023111D01*
X011992Y023024D01*
X011992Y022835D01*
X011949Y022835D01*
X011764Y023020D01*
X011764Y023243D01*
X011833Y023312D01*
X011833Y023830D01*
X011745Y023918D01*
X011069Y023918D01*
X010981Y023830D01*
X010981Y023312D01*
X011069Y023224D01*
X011304Y023224D01*
X011304Y022963D01*
X011251Y023016D01*
X009993Y023016D01*
X010098Y023121D01*
X010098Y023346D01*
X010162Y023410D01*
X010162Y023639D01*
X010203Y023598D01*
X010879Y023598D01*
X010966Y023686D01*
X010966Y024204D01*
X010879Y024292D01*
X010203Y024292D01*
X010162Y024251D01*
X010162Y024479D01*
X010075Y024567D01*
X009940Y024567D01*
X009940Y026022D01*
X010234Y026316D01*
X010484Y026316D01*
X010484Y026197D01*
X010566Y025999D01*
X010718Y025847D01*
X010916Y025765D01*
X011131Y025765D01*
X011330Y025847D01*
X011482Y025999D01*
X011564Y026197D01*
X011564Y027192D01*
X011482Y027391D01*
X011330Y027543D01*
X011131Y027625D01*
X010916Y027625D01*
X010718Y027543D01*
X010566Y027391D01*
X010484Y027192D01*
X010484Y027116D01*
X009989Y027116D01*
X009842Y027055D01*
X009429Y026642D01*
X009405Y026618D01*
X009316Y026530D01*
X009261Y026474D01*
X009214Y026361D01*
X009214Y026392D01*
X009132Y026591D01*
X008980Y026743D01*
X008781Y026825D01*
X008566Y026825D01*
X008368Y026743D01*
X008216Y026591D01*
X008134Y026392D01*
X008134Y025397D01*
X008216Y025199D01*
X008368Y025047D01*
X008566Y024965D01*
X008781Y024965D01*
X008980Y025047D01*
X009132Y025199D01*
X009140Y025219D01*
X009140Y024567D01*
X009005Y024567D01*
X008918Y024479D01*
X008918Y023410D01*
X008982Y023346D01*
X008366Y023346D01*
X008430Y023410D01*
X008430Y024479D01*
X008342Y024567D01*
X008068Y024567D01*
X008068Y026169D01*
X007988Y026361D01*
X007971Y026379D01*
X007295Y027055D01*
X007148Y027116D01*
X006864Y027116D01*
X006864Y027192D01*
X006782Y027391D01*
X006630Y027543D01*
X006431Y027625D01*
X006216Y027625D01*
X006018Y027543D01*
X005866Y027391D01*
X005784Y027192D01*
X005784Y026197D01*
X005866Y025999D01*
X006018Y025847D01*
X006216Y025765D01*
X006431Y025765D01*
X006630Y025847D01*
X006782Y025999D01*
X006864Y026197D01*
X006864Y026316D01*
X006902Y026316D01*
X007268Y025950D01*
X007268Y024562D01*
X007236Y024531D01*
X007205Y024562D01*
X007193Y024574D01*
X007100Y024666D01*
X007088Y024679D01*
X007069Y024679D01*
X007012Y024703D01*
X006999Y024716D01*
X005985Y024716D01*
X005912Y024643D01*
X005903Y024633D01*
X005808Y024539D01*
X005795Y024526D01*
X005795Y024508D01*
X005781Y024472D01*
X005739Y024472D01*
X005651Y024384D01*
X005651Y024316D01*
X004785Y024316D01*
X004622Y024152D01*
X004604Y024135D01*
X004524Y024055D01*
X004460Y024028D01*
X004356Y023924D01*
X004300Y023789D01*
X004300Y023643D01*
X004356Y023507D01*
X004460Y023404D01*
X004595Y023348D01*
X004741Y023348D01*
X004877Y023404D01*
X004980Y023507D01*
X005036Y023643D01*
X005036Y023789D01*
X004984Y023916D01*
X005625Y023916D01*
X005562Y023854D01*
X005562Y023296D01*
X005638Y023220D01*
X005638Y023121D01*
X005738Y023021D01*
X005873Y022886D01*
X008355Y022886D01*
X008185Y022716D01*
X007485Y022716D01*
X007243Y022473D01*
X006931Y022473D01*
X006667Y022210D01*
X006667Y021837D01*
X006931Y021573D01*
X007304Y021573D01*
X007567Y021837D01*
X007567Y022210D01*
X007556Y022221D01*
X007651Y022316D01*
X007773Y022316D01*
X007667Y022210D01*
X007667Y021837D01*
X007931Y021573D01*
X008304Y021573D01*
X008567Y021837D01*
X008567Y022210D01*
X008556Y022221D01*
X008751Y022416D01*
X008873Y022416D01*
X008667Y022210D01*
X008667Y021837D01*
X008931Y021573D01*
X009304Y021573D01*
X009567Y021837D01*
X009567Y022210D01*
X009361Y022416D01*
X010985Y022416D01*
X011485Y021916D01*
X012168Y021916D01*
X012168Y020033D01*
X012568Y019633D01*
X012685Y019516D01*
X012700Y019516D01*
X012721Y019495D01*
X012651Y019425D01*
X012651Y019282D01*
X012485Y019116D01*
X011651Y019116D01*
X011444Y019323D01*
X011444Y019325D01*
X011538Y019325D01*
X011674Y019381D01*
X011778Y019485D01*
X011834Y019621D01*
X011834Y019768D01*
X011778Y019904D01*
X011674Y020009D01*
X011538Y020065D01*
X011302Y020065D01*
X011268Y020099D01*
X011268Y021120D01*
X011297Y021149D01*
X011323Y021123D01*
X011357Y021103D01*
X011396Y021093D01*
X011583Y021093D01*
X011583Y021392D01*
X011680Y021392D01*
X011680Y021488D01*
X011998Y021488D01*
X011998Y021657D01*
X011988Y021695D01*
X011968Y021729D01*
X011940Y021757D01*
X011906Y021777D01*
X011868Y021787D01*
X011680Y021787D01*
X011680Y021489D01*
X011583Y021489D01*
X011583Y021787D01*
X011396Y021787D01*
X011357Y021777D01*
X011323Y021757D01*
X011297Y021731D01*
X011241Y021787D01*
X010684Y021787D01*
X010596Y021699D01*
X010596Y021181D01*
X010684Y021093D01*
X010868Y021093D01*
X010868Y020031D01*
X010814Y020009D01*
X010710Y019904D01*
X010654Y019768D01*
X010654Y019621D01*
X010710Y019485D01*
X010814Y019381D01*
X010950Y019325D01*
X011044Y019325D01*
X011044Y019157D01*
X011161Y019040D01*
X011161Y019040D01*
X011368Y018833D01*
X011385Y018816D01*
X011185Y018616D01*
X011068Y018499D01*
X011068Y018065D01*
X010950Y018065D01*
X010814Y018009D01*
X010710Y017904D01*
X010654Y017768D01*
X010654Y017621D01*
X010710Y017485D01*
X010814Y017381D01*
X010868Y017359D01*
X010868Y016138D01*
X010726Y016138D01*
X010638Y016051D01*
X010638Y015533D01*
X010726Y015445D01*
X011283Y015445D01*
X011339Y015501D01*
X011365Y015475D01*
X011399Y015455D01*
X011438Y015445D01*
X011625Y015445D01*
X011625Y015743D01*
X011722Y015743D01*
X011722Y015445D01*
X011910Y015445D01*
X011948Y015455D01*
X011982Y015475D01*
X012010Y015503D01*
X012030Y015537D01*
X012040Y015575D01*
X012040Y015743D01*
X011722Y015743D01*
X011722Y015840D01*
X011625Y015840D01*
X011625Y016138D01*
X011438Y016138D01*
X011399Y016128D01*
X011365Y016109D01*
X011339Y016083D01*
X011283Y016138D01*
X011268Y016138D01*
X011268Y017233D01*
X011327Y017292D01*
X011360Y017325D01*
X011538Y017325D01*
X011674Y017381D01*
X011778Y017485D01*
X011834Y017621D01*
X011834Y017768D01*
X011778Y017904D01*
X011674Y018009D01*
X011538Y018065D01*
X011468Y018065D01*
X011468Y018333D01*
X011651Y018516D01*
X012700Y018516D01*
X012721Y018495D01*
X012651Y018425D01*
X012651Y018065D01*
X012721Y017995D01*
X012651Y017925D01*
X012651Y017565D01*
X012721Y017495D01*
X012651Y017425D01*
X012651Y017065D01*
X012721Y016995D01*
X012651Y016925D01*
X012651Y016565D01*
X012724Y016492D01*
X012709Y016483D01*
X012681Y016455D01*
X012662Y016421D01*
X012651Y016383D01*
X012651Y016254D01*
X013127Y016254D01*
X013127Y016236D01*
X012651Y016236D01*
X012651Y016107D01*
X012662Y016069D01*
X012681Y016035D01*
X012709Y016007D01*
X012744Y015987D01*
X012782Y015977D01*
X013127Y015977D01*
X013127Y016236D01*
X013145Y016236D01*
X013145Y016254D01*
X013621Y016254D01*
X013621Y016383D01*
X013611Y016421D01*
X013591Y016455D01*
X013563Y016483D01*
X013548Y016492D01*
X013621Y016565D01*
X013621Y016925D01*
X013551Y016995D01*
X013621Y017065D01*
X013621Y017425D01*
X013551Y017495D01*
X013621Y017565D01*
X013621Y017925D01*
X013551Y017995D01*
X013621Y018065D01*
X013621Y018425D01*
X013551Y018495D01*
X013621Y018565D01*
X013621Y018925D01*
X013551Y018995D01*
X013621Y019065D01*
X013621Y019425D01*
X013551Y019495D01*
X013621Y019565D01*
X013621Y019925D01*
X013551Y019995D01*
X013621Y020065D01*
X013621Y020425D01*
X013551Y020495D01*
X013572Y020516D01*
X013668Y020516D01*
X013668Y015099D01*
X013585Y015016D01*
X012485Y015016D01*
X012264Y014795D01*
X012058Y014795D01*
X011794Y014531D01*
X011794Y014158D01*
X012058Y013895D01*
X012430Y013895D01*
X012694Y014158D01*
X012694Y014531D01*
X012630Y014595D01*
X012651Y014616D01*
X012879Y014616D01*
X012794Y014531D01*
X012794Y014158D01*
X013058Y013895D01*
X013430Y013895D01*
X013680Y014145D01*
X013780Y014145D01*
X013794Y014159D01*
X013794Y014158D01*
X014058Y013895D01*
X014430Y013895D01*
X014568Y014033D01*
X014568Y013657D01*
X014430Y013795D01*
X014058Y013795D01*
X013794Y013531D01*
X013794Y013158D01*
X013937Y013016D01*
X013551Y013016D01*
X013694Y013158D01*
X013694Y013531D01*
X013430Y013795D01*
X013058Y013795D01*
X012794Y013531D01*
X012794Y013158D01*
X013044Y012908D01*
X013044Y012857D01*
X013161Y012740D01*
X013285Y012616D01*
X014751Y012616D01*
X014868Y012733D01*
X014968Y012833D01*
X014968Y014699D01*
X014851Y014816D01*
X014668Y014999D01*
X014668Y019616D01*
X016285Y019616D01*
X016468Y019433D01*
X016468Y019233D01*
X016539Y019162D01*
X016656Y019045D01*
X016687Y019045D01*
X016737Y018995D01*
X016667Y018925D01*
X016667Y018565D01*
X016737Y018495D01*
X016667Y018425D01*
X016667Y018065D01*
X016737Y017995D01*
X016667Y017925D01*
X016667Y017565D01*
X016737Y017495D01*
X016667Y017425D01*
X016667Y017065D01*
X016737Y016995D01*
X016667Y016925D01*
X016667Y016565D01*
X016737Y016495D01*
X016667Y016425D01*
X016667Y016065D01*
X016755Y015977D01*
X017549Y015977D01*
X017636Y016065D01*
X017636Y016425D01*
X017567Y016495D01*
X017636Y016565D01*
X017636Y016801D01*
X017651Y016816D01*
X017751Y016816D01*
X017868Y016933D01*
X018051Y017116D01*
X018168Y017233D01*
X018168Y021699D01*
X018051Y021816D01*
X017751Y022116D01*
X015668Y022116D01*
X015668Y022178D01*
X015768Y022178D01*
X015844Y022254D01*
X015920Y022178D01*
X016438Y022178D01*
X016525Y022266D01*
X016525Y022415D01*
X017849Y022415D01*
X017898Y022464D01*
X017913Y022464D01*
X018178Y022729D01*
X018178Y023224D01*
X018345Y023224D01*
X018433Y023312D01*
X018433Y023715D01*
X018592Y023715D01*
X018592Y023266D01*
X018680Y023178D01*
X019198Y023178D01*
X019274Y023254D01*
X019350Y023178D01*
X019868Y023178D01*
X019955Y023266D01*
X019955Y023824D01*
X019868Y023911D01*
X019839Y023911D01*
X019839Y024087D01*
X019877Y024125D01*
X019877Y024564D01*
X019789Y024652D01*
X019877Y024229D02*
X020125Y024229D01*
X020125Y024131D02*
X019877Y024131D01*
X019839Y024032D02*
X020125Y024032D01*
X020125Y023934D02*
X019839Y023934D01*
X019944Y023835D02*
X020125Y023835D01*
X020125Y023737D02*
X019955Y023737D01*
X019955Y023638D02*
X020125Y023638D01*
X020125Y023540D02*
X019955Y023540D01*
X019955Y023441D02*
X020125Y023441D01*
X020125Y023343D02*
X019955Y023343D01*
X019934Y023244D02*
X020125Y023244D01*
X020125Y023146D02*
X018178Y023146D01*
X018178Y023047D02*
X020125Y023047D01*
X020125Y022949D02*
X018178Y022949D01*
X018178Y022850D02*
X020125Y022850D01*
X020125Y022752D02*
X018178Y022752D01*
X018103Y022653D02*
X020125Y022653D01*
X020125Y022555D02*
X018004Y022555D01*
X017891Y022456D02*
X020125Y022456D01*
X020125Y022358D02*
X016525Y022358D01*
X016519Y022259D02*
X020125Y022259D01*
X020125Y022161D02*
X015668Y022161D01*
X015468Y022016D02*
X015468Y022504D01*
X015509Y022545D01*
X015189Y022850D02*
X013355Y022850D01*
X013355Y022752D02*
X015162Y022752D01*
X015162Y022653D02*
X013355Y022653D01*
X013355Y022555D02*
X015162Y022555D01*
X015162Y022456D02*
X013346Y022456D01*
X013209Y022358D02*
X015162Y022358D01*
X015169Y022259D02*
X013209Y022259D01*
X013209Y022161D02*
X015268Y022161D01*
X015268Y022062D02*
X013209Y022062D01*
X013209Y021964D02*
X015268Y021964D01*
X015468Y022016D02*
X015568Y021916D01*
X017668Y021916D01*
X017968Y021616D01*
X017968Y017316D01*
X017668Y017016D01*
X017568Y017016D01*
X017334Y016781D01*
X017245Y016745D02*
X017152Y016745D01*
X017152Y016800D01*
X017245Y016745D02*
X017265Y016747D01*
X017284Y016751D01*
X017302Y016759D01*
X017318Y016769D01*
X017333Y016782D01*
X017636Y016743D02*
X020125Y016743D01*
X020125Y016645D02*
X017636Y016645D01*
X017618Y016546D02*
X020125Y016546D01*
X020125Y016448D02*
X017614Y016448D01*
X017636Y016349D02*
X020125Y016349D01*
X020125Y016251D02*
X017636Y016251D01*
X017636Y016152D02*
X020125Y016152D01*
X020125Y016054D02*
X017626Y016054D01*
X017777Y016842D02*
X020125Y016842D01*
X020125Y016940D02*
X017876Y016940D01*
X017868Y016933D02*
X017868Y016933D01*
X017974Y017039D02*
X020125Y017039D01*
X020125Y017137D02*
X018073Y017137D01*
X018051Y017116D02*
X018051Y017116D01*
X018168Y017236D02*
X020125Y017236D01*
X020125Y017334D02*
X018168Y017334D01*
X018168Y017433D02*
X020125Y017433D01*
X020125Y017531D02*
X018168Y017531D01*
X018168Y017630D02*
X020125Y017630D01*
X020125Y017728D02*
X018168Y017728D01*
X018168Y017827D02*
X020125Y017827D01*
X020125Y017925D02*
X018168Y017925D01*
X018168Y018024D02*
X020125Y018024D01*
X020125Y018122D02*
X018168Y018122D01*
X018168Y018221D02*
X020125Y018221D01*
X020125Y018319D02*
X018168Y018319D01*
X018168Y018418D02*
X020125Y018418D01*
X020125Y018516D02*
X018168Y018516D01*
X018168Y018615D02*
X020125Y018615D01*
X020125Y018713D02*
X018168Y018713D01*
X018168Y018812D02*
X020125Y018812D01*
X020125Y018910D02*
X018168Y018910D01*
X018168Y019009D02*
X020125Y019009D01*
X020125Y019107D02*
X018168Y019107D01*
X018168Y019206D02*
X020125Y019206D01*
X020125Y019304D02*
X018168Y019304D01*
X018168Y019403D02*
X020125Y019403D01*
X020125Y019501D02*
X018168Y019501D01*
X018168Y019600D02*
X020125Y019600D01*
X020125Y019698D02*
X018168Y019698D01*
X018168Y019797D02*
X020125Y019797D01*
X020125Y019895D02*
X018168Y019895D01*
X018168Y019994D02*
X020125Y019994D01*
X020125Y020092D02*
X018168Y020092D01*
X018168Y020191D02*
X020125Y020191D01*
X020125Y020289D02*
X018168Y020289D01*
X018168Y020388D02*
X020125Y020388D01*
X020125Y020486D02*
X018168Y020486D01*
X018168Y020585D02*
X020125Y020585D01*
X020125Y020683D02*
X018168Y020683D01*
X018168Y020782D02*
X020125Y020782D01*
X020125Y020880D02*
X018168Y020880D01*
X018168Y020979D02*
X020125Y020979D01*
X020125Y021077D02*
X018168Y021077D01*
X018168Y021176D02*
X020125Y021176D01*
X020125Y021274D02*
X018168Y021274D01*
X018168Y021373D02*
X020125Y021373D01*
X020125Y021471D02*
X018168Y021471D01*
X018168Y021570D02*
X020125Y021570D01*
X020125Y021668D02*
X018168Y021668D01*
X018100Y021767D02*
X020125Y021767D01*
X020125Y021865D02*
X018001Y021865D01*
X017903Y021964D02*
X020125Y021964D01*
X020125Y022062D02*
X017804Y022062D01*
X017568Y021716D02*
X017768Y021516D01*
X017768Y017416D01*
X017597Y017245D01*
X017152Y017245D01*
X016667Y017236D02*
X014668Y017236D01*
X014668Y017334D02*
X016667Y017334D01*
X016675Y017433D02*
X014668Y017433D01*
X014668Y017531D02*
X016700Y017531D01*
X016667Y017630D02*
X014668Y017630D01*
X014668Y017728D02*
X016667Y017728D01*
X016667Y017827D02*
X014668Y017827D01*
X014668Y017925D02*
X016667Y017925D01*
X016708Y018024D02*
X014668Y018024D01*
X014668Y018122D02*
X016667Y018122D01*
X016667Y018221D02*
X014668Y018221D01*
X014668Y018319D02*
X016667Y018319D01*
X016667Y018418D02*
X014668Y018418D01*
X014668Y018516D02*
X016715Y018516D01*
X016667Y018615D02*
X014668Y018615D01*
X014668Y018713D02*
X016667Y018713D01*
X016667Y018812D02*
X014668Y018812D01*
X014668Y018910D02*
X016667Y018910D01*
X016723Y019009D02*
X014668Y019009D01*
X014668Y019107D02*
X016594Y019107D01*
X016495Y019206D02*
X014668Y019206D01*
X014668Y019304D02*
X016468Y019304D01*
X016468Y019403D02*
X014668Y019403D01*
X014668Y019501D02*
X016400Y019501D01*
X016301Y019600D02*
X014668Y019600D01*
X014468Y019716D02*
X014568Y019816D01*
X016368Y019816D01*
X016668Y019516D01*
X016668Y019316D01*
X016739Y019245D01*
X017152Y019245D01*
X017039Y019245D01*
X017123Y019216D02*
X017152Y019245D01*
X017123Y019716D02*
X016768Y019716D01*
X016468Y020016D01*
X014468Y020016D01*
X014268Y019816D01*
X014268Y014716D01*
X014244Y014692D01*
X014244Y014345D01*
X014521Y013985D02*
X014568Y013985D01*
X014568Y013887D02*
X002315Y013887D01*
X002315Y013985D02*
X011967Y013985D01*
X011869Y014084D02*
X002315Y014084D01*
X002315Y014182D02*
X011794Y014182D01*
X011794Y014281D02*
X002315Y014281D01*
X002315Y014379D02*
X011794Y014379D01*
X011794Y014478D02*
X002315Y014478D01*
X002315Y014576D02*
X011839Y014576D01*
X011938Y014675D02*
X002315Y014675D01*
X002315Y014773D02*
X012036Y014773D01*
X012244Y014492D02*
X012244Y014345D01*
X012244Y014492D02*
X012568Y014816D01*
X013668Y014816D01*
X013868Y015016D01*
X013868Y020616D01*
X013768Y020716D01*
X013165Y020716D01*
X013136Y020745D01*
X012768Y021013D02*
X013533Y021013D01*
X013621Y020925D01*
X013621Y020916D01*
X013851Y020916D01*
X013951Y020816D01*
X014068Y020699D01*
X014068Y020199D01*
X014285Y020416D01*
X015648Y020416D01*
X015556Y020507D01*
X015500Y020643D01*
X015500Y020789D01*
X015556Y020924D01*
X015660Y021028D01*
X015795Y021084D01*
X015941Y021084D01*
X016077Y021028D01*
X016160Y020945D01*
X016687Y020945D01*
X016755Y021013D01*
X017549Y021013D01*
X017568Y020993D01*
X017568Y021433D01*
X017485Y021516D01*
X012985Y021516D01*
X012868Y021633D01*
X012809Y021693D01*
X012809Y022378D01*
X012750Y022378D01*
X012674Y022454D01*
X012643Y022423D01*
X012668Y022399D01*
X012768Y022299D01*
X012768Y021013D01*
X012768Y021077D02*
X015779Y021077D01*
X015957Y021077D02*
X017568Y021077D01*
X017568Y021176D02*
X012768Y021176D01*
X012768Y021274D02*
X017568Y021274D01*
X017568Y021373D02*
X012768Y021373D01*
X012768Y021471D02*
X017530Y021471D01*
X017568Y021716D02*
X013068Y021716D01*
X013009Y021776D01*
X013009Y022745D01*
X012809Y022358D02*
X012709Y022358D01*
X012768Y022259D02*
X012809Y022259D01*
X012809Y022161D02*
X012768Y022161D01*
X012768Y022062D02*
X012809Y022062D01*
X012809Y021964D02*
X012768Y021964D01*
X012768Y021865D02*
X012809Y021865D01*
X012809Y021767D02*
X012768Y021767D01*
X012768Y021668D02*
X012833Y021668D01*
X012768Y021570D02*
X012931Y021570D01*
X012568Y022216D02*
X012468Y022316D01*
X011668Y022316D01*
X011168Y022816D01*
X008568Y022816D01*
X008268Y022516D01*
X007568Y022516D01*
X007117Y022065D01*
X007117Y022023D01*
X006815Y022358D02*
X006419Y022358D01*
X006320Y022456D02*
X006914Y022456D01*
X006717Y022259D02*
X006517Y022259D01*
X006567Y022210D02*
X006304Y022473D01*
X006167Y022473D01*
X006167Y022073D01*
X006567Y022073D01*
X006567Y022210D01*
X006567Y022161D02*
X006667Y022161D01*
X006667Y022062D02*
X006167Y022062D01*
X006167Y022073D02*
X006167Y021973D01*
X006167Y021573D01*
X006304Y021573D01*
X006567Y021837D01*
X006567Y021973D01*
X006167Y021973D01*
X006067Y021973D01*
X006067Y021573D01*
X005931Y021573D01*
X005667Y021837D01*
X005667Y021973D01*
X006067Y021973D01*
X006067Y022073D01*
X005667Y022073D01*
X005667Y022210D01*
X005931Y022473D01*
X006067Y022473D01*
X006067Y022073D01*
X006167Y022073D01*
X006167Y022161D02*
X006067Y022161D01*
X006067Y022259D02*
X006167Y022259D01*
X006167Y022358D02*
X006067Y022358D01*
X006067Y022456D02*
X006167Y022456D01*
X006067Y022062D02*
X005567Y022062D01*
X005567Y021964D02*
X005667Y021964D01*
X005667Y021865D02*
X005567Y021865D01*
X005567Y021837D02*
X005304Y021573D01*
X004931Y021573D01*
X004667Y021837D01*
X004667Y022210D01*
X004931Y022473D01*
X005304Y022473D01*
X005567Y022210D01*
X005567Y021837D01*
X005497Y021767D02*
X005737Y021767D01*
X005836Y021668D02*
X005399Y021668D01*
X005567Y022161D02*
X005667Y022161D01*
X005717Y022259D02*
X005517Y022259D01*
X005419Y022358D02*
X005815Y022358D01*
X005914Y022456D02*
X005320Y022456D01*
X004914Y022456D02*
X004320Y022456D01*
X004304Y022473D02*
X003931Y022473D01*
X003667Y022210D01*
X003667Y021837D01*
X003931Y021573D01*
X004304Y021573D01*
X004567Y021837D01*
X004567Y022210D01*
X004304Y022473D01*
X004419Y022358D02*
X004815Y022358D01*
X004717Y022259D02*
X004517Y022259D01*
X004567Y022161D02*
X004667Y022161D01*
X004667Y022062D02*
X004567Y022062D01*
X004567Y021964D02*
X004667Y021964D01*
X004667Y021865D02*
X004567Y021865D01*
X004497Y021767D02*
X004737Y021767D01*
X004836Y021668D02*
X004399Y021668D01*
X003914Y022456D02*
X002315Y022456D01*
X002315Y022358D02*
X003815Y022358D01*
X003717Y022259D02*
X002315Y022259D01*
X002315Y022161D02*
X003667Y022161D01*
X003667Y022062D02*
X002315Y022062D01*
X002315Y021964D02*
X003667Y021964D01*
X003667Y021865D02*
X002315Y021865D01*
X002315Y021767D02*
X003737Y021767D01*
X003836Y021668D02*
X002315Y021668D01*
X002315Y021570D02*
X010596Y021570D01*
X010596Y021668D02*
X009399Y021668D01*
X009497Y021767D02*
X010664Y021767D01*
X010596Y021471D02*
X002315Y021471D01*
X002315Y021373D02*
X010596Y021373D01*
X010596Y021274D02*
X002315Y021274D01*
X002315Y021176D02*
X010601Y021176D01*
X010868Y021077D02*
X002315Y021077D01*
X002315Y020979D02*
X010868Y020979D01*
X010868Y020880D02*
X002315Y020880D01*
X002315Y020782D02*
X010868Y020782D01*
X010868Y020683D02*
X002315Y020683D01*
X002315Y020585D02*
X010868Y020585D01*
X010868Y020486D02*
X002315Y020486D01*
X002315Y020388D02*
X010868Y020388D01*
X010868Y020289D02*
X002315Y020289D01*
X002315Y020191D02*
X010868Y020191D01*
X010868Y020092D02*
X002315Y020092D01*
X002315Y019994D02*
X010800Y019994D01*
X010707Y019895D02*
X002315Y019895D01*
X002315Y019797D02*
X010666Y019797D01*
X010654Y019698D02*
X002315Y019698D01*
X002315Y019600D02*
X010663Y019600D01*
X010704Y019501D02*
X002315Y019501D01*
X002315Y019403D02*
X010793Y019403D01*
X011044Y019304D02*
X002315Y019304D01*
X002315Y019206D02*
X011044Y019206D01*
X011094Y019107D02*
X002315Y019107D01*
X002315Y019009D02*
X011192Y019009D01*
X011291Y018910D02*
X002315Y018910D01*
X002315Y018812D02*
X011381Y018812D01*
X011283Y018713D02*
X002315Y018713D01*
X002315Y018615D02*
X011184Y018615D01*
X011086Y018516D02*
X002315Y018516D01*
X002315Y018418D02*
X011068Y018418D01*
X011068Y018319D02*
X002315Y018319D01*
X002315Y018221D02*
X011068Y018221D01*
X011068Y018122D02*
X002315Y018122D01*
X002315Y018024D02*
X010851Y018024D01*
X010731Y017925D02*
X002315Y017925D01*
X002315Y017827D02*
X010678Y017827D01*
X010654Y017728D02*
X002315Y017728D01*
X002315Y017630D02*
X010654Y017630D01*
X010691Y017531D02*
X002315Y017531D01*
X002315Y017433D02*
X010763Y017433D01*
X010868Y017334D02*
X002315Y017334D01*
X002315Y017236D02*
X010868Y017236D01*
X010868Y017137D02*
X002315Y017137D01*
X002315Y017039D02*
X010868Y017039D01*
X010868Y016940D02*
X002315Y016940D01*
X002315Y016842D02*
X010868Y016842D01*
X010868Y016743D02*
X002315Y016743D01*
X002315Y016645D02*
X010868Y016645D01*
X010868Y016546D02*
X002315Y016546D01*
X002315Y016448D02*
X010868Y016448D01*
X010868Y016349D02*
X002315Y016349D01*
X002315Y016251D02*
X010868Y016251D01*
X010868Y016152D02*
X002315Y016152D01*
X002315Y016054D02*
X010641Y016054D01*
X010638Y015955D02*
X002315Y015955D01*
X002315Y015857D02*
X010638Y015857D01*
X010638Y015758D02*
X002315Y015758D01*
X002315Y015660D02*
X010638Y015660D01*
X010638Y015561D02*
X002315Y015561D01*
X002315Y015463D02*
X010708Y015463D01*
X011005Y015792D02*
X011068Y015855D01*
X011068Y017316D01*
X011244Y017492D01*
X011244Y017695D01*
X011268Y017719D01*
X011268Y018416D01*
X011568Y018716D01*
X013107Y018716D01*
X013136Y018745D01*
X013136Y019245D02*
X012897Y019245D01*
X012568Y018916D01*
X011568Y018916D01*
X011244Y019240D01*
X011244Y019695D01*
X011244Y019840D01*
X011068Y020016D01*
X011068Y021334D01*
X010963Y021440D01*
X011261Y021767D02*
X011340Y021767D01*
X011437Y021964D02*
X009567Y021964D01*
X009567Y022062D02*
X011339Y022062D01*
X011240Y022161D02*
X009567Y022161D01*
X009517Y022259D02*
X011142Y022259D01*
X011043Y022358D02*
X009419Y022358D01*
X009567Y021865D02*
X012168Y021865D01*
X012168Y021767D02*
X011923Y021767D01*
X011995Y021668D02*
X012168Y021668D01*
X012168Y021570D02*
X011998Y021570D01*
X011998Y021392D02*
X011680Y021392D01*
X011680Y021093D01*
X011868Y021093D01*
X011906Y021103D01*
X011940Y021123D01*
X011968Y021151D01*
X011988Y021185D01*
X011998Y021223D01*
X011998Y021392D01*
X011998Y021373D02*
X012168Y021373D01*
X012168Y021471D02*
X011680Y021471D01*
X011680Y021373D02*
X011583Y021373D01*
X011583Y021274D02*
X011680Y021274D01*
X011680Y021176D02*
X011583Y021176D01*
X011583Y021570D02*
X011680Y021570D01*
X011680Y021668D02*
X011583Y021668D01*
X011583Y021767D02*
X011680Y021767D01*
X011568Y022116D02*
X011068Y022616D01*
X008668Y022616D01*
X008117Y022065D01*
X008117Y022023D01*
X007836Y021668D02*
X007399Y021668D01*
X007497Y021767D02*
X007737Y021767D01*
X007667Y021865D02*
X007567Y021865D01*
X007567Y021964D02*
X007667Y021964D01*
X007667Y022062D02*
X007567Y022062D01*
X007567Y022161D02*
X007667Y022161D01*
X007717Y022259D02*
X007595Y022259D01*
X007423Y022653D02*
X002315Y022653D01*
X002315Y022555D02*
X007324Y022555D01*
X006836Y021668D02*
X006399Y021668D01*
X006497Y021767D02*
X006737Y021767D01*
X006667Y021865D02*
X006567Y021865D01*
X006567Y021964D02*
X006667Y021964D01*
X006167Y021964D02*
X006067Y021964D01*
X006067Y021865D02*
X006167Y021865D01*
X006167Y021767D02*
X006067Y021767D01*
X006067Y021668D02*
X006167Y021668D01*
X005810Y022949D02*
X002315Y022949D01*
X002315Y023047D02*
X005711Y023047D01*
X005638Y023146D02*
X002315Y023146D01*
X002315Y023244D02*
X005614Y023244D01*
X005562Y023343D02*
X002315Y023343D01*
X002315Y023441D02*
X004422Y023441D01*
X004343Y023540D02*
X002315Y023540D01*
X002315Y023638D02*
X004302Y023638D01*
X004300Y023737D02*
X002315Y023737D01*
X002315Y023835D02*
X004319Y023835D01*
X004366Y023934D02*
X002315Y023934D01*
X002315Y024032D02*
X004470Y024032D01*
X004600Y024131D02*
X002315Y024131D01*
X002315Y024229D02*
X004699Y024229D01*
X004868Y024116D02*
X004705Y023952D01*
X004668Y023864D02*
X004668Y023716D01*
X004668Y023864D02*
X004670Y023884D01*
X004674Y023903D01*
X004682Y023921D01*
X004692Y023937D01*
X004705Y023952D01*
X004868Y024116D02*
X005858Y024116D01*
X005946Y024152D02*
X005959Y024165D01*
X005959Y024355D01*
X005995Y024443D02*
X006068Y024516D01*
X006916Y024516D01*
X007005Y024479D02*
X007668Y023816D01*
X007268Y024623D02*
X007143Y024623D01*
X007268Y024722D02*
X002315Y024722D01*
X002315Y024820D02*
X007268Y024820D01*
X007268Y024919D02*
X002315Y024919D01*
X002315Y025017D02*
X007268Y025017D01*
X007268Y025116D02*
X002315Y025116D01*
X002315Y025214D02*
X007268Y025214D01*
X007268Y025313D02*
X002315Y025313D01*
X002315Y025411D02*
X007268Y025411D01*
X007268Y025510D02*
X002315Y025510D01*
X002315Y025608D02*
X007268Y025608D01*
X007268Y025707D02*
X002315Y025707D01*
X002315Y025805D02*
X006119Y025805D01*
X005961Y025904D02*
X002315Y025904D01*
X002315Y026002D02*
X005865Y026002D01*
X005824Y026101D02*
X002315Y026101D01*
X002315Y026199D02*
X005784Y026199D01*
X005784Y026298D02*
X002315Y026298D01*
X002315Y026396D02*
X005784Y026396D01*
X005784Y026495D02*
X002315Y026495D01*
X002315Y026593D02*
X005784Y026593D01*
X005784Y026692D02*
X002315Y026692D01*
X002315Y026790D02*
X005784Y026790D01*
X005784Y026889D02*
X002315Y026889D01*
X002315Y026987D02*
X005784Y026987D01*
X005784Y027086D02*
X002315Y027086D01*
X002315Y027184D02*
X005784Y027184D01*
X005821Y027283D02*
X002315Y027283D01*
X002315Y027381D02*
X005862Y027381D01*
X005955Y027480D02*
X002315Y027480D01*
X002315Y027578D02*
X006104Y027578D01*
X006543Y027578D02*
X010804Y027578D01*
X010655Y027480D02*
X006693Y027480D01*
X006786Y027381D02*
X010562Y027381D01*
X010521Y027283D02*
X006826Y027283D01*
X006864Y027184D02*
X010484Y027184D01*
X009916Y027086D02*
X007220Y027086D01*
X007362Y026987D02*
X009774Y026987D01*
X009676Y026889D02*
X007461Y026889D01*
X007559Y026790D02*
X008483Y026790D01*
X008317Y026692D02*
X007658Y026692D01*
X007756Y026593D02*
X008219Y026593D01*
X008176Y026495D02*
X007855Y026495D01*
X007953Y026396D02*
X008136Y026396D01*
X008134Y026298D02*
X008015Y026298D01*
X007988Y026361D02*
X007988Y026361D01*
X007971Y026379D02*
X007971Y026379D01*
X008055Y026199D02*
X008134Y026199D01*
X008134Y026101D02*
X008068Y026101D01*
X008068Y026002D02*
X008134Y026002D01*
X008134Y025904D02*
X008068Y025904D01*
X008068Y025805D02*
X008134Y025805D01*
X008134Y025707D02*
X008068Y025707D01*
X008068Y025608D02*
X008134Y025608D01*
X008134Y025510D02*
X008068Y025510D01*
X008068Y025411D02*
X008134Y025411D01*
X008169Y025313D02*
X008068Y025313D01*
X008068Y025214D02*
X008210Y025214D01*
X008299Y025116D02*
X008068Y025116D01*
X008068Y025017D02*
X008440Y025017D01*
X008385Y024525D02*
X008963Y024525D01*
X008918Y024426D02*
X008430Y024426D01*
X008430Y024328D02*
X008918Y024328D01*
X008918Y024229D02*
X008430Y024229D01*
X008430Y024131D02*
X008918Y024131D01*
X008918Y024032D02*
X008430Y024032D01*
X008430Y023934D02*
X008918Y023934D01*
X008918Y023835D02*
X008430Y023835D01*
X008430Y023737D02*
X008918Y023737D01*
X008918Y023638D02*
X008430Y023638D01*
X008430Y023540D02*
X008918Y023540D01*
X008918Y023441D02*
X008430Y023441D01*
X008320Y022850D02*
X002315Y022850D01*
X002315Y022752D02*
X008221Y022752D01*
X008595Y022259D02*
X008717Y022259D01*
X008693Y022358D02*
X008815Y022358D01*
X008667Y022161D02*
X008567Y022161D01*
X008567Y022062D02*
X008667Y022062D01*
X008667Y021964D02*
X008567Y021964D01*
X008567Y021865D02*
X008667Y021865D01*
X008737Y021767D02*
X008497Y021767D01*
X008399Y021668D02*
X008836Y021668D01*
X010025Y023047D02*
X011304Y023047D01*
X011304Y023146D02*
X010098Y023146D01*
X010098Y023244D02*
X011049Y023244D01*
X010981Y023343D02*
X010098Y023343D01*
X010162Y023441D02*
X010981Y023441D01*
X010981Y023540D02*
X010162Y023540D01*
X010162Y023638D02*
X010163Y023638D01*
X010162Y024328D02*
X011359Y024328D01*
X011359Y024367D02*
X011359Y024270D01*
X011455Y024270D01*
X011455Y023972D01*
X011702Y023972D01*
X011740Y023982D01*
X011775Y024002D01*
X011803Y024030D01*
X011822Y024064D01*
X011833Y024102D01*
X011833Y024270D01*
X011455Y024270D01*
X011455Y024367D01*
X011359Y024367D01*
X011359Y024666D01*
X011112Y024666D01*
X011073Y024656D01*
X011039Y024636D01*
X011011Y024608D01*
X010992Y024574D01*
X010981Y024535D01*
X010981Y024367D01*
X011359Y024367D01*
X011359Y024426D02*
X011455Y024426D01*
X011455Y024367D02*
X011455Y024666D01*
X011702Y024666D01*
X011740Y024656D01*
X011775Y024636D01*
X011803Y024608D01*
X011822Y024574D01*
X011833Y024535D01*
X011833Y024367D01*
X011455Y024367D01*
X011455Y024328D02*
X013785Y024328D01*
X013785Y024426D02*
X011833Y024426D01*
X011833Y024525D02*
X013785Y024525D01*
X013829Y024623D02*
X011787Y024623D01*
X011833Y024229D02*
X013785Y024229D01*
X013785Y024131D02*
X011833Y024131D01*
X011804Y024032D02*
X013785Y024032D01*
X013785Y023934D02*
X010966Y023934D01*
X010966Y024032D02*
X011010Y024032D01*
X011011Y024030D02*
X011039Y024002D01*
X011073Y023982D01*
X011112Y023972D01*
X011359Y023972D01*
X011359Y024270D01*
X010981Y024270D01*
X010981Y024102D01*
X010992Y024064D01*
X011011Y024030D01*
X010981Y024131D02*
X010966Y024131D01*
X010981Y024229D02*
X010941Y024229D01*
X010981Y024426D02*
X010162Y024426D01*
X010117Y024525D02*
X010981Y024525D01*
X011027Y024623D02*
X009940Y024623D01*
X009940Y024722D02*
X013968Y024722D01*
X013968Y024820D02*
X009940Y024820D01*
X009940Y024919D02*
X013968Y024919D01*
X013968Y025017D02*
X009940Y025017D01*
X009940Y025116D02*
X013968Y025116D01*
X013968Y025214D02*
X009940Y025214D01*
X009940Y025313D02*
X013968Y025313D01*
X013968Y025411D02*
X009940Y025411D01*
X009940Y025510D02*
X013968Y025510D01*
X013968Y025608D02*
X009940Y025608D01*
X009940Y025707D02*
X013968Y025707D01*
X013968Y025805D02*
X013129Y025805D01*
X013287Y025904D02*
X013968Y025904D01*
X013968Y026002D02*
X013383Y026002D01*
X013424Y026101D02*
X013968Y026101D01*
X013919Y026199D02*
X013464Y026199D01*
X013464Y027184D02*
X017084Y027184D01*
X017121Y027283D02*
X013426Y027283D01*
X013386Y027381D02*
X017162Y027381D01*
X017255Y027480D02*
X013293Y027480D01*
X013143Y027578D02*
X017404Y027578D01*
X017843Y027578D02*
X020125Y027578D01*
X020125Y027480D02*
X017993Y027480D01*
X018086Y027381D02*
X020125Y027381D01*
X020125Y027283D02*
X018126Y027283D01*
X018164Y027184D02*
X020125Y027184D01*
X020125Y027086D02*
X018164Y027086D01*
X018164Y026987D02*
X020125Y026987D01*
X020125Y026889D02*
X018164Y026889D01*
X018164Y026790D02*
X020125Y026790D01*
X020125Y026692D02*
X018164Y026692D01*
X018164Y026593D02*
X020125Y026593D01*
X020125Y026495D02*
X018164Y026495D01*
X018164Y026396D02*
X020125Y026396D01*
X020125Y026298D02*
X018164Y026298D01*
X018164Y026199D02*
X020125Y026199D01*
X020125Y026101D02*
X018124Y026101D01*
X018083Y026002D02*
X020125Y026002D01*
X020125Y025904D02*
X017987Y025904D01*
X017829Y025805D02*
X020125Y025805D01*
X020125Y025707D02*
X016768Y025707D01*
X016768Y025805D02*
X017419Y025805D01*
X017261Y025904D02*
X016768Y025904D01*
X016797Y026002D02*
X017165Y026002D01*
X017124Y026101D02*
X016896Y026101D01*
X016994Y026199D02*
X017084Y026199D01*
X016768Y025608D02*
X020125Y025608D01*
X020125Y025510D02*
X016768Y025510D01*
X016768Y025411D02*
X020125Y025411D01*
X020125Y025313D02*
X016768Y025313D01*
X016768Y025214D02*
X020125Y025214D01*
X020125Y025116D02*
X016768Y025116D01*
X016768Y025017D02*
X017275Y025017D01*
X017184Y024919D02*
X016768Y024919D01*
X016768Y024820D02*
X017143Y024820D01*
X017139Y024722D02*
X016768Y024722D01*
X016768Y024623D02*
X017162Y024623D01*
X017223Y024525D02*
X016768Y024525D01*
X016768Y024426D02*
X017377Y024426D01*
X017558Y024426D02*
X017581Y024426D01*
X017608Y024319D02*
X017605Y024316D01*
X017168Y024316D01*
X016967Y024517D01*
X016967Y025138D01*
X017035Y025206D01*
X017035Y025199D01*
X016768Y024328D02*
X017959Y024328D01*
X018055Y024328D02*
X018671Y024328D01*
X018671Y024426D02*
X018433Y024426D01*
X018433Y024367D02*
X018433Y024515D01*
X018671Y024515D01*
X018671Y024175D01*
X018433Y024175D01*
X018433Y024270D01*
X018055Y024270D01*
X018055Y024367D01*
X018433Y024367D01*
X018433Y024229D02*
X018671Y024229D01*
X018592Y023638D02*
X018433Y023638D01*
X018433Y023540D02*
X018592Y023540D01*
X018592Y023441D02*
X018433Y023441D01*
X018433Y023343D02*
X018592Y023343D01*
X018614Y023244D02*
X018365Y023244D01*
X017939Y023493D02*
X017934Y023498D01*
X017939Y023493D02*
X017951Y023478D01*
X017960Y023460D01*
X017966Y023442D01*
X017968Y023422D01*
X017758Y023146D02*
X011764Y023146D01*
X011765Y023244D02*
X017649Y023244D01*
X017581Y023343D02*
X011833Y023343D01*
X011833Y023441D02*
X013854Y023441D01*
X013785Y023540D02*
X011833Y023540D01*
X011833Y023638D02*
X013785Y023638D01*
X013785Y023737D02*
X011833Y023737D01*
X011827Y023835D02*
X013785Y023835D01*
X013355Y022949D02*
X017758Y022949D01*
X017758Y023047D02*
X013332Y023047D01*
X012686Y023047D02*
X012662Y023047D01*
X012568Y022216D02*
X012568Y020316D01*
X012668Y020216D01*
X013107Y020216D01*
X013136Y020245D01*
X013136Y019745D02*
X012897Y019745D01*
X012868Y019716D01*
X012768Y019716D01*
X012368Y020116D01*
X012368Y022016D01*
X012268Y022116D01*
X011568Y022116D01*
X011934Y022850D02*
X011992Y022850D01*
X011992Y022949D02*
X011835Y022949D01*
X011764Y023047D02*
X012016Y023047D01*
X011455Y024032D02*
X011359Y024032D01*
X011359Y024131D02*
X011455Y024131D01*
X011455Y024229D02*
X011359Y024229D01*
X011359Y024525D02*
X011455Y024525D01*
X011455Y024623D02*
X011359Y024623D01*
X010987Y023835D02*
X010966Y023835D01*
X010966Y023737D02*
X010981Y023737D01*
X010981Y023638D02*
X010919Y023638D01*
X010819Y025805D02*
X009940Y025805D01*
X009940Y025904D02*
X010661Y025904D01*
X010565Y026002D02*
X009940Y026002D01*
X010019Y026101D02*
X010524Y026101D01*
X010484Y026199D02*
X010117Y026199D01*
X010216Y026298D02*
X010484Y026298D01*
X011229Y025805D02*
X012719Y025805D01*
X012561Y025904D02*
X011387Y025904D01*
X011483Y026002D02*
X012465Y026002D01*
X012424Y026101D02*
X011524Y026101D01*
X011564Y026199D02*
X012384Y026199D01*
X012384Y026298D02*
X011564Y026298D01*
X011564Y026396D02*
X012384Y026396D01*
X012384Y026495D02*
X011564Y026495D01*
X011564Y026593D02*
X012384Y026593D01*
X012384Y026692D02*
X011564Y026692D01*
X011564Y026790D02*
X012384Y026790D01*
X012384Y026889D02*
X011564Y026889D01*
X011564Y026987D02*
X012384Y026987D01*
X012384Y027086D02*
X011564Y027086D01*
X011564Y027184D02*
X012384Y027184D01*
X012421Y027283D02*
X011526Y027283D01*
X011486Y027381D02*
X012462Y027381D01*
X012555Y027480D02*
X011393Y027480D01*
X011243Y027578D02*
X012704Y027578D01*
X014120Y027086D02*
X016823Y027086D01*
X016651Y026987D02*
X014262Y026987D01*
X014307Y026942D02*
X014307Y026942D01*
X014361Y026889D02*
X016552Y026889D01*
X016454Y026790D02*
X015464Y026790D01*
X015631Y026692D02*
X016355Y026692D01*
X016257Y026593D02*
X015729Y026593D01*
X015771Y026495D02*
X016158Y026495D01*
X016176Y026512D02*
X016176Y026512D01*
X016086Y026396D02*
X015812Y026396D01*
X015814Y026298D02*
X016046Y026298D01*
X016005Y026199D02*
X015814Y026199D01*
X015814Y026101D02*
X015968Y026101D01*
X015968Y026002D02*
X015814Y026002D01*
X015814Y025904D02*
X015968Y025904D01*
X015968Y025805D02*
X015814Y025805D01*
X015814Y025707D02*
X015968Y025707D01*
X015968Y025608D02*
X015814Y025608D01*
X015814Y025510D02*
X015968Y025510D01*
X015968Y025411D02*
X015814Y025411D01*
X015779Y025313D02*
X015968Y025313D01*
X015968Y025214D02*
X015738Y025214D01*
X015649Y025116D02*
X015968Y025116D01*
X015968Y025017D02*
X015566Y025017D01*
X015658Y024919D02*
X015968Y024919D01*
X015968Y024820D02*
X015698Y024820D01*
X015703Y024722D02*
X015968Y024722D01*
X015518Y023737D02*
X015486Y023737D01*
X015518Y023638D02*
X015030Y023638D01*
X015030Y023540D02*
X015518Y023540D01*
X015586Y023441D02*
X014961Y023441D01*
X015030Y023737D02*
X015061Y023737D01*
X015020Y024016D02*
X015268Y024016D01*
X015020Y024016D02*
X015000Y024018D01*
X014981Y024022D01*
X014963Y024030D01*
X014947Y024040D01*
X014932Y024053D01*
X014932Y024052D02*
X014568Y024416D01*
X014568Y024257D01*
X014532Y024169D02*
X014408Y024045D01*
X014531Y024169D02*
X014544Y024184D01*
X014554Y024200D01*
X014562Y024218D01*
X014566Y024237D01*
X014568Y024257D01*
X014733Y026396D02*
X014736Y026396D01*
X014776Y026495D02*
X014692Y026495D01*
X014651Y026593D02*
X014819Y026593D01*
X014917Y026692D02*
X014558Y026692D01*
X014459Y026790D02*
X015083Y026790D01*
X016762Y023540D02*
X017581Y023540D01*
X017581Y023638D02*
X017519Y023638D01*
X017581Y023441D02*
X016694Y023441D01*
X016279Y022645D02*
X016179Y022545D01*
X015859Y022850D02*
X015829Y022850D01*
X015611Y020979D02*
X013567Y020979D01*
X013886Y020880D02*
X015538Y020880D01*
X015500Y020782D02*
X013985Y020782D01*
X014068Y020683D02*
X015500Y020683D01*
X015524Y020585D02*
X014068Y020585D01*
X014068Y020486D02*
X015577Y020486D01*
X015868Y020716D02*
X015897Y020745D01*
X017152Y020745D01*
X016721Y020979D02*
X016126Y020979D01*
X017123Y020216D02*
X014368Y020216D01*
X014068Y019916D01*
X014068Y014916D01*
X013768Y014616D01*
X013768Y014416D01*
X013697Y014345D01*
X013244Y014345D01*
X013521Y013985D02*
X013967Y013985D01*
X013869Y014084D02*
X013619Y014084D01*
X013437Y013788D02*
X014051Y013788D01*
X013953Y013690D02*
X013535Y013690D01*
X013634Y013591D02*
X013854Y013591D01*
X013794Y013493D02*
X013694Y013493D01*
X013694Y013394D02*
X013794Y013394D01*
X013794Y013296D02*
X013694Y013296D01*
X013694Y013197D02*
X013794Y013197D01*
X013854Y013099D02*
X013634Y013099D01*
X013368Y012816D02*
X013244Y012940D01*
X013244Y013345D01*
X012953Y013690D02*
X012535Y013690D01*
X012437Y013788D02*
X013051Y013788D01*
X012967Y013985D02*
X012521Y013985D01*
X012619Y014084D02*
X012869Y014084D01*
X012794Y014182D02*
X012694Y014182D01*
X012694Y014281D02*
X012794Y014281D01*
X012794Y014379D02*
X012694Y014379D01*
X012694Y014478D02*
X012794Y014478D01*
X012839Y014576D02*
X012649Y014576D01*
X012341Y014872D02*
X002315Y014872D01*
X002315Y014970D02*
X012440Y014970D01*
X011962Y015463D02*
X013668Y015463D01*
X013668Y015561D02*
X012037Y015561D01*
X012040Y015660D02*
X013668Y015660D01*
X013668Y015758D02*
X011722Y015758D01*
X011722Y015840D02*
X012040Y015840D01*
X012040Y016008D01*
X012030Y016046D01*
X012010Y016081D01*
X011982Y016109D01*
X011948Y016128D01*
X011910Y016138D01*
X011722Y016138D01*
X011722Y015840D01*
X011722Y015857D02*
X011625Y015857D01*
X011625Y015955D02*
X011722Y015955D01*
X011722Y016054D02*
X011625Y016054D01*
X011625Y015660D02*
X011722Y015660D01*
X011722Y015561D02*
X011625Y015561D01*
X011625Y015463D02*
X011722Y015463D01*
X012040Y015857D02*
X013668Y015857D01*
X013668Y015955D02*
X012040Y015955D01*
X012026Y016054D02*
X012670Y016054D01*
X012651Y016152D02*
X011268Y016152D01*
X011268Y016251D02*
X013127Y016251D01*
X013145Y016251D02*
X013668Y016251D01*
X013621Y016236D02*
X013145Y016236D01*
X013145Y015977D01*
X013490Y015977D01*
X013529Y015987D01*
X013563Y016007D01*
X013591Y016035D01*
X013611Y016069D01*
X013621Y016107D01*
X013621Y016236D01*
X013621Y016152D02*
X013668Y016152D01*
X013668Y016054D02*
X013602Y016054D01*
X013621Y016349D02*
X013668Y016349D01*
X013668Y016448D02*
X013595Y016448D01*
X013602Y016546D02*
X013668Y016546D01*
X013668Y016645D02*
X013621Y016645D01*
X013621Y016743D02*
X013668Y016743D01*
X013668Y016842D02*
X013621Y016842D01*
X013605Y016940D02*
X013668Y016940D01*
X013668Y017039D02*
X013595Y017039D01*
X013621Y017137D02*
X013668Y017137D01*
X013668Y017236D02*
X013621Y017236D01*
X013621Y017334D02*
X013668Y017334D01*
X013668Y017433D02*
X013613Y017433D01*
X013587Y017531D02*
X013668Y017531D01*
X013668Y017630D02*
X013621Y017630D01*
X013621Y017728D02*
X013668Y017728D01*
X013668Y017827D02*
X013621Y017827D01*
X013620Y017925D02*
X013668Y017925D01*
X013668Y018024D02*
X013580Y018024D01*
X013621Y018122D02*
X013668Y018122D01*
X013668Y018221D02*
X013621Y018221D01*
X013621Y018319D02*
X013668Y018319D01*
X013668Y018418D02*
X013621Y018418D01*
X013668Y018516D02*
X013572Y018516D01*
X013621Y018615D02*
X013668Y018615D01*
X013668Y018713D02*
X013621Y018713D01*
X013621Y018812D02*
X013668Y018812D01*
X013668Y018910D02*
X013621Y018910D01*
X013668Y019009D02*
X013565Y019009D01*
X013621Y019107D02*
X013668Y019107D01*
X013668Y019206D02*
X013621Y019206D01*
X013621Y019304D02*
X013668Y019304D01*
X013668Y019403D02*
X013621Y019403D01*
X013668Y019501D02*
X013557Y019501D01*
X013621Y019600D02*
X013668Y019600D01*
X013668Y019698D02*
X013621Y019698D01*
X013621Y019797D02*
X013668Y019797D01*
X013668Y019895D02*
X013621Y019895D01*
X013668Y019994D02*
X013552Y019994D01*
X013621Y020092D02*
X013668Y020092D01*
X013668Y020191D02*
X013621Y020191D01*
X013621Y020289D02*
X013668Y020289D01*
X013668Y020388D02*
X013621Y020388D01*
X013668Y020486D02*
X013559Y020486D01*
X014068Y020388D02*
X014257Y020388D01*
X014159Y020289D02*
X014068Y020289D01*
X014468Y019716D02*
X014468Y014916D01*
X014768Y014616D01*
X014768Y012916D01*
X014668Y012816D01*
X013368Y012816D01*
X013196Y012705D02*
X002315Y012705D01*
X002315Y012803D02*
X013098Y012803D01*
X013044Y012902D02*
X012437Y012902D01*
X012430Y012895D02*
X012694Y013158D01*
X012694Y013295D01*
X012294Y013295D01*
X012294Y013395D01*
X012194Y013395D01*
X012194Y013795D01*
X012058Y013795D01*
X011794Y013531D01*
X011794Y013395D01*
X012194Y013395D01*
X012194Y013295D01*
X011794Y013295D01*
X011794Y013158D01*
X012058Y012895D01*
X012194Y012895D01*
X012194Y013295D01*
X012294Y013295D01*
X012294Y012895D01*
X012430Y012895D01*
X012294Y012902D02*
X012194Y012902D01*
X012194Y013000D02*
X012294Y013000D01*
X012294Y013099D02*
X012194Y013099D01*
X012194Y013197D02*
X012294Y013197D01*
X012294Y013296D02*
X012794Y013296D01*
X012794Y013394D02*
X012294Y013394D01*
X012294Y013395D02*
X012694Y013395D01*
X012694Y013531D01*
X012430Y013795D01*
X012294Y013795D01*
X012294Y013395D01*
X012294Y013493D02*
X012194Y013493D01*
X012194Y013591D02*
X012294Y013591D01*
X012294Y013690D02*
X012194Y013690D01*
X012194Y013788D02*
X012294Y013788D01*
X012051Y013788D02*
X002315Y013788D01*
X002315Y013690D02*
X011953Y013690D01*
X011854Y013591D02*
X002315Y013591D01*
X002315Y013493D02*
X011794Y013493D01*
X011794Y013197D02*
X002315Y013197D01*
X002315Y013099D02*
X011854Y013099D01*
X011952Y013000D02*
X002315Y013000D01*
X002315Y012902D02*
X012051Y012902D01*
X012194Y013296D02*
X002315Y013296D01*
X002315Y013394D02*
X012194Y013394D01*
X012634Y013591D02*
X012854Y013591D01*
X012794Y013493D02*
X012694Y013493D01*
X012694Y013197D02*
X012794Y013197D01*
X012854Y013099D02*
X012634Y013099D01*
X012536Y013000D02*
X012952Y013000D01*
X013638Y015069D02*
X002315Y015069D01*
X002315Y015167D02*
X013668Y015167D01*
X013668Y015266D02*
X002315Y015266D01*
X002315Y015364D02*
X013668Y015364D01*
X013145Y016054D02*
X013127Y016054D01*
X013127Y016152D02*
X013145Y016152D01*
X012651Y016349D02*
X011268Y016349D01*
X011268Y016448D02*
X012677Y016448D01*
X012670Y016546D02*
X011268Y016546D01*
X011268Y016645D02*
X012651Y016645D01*
X012651Y016743D02*
X011268Y016743D01*
X011268Y016842D02*
X012651Y016842D01*
X012667Y016940D02*
X011268Y016940D01*
X011268Y017039D02*
X012677Y017039D01*
X012651Y017137D02*
X011268Y017137D01*
X011271Y017236D02*
X012651Y017236D01*
X012651Y017334D02*
X011561Y017334D01*
X011725Y017433D02*
X012659Y017433D01*
X012685Y017531D02*
X011797Y017531D01*
X011834Y017630D02*
X012651Y017630D01*
X012651Y017728D02*
X011834Y017728D01*
X011810Y017827D02*
X012651Y017827D01*
X012652Y017925D02*
X011757Y017925D01*
X011637Y018024D02*
X012692Y018024D01*
X012651Y018122D02*
X011468Y018122D01*
X011468Y018221D02*
X012651Y018221D01*
X012651Y018319D02*
X011468Y018319D01*
X011553Y018418D02*
X012651Y018418D01*
X012575Y019206D02*
X011561Y019206D01*
X011462Y019304D02*
X012651Y019304D01*
X012651Y019403D02*
X011695Y019403D01*
X011784Y019501D02*
X012715Y019501D01*
X012601Y019600D02*
X011825Y019600D01*
X011834Y019698D02*
X012503Y019698D01*
X012404Y019797D02*
X011822Y019797D01*
X011781Y019895D02*
X012306Y019895D01*
X012207Y019994D02*
X011688Y019994D01*
X011274Y020092D02*
X012168Y020092D01*
X012168Y020191D02*
X011268Y020191D01*
X011268Y020289D02*
X012168Y020289D01*
X012168Y020388D02*
X011268Y020388D01*
X011268Y020486D02*
X012168Y020486D01*
X012168Y020585D02*
X011268Y020585D01*
X011268Y020683D02*
X012168Y020683D01*
X012168Y020782D02*
X011268Y020782D01*
X011268Y020880D02*
X012168Y020880D01*
X012168Y020979D02*
X011268Y020979D01*
X011268Y021077D02*
X012168Y021077D01*
X012168Y021176D02*
X011983Y021176D01*
X011998Y021274D02*
X012168Y021274D01*
X014668Y017137D02*
X016667Y017137D01*
X016693Y017039D02*
X014668Y017039D01*
X014668Y016940D02*
X016682Y016940D01*
X016667Y016842D02*
X014668Y016842D01*
X014668Y016743D02*
X016667Y016743D01*
X016667Y016645D02*
X014668Y016645D01*
X014668Y016546D02*
X016685Y016546D01*
X016690Y016448D02*
X014668Y016448D01*
X014668Y016349D02*
X016667Y016349D01*
X016667Y016251D02*
X014668Y016251D01*
X014668Y016152D02*
X016667Y016152D01*
X016678Y016054D02*
X014668Y016054D01*
X014668Y015955D02*
X020125Y015955D01*
X020125Y015857D02*
X014668Y015857D01*
X014668Y015758D02*
X020125Y015758D01*
X020125Y015660D02*
X014668Y015660D01*
X014668Y015561D02*
X020125Y015561D01*
X020125Y015463D02*
X014668Y015463D01*
X014668Y015364D02*
X020125Y015364D01*
X020125Y015266D02*
X014668Y015266D01*
X014668Y015167D02*
X020125Y015167D01*
X020125Y015069D02*
X014668Y015069D01*
X014696Y014970D02*
X020125Y014970D01*
X020125Y014872D02*
X014795Y014872D01*
X014893Y014773D02*
X020125Y014773D01*
X020125Y014675D02*
X019163Y014675D01*
X019211Y014655D02*
X019026Y014732D01*
X018121Y014732D01*
X017937Y014655D01*
X017795Y014514D01*
X017719Y014329D01*
X017719Y014129D01*
X017795Y013944D01*
X017937Y013803D01*
X018121Y013727D01*
X019026Y013727D01*
X019211Y013803D01*
X019352Y013944D01*
X019429Y014129D01*
X019429Y014329D01*
X019352Y014514D01*
X019211Y014655D01*
X019290Y014576D02*
X020125Y014576D01*
X020125Y014478D02*
X019367Y014478D01*
X019408Y014379D02*
X020125Y014379D01*
X020125Y014281D02*
X019429Y014281D01*
X019429Y014182D02*
X020125Y014182D01*
X020125Y014084D02*
X019410Y014084D01*
X019369Y013985D02*
X020125Y013985D01*
X020125Y013887D02*
X019295Y013887D01*
X019175Y013788D02*
X020125Y013788D01*
X020125Y013690D02*
X014968Y013690D01*
X014968Y013788D02*
X017972Y013788D01*
X017853Y013887D02*
X014968Y013887D01*
X014968Y013985D02*
X017778Y013985D01*
X017738Y014084D02*
X014968Y014084D01*
X014968Y014182D02*
X017719Y014182D01*
X017719Y014281D02*
X014968Y014281D01*
X014968Y014379D02*
X017740Y014379D01*
X017781Y014478D02*
X014968Y014478D01*
X014968Y014576D02*
X017858Y014576D01*
X017984Y014675D02*
X014968Y014675D01*
X014568Y013788D02*
X014437Y013788D01*
X014535Y013690D02*
X014568Y013690D01*
X014968Y013591D02*
X020125Y013591D01*
X020125Y013493D02*
X014968Y013493D01*
X014968Y013394D02*
X020125Y013394D01*
X020125Y013296D02*
X014968Y013296D01*
X014968Y013197D02*
X020125Y013197D01*
X020125Y013099D02*
X014968Y013099D01*
X014968Y013000D02*
X020125Y013000D01*
X020125Y012902D02*
X014968Y012902D01*
X014939Y012803D02*
X020125Y012803D01*
X020125Y012705D02*
X019161Y012705D01*
X019190Y012690D02*
X019119Y012726D01*
X019044Y012751D01*
X018966Y012763D01*
X018624Y012763D01*
X018624Y012311D01*
X018524Y012311D01*
X018524Y012763D01*
X018182Y012763D01*
X018104Y012751D01*
X018028Y012726D01*
X017958Y012690D01*
X017894Y012644D01*
X017838Y012588D01*
X017792Y012524D01*
X017756Y012454D01*
X017731Y012378D01*
X017721Y012311D01*
X002315Y012311D01*
X002315Y012409D02*
X017741Y012409D01*
X017721Y012311D02*
X018524Y012311D01*
X018624Y012311D01*
X019427Y012311D01*
X020125Y012311D01*
X020125Y012409D02*
X019406Y012409D01*
X019417Y012378D02*
X019392Y012454D01*
X019356Y012524D01*
X019310Y012588D01*
X019254Y012644D01*
X019190Y012690D01*
X019291Y012606D02*
X020125Y012606D01*
X020125Y012508D02*
X019364Y012508D01*
X019417Y012378D02*
X019427Y012311D01*
X019427Y012211D02*
X018624Y012211D01*
X018624Y012311D01*
X018624Y012409D02*
X018524Y012409D01*
X018524Y012311D02*
X018524Y012211D01*
X017721Y012211D01*
X017731Y012143D01*
X017756Y012068D01*
X017792Y011997D01*
X017838Y011933D01*
X017894Y011877D01*
X017958Y011831D01*
X018028Y011795D01*
X018104Y011770D01*
X018182Y011758D01*
X018524Y011758D01*
X018524Y012211D01*
X018624Y012211D01*
X018624Y011758D01*
X018966Y011758D01*
X019044Y011770D01*
X019119Y011795D01*
X019190Y011831D01*
X019254Y011877D01*
X019310Y011933D01*
X019356Y011997D01*
X019392Y012068D01*
X019417Y012143D01*
X019427Y012211D01*
X019407Y012114D02*
X020125Y012114D01*
X020125Y012212D02*
X018624Y012212D01*
X018624Y012114D02*
X018524Y012114D01*
X018524Y012212D02*
X002315Y012212D01*
X002315Y012114D02*
X017741Y012114D01*
X017782Y012015D02*
X002315Y012015D01*
X002315Y011917D02*
X017854Y011917D01*
X017982Y011818D02*
X002315Y011818D01*
X002315Y011720D02*
X020125Y011720D01*
X020125Y011818D02*
X019165Y011818D01*
X019293Y011917D02*
X020125Y011917D01*
X020125Y012015D02*
X019365Y012015D01*
X018624Y012015D02*
X018524Y012015D01*
X018524Y011917D02*
X018624Y011917D01*
X018624Y011818D02*
X018524Y011818D01*
X018524Y012508D02*
X018624Y012508D01*
X018624Y012606D02*
X018524Y012606D01*
X018524Y012705D02*
X018624Y012705D01*
X017986Y012705D02*
X014840Y012705D01*
X017783Y012508D02*
X002315Y012508D01*
X002315Y012606D02*
X017856Y012606D01*
X020125Y011621D02*
X002315Y011621D01*
X002315Y011523D02*
X020125Y011523D01*
X020125Y011424D02*
X002315Y011424D01*
X002315Y011326D02*
X020125Y011326D01*
X020125Y011227D02*
X002315Y011227D01*
X002315Y011129D02*
X020125Y011129D01*
X020125Y011030D02*
X002315Y011030D01*
X002315Y010932D02*
X020125Y010932D01*
X020125Y010833D02*
X002315Y010833D01*
X002315Y010735D02*
X020125Y010735D01*
X020125Y010636D02*
X002315Y010636D01*
X002315Y010538D02*
X020125Y010538D01*
X020125Y010439D02*
X002315Y010439D01*
X002315Y010341D02*
X020125Y010341D01*
X020125Y010242D02*
X002315Y010242D01*
X002315Y010144D02*
X020125Y010144D01*
X020125Y010045D02*
X002315Y010045D01*
X002315Y009947D02*
X020125Y009947D01*
X020125Y009848D02*
X002315Y009848D01*
X002315Y009750D02*
X020125Y009750D01*
X020125Y009651D02*
X002315Y009651D01*
X002315Y009553D02*
X020125Y009553D01*
X020125Y009454D02*
X002315Y009454D01*
X002315Y009356D02*
X020125Y009356D01*
X020125Y009257D02*
X002315Y009257D01*
X002315Y009159D02*
X020125Y009159D01*
X020125Y009060D02*
X002315Y009060D01*
X002315Y008962D02*
X020125Y008962D01*
X020125Y008863D02*
X002315Y008863D01*
X002315Y008765D02*
X020125Y008765D01*
X020125Y008666D02*
X002315Y008666D01*
X002315Y008568D02*
X020125Y008568D01*
X020125Y008469D02*
X002315Y008469D01*
X002315Y008371D02*
X020125Y008371D01*
X020125Y008272D02*
X002315Y008272D01*
X002315Y008174D02*
X020125Y008174D01*
X020125Y008075D02*
X002315Y008075D01*
X002315Y007977D02*
X020125Y007977D01*
X020125Y007878D02*
X002315Y007878D01*
X002315Y007780D02*
X020125Y007780D01*
X020125Y007681D02*
X019662Y007681D01*
X019733Y007652D02*
X019446Y007771D01*
X019136Y007771D01*
X018849Y007652D01*
X018630Y007432D01*
X018511Y007146D01*
X018511Y006836D01*
X018630Y006549D01*
X018849Y006329D01*
X019136Y006211D01*
X019446Y006211D01*
X019733Y006329D01*
X019952Y006549D01*
X020071Y006836D01*
X020071Y007146D01*
X019952Y007432D01*
X019733Y007652D01*
X019802Y007583D02*
X020125Y007583D01*
X020125Y007484D02*
X019900Y007484D01*
X019971Y007386D02*
X020125Y007386D01*
X020125Y007287D02*
X020012Y007287D01*
X020053Y007189D02*
X020125Y007189D01*
X020125Y007090D02*
X020071Y007090D01*
X020071Y006992D02*
X020125Y006992D01*
X020125Y006893D02*
X020071Y006893D01*
X020054Y006795D02*
X020125Y006795D01*
X020125Y006696D02*
X020013Y006696D01*
X019972Y006598D02*
X020125Y006598D01*
X020125Y006597D02*
X020115Y006466D01*
X020034Y006218D01*
X019881Y006007D01*
X019670Y005854D01*
X019422Y005773D01*
X019291Y005763D01*
X003149Y005763D01*
X003019Y005773D01*
X002771Y005854D01*
X002559Y006007D01*
X002406Y006218D01*
X002325Y006466D01*
X002315Y006597D01*
X002315Y037109D01*
X002325Y037239D01*
X002406Y037488D01*
X002559Y037699D01*
X002771Y037852D01*
X003019Y037933D01*
X003149Y037943D01*
X019291Y037943D01*
X019422Y037933D01*
X019670Y037852D01*
X019881Y037699D01*
X020034Y037488D01*
X020115Y037239D01*
X020125Y037109D01*
X020125Y006597D01*
X020118Y006499D02*
X019903Y006499D01*
X019804Y006401D02*
X020094Y006401D01*
X020062Y006302D02*
X019667Y006302D01*
X019881Y006007D02*
X002560Y006007D01*
X002488Y006105D02*
X019952Y006105D01*
X020024Y006204D02*
X002416Y006204D01*
X002379Y006302D02*
X003167Y006302D01*
X003101Y006329D02*
X003388Y006211D01*
X003698Y006211D01*
X003985Y006329D01*
X004204Y006549D01*
X004323Y006836D01*
X004323Y007146D01*
X004204Y007432D01*
X003985Y007652D01*
X003698Y007771D01*
X003388Y007771D01*
X003101Y007652D01*
X002882Y007432D01*
X002763Y007146D01*
X002763Y006836D01*
X002882Y006549D01*
X003101Y006329D01*
X003030Y006401D02*
X002347Y006401D01*
X002323Y006499D02*
X002931Y006499D01*
X002861Y006598D02*
X002315Y006598D01*
X002315Y006696D02*
X002821Y006696D01*
X002780Y006795D02*
X002315Y006795D01*
X002315Y006893D02*
X002763Y006893D01*
X002763Y006992D02*
X002315Y006992D01*
X002315Y007090D02*
X002763Y007090D01*
X002781Y007189D02*
X002315Y007189D01*
X002315Y007287D02*
X002822Y007287D01*
X002862Y007386D02*
X002315Y007386D01*
X002315Y007484D02*
X002934Y007484D01*
X003032Y007583D02*
X002315Y007583D01*
X002315Y007681D02*
X003172Y007681D01*
X003914Y007681D02*
X018920Y007681D01*
X018780Y007583D02*
X004054Y007583D01*
X004152Y007484D02*
X018682Y007484D01*
X018611Y007386D02*
X004223Y007386D01*
X004264Y007287D02*
X018570Y007287D01*
X018529Y007189D02*
X004305Y007189D01*
X004323Y007090D02*
X018511Y007090D01*
X018511Y006992D02*
X004323Y006992D01*
X004323Y006893D02*
X018511Y006893D01*
X018528Y006795D02*
X004306Y006795D01*
X004265Y006696D02*
X018569Y006696D01*
X018610Y006598D02*
X004224Y006598D01*
X004155Y006499D02*
X018679Y006499D01*
X018778Y006401D02*
X004056Y006401D01*
X003919Y006302D02*
X018915Y006302D01*
X019535Y005810D02*
X002905Y005810D01*
X002695Y005908D02*
X019745Y005908D01*
X017123Y019716D02*
X017152Y019745D01*
X017123Y020216D02*
X017152Y020245D01*
X017756Y022645D02*
X017754Y022645D01*
X017756Y022645D02*
X017776Y022647D01*
X017794Y022653D01*
X017812Y022662D01*
X017827Y022674D01*
X017581Y024229D02*
X017541Y024229D01*
X017660Y025017D02*
X020125Y025017D01*
X020125Y024919D02*
X018925Y024919D01*
X019024Y024820D02*
X020125Y024820D01*
X020125Y024722D02*
X019122Y024722D01*
X019227Y024623D02*
X019321Y024623D01*
X019283Y023244D02*
X019264Y023244D01*
X020125Y027677D02*
X002315Y027677D01*
X002315Y027775D02*
X020125Y027775D01*
X020125Y027874D02*
X002315Y027874D01*
X002315Y027972D02*
X020125Y027972D01*
X020125Y028071D02*
X002315Y028071D01*
X002315Y028169D02*
X020125Y028169D01*
X020125Y028268D02*
X002315Y028268D01*
X002315Y028366D02*
X020125Y028366D01*
X020125Y028465D02*
X002315Y028465D01*
X002315Y028563D02*
X020125Y028563D01*
X020125Y028662D02*
X002315Y028662D01*
X002315Y028760D02*
X020125Y028760D01*
X020125Y028859D02*
X002315Y028859D01*
X002315Y028957D02*
X020125Y028957D01*
X020125Y029056D02*
X002315Y029056D01*
X002315Y029154D02*
X020125Y029154D01*
X020125Y029253D02*
X002315Y029253D01*
X002315Y029351D02*
X020125Y029351D01*
X020125Y029450D02*
X002315Y029450D01*
X002315Y029548D02*
X020125Y029548D01*
X020125Y029647D02*
X002315Y029647D01*
X002315Y029745D02*
X020125Y029745D01*
X020125Y029844D02*
X002315Y029844D01*
X002315Y029942D02*
X020125Y029942D01*
X020125Y030041D02*
X002315Y030041D01*
X002315Y030139D02*
X020125Y030139D01*
X020125Y030238D02*
X002315Y030238D01*
X002315Y030336D02*
X020125Y030336D01*
X020125Y030435D02*
X002315Y030435D01*
X002315Y030533D02*
X020125Y030533D01*
X020125Y030632D02*
X017893Y030632D01*
X017930Y030647D02*
X018082Y030799D01*
X018164Y030997D01*
X018164Y031992D01*
X018082Y032191D01*
X017930Y032343D01*
X017731Y032425D01*
X017516Y032425D01*
X017318Y032343D01*
X017166Y032191D01*
X017084Y031992D01*
X017084Y030997D01*
X017166Y030799D01*
X017318Y030647D01*
X017516Y030565D01*
X017731Y030565D01*
X017930Y030647D01*
X018013Y030730D02*
X020125Y030730D01*
X020125Y030829D02*
X018094Y030829D01*
X018135Y030927D02*
X020125Y030927D01*
X020125Y031026D02*
X018164Y031026D01*
X018164Y031124D02*
X020125Y031124D01*
X020125Y031223D02*
X018164Y031223D01*
X018164Y031321D02*
X020125Y031321D01*
X020125Y031420D02*
X018164Y031420D01*
X018164Y031518D02*
X020125Y031518D01*
X020125Y031617D02*
X018164Y031617D01*
X018164Y031715D02*
X020125Y031715D01*
X020125Y031814D02*
X018164Y031814D01*
X018164Y031912D02*
X020125Y031912D01*
X020125Y032011D02*
X018156Y032011D01*
X018115Y032109D02*
X020125Y032109D01*
X020125Y032208D02*
X018065Y032208D01*
X017966Y032306D02*
X020125Y032306D01*
X020125Y032405D02*
X017779Y032405D01*
X017468Y032405D02*
X013079Y032405D01*
X013031Y032425D02*
X012816Y032425D01*
X012618Y032343D01*
X012466Y032191D01*
X012384Y031992D01*
X012384Y030997D01*
X012466Y030799D01*
X012618Y030647D01*
X012816Y030565D01*
X013031Y030565D01*
X013230Y030647D01*
X013382Y030799D01*
X013464Y030997D01*
X013464Y031992D01*
X013382Y032191D01*
X013230Y032343D01*
X013031Y032425D01*
X013266Y032306D02*
X017282Y032306D01*
X017183Y032208D02*
X013365Y032208D01*
X013415Y032109D02*
X017132Y032109D01*
X017092Y032011D02*
X013456Y032011D01*
X013464Y031912D02*
X017084Y031912D01*
X017084Y031814D02*
X013464Y031814D01*
X013464Y031715D02*
X017084Y031715D01*
X017084Y031617D02*
X013464Y031617D01*
X013464Y031518D02*
X017084Y031518D01*
X017084Y031420D02*
X013464Y031420D01*
X013464Y031321D02*
X017084Y031321D01*
X017084Y031223D02*
X013464Y031223D01*
X013464Y031124D02*
X017084Y031124D01*
X017084Y031026D02*
X013464Y031026D01*
X013435Y030927D02*
X017113Y030927D01*
X017154Y030829D02*
X013394Y030829D01*
X013313Y030730D02*
X017235Y030730D01*
X017355Y030632D02*
X013193Y030632D01*
X012655Y030632D02*
X011293Y030632D01*
X011330Y030647D02*
X011482Y030799D01*
X011564Y030997D01*
X011564Y031992D01*
X011482Y032191D01*
X011330Y032343D01*
X011131Y032425D01*
X010916Y032425D01*
X010718Y032343D01*
X010566Y032191D01*
X010484Y031992D01*
X010484Y030997D01*
X010566Y030799D01*
X010718Y030647D01*
X010916Y030565D01*
X011131Y030565D01*
X011330Y030647D01*
X011413Y030730D02*
X012535Y030730D01*
X012454Y030829D02*
X011494Y030829D01*
X011535Y030927D02*
X012413Y030927D01*
X012384Y031026D02*
X011564Y031026D01*
X011564Y031124D02*
X012384Y031124D01*
X012384Y031223D02*
X011564Y031223D01*
X011564Y031321D02*
X012384Y031321D01*
X012384Y031420D02*
X011564Y031420D01*
X011564Y031518D02*
X012384Y031518D01*
X012384Y031617D02*
X011564Y031617D01*
X011564Y031715D02*
X012384Y031715D01*
X012384Y031814D02*
X011564Y031814D01*
X011564Y031912D02*
X012384Y031912D01*
X012392Y032011D02*
X011556Y032011D01*
X011515Y032109D02*
X012432Y032109D01*
X012483Y032208D02*
X011465Y032208D01*
X011366Y032306D02*
X012582Y032306D01*
X012768Y032405D02*
X011179Y032405D01*
X010868Y032405D02*
X006479Y032405D01*
X006431Y032425D02*
X006216Y032425D01*
X006018Y032343D01*
X005866Y032191D01*
X005784Y031992D01*
X005784Y030997D01*
X005866Y030799D01*
X006018Y030647D01*
X006216Y030565D01*
X006431Y030565D01*
X006630Y030647D01*
X006782Y030799D01*
X006864Y030997D01*
X006864Y031992D01*
X006782Y032191D01*
X006630Y032343D01*
X006431Y032425D01*
X006666Y032306D02*
X010682Y032306D01*
X010583Y032208D02*
X006765Y032208D01*
X006815Y032109D02*
X010532Y032109D01*
X010492Y032011D02*
X006856Y032011D01*
X006864Y031912D02*
X010484Y031912D01*
X010484Y031814D02*
X006864Y031814D01*
X006864Y031715D02*
X010484Y031715D01*
X010484Y031617D02*
X006864Y031617D01*
X006864Y031518D02*
X010484Y031518D01*
X010484Y031420D02*
X006864Y031420D01*
X006864Y031321D02*
X010484Y031321D01*
X010484Y031223D02*
X006864Y031223D01*
X006864Y031124D02*
X010484Y031124D01*
X010484Y031026D02*
X006864Y031026D01*
X006835Y030927D02*
X010513Y030927D01*
X010554Y030829D02*
X006794Y030829D01*
X006713Y030730D02*
X010635Y030730D01*
X010755Y030632D02*
X006593Y030632D01*
X006055Y030632D02*
X002315Y030632D01*
X002315Y030730D02*
X005935Y030730D01*
X005854Y030829D02*
X002315Y030829D01*
X002315Y030927D02*
X005813Y030927D01*
X005784Y031026D02*
X002315Y031026D01*
X002315Y031124D02*
X005784Y031124D01*
X005784Y031223D02*
X002315Y031223D01*
X002315Y031321D02*
X005784Y031321D01*
X005784Y031420D02*
X002315Y031420D01*
X002315Y031518D02*
X005784Y031518D01*
X005784Y031617D02*
X002315Y031617D01*
X002315Y031715D02*
X005784Y031715D01*
X005784Y031814D02*
X002315Y031814D01*
X002315Y031912D02*
X005784Y031912D01*
X005792Y032011D02*
X002315Y032011D01*
X002315Y032109D02*
X005832Y032109D01*
X005883Y032208D02*
X002315Y032208D01*
X002315Y032306D02*
X005982Y032306D01*
X006168Y032405D02*
X002315Y032405D01*
X002315Y032503D02*
X020125Y032503D01*
X020125Y032602D02*
X002315Y032602D01*
X002315Y032700D02*
X020125Y032700D01*
X020125Y032799D02*
X002315Y032799D01*
X002315Y032897D02*
X020125Y032897D01*
X020125Y032996D02*
X002315Y032996D01*
X002315Y033094D02*
X020125Y033094D01*
X020125Y033193D02*
X002315Y033193D01*
X002315Y033291D02*
X020125Y033291D01*
X020125Y033390D02*
X002315Y033390D01*
X002315Y033488D02*
X020125Y033488D01*
X020125Y033587D02*
X002315Y033587D01*
X002315Y033685D02*
X020125Y033685D01*
X020125Y033784D02*
X002315Y033784D01*
X002315Y033882D02*
X020125Y033882D01*
X020125Y033981D02*
X002315Y033981D01*
X002315Y034079D02*
X020125Y034079D01*
X020125Y034178D02*
X002315Y034178D01*
X002315Y034276D02*
X020125Y034276D01*
X020125Y034375D02*
X002315Y034375D01*
X002315Y034473D02*
X020125Y034473D01*
X020125Y034572D02*
X019482Y034572D01*
X019446Y034557D02*
X019733Y034676D01*
X019952Y034895D01*
X020071Y035182D01*
X020071Y035492D01*
X019952Y035779D01*
X019733Y035998D01*
X019446Y036117D01*
X019136Y036117D01*
X018849Y035998D01*
X018630Y035779D01*
X018511Y035492D01*
X018511Y035182D01*
X018630Y034895D01*
X018849Y034676D01*
X019136Y034557D01*
X019446Y034557D01*
X019100Y034572D02*
X003340Y034572D01*
X003304Y034557D02*
X003591Y034676D01*
X003810Y034895D01*
X003929Y035182D01*
X003929Y035492D01*
X003810Y035779D01*
X003591Y035998D01*
X003304Y036117D01*
X002994Y036117D01*
X002707Y035998D01*
X002488Y035779D01*
X002369Y035492D01*
X002369Y035182D01*
X002488Y034895D01*
X002707Y034676D01*
X002994Y034557D01*
X003304Y034557D01*
X003578Y034670D02*
X018862Y034670D01*
X018756Y034769D02*
X003684Y034769D01*
X003783Y034867D02*
X018658Y034867D01*
X018601Y034966D02*
X003840Y034966D01*
X003881Y035064D02*
X018560Y035064D01*
X018519Y035163D02*
X010765Y035163D01*
X010762Y035162D02*
X010947Y035238D01*
X011088Y035380D01*
X011165Y035565D01*
X011165Y036469D01*
X011088Y036654D01*
X010947Y036795D01*
X010762Y036872D01*
X010562Y036872D01*
X010378Y036795D01*
X010236Y036654D01*
X010160Y036469D01*
X010160Y035565D01*
X010236Y035380D01*
X010378Y035238D01*
X010562Y035162D01*
X010762Y035162D01*
X010560Y035163D02*
X008796Y035163D01*
X008794Y035162D02*
X008979Y035238D01*
X009120Y035380D01*
X009196Y035565D01*
X009196Y036469D01*
X009120Y036654D01*
X008979Y036795D01*
X008794Y036872D01*
X008594Y036872D01*
X008409Y036795D01*
X008268Y036654D01*
X008191Y036469D01*
X008191Y035565D01*
X008268Y035380D01*
X008409Y035238D01*
X008594Y035162D01*
X008794Y035162D01*
X008592Y035163D02*
X006828Y035163D01*
X006825Y035162D02*
X007010Y035238D01*
X007151Y035380D01*
X007228Y035565D01*
X007228Y036469D01*
X007151Y036654D01*
X007010Y036795D01*
X006825Y036872D01*
X006625Y036872D01*
X006441Y036795D01*
X006299Y036654D01*
X006223Y036469D01*
X006223Y035565D01*
X006299Y035380D01*
X006441Y035238D01*
X006625Y035162D01*
X006825Y035162D01*
X006623Y035163D02*
X003921Y035163D01*
X003929Y035261D02*
X006418Y035261D01*
X006319Y035360D02*
X003929Y035360D01*
X003929Y035458D02*
X006267Y035458D01*
X006226Y035557D02*
X003902Y035557D01*
X003862Y035655D02*
X006223Y035655D01*
X006223Y035754D02*
X003821Y035754D01*
X003737Y035852D02*
X006223Y035852D01*
X006223Y035951D02*
X003638Y035951D01*
X003468Y036049D02*
X006223Y036049D01*
X006223Y036148D02*
X002315Y036148D01*
X002315Y036246D02*
X006223Y036246D01*
X006223Y036345D02*
X002315Y036345D01*
X002315Y036443D02*
X006223Y036443D01*
X006253Y036542D02*
X002315Y036542D01*
X002315Y036640D02*
X006294Y036640D01*
X006384Y036739D02*
X002315Y036739D01*
X002315Y036837D02*
X006542Y036837D01*
X006909Y036837D02*
X008510Y036837D01*
X008353Y036739D02*
X007067Y036739D01*
X007157Y036640D02*
X008262Y036640D01*
X008221Y036542D02*
X007198Y036542D01*
X007228Y036443D02*
X008191Y036443D01*
X008191Y036345D02*
X007228Y036345D01*
X007228Y036246D02*
X008191Y036246D01*
X008191Y036148D02*
X007228Y036148D01*
X007228Y036049D02*
X008191Y036049D01*
X008191Y035951D02*
X007228Y035951D01*
X007228Y035852D02*
X008191Y035852D01*
X008191Y035754D02*
X007228Y035754D01*
X007228Y035655D02*
X008191Y035655D01*
X008195Y035557D02*
X007225Y035557D01*
X007184Y035458D02*
X008235Y035458D01*
X008288Y035360D02*
X007131Y035360D01*
X007033Y035261D02*
X008386Y035261D01*
X009001Y035261D02*
X010355Y035261D01*
X010256Y035360D02*
X009100Y035360D01*
X009152Y035458D02*
X010204Y035458D01*
X010163Y035557D02*
X009193Y035557D01*
X009196Y035655D02*
X010160Y035655D01*
X010160Y035754D02*
X009196Y035754D01*
X009196Y035852D02*
X010160Y035852D01*
X010160Y035951D02*
X009196Y035951D01*
X009196Y036049D02*
X010160Y036049D01*
X010160Y036148D02*
X009196Y036148D01*
X009196Y036246D02*
X010160Y036246D01*
X010160Y036345D02*
X009196Y036345D01*
X009196Y036443D02*
X010160Y036443D01*
X010190Y036542D02*
X009166Y036542D01*
X009126Y036640D02*
X010231Y036640D01*
X010321Y036739D02*
X009035Y036739D01*
X008877Y036837D02*
X010479Y036837D01*
X010846Y036837D02*
X013074Y036837D01*
X013021Y036815D02*
X012879Y036674D01*
X012803Y036489D01*
X012803Y035585D01*
X012879Y035400D01*
X013021Y035258D01*
X013205Y035182D01*
X013405Y035182D01*
X013590Y035258D01*
X013731Y035400D01*
X013808Y035585D01*
X013808Y036489D01*
X013731Y036674D01*
X013590Y036815D01*
X013405Y036892D01*
X013205Y036892D01*
X013021Y036815D01*
X012944Y036739D02*
X011004Y036739D01*
X011094Y036640D02*
X012865Y036640D01*
X012825Y036542D02*
X011135Y036542D01*
X011165Y036443D02*
X012803Y036443D01*
X012803Y036345D02*
X011165Y036345D01*
X011165Y036246D02*
X012803Y036246D01*
X012803Y036148D02*
X011165Y036148D01*
X011165Y036049D02*
X012803Y036049D01*
X012803Y035951D02*
X011165Y035951D01*
X011165Y035852D02*
X012803Y035852D01*
X012803Y035754D02*
X011165Y035754D01*
X011165Y035655D02*
X012803Y035655D01*
X012814Y035557D02*
X011162Y035557D01*
X011121Y035458D02*
X012855Y035458D01*
X012919Y035360D02*
X011068Y035360D01*
X010970Y035261D02*
X013018Y035261D01*
X013593Y035261D02*
X014986Y035261D01*
X014989Y035258D02*
X015174Y035182D01*
X015374Y035182D01*
X015559Y035258D01*
X015700Y035400D01*
X015776Y035585D01*
X015776Y036489D01*
X015700Y036674D01*
X015559Y036815D01*
X015374Y036892D01*
X015174Y036892D01*
X014989Y036815D01*
X014848Y036674D01*
X014771Y036489D01*
X014771Y035585D01*
X014848Y035400D01*
X014989Y035258D01*
X014888Y035360D02*
X013691Y035360D01*
X013756Y035458D02*
X014824Y035458D01*
X014783Y035557D02*
X013796Y035557D01*
X013808Y035655D02*
X014771Y035655D01*
X014771Y035754D02*
X013808Y035754D01*
X013808Y035852D02*
X014771Y035852D01*
X014771Y035951D02*
X013808Y035951D01*
X013808Y036049D02*
X014771Y036049D01*
X014771Y036148D02*
X013808Y036148D01*
X013808Y036246D02*
X014771Y036246D01*
X014771Y036345D02*
X013808Y036345D01*
X013808Y036443D02*
X014771Y036443D01*
X014793Y036542D02*
X013786Y036542D01*
X013745Y036640D02*
X014834Y036640D01*
X014913Y036739D02*
X013667Y036739D01*
X013537Y036837D02*
X015042Y036837D01*
X015506Y036837D02*
X017011Y036837D01*
X016958Y036815D02*
X016816Y036674D01*
X016740Y036489D01*
X016740Y035585D01*
X016816Y035400D01*
X016958Y035258D01*
X017142Y035182D01*
X017342Y035182D01*
X017527Y035258D01*
X017668Y035400D01*
X017745Y035585D01*
X017745Y036489D01*
X017668Y036674D01*
X017527Y036815D01*
X017342Y036892D01*
X017142Y036892D01*
X016958Y036815D01*
X016881Y036739D02*
X015635Y036739D01*
X015714Y036640D02*
X016802Y036640D01*
X016762Y036542D02*
X015755Y036542D01*
X015776Y036443D02*
X016740Y036443D01*
X016740Y036345D02*
X015776Y036345D01*
X015776Y036246D02*
X016740Y036246D01*
X016740Y036148D02*
X015776Y036148D01*
X015776Y036049D02*
X016740Y036049D01*
X016740Y035951D02*
X015776Y035951D01*
X015776Y035852D02*
X016740Y035852D01*
X016740Y035754D02*
X015776Y035754D01*
X015776Y035655D02*
X016740Y035655D01*
X016751Y035557D02*
X015765Y035557D01*
X015724Y035458D02*
X016792Y035458D01*
X016856Y035360D02*
X015660Y035360D01*
X015561Y035261D02*
X016955Y035261D01*
X017530Y035261D02*
X018511Y035261D01*
X018511Y035360D02*
X017628Y035360D01*
X017693Y035458D02*
X018511Y035458D01*
X018538Y035557D02*
X017733Y035557D01*
X017745Y035655D02*
X018579Y035655D01*
X018619Y035754D02*
X017745Y035754D01*
X017745Y035852D02*
X018703Y035852D01*
X018802Y035951D02*
X017745Y035951D01*
X017745Y036049D02*
X018973Y036049D01*
X019609Y036049D02*
X020125Y036049D01*
X020125Y035951D02*
X019780Y035951D01*
X019879Y035852D02*
X020125Y035852D01*
X020125Y035754D02*
X019963Y035754D01*
X020003Y035655D02*
X020125Y035655D01*
X020125Y035557D02*
X020044Y035557D01*
X020071Y035458D02*
X020125Y035458D01*
X020125Y035360D02*
X020071Y035360D01*
X020071Y035261D02*
X020125Y035261D01*
X020125Y035163D02*
X020063Y035163D01*
X020022Y035064D02*
X020125Y035064D01*
X020125Y034966D02*
X019981Y034966D01*
X019924Y034867D02*
X020125Y034867D01*
X020125Y034769D02*
X019826Y034769D01*
X019720Y034670D02*
X020125Y034670D01*
X020125Y036148D02*
X017745Y036148D01*
X017745Y036246D02*
X020125Y036246D01*
X020125Y036345D02*
X017745Y036345D01*
X017745Y036443D02*
X020125Y036443D01*
X020125Y036542D02*
X017723Y036542D01*
X017682Y036640D02*
X020125Y036640D01*
X020125Y036739D02*
X017604Y036739D01*
X017474Y036837D02*
X020125Y036837D01*
X020125Y036936D02*
X002315Y036936D01*
X002315Y037034D02*
X020125Y037034D01*
X020123Y037133D02*
X002317Y037133D01*
X002325Y037231D02*
X020116Y037231D01*
X020086Y037330D02*
X002355Y037330D01*
X002387Y037428D02*
X020054Y037428D01*
X020006Y037527D02*
X002435Y037527D01*
X002506Y037625D02*
X019934Y037625D01*
X019846Y037724D02*
X002594Y037724D01*
X002730Y037822D02*
X019711Y037822D01*
X019670Y037852D02*
X019670Y037852D01*
X019458Y037921D02*
X002982Y037921D01*
X002831Y036049D02*
X002315Y036049D01*
X002315Y035951D02*
X002660Y035951D01*
X002562Y035852D02*
X002315Y035852D01*
X002315Y035754D02*
X002478Y035754D01*
X002437Y035655D02*
X002315Y035655D01*
X002315Y035557D02*
X002396Y035557D01*
X002369Y035458D02*
X002315Y035458D01*
X002315Y035360D02*
X002369Y035360D01*
X002369Y035261D02*
X002315Y035261D01*
X002315Y035163D02*
X002377Y035163D01*
X002418Y035064D02*
X002315Y035064D01*
X002315Y034966D02*
X002459Y034966D01*
X002516Y034867D02*
X002315Y034867D01*
X002315Y034769D02*
X002614Y034769D01*
X002721Y034670D02*
X002315Y034670D01*
X002315Y034572D02*
X002959Y034572D01*
X006864Y026298D02*
X006920Y026298D01*
X006864Y026199D02*
X007019Y026199D01*
X007117Y026101D02*
X006824Y026101D01*
X006783Y026002D02*
X007216Y026002D01*
X007268Y025904D02*
X006687Y025904D01*
X006529Y025805D02*
X007268Y025805D01*
X008068Y024919D02*
X009140Y024919D01*
X009140Y025017D02*
X008908Y025017D01*
X009049Y025116D02*
X009140Y025116D01*
X009138Y025214D02*
X009140Y025214D01*
X009140Y024820D02*
X008068Y024820D01*
X008068Y024722D02*
X009140Y024722D01*
X009140Y024623D02*
X008068Y024623D01*
X009212Y026396D02*
X009229Y026396D01*
X009261Y026474D02*
X009261Y026474D01*
X009282Y026495D02*
X009171Y026495D01*
X009129Y026593D02*
X009380Y026593D01*
X009479Y026692D02*
X009031Y026692D01*
X008864Y026790D02*
X009577Y026790D01*
X007004Y024479D02*
X006989Y024492D01*
X006973Y024502D01*
X006955Y024510D01*
X006936Y024514D01*
X006916Y024516D01*
X005996Y024443D02*
X005983Y024428D01*
X005973Y024412D01*
X005965Y024394D01*
X005961Y024375D01*
X005959Y024355D01*
X005946Y024153D02*
X005931Y024140D01*
X005915Y024130D01*
X005897Y024122D01*
X005878Y024118D01*
X005858Y024116D01*
X005651Y024328D02*
X002315Y024328D01*
X002315Y024426D02*
X005693Y024426D01*
X005795Y024525D02*
X002315Y024525D01*
X002315Y024623D02*
X005893Y024623D01*
X005562Y023835D02*
X005017Y023835D01*
X005036Y023737D02*
X005562Y023737D01*
X005562Y023638D02*
X005035Y023638D01*
X004994Y023540D02*
X005562Y023540D01*
X005562Y023441D02*
X004914Y023441D01*
X011301Y015463D02*
X011386Y015463D01*
D22*
X013044Y021245D03*
X012674Y023645D03*
X015374Y024745D03*
X017035Y025199D03*
X017468Y024745D03*
X019135Y022256D03*
D23*
X017968Y022816D02*
X017826Y022674D01*
X017968Y022816D02*
X017968Y023422D01*
X018007Y024319D02*
X017608Y024319D01*
X015311Y024258D02*
X015298Y024243D01*
X015288Y024227D01*
X015280Y024209D01*
X015276Y024190D01*
X015274Y024170D01*
X015274Y024045D01*
X015310Y024258D02*
X015368Y024316D01*
X015368Y024731D01*
X015369Y024731D02*
X015370Y024738D01*
X015375Y024744D01*
X012674Y023645D02*
X012274Y023645D01*
X012174Y023745D01*
X012174Y024045D01*
X011974Y024245D01*
X011481Y024245D01*
X011407Y024319D01*
D24*
X011407Y023571D02*
X011534Y023444D01*
X011534Y022925D01*
X011854Y022605D01*
X012174Y022605D01*
X012314Y022745D01*
X012339Y022745D01*
X010541Y023945D02*
X009540Y023945D01*
X009540Y023844D01*
X009868Y023516D01*
X009868Y023216D01*
X009768Y023116D01*
X005968Y023116D01*
X005868Y023216D01*
X005868Y023534D01*
X005909Y023575D01*
X006509Y023645D02*
X006579Y023575D01*
X006509Y023645D02*
X006509Y024206D01*
X006549Y024165D01*
X014408Y024045D02*
X015274Y024045D01*
X016140Y024045D02*
X016240Y023945D01*
X016279Y022645D02*
X017754Y022645D01*
X017934Y023498D02*
X018007Y023571D01*
X017468Y024745D02*
X018774Y024745D01*
X018979Y024540D01*
X018979Y024345D01*
X018774Y023945D02*
X017141Y023945D01*
X018774Y023945D02*
X018939Y023780D01*
X018939Y023545D01*
X019609Y023545D02*
X019609Y024345D01*
X019569Y024345D01*
D25*
X017624Y026695D02*
X016924Y026695D01*
X016515Y026286D01*
X016368Y025932D02*
X016368Y023945D01*
X016140Y024045D02*
X016274Y024179D01*
X016368Y025932D02*
X016370Y025976D01*
X016376Y026019D01*
X016385Y026061D01*
X016398Y026103D01*
X016415Y026143D01*
X016435Y026182D01*
X016458Y026219D01*
X016485Y026253D01*
X016514Y026286D01*
X014368Y026153D02*
X014368Y024316D01*
X014408Y024220D02*
X014408Y024045D01*
X014408Y024220D02*
X014406Y024241D01*
X014401Y024262D01*
X014393Y024281D01*
X014382Y024299D01*
X014368Y024315D01*
X014368Y026153D02*
X014366Y026192D01*
X014360Y026230D01*
X014351Y026267D01*
X014338Y026304D01*
X014321Y026339D01*
X014302Y026372D01*
X014279Y026403D01*
X014253Y026432D01*
X014253Y026431D02*
X013968Y026716D01*
X013947Y026695D01*
X012924Y026695D01*
X010973Y026716D02*
X010068Y026716D01*
X009655Y026303D01*
X009540Y026025D02*
X009540Y023945D01*
X009540Y026025D02*
X009542Y026064D01*
X009548Y026102D01*
X009557Y026139D01*
X009570Y026176D01*
X009587Y026211D01*
X009606Y026244D01*
X009629Y026275D01*
X009655Y026304D01*
X010973Y026716D02*
X010987Y026715D01*
X011001Y026711D01*
X011013Y026704D01*
X011024Y026695D01*
X007808Y023944D02*
X007802Y023943D01*
X007796Y023941D01*
X007790Y023937D01*
X007668Y023816D01*
X007668Y026064D01*
X007632Y026152D02*
X007068Y026716D01*
X006375Y026716D01*
X006361Y026715D01*
X006347Y026711D01*
X006335Y026704D01*
X006324Y026695D01*
X007631Y026152D02*
X007644Y026137D01*
X007654Y026121D01*
X007662Y026103D01*
X007666Y026084D01*
X007668Y026064D01*
D26*
X004668Y023716D03*
X015274Y024045D03*
X015868Y020716D03*
D27*
X016240Y023945D02*
X016368Y023945D01*
X017141Y023945D01*
M02*
